<svg width="353" height="253" viewBox="0 0 353 253" fill="none" xmlns="http://www.w3.org/2000/svg">
<path d="M50.0705 35.9306C76.1993 23.2506 113.634 27.2001 152.576 16.8066C191.518 6.41312 226.441 -3.29313 257.595 1.07212C288.497 5.43738 315.127 23.6663 331.709 59.0041C348.04 94.5498 359.597 131.966 348.793 165.433C337.99 198.9 304.575 228.21 265.633 242.137C226.44 256.064 181.217 254.609 136.497 248.789C91.7761 242.969 47.0557 232.575 23.4392 208.462C-0.428461 184.142 -3.44333 146.101 2.83764 112.219C8.86737 78.336 23.9417 48.8185 50.0705 35.9306Z" fill="#F75759"/>
<path d="M48.6019 106.328C48.3033 107.224 47.7806 107.923 47.0339 108.424C46.2873 108.915 45.4019 109.16 44.3779 109.16C43.4073 109.16 42.5646 108.941 41.8499 108.504C41.1353 108.056 40.5753 107.427 40.1699 106.616C39.7753 105.805 39.5779 104.84 39.5779 103.72C39.5779 102.6 39.7753 101.635 40.1699 100.824C40.5753 100.013 41.1353 99.3893 41.8499 98.952C42.5646 98.504 43.4019 98.28 44.3619 98.28C46.4846 98.28 47.8499 99.1493 48.4579 100.888L47.6739 101.256C47.4286 100.52 47.0393 99.9653 46.5059 99.592C45.9726 99.208 45.2739 99.016 44.4099 99.016C43.6206 99.016 42.9219 99.208 42.3139 99.592C41.7166 99.9653 41.2526 100.504 40.9219 101.208C40.5913 101.912 40.4259 102.749 40.4259 103.72C40.4259 104.691 40.5859 105.528 40.9059 106.232C41.2366 106.936 41.6953 107.48 42.2819 107.864C42.8793 108.237 43.5779 108.424 44.3779 108.424C45.2313 108.424 45.9566 108.221 46.5539 107.816C47.1513 107.4 47.5673 106.803 47.8019 106.024L48.6019 106.328ZM50.7131 109V97.32H51.5131V102.632C51.7477 102.067 52.1264 101.629 52.6491 101.32C53.1717 101 53.7744 100.84 54.4571 100.84C55.3424 100.84 56.0731 101.091 56.6491 101.592C57.2251 102.083 57.5131 102.819 57.5131 103.8V109H56.7131V104.056C56.7131 103.181 56.4944 102.541 56.0571 102.136C55.6197 101.731 55.0597 101.528 54.3771 101.528C53.8757 101.528 53.4064 101.645 52.9691 101.88C52.5317 102.115 52.1797 102.451 51.9131 102.888C51.6464 103.325 51.5131 103.859 51.5131 104.488V109H50.7131ZM65.1716 103.736C65.1716 103.053 64.9849 102.52 64.6116 102.136C64.2382 101.741 63.7049 101.544 63.0116 101.544C62.4036 101.544 61.8756 101.677 61.4276 101.944C60.9902 102.211 60.6702 102.643 60.4676 103.24L59.8116 102.824C60.0462 102.195 60.4356 101.709 60.9796 101.368C61.5342 101.016 62.2169 100.84 63.0276 100.84C63.9022 100.84 64.6116 101.075 65.1556 101.544C65.6996 102.003 65.9716 102.685 65.9716 103.592V107.592C65.9716 108.157 66.2276 108.44 66.7396 108.44C66.9636 108.44 67.1556 108.403 67.3156 108.328L67.2676 108.968C67.0862 109.064 66.8516 109.112 66.5636 109.112C66.2116 109.112 65.8969 109.011 65.6196 108.808C65.3422 108.605 65.1876 108.237 65.1556 107.704C64.8889 108.205 64.4889 108.573 63.9556 108.808C63.4222 109.043 62.8836 109.16 62.3396 109.16C61.5822 109.16 60.9582 108.984 60.4676 108.632C59.9769 108.28 59.7316 107.768 59.7316 107.096C59.7316 106.488 59.9342 106.003 60.3396 105.64C60.7449 105.277 61.3049 105.027 62.0196 104.888L65.1716 104.264V103.736ZM60.5476 107.032C60.5476 107.48 60.7129 107.832 61.0436 108.088C61.3742 108.333 61.8436 108.456 62.4516 108.456C62.8676 108.456 63.2836 108.381 63.6996 108.232C64.1262 108.072 64.4782 107.827 64.7556 107.496C65.0329 107.155 65.1716 106.717 65.1716 106.184V104.936L62.4196 105.48C61.7902 105.608 61.3209 105.795 61.0116 106.04C60.7022 106.285 60.5476 106.616 60.5476 107.032ZM68.9631 109V101H69.6831L69.7311 102.6C69.9764 102.035 70.3657 101.603 70.8991 101.304C71.4324 100.995 72.0351 100.84 72.7071 100.84C73.5924 100.84 74.3231 101.091 74.8991 101.592C75.4751 102.093 75.7631 102.835 75.7631 103.816V109H74.9631V104.072C74.9631 103.197 74.7444 102.557 74.3071 102.152C73.8697 101.747 73.3097 101.544 72.6271 101.544C72.1257 101.544 71.6564 101.661 71.2191 101.896C70.7817 102.12 70.4297 102.451 70.1631 102.888C69.8964 103.325 69.7631 103.859 69.7631 104.488V109H68.9631ZM82.6216 108.184C83.4109 108.184 84.0296 108.355 84.4776 108.696C84.9256 109.027 85.1496 109.464 85.1496 110.008C85.1496 110.499 84.9842 110.925 84.6536 111.288C84.3336 111.661 83.8856 111.944 83.3096 112.136C82.7442 112.339 82.1042 112.44 81.3896 112.44C80.1736 112.44 79.2456 112.232 78.6056 111.816C77.9762 111.411 77.6616 110.899 77.6616 110.28C77.6616 109.875 77.7949 109.517 78.0616 109.208C78.3282 108.899 78.7176 108.685 79.2296 108.568C78.9522 108.461 78.7122 108.301 78.5096 108.088C78.3176 107.875 78.2216 107.587 78.2216 107.224C78.2216 106.861 78.3336 106.547 78.5576 106.28C78.7922 106.013 79.1122 105.827 79.5176 105.72C79.0482 105.507 78.6856 105.208 78.4296 104.824C78.1736 104.429 78.0456 103.971 78.0456 103.448C78.0456 102.936 78.1789 102.483 78.4456 102.088C78.7229 101.693 79.1016 101.389 79.5816 101.176C80.0722 100.952 80.6376 100.84 81.2776 100.84C81.9922 100.84 82.6109 100.979 83.1336 101.256C83.1976 100.733 83.4056 100.317 83.7576 100.008C84.1202 99.688 84.5629 99.528 85.0856 99.528H85.1496L85.3416 100.232H85.2616C84.7709 100.232 84.3869 100.355 84.1096 100.6C83.8322 100.835 83.6776 101.171 83.6456 101.608C84.2002 102.088 84.4776 102.701 84.4776 103.448C84.4776 103.971 84.3442 104.429 84.0776 104.824C83.8109 105.219 83.4322 105.528 82.9416 105.752C82.4616 105.965 81.9069 106.072 81.2776 106.072C80.9042 106.072 80.5576 106.035 80.2376 105.96C79.8429 106.024 79.5282 106.157 79.2936 106.36C79.0696 106.552 78.9576 106.797 78.9576 107.096C78.9576 107.459 79.0962 107.731 79.3736 107.912C79.6616 108.093 80.0242 108.184 80.4616 108.184H82.6216ZM81.2776 101.496C80.5629 101.496 79.9816 101.677 79.5336 102.04C79.0962 102.392 78.8776 102.861 78.8776 103.448C78.8776 104.035 79.0962 104.509 79.5336 104.872C79.9816 105.235 80.5629 105.416 81.2776 105.416C81.9709 105.416 82.5416 105.235 82.9896 104.872C83.4376 104.509 83.6616 104.035 83.6616 103.448C83.6616 102.861 83.4376 102.392 82.9896 102.04C82.5416 101.677 81.9709 101.496 81.2776 101.496ZM81.3896 111.768C82.3282 111.768 83.0642 111.608 83.5976 111.288C84.1309 110.968 84.3976 110.573 84.3976 110.104C84.3976 109.731 84.2322 109.432 83.9016 109.208C83.5816 108.984 83.0909 108.872 82.4296 108.872H80.1576C79.6562 108.872 79.2402 108.989 78.9096 109.224C78.5789 109.459 78.4136 109.773 78.4136 110.168C78.4136 110.637 78.6749 111.021 79.1976 111.32C79.7309 111.619 80.4616 111.768 81.3896 111.768ZM90.0239 109.16C89.2879 109.16 88.6319 108.995 88.0559 108.664C87.4799 108.333 87.0266 107.859 86.6959 107.24C86.3759 106.611 86.2159 105.864 86.2159 105C86.2159 104.136 86.3759 103.395 86.6959 102.776C87.0159 102.147 87.4533 101.667 88.0079 101.336C88.5733 101.005 89.2133 100.84 89.9279 100.84C90.6533 100.84 91.2719 101 91.7839 101.32C92.3066 101.64 92.7013 102.088 92.9679 102.664C93.2453 103.229 93.3839 103.885 93.3839 104.632C93.3839 104.739 93.3786 104.84 93.3679 104.936C93.3679 105.021 93.3626 105.096 93.3519 105.16H86.9999C87.0319 106.195 87.3199 107.005 87.8639 107.592C88.4186 108.168 89.1333 108.456 90.0079 108.456C90.6266 108.456 91.1546 108.323 91.5919 108.056C92.0399 107.789 92.3866 107.421 92.6319 106.952L93.2719 107.32C92.9733 107.885 92.5413 108.333 91.9759 108.664C91.4213 108.995 90.7706 109.16 90.0239 109.16ZM89.9119 101.544C89.1333 101.544 88.4773 101.8 87.9439 102.312C87.4213 102.813 87.1119 103.523 87.0159 104.44H92.5999C92.5679 103.555 92.3119 102.851 91.8319 102.328C91.3626 101.805 90.7226 101.544 89.9119 101.544ZM104.442 109.16C103.748 109.16 103.135 108.984 102.602 108.632C102.068 108.269 101.684 107.784 101.45 107.176L101.402 109H100.682V97.32H101.482V102.744C101.727 102.157 102.111 101.693 102.634 101.352C103.156 101.011 103.759 100.84 104.442 100.84C105.146 100.84 105.77 101.005 106.314 101.336C106.858 101.667 107.29 102.141 107.61 102.76C107.93 103.379 108.09 104.125 108.09 105C108.09 105.864 107.93 106.611 107.61 107.24C107.29 107.859 106.852 108.333 106.298 108.664C105.754 108.995 105.135 109.16 104.442 109.16ZM104.346 108.456C105.252 108.456 105.967 108.147 106.49 107.528C107.023 106.909 107.29 106.067 107.29 105C107.29 103.933 107.028 103.091 106.506 102.472C105.983 101.853 105.268 101.544 104.362 101.544C103.796 101.544 103.295 101.688 102.858 101.976C102.431 102.253 102.095 102.653 101.85 103.176C101.604 103.699 101.482 104.312 101.482 105.016C101.482 105.72 101.604 106.333 101.85 106.856C102.095 107.368 102.431 107.763 102.858 108.04C103.295 108.317 103.791 108.456 104.346 108.456ZM113.217 109.16C112.385 109.16 111.691 108.925 111.137 108.456C110.593 107.987 110.321 107.261 110.321 106.28V101H111.121V106.088C111.121 106.92 111.318 107.523 111.713 107.896C112.118 108.269 112.683 108.456 113.409 108.456C113.974 108.456 114.47 108.328 114.897 108.072C115.323 107.805 115.649 107.459 115.873 107.032C116.107 106.595 116.225 106.115 116.225 105.592V101H117.025V109H116.305L116.273 107.352C116.038 107.917 115.654 108.36 115.121 108.68C114.587 109 113.953 109.16 113.217 109.16ZM122.989 109.16C122.296 109.16 121.672 108.995 121.117 108.664C120.573 108.333 120.141 107.859 119.821 107.24C119.501 106.611 119.341 105.864 119.341 105C119.341 104.125 119.507 103.379 119.837 102.76C120.168 102.131 120.611 101.656 121.165 101.336C121.731 101.005 122.365 100.84 123.069 100.84C123.741 100.84 124.333 101.011 124.845 101.352C125.357 101.693 125.72 102.168 125.933 102.776V97.32H126.733V109H126.013L125.965 107.112C125.763 107.763 125.389 108.269 124.845 108.632C124.301 108.984 123.683 109.16 122.989 109.16ZM123.085 108.456C123.64 108.456 124.131 108.317 124.557 108.04C124.995 107.752 125.331 107.347 125.565 106.824C125.811 106.291 125.933 105.661 125.933 104.936C125.933 103.891 125.667 103.064 125.133 102.456C124.611 101.848 123.939 101.544 123.117 101.544C122.2 101.544 121.475 101.853 120.941 102.472C120.408 103.091 120.141 103.933 120.141 105C120.141 106.067 120.403 106.909 120.925 107.528C121.459 108.147 122.179 108.456 123.085 108.456ZM133.684 108.184C134.473 108.184 135.092 108.355 135.54 108.696C135.988 109.027 136.212 109.464 136.212 110.008C136.212 110.499 136.047 110.925 135.716 111.288C135.396 111.661 134.948 111.944 134.372 112.136C133.807 112.339 133.167 112.44 132.452 112.44C131.236 112.44 130.308 112.232 129.668 111.816C129.039 111.411 128.724 110.899 128.724 110.28C128.724 109.875 128.857 109.517 129.124 109.208C129.391 108.899 129.78 108.685 130.292 108.568C130.015 108.461 129.775 108.301 129.572 108.088C129.38 107.875 129.284 107.587 129.284 107.224C129.284 106.861 129.396 106.547 129.62 106.28C129.855 106.013 130.175 105.827 130.58 105.72C130.111 105.507 129.748 105.208 129.492 104.824C129.236 104.429 129.108 103.971 129.108 103.448C129.108 102.936 129.241 102.483 129.508 102.088C129.785 101.693 130.164 101.389 130.644 101.176C131.135 100.952 131.7 100.84 132.34 100.84C133.055 100.84 133.673 100.979 134.196 101.256C134.26 100.733 134.468 100.317 134.82 100.008C135.183 99.688 135.625 99.528 136.148 99.528H136.212L136.404 100.232H136.324C135.833 100.232 135.449 100.355 135.172 100.6C134.895 100.835 134.74 101.171 134.708 101.608C135.263 102.088 135.54 102.701 135.54 103.448C135.54 103.971 135.407 104.429 135.14 104.824C134.873 105.219 134.495 105.528 134.004 105.752C133.524 105.965 132.969 106.072 132.34 106.072C131.967 106.072 131.62 106.035 131.3 105.96C130.905 106.024 130.591 106.157 130.356 106.36C130.132 106.552 130.02 106.797 130.02 107.096C130.02 107.459 130.159 107.731 130.436 107.912C130.724 108.093 131.087 108.184 131.524 108.184H133.684ZM132.34 101.496C131.625 101.496 131.044 101.677 130.596 102.04C130.159 102.392 129.94 102.861 129.94 103.448C129.94 104.035 130.159 104.509 130.596 104.872C131.044 105.235 131.625 105.416 132.34 105.416C133.033 105.416 133.604 105.235 134.052 104.872C134.5 104.509 134.724 104.035 134.724 103.448C134.724 102.861 134.5 102.392 134.052 102.04C133.604 101.677 133.033 101.496 132.34 101.496ZM132.452 111.768C133.391 111.768 134.127 111.608 134.66 111.288C135.193 110.968 135.46 110.573 135.46 110.104C135.46 109.731 135.295 109.432 134.964 109.208C134.644 108.984 134.153 108.872 133.492 108.872H131.22C130.719 108.872 130.303 108.989 129.972 109.224C129.641 109.459 129.476 109.773 129.476 110.168C129.476 110.637 129.737 111.021 130.26 111.32C130.793 111.619 131.524 111.768 132.452 111.768ZM141.086 109.16C140.35 109.16 139.694 108.995 139.118 108.664C138.542 108.333 138.089 107.859 137.758 107.24C137.438 106.611 137.278 105.864 137.278 105C137.278 104.136 137.438 103.395 137.758 102.776C138.078 102.147 138.516 101.667 139.07 101.336C139.636 101.005 140.276 100.84 140.99 100.84C141.716 100.84 142.334 101 142.846 101.32C143.369 101.64 143.764 102.088 144.03 102.664C144.308 103.229 144.446 103.885 144.446 104.632C144.446 104.739 144.441 104.84 144.43 104.936C144.43 105.021 144.425 105.096 144.414 105.16H138.062C138.094 106.195 138.382 107.005 138.926 107.592C139.481 108.168 140.196 108.456 141.07 108.456C141.689 108.456 142.217 108.323 142.654 108.056C143.102 107.789 143.449 107.421 143.694 106.952L144.334 107.32C144.036 107.885 143.604 108.333 143.038 108.664C142.484 108.995 141.833 109.16 141.086 109.16ZM140.974 101.544C140.196 101.544 139.54 101.8 139.006 102.312C138.484 102.813 138.174 103.523 138.078 104.44H143.662C143.63 103.555 143.374 102.851 142.894 102.328C142.425 101.805 141.785 101.544 140.974 101.544ZM150.877 101V101.688H147.885V106.888C147.885 107.912 148.354 108.424 149.293 108.424C149.591 108.424 149.853 108.376 150.077 108.28C150.311 108.173 150.519 108.024 150.701 107.832L151.005 108.488C150.791 108.691 150.53 108.856 150.221 108.984C149.922 109.101 149.581 109.16 149.197 109.16C148.567 109.16 148.055 108.989 147.661 108.648C147.277 108.296 147.085 107.747 147.085 107V101.688H145.485V101H147.085V99L147.885 98.776V101H150.877ZM161.389 101V101.688H158.573V109H157.773V101.688H156.173V101H157.773V99.656C157.773 98.9307 157.975 98.3493 158.381 97.912C158.786 97.464 159.378 97.24 160.157 97.24C160.455 97.24 160.711 97.2773 160.925 97.352C161.149 97.4267 161.325 97.5333 161.453 97.672L161.229 98.312C160.973 98.0773 160.637 97.96 160.221 97.96C159.698 97.96 159.293 98.1147 159.005 98.424C158.717 98.7227 158.573 99.16 158.573 99.736V101H161.389ZM165.899 109.16C165.163 109.16 164.507 108.995 163.931 108.664C163.355 108.333 162.902 107.859 162.571 107.24C162.251 106.611 162.091 105.864 162.091 105C162.091 104.136 162.251 103.395 162.571 102.776C162.891 102.147 163.328 101.667 163.883 101.336C164.448 101.005 165.088 100.84 165.803 100.84C166.528 100.84 167.147 101 167.659 101.32C168.182 101.64 168.576 102.088 168.843 102.664C169.12 103.229 169.259 103.885 169.259 104.632C169.259 104.739 169.254 104.84 169.243 104.936C169.243 105.021 169.238 105.096 169.227 105.16H162.875C162.907 106.195 163.195 107.005 163.739 107.592C164.294 108.168 165.008 108.456 165.883 108.456C166.502 108.456 167.03 108.323 167.467 108.056C167.915 107.789 168.262 107.421 168.507 106.952L169.147 107.32C168.848 107.885 168.416 108.333 167.851 108.664C167.296 108.995 166.646 109.16 165.899 109.16ZM165.787 101.544C165.008 101.544 164.352 101.8 163.819 102.312C163.296 102.813 162.987 103.523 162.891 104.44H168.475C168.443 103.555 168.187 102.851 167.707 102.328C167.238 101.805 166.598 101.544 165.787 101.544ZM176.437 103.736C176.437 103.053 176.251 102.52 175.877 102.136C175.504 101.741 174.971 101.544 174.277 101.544C173.669 101.544 173.141 101.677 172.693 101.944C172.256 102.211 171.936 102.643 171.733 103.24L171.077 102.824C171.312 102.195 171.701 101.709 172.245 101.368C172.8 101.016 173.483 100.84 174.293 100.84C175.168 100.84 175.877 101.075 176.421 101.544C176.965 102.003 177.237 102.685 177.237 103.592V107.592C177.237 108.157 177.493 108.44 178.005 108.44C178.229 108.44 178.421 108.403 178.581 108.328L178.533 108.968C178.352 109.064 178.117 109.112 177.829 109.112C177.477 109.112 177.163 109.011 176.885 108.808C176.608 108.605 176.453 108.237 176.421 107.704C176.155 108.205 175.755 108.573 175.221 108.808C174.688 109.043 174.149 109.16 173.605 109.16C172.848 109.16 172.224 108.984 171.733 108.632C171.243 108.28 170.997 107.768 170.997 107.096C170.997 106.488 171.2 106.003 171.605 105.64C172.011 105.277 172.571 105.027 173.285 104.888L176.437 104.264V103.736ZM171.813 107.032C171.813 107.48 171.979 107.832 172.309 108.088C172.64 108.333 173.109 108.456 173.717 108.456C174.133 108.456 174.549 108.381 174.965 108.232C175.392 108.072 175.744 107.827 176.021 107.496C176.299 107.155 176.437 106.717 176.437 106.184V104.936L173.685 105.48C173.056 105.608 172.587 105.795 172.277 106.04C171.968 106.285 171.813 106.616 171.813 107.032ZM184.314 101V101.688H181.322V106.888C181.322 107.912 181.792 108.424 182.73 108.424C183.029 108.424 183.29 108.376 183.514 108.28C183.749 108.173 183.957 108.024 184.138 107.832L184.442 108.488C184.229 108.691 183.968 108.856 183.658 108.984C183.36 109.101 183.018 109.16 182.634 109.16C182.005 109.16 181.493 108.989 181.098 108.648C180.714 108.296 180.522 107.747 180.522 107V101.688H178.922V101H180.522V99L181.322 98.776V101H184.314ZM188.842 109.16C188.01 109.16 187.316 108.925 186.762 108.456C186.218 107.987 185.946 107.261 185.946 106.28V101H186.746V106.088C186.746 106.92 186.943 107.523 187.338 107.896C187.743 108.269 188.308 108.456 189.034 108.456C189.599 108.456 190.095 108.328 190.522 108.072C190.948 107.805 191.274 107.459 191.498 107.032C191.732 106.595 191.85 106.115 191.85 105.592V101H192.65V109H191.93L191.898 107.352C191.663 107.917 191.279 108.36 190.746 108.68C190.212 109 189.578 109.16 188.842 109.16ZM195.494 109V101H196.166L196.262 102.664C196.465 102.12 196.785 101.683 197.222 101.352C197.67 101.011 198.214 100.84 198.854 100.84C199.281 100.84 199.617 100.931 199.862 101.112L199.67 101.816C199.553 101.741 199.425 101.683 199.286 101.64C199.148 101.597 198.94 101.576 198.662 101.576C198.257 101.576 197.873 101.704 197.51 101.96C197.148 102.205 196.854 102.552 196.63 103C196.406 103.437 196.294 103.944 196.294 104.52V109H195.494ZM204.43 109.16C203.694 109.16 203.038 108.995 202.462 108.664C201.886 108.333 201.433 107.859 201.102 107.24C200.782 106.611 200.622 105.864 200.622 105C200.622 104.136 200.782 103.395 201.102 102.776C201.422 102.147 201.86 101.667 202.414 101.336C202.98 101.005 203.62 100.84 204.334 100.84C205.06 100.84 205.678 101 206.19 101.32C206.713 101.64 207.108 102.088 207.374 102.664C207.652 103.229 207.79 103.885 207.79 104.632C207.79 104.739 207.785 104.84 207.774 104.936C207.774 105.021 207.769 105.096 207.758 105.16H201.406C201.438 106.195 201.726 107.005 202.27 107.592C202.825 108.168 203.54 108.456 204.414 108.456C205.033 108.456 205.561 108.323 205.998 108.056C206.446 107.789 206.793 107.421 207.038 106.952L207.678 107.32C207.38 107.885 206.948 108.333 206.382 108.664C205.828 108.995 205.177 109.16 204.43 109.16ZM204.318 101.544C203.54 101.544 202.884 101.8 202.35 102.312C201.828 102.813 201.518 103.523 201.422 104.44H207.006C206.974 103.555 206.718 102.851 206.238 102.328C205.769 101.805 205.129 101.544 204.318 101.544ZM219.096 101V101.688H216.104V106.888C216.104 107.912 216.573 108.424 217.512 108.424C217.81 108.424 218.072 108.376 218.296 108.28C218.53 108.173 218.738 108.024 218.92 107.832L219.224 108.488C219.01 108.691 218.749 108.856 218.44 108.984C218.141 109.101 217.8 109.16 217.416 109.16C216.786 109.16 216.274 108.989 215.88 108.648C215.496 108.296 215.304 107.747 215.304 107V101.688H213.704V101H215.304V99L216.104 98.776V101H219.096ZM224.071 100.84C224.817 100.84 225.473 101.005 226.039 101.336C226.615 101.667 227.063 102.147 227.383 102.776C227.713 103.395 227.879 104.136 227.879 105C227.879 105.864 227.713 106.611 227.383 107.24C227.063 107.859 226.615 108.333 226.039 108.664C225.473 108.995 224.817 109.16 224.071 109.16C223.324 109.16 222.663 108.995 222.087 108.664C221.521 108.333 221.073 107.859 220.743 107.24C220.423 106.611 220.263 105.864 220.263 105C220.263 104.136 220.423 103.395 220.743 102.776C221.073 102.147 221.521 101.667 222.087 101.336C222.663 101.005 223.324 100.84 224.071 100.84ZM224.071 101.528C223.164 101.528 222.433 101.837 221.879 102.456C221.335 103.075 221.063 103.923 221.063 105C221.063 106.077 221.335 106.925 221.879 107.544C222.433 108.163 223.164 108.472 224.071 108.472C224.977 108.472 225.703 108.163 226.247 107.544C226.801 106.925 227.079 106.077 227.079 105C227.079 103.923 226.801 103.075 226.247 102.456C225.703 101.837 224.977 101.528 224.071 101.528ZM237.886 109.16C237.075 109.16 236.355 108.995 235.726 108.664C235.107 108.333 234.67 107.859 234.414 107.24L235.102 106.776C235.283 107.32 235.624 107.736 236.126 108.024C236.627 108.312 237.235 108.456 237.95 108.456C238.643 108.456 239.192 108.317 239.598 108.04C240.003 107.763 240.206 107.395 240.206 106.936C240.206 106.627 240.104 106.36 239.902 106.136C239.71 105.901 239.342 105.725 238.798 105.608L236.926 105.208C236.168 105.048 235.624 104.792 235.294 104.44C234.963 104.077 234.798 103.64 234.798 103.128C234.798 102.712 234.926 102.333 235.182 101.992C235.438 101.64 235.79 101.363 236.238 101.16C236.696 100.947 237.23 100.84 237.838 100.84C238.638 100.84 239.299 101 239.822 101.32C240.344 101.629 240.712 102.099 240.926 102.728L240.254 103.16C240.094 102.595 239.795 102.184 239.358 101.928C238.92 101.672 238.414 101.544 237.838 101.544C237.155 101.544 236.611 101.693 236.206 101.992C235.8 102.28 235.598 102.643 235.598 103.08C235.598 103.389 235.699 103.672 235.902 103.928C236.115 104.173 236.499 104.355 237.054 104.472L238.974 104.888C239.72 105.048 240.243 105.293 240.542 105.624C240.851 105.944 241.006 106.344 241.006 106.824C241.006 107.539 240.718 108.109 240.142 108.536C239.576 108.952 238.824 109.16 237.886 109.16ZM243.26 109V97.32H244.06V102.632C244.295 102.067 244.673 101.629 245.196 101.32C245.719 101 246.321 100.84 247.004 100.84C247.889 100.84 248.62 101.091 249.196 101.592C249.772 102.083 250.06 102.819 250.06 103.8V109H249.26V104.056C249.26 103.181 249.041 102.541 248.604 102.136C248.167 101.731 247.607 101.528 246.924 101.528C246.423 101.528 245.953 101.645 245.516 101.88C245.079 102.115 244.727 102.451 244.46 102.888C244.193 103.325 244.06 103.859 244.06 104.488V109H243.26ZM256.086 100.84C256.833 100.84 257.489 101.005 258.054 101.336C258.63 101.667 259.078 102.147 259.398 102.776C259.729 103.395 259.894 104.136 259.894 105C259.894 105.864 259.729 106.611 259.398 107.24C259.078 107.859 258.63 108.333 258.054 108.664C257.489 108.995 256.833 109.16 256.086 109.16C255.34 109.16 254.678 108.995 254.102 108.664C253.537 108.333 253.089 107.859 252.758 107.24C252.438 106.611 252.278 105.864 252.278 105C252.278 104.136 252.438 103.395 252.758 102.776C253.089 102.147 253.537 101.667 254.102 101.336C254.678 101.005 255.34 100.84 256.086 100.84ZM256.086 101.528C255.18 101.528 254.449 101.837 253.894 102.456C253.35 103.075 253.078 103.923 253.078 105C253.078 106.077 253.35 106.925 253.894 107.544C254.449 108.163 255.18 108.472 256.086 108.472C256.993 108.472 257.718 108.163 258.262 107.544C258.817 106.925 259.094 106.077 259.094 105C259.094 103.923 258.817 103.075 258.262 102.456C257.718 101.837 256.993 101.528 256.086 101.528ZM272.171 101H273.051L270.331 109H269.531L267.003 102.04L264.523 109H263.723L261.003 101H261.883L264.139 108.04L266.619 101H267.435L269.931 108.04L272.171 101ZM282.804 100.84C283.615 100.84 284.292 101.032 284.836 101.416C285.391 101.789 285.791 102.317 286.036 103L285.284 103.352C285.114 102.776 284.815 102.333 284.388 102.024C283.972 101.704 283.439 101.544 282.788 101.544C281.903 101.544 281.188 101.853 280.644 102.472C280.1 103.08 279.828 103.923 279.828 105C279.828 106.077 280.095 106.925 280.628 107.544C281.172 108.152 281.887 108.456 282.772 108.456C283.444 108.456 284.015 108.291 284.484 107.96C284.964 107.619 285.263 107.149 285.38 106.552L286.116 106.808C285.903 107.533 285.498 108.109 284.9 108.536C284.314 108.952 283.61 109.16 282.788 109.16C282.052 109.16 281.402 108.995 280.836 108.664C280.271 108.333 279.828 107.859 279.508 107.24C279.188 106.611 279.028 105.864 279.028 105C279.028 104.136 279.188 103.395 279.508 102.776C279.839 102.147 280.287 101.667 280.852 101.336C281.428 101.005 282.079 100.84 282.804 100.84ZM288.996 97.32V107.112C288.996 107.603 289.081 107.949 289.252 108.152C289.423 108.355 289.689 108.456 290.052 108.456C290.276 108.456 290.452 108.44 290.58 108.408C290.719 108.376 290.879 108.323 291.06 108.248L290.948 108.952C290.649 109.091 290.297 109.16 289.892 109.16C289.327 109.16 288.9 109 288.612 108.68C288.335 108.349 288.196 107.837 288.196 107.144V97.32H288.996ZM295.852 109.16C295.116 109.16 294.46 108.995 293.884 108.664C293.308 108.333 292.855 107.859 292.524 107.24C292.204 106.611 292.044 105.864 292.044 105C292.044 104.136 292.204 103.395 292.524 102.776C292.844 102.147 293.281 101.667 293.836 101.336C294.401 101.005 295.041 100.84 295.756 100.84C296.481 100.84 297.1 101 297.612 101.32C298.135 101.64 298.529 102.088 298.796 102.664C299.073 103.229 299.212 103.885 299.212 104.632C299.212 104.739 299.207 104.84 299.196 104.936C299.196 105.021 299.191 105.096 299.18 105.16H292.828C292.86 106.195 293.148 107.005 293.692 107.592C294.247 108.168 294.961 108.456 295.836 108.456C296.455 108.456 296.983 108.323 297.42 108.056C297.868 107.789 298.215 107.421 298.46 106.952L299.1 107.32C298.801 107.885 298.369 108.333 297.804 108.664C297.249 108.995 296.599 109.16 295.852 109.16ZM295.74 101.544C294.961 101.544 294.305 101.8 293.772 102.312C293.249 102.813 292.94 103.523 292.844 104.44H298.428C298.396 103.555 298.14 102.851 297.66 102.328C297.191 101.805 296.551 101.544 295.74 101.544ZM306.39 103.736C306.39 103.053 306.204 102.52 305.83 102.136C305.457 101.741 304.924 101.544 304.23 101.544C303.622 101.544 303.094 101.677 302.646 101.944C302.209 102.211 301.889 102.643 301.686 103.24L301.03 102.824C301.265 102.195 301.654 101.709 302.198 101.368C302.753 101.016 303.436 100.84 304.246 100.84C305.121 100.84 305.83 101.075 306.374 101.544C306.918 102.003 307.19 102.685 307.19 103.592V107.592C307.19 108.157 307.446 108.44 307.958 108.44C308.182 108.44 308.374 108.403 308.534 108.328L308.486 108.968C308.305 109.064 308.07 109.112 307.782 109.112C307.43 109.112 307.116 109.011 306.838 108.808C306.561 108.605 306.406 108.237 306.374 107.704C306.108 108.205 305.708 108.573 305.174 108.808C304.641 109.043 304.102 109.16 303.558 109.16C302.801 109.16 302.177 108.984 301.686 108.632C301.196 108.28 300.95 107.768 300.95 107.096C300.95 106.488 301.153 106.003 301.558 105.64C301.964 105.277 302.524 105.027 303.238 104.888L306.39 104.264V103.736ZM301.766 107.032C301.766 107.48 301.932 107.832 302.262 108.088C302.593 108.333 303.062 108.456 303.67 108.456C304.086 108.456 304.502 108.381 304.918 108.232C305.345 108.072 305.697 107.827 305.974 107.496C306.252 107.155 306.39 106.717 306.39 106.184V104.936L303.638 105.48C303.009 105.608 302.54 105.795 302.23 106.04C301.921 106.285 301.766 106.616 301.766 107.032ZM310.182 109V101H310.854L310.95 102.664C311.152 102.12 311.472 101.683 311.91 101.352C312.358 101.011 312.902 100.84 313.542 100.84C313.968 100.84 314.304 100.931 314.55 101.112L314.358 101.816C314.24 101.741 314.112 101.683 313.974 101.64C313.835 101.597 313.627 101.576 313.35 101.576C312.944 101.576 312.56 101.704 312.198 101.96C311.835 102.205 311.542 102.552 311.318 103C311.094 103.437 310.982 103.944 310.982 104.52V109H310.182ZM50.5584 129.448C50.3557 129.448 50.1904 129.389 50.0624 129.272C49.945 129.144 49.8864 128.979 49.8864 128.776C49.8864 128.573 49.945 128.413 50.0624 128.296C50.1904 128.168 50.3557 128.104 50.5584 128.104C50.761 128.104 50.921 128.168 51.0384 128.296C51.1664 128.413 51.2304 128.573 51.2304 128.776C51.2304 128.979 51.1664 129.144 51.0384 129.272C50.921 129.389 50.761 129.448 50.5584 129.448ZM50.9584 131V139H50.1584V131H50.9584ZM53.8146 139V131H54.5346L54.5826 132.6C54.828 132.035 55.2173 131.603 55.7506 131.304C56.284 130.995 56.8866 130.84 57.5586 130.84C58.444 130.84 59.1746 131.091 59.7506 131.592C60.3266 132.093 60.6146 132.835 60.6146 133.816V139H59.8146V134.072C59.8146 133.197 59.596 132.557 59.1586 132.152C58.7213 131.747 58.1613 131.544 57.4786 131.544C56.9773 131.544 56.508 131.661 56.0706 131.896C55.6333 132.12 55.2813 132.451 55.0146 132.888C54.748 133.325 54.6146 133.859 54.6146 134.488V139H53.8146ZM66.4971 139.16C65.8038 139.16 65.1798 138.995 64.6251 138.664C64.0811 138.333 63.6491 137.859 63.3291 137.24C63.0091 136.611 62.8491 135.864 62.8491 135C62.8491 134.125 63.0145 133.379 63.3451 132.76C63.6758 132.131 64.1185 131.656 64.6731 131.336C65.2385 131.005 65.8731 130.84 66.5771 130.84C67.2491 130.84 67.8411 131.011 68.3531 131.352C68.8651 131.693 69.2278 132.168 69.4411 132.776V127.32H70.2411V139H69.5211L69.4731 137.112C69.2705 137.763 68.8971 138.269 68.3531 138.632C67.8091 138.984 67.1905 139.16 66.4971 139.16ZM66.5931 138.456C67.1478 138.456 67.6385 138.317 68.0651 138.04C68.5025 137.752 68.8385 137.347 69.0731 136.824C69.3185 136.291 69.4411 135.661 69.4411 134.936C69.4411 133.891 69.1745 133.064 68.6411 132.456C68.1185 131.848 67.4465 131.544 66.6251 131.544C65.7078 131.544 64.9825 131.853 64.4491 132.472C63.9158 133.091 63.6491 133.933 63.6491 135C63.6491 136.067 63.9105 136.909 64.4331 137.528C64.9665 138.147 65.6865 138.456 66.5931 138.456ZM73.4959 129.448C73.2932 129.448 73.1279 129.389 72.9999 129.272C72.8825 129.144 72.8239 128.979 72.8239 128.776C72.8239 128.573 72.8825 128.413 72.9999 128.296C73.1279 128.168 73.2932 128.104 73.4959 128.104C73.6985 128.104 73.8585 128.168 73.9759 128.296C74.1039 128.413 74.1679 128.573 74.1679 128.776C74.1679 128.979 74.1039 129.144 73.9759 129.272C73.8585 129.389 73.6985 129.448 73.4959 129.448ZM73.8959 131V139H73.0959V131H73.8959ZM79.9841 130.84C80.7948 130.84 81.4721 131.032 82.0161 131.416C82.5708 131.789 82.9708 132.317 83.2161 133L82.4641 133.352C82.2935 132.776 81.9948 132.333 81.5681 132.024C81.1521 131.704 80.6188 131.544 79.9681 131.544C79.0828 131.544 78.3681 131.853 77.8241 132.472C77.2801 133.08 77.0081 133.923 77.0081 135C77.0081 136.077 77.2748 136.925 77.8081 137.544C78.3521 138.152 79.0668 138.456 79.9521 138.456C80.6241 138.456 81.1948 138.291 81.6641 137.96C82.1441 137.619 82.4428 137.149 82.5601 136.552L83.2961 136.808C83.0828 137.533 82.6775 138.109 82.0801 138.536C81.4935 138.952 80.7895 139.16 79.9681 139.16C79.2321 139.16 78.5815 138.995 78.0161 138.664C77.4508 138.333 77.0081 137.859 76.6881 137.24C76.3681 136.611 76.2081 135.864 76.2081 135C76.2081 134.136 76.3681 133.395 76.6881 132.776C77.0188 132.147 77.4668 131.667 78.0321 131.336C78.6081 131.005 79.2588 130.84 79.9841 130.84ZM90.3356 133.736C90.3356 133.053 90.149 132.52 89.7756 132.136C89.4023 131.741 88.869 131.544 88.1756 131.544C87.5676 131.544 87.0396 131.677 86.5916 131.944C86.1543 132.211 85.8343 132.643 85.6316 133.24L84.9756 132.824C85.2103 132.195 85.5996 131.709 86.1436 131.368C86.6983 131.016 87.381 130.84 88.1916 130.84C89.0663 130.84 89.7756 131.075 90.3196 131.544C90.8636 132.003 91.1356 132.685 91.1356 133.592V137.592C91.1356 138.157 91.3916 138.44 91.9036 138.44C92.1276 138.44 92.3196 138.403 92.4796 138.328L92.4316 138.968C92.2503 139.064 92.0156 139.112 91.7276 139.112C91.3756 139.112 91.061 139.011 90.7836 138.808C90.5063 138.605 90.3516 138.237 90.3196 137.704C90.053 138.205 89.653 138.573 89.1196 138.808C88.5863 139.043 88.0476 139.16 87.5036 139.16C86.7463 139.16 86.1223 138.984 85.6316 138.632C85.141 138.28 84.8956 137.768 84.8956 137.096C84.8956 136.488 85.0983 136.003 85.5036 135.64C85.909 135.277 86.469 135.027 87.1836 134.888L90.3356 134.264V133.736ZM85.7116 137.032C85.7116 137.48 85.877 137.832 86.2076 138.088C86.5383 138.333 87.0076 138.456 87.6156 138.456C88.0316 138.456 88.4476 138.381 88.8636 138.232C89.2903 138.072 89.6423 137.827 89.9196 137.496C90.197 137.155 90.3356 136.717 90.3356 136.184V134.936L87.5836 135.48C86.9543 135.608 86.485 135.795 86.1756 136.04C85.8663 136.285 85.7116 136.616 85.7116 137.032ZM98.2128 131V131.688H95.2208V136.888C95.2208 137.912 95.6901 138.424 96.6288 138.424C96.9274 138.424 97.1888 138.376 97.4128 138.28C97.6474 138.173 97.8554 138.024 98.0368 137.832L98.3408 138.488C98.1274 138.691 97.8661 138.856 97.5568 138.984C97.2581 139.101 96.9168 139.16 96.5328 139.16C95.9034 139.16 95.3914 138.989 94.9968 138.648C94.6128 138.296 94.4208 137.747 94.4208 137V131.688H92.8208V131H94.4208V129L95.2208 128.776V131H98.2128ZM100.324 129.448C100.121 129.448 99.956 129.389 99.828 129.272C99.7107 129.144 99.652 128.979 99.652 128.776C99.652 128.573 99.7107 128.413 99.828 128.296C99.956 128.168 100.121 128.104 100.324 128.104C100.527 128.104 100.687 128.168 100.804 128.296C100.932 128.413 100.996 128.573 100.996 128.776C100.996 128.979 100.932 129.144 100.804 129.272C100.687 129.389 100.527 129.448 100.324 129.448ZM100.724 131V139H99.924V131H100.724ZM106.844 130.84C107.591 130.84 108.247 131.005 108.812 131.336C109.388 131.667 109.836 132.147 110.156 132.776C110.487 133.395 110.652 134.136 110.652 135C110.652 135.864 110.487 136.611 110.156 137.24C109.836 137.859 109.388 138.333 108.812 138.664C108.247 138.995 107.591 139.16 106.844 139.16C106.098 139.16 105.436 138.995 104.86 138.664C104.295 138.333 103.847 137.859 103.516 137.24C103.196 136.611 103.036 135.864 103.036 135C103.036 134.136 103.196 133.395 103.516 132.776C103.847 132.147 104.295 131.667 104.86 131.336C105.436 131.005 106.098 130.84 106.844 130.84ZM106.844 131.528C105.938 131.528 105.207 131.837 104.652 132.456C104.108 133.075 103.836 133.923 103.836 135C103.836 136.077 104.108 136.925 104.652 137.544C105.207 138.163 105.938 138.472 106.844 138.472C107.751 138.472 108.476 138.163 109.02 137.544C109.575 136.925 109.852 136.077 109.852 135C109.852 133.923 109.575 133.075 109.02 132.456C108.476 131.837 107.751 131.528 106.844 131.528ZM112.94 139V131H113.66L113.708 132.6C113.953 132.035 114.342 131.603 114.876 131.304C115.409 130.995 116.012 130.84 116.684 130.84C117.569 130.84 118.3 131.091 118.876 131.592C119.452 132.093 119.74 132.835 119.74 133.816V139H118.94V134.072C118.94 133.197 118.721 132.557 118.284 132.152C117.846 131.747 117.286 131.544 116.604 131.544C116.102 131.544 115.633 131.661 115.196 131.896C114.758 132.12 114.406 132.451 114.14 132.888C113.873 133.325 113.74 133.859 113.74 134.488V139H112.94ZM130.782 130.84C131.528 130.84 132.184 131.005 132.75 131.336C133.326 131.667 133.774 132.147 134.094 132.776C134.424 133.395 134.59 134.136 134.59 135C134.59 135.864 134.424 136.611 134.094 137.24C133.774 137.859 133.326 138.333 132.75 138.664C132.184 138.995 131.528 139.16 130.782 139.16C130.035 139.16 129.374 138.995 128.798 138.664C128.232 138.333 127.784 137.859 127.454 137.24C127.134 136.611 126.974 135.864 126.974 135C126.974 134.136 127.134 133.395 127.454 132.776C127.784 132.147 128.232 131.667 128.798 131.336C129.374 131.005 130.035 130.84 130.782 130.84ZM130.782 131.528C129.875 131.528 129.144 131.837 128.59 132.456C128.046 133.075 127.774 133.923 127.774 135C127.774 136.077 128.046 136.925 128.59 137.544C129.144 138.163 129.875 138.472 130.782 138.472C131.688 138.472 132.414 138.163 132.958 137.544C133.512 136.925 133.79 136.077 133.79 135C133.79 133.923 133.512 133.075 132.958 132.456C132.414 131.837 131.688 131.528 130.782 131.528ZM140.897 131V131.688H138.081V139H137.281V131.688H135.681V131H137.281V129.656C137.281 128.931 137.483 128.349 137.889 127.912C138.294 127.464 138.886 127.24 139.665 127.24C139.963 127.24 140.219 127.277 140.433 127.352C140.657 127.427 140.833 127.533 140.961 127.672L140.737 128.312C140.481 128.077 140.145 127.96 139.729 127.96C139.206 127.96 138.801 128.115 138.513 128.424C138.225 128.723 138.081 129.16 138.081 129.736V131H140.897ZM149.612 139.16C148.802 139.16 148.082 138.995 147.452 138.664C146.834 138.333 146.396 137.859 146.14 137.24L146.828 136.776C147.01 137.32 147.351 137.736 147.852 138.024C148.354 138.312 148.962 138.456 149.676 138.456C150.37 138.456 150.919 138.317 151.324 138.04C151.73 137.763 151.932 137.395 151.932 136.936C151.932 136.627 151.831 136.36 151.628 136.136C151.436 135.901 151.068 135.725 150.524 135.608L148.652 135.208C147.895 135.048 147.351 134.792 147.02 134.44C146.69 134.077 146.524 133.64 146.524 133.128C146.524 132.712 146.652 132.333 146.908 131.992C147.164 131.64 147.516 131.363 147.964 131.16C148.423 130.947 148.956 130.84 149.564 130.84C150.364 130.84 151.026 131 151.548 131.32C152.071 131.629 152.439 132.099 152.652 132.728L151.98 133.16C151.82 132.595 151.522 132.184 151.084 131.928C150.647 131.672 150.14 131.544 149.564 131.544C148.882 131.544 148.338 131.693 147.932 131.992C147.527 132.28 147.324 132.643 147.324 133.08C147.324 133.389 147.426 133.672 147.628 133.928C147.842 134.173 148.226 134.355 148.78 134.472L150.7 134.888C151.447 135.048 151.97 135.293 152.268 135.624C152.578 135.944 152.732 136.344 152.732 136.824C152.732 137.539 152.444 138.109 151.868 138.536C151.303 138.952 150.551 139.16 149.612 139.16ZM159.307 131V131.688H156.315V136.888C156.315 137.912 156.784 138.424 157.723 138.424C158.021 138.424 158.283 138.376 158.507 138.28C158.741 138.173 158.949 138.024 159.131 137.832L159.435 138.488C159.221 138.691 158.96 138.856 158.651 138.984C158.352 139.101 158.011 139.16 157.627 139.16C156.997 139.16 156.485 138.989 156.091 138.648C155.707 138.296 155.515 137.747 155.515 137V131.688H153.915V131H155.515V129L156.315 128.776V131H159.307ZM165.914 133.736C165.914 133.053 165.727 132.52 165.354 132.136C164.98 131.741 164.447 131.544 163.754 131.544C163.146 131.544 162.618 131.677 162.17 131.944C161.732 132.211 161.412 132.643 161.21 133.24L160.554 132.824C160.788 132.195 161.178 131.709 161.722 131.368C162.276 131.016 162.959 130.84 163.77 130.84C164.644 130.84 165.354 131.075 165.898 131.544C166.442 132.003 166.714 132.685 166.714 133.592V137.592C166.714 138.157 166.97 138.44 167.482 138.44C167.706 138.44 167.898 138.403 168.058 138.328L168.01 138.968C167.828 139.064 167.594 139.112 167.306 139.112C166.954 139.112 166.639 139.011 166.362 138.808C166.084 138.605 165.93 138.237 165.898 137.704C165.631 138.205 165.231 138.573 164.698 138.808C164.164 139.043 163.626 139.16 163.082 139.16C162.324 139.16 161.7 138.984 161.21 138.632C160.719 138.28 160.474 137.768 160.474 137.096C160.474 136.488 160.676 136.003 161.082 135.64C161.487 135.277 162.047 135.027 162.762 134.888L165.914 134.264V133.736ZM161.29 137.032C161.29 137.48 161.455 137.832 161.786 138.088C162.116 138.333 162.586 138.456 163.194 138.456C163.61 138.456 164.026 138.381 164.442 138.232C164.868 138.072 165.22 137.827 165.498 137.496C165.775 137.155 165.914 136.717 165.914 136.184V134.936L163.162 135.48C162.532 135.608 162.063 135.795 161.754 136.04C161.444 136.285 161.29 136.616 161.29 137.032ZM169.705 139V131H170.377L170.473 132.664C170.676 132.12 170.996 131.683 171.433 131.352C171.881 131.011 172.425 130.84 173.065 130.84C173.492 130.84 173.828 130.931 174.073 131.112L173.881 131.816C173.764 131.741 173.636 131.683 173.497 131.64C173.359 131.597 173.151 131.576 172.873 131.576C172.468 131.576 172.084 131.704 171.721 131.96C171.359 132.205 171.065 132.552 170.841 133C170.617 133.437 170.505 133.944 170.505 134.52V139H169.705ZM179.822 131V131.688H176.83V136.888C176.83 137.912 177.299 138.424 178.238 138.424C178.537 138.424 178.798 138.376 179.022 138.28C179.257 138.173 179.465 138.024 179.646 137.832L179.95 138.488C179.737 138.691 179.475 138.856 179.166 138.984C178.867 139.101 178.526 139.16 178.142 139.16C177.513 139.16 177.001 138.989 176.606 138.648C176.222 138.296 176.03 137.747 176.03 137V131.688H174.43V131H176.03V129L176.83 128.776V131H179.822ZM191.367 133.736C191.367 133.053 191.18 132.52 190.807 132.136C190.434 131.741 189.9 131.544 189.207 131.544C188.599 131.544 188.071 131.677 187.623 131.944C187.186 132.211 186.866 132.643 186.663 133.24L186.007 132.824C186.242 132.195 186.631 131.709 187.175 131.368C187.73 131.016 188.412 130.84 189.223 130.84C190.098 130.84 190.807 131.075 191.351 131.544C191.895 132.003 192.167 132.685 192.167 133.592V137.592C192.167 138.157 192.423 138.44 192.935 138.44C193.159 138.44 193.351 138.403 193.511 138.328L193.463 138.968C193.282 139.064 193.047 139.112 192.759 139.112C192.407 139.112 192.092 139.011 191.815 138.808C191.538 138.605 191.383 138.237 191.351 137.704C191.084 138.205 190.684 138.573 190.151 138.808C189.618 139.043 189.079 139.16 188.535 139.16C187.778 139.16 187.154 138.984 186.663 138.632C186.172 138.28 185.927 137.768 185.927 137.096C185.927 136.488 186.13 136.003 186.535 135.64C186.94 135.277 187.5 135.027 188.215 134.888L191.367 134.264V133.736ZM186.743 137.032C186.743 137.48 186.908 137.832 187.239 138.088C187.57 138.333 188.039 138.456 188.647 138.456C189.063 138.456 189.479 138.381 189.895 138.232C190.322 138.072 190.674 137.827 190.951 137.496C191.228 137.155 191.367 136.717 191.367 136.184V134.936L188.615 135.48C187.986 135.608 187.516 135.795 187.207 136.04C186.898 136.285 186.743 136.616 186.743 137.032ZM195.158 139V131H195.878L195.926 132.6C196.172 132.035 196.561 131.603 197.094 131.304C197.628 130.995 198.23 130.84 198.902 130.84C199.788 130.84 200.518 131.091 201.094 131.592C201.67 132.093 201.958 132.835 201.958 133.816V139H201.158V134.072C201.158 133.197 200.94 132.557 200.502 132.152C200.065 131.747 199.505 131.544 198.822 131.544C198.321 131.544 197.852 131.661 197.414 131.896C196.977 132.12 196.625 132.451 196.358 132.888C196.092 133.325 195.958 133.859 195.958 134.488V139H195.158ZM207.841 139.16C207.148 139.16 206.524 138.995 205.969 138.664C205.425 138.333 204.993 137.859 204.673 137.24C204.353 136.611 204.193 135.864 204.193 135C204.193 134.125 204.358 133.379 204.689 132.76C205.02 132.131 205.462 131.656 206.017 131.336C206.582 131.005 207.217 130.84 207.921 130.84C208.593 130.84 209.185 131.011 209.697 131.352C210.209 131.693 210.572 132.168 210.785 132.776V127.32H211.585V139H210.865L210.817 137.112C210.614 137.763 210.241 138.269 209.697 138.632C209.153 138.984 208.534 139.16 207.841 139.16ZM207.937 138.456C208.492 138.456 208.982 138.317 209.409 138.04C209.846 137.752 210.182 137.347 210.417 136.824C210.662 136.291 210.785 135.661 210.785 134.936C210.785 133.891 210.518 133.064 209.985 132.456C209.462 131.848 208.79 131.544 207.969 131.544C207.052 131.544 206.326 131.853 205.793 132.472C205.26 133.091 204.993 133.933 204.993 135C204.993 136.067 205.254 136.909 205.777 137.528C206.31 138.147 207.03 138.456 207.937 138.456ZM222.719 139.16C221.983 139.16 221.327 138.995 220.751 138.664C220.175 138.333 219.722 137.859 219.391 137.24C219.071 136.611 218.911 135.864 218.911 135C218.911 134.136 219.071 133.395 219.391 132.776C219.711 132.147 220.149 131.667 220.703 131.336C221.269 131.005 221.909 130.84 222.623 130.84C223.349 130.84 223.967 131 224.479 131.32C225.002 131.64 225.397 132.088 225.663 132.664C225.941 133.229 226.079 133.885 226.079 134.632C226.079 134.739 226.074 134.84 226.063 134.936C226.063 135.021 226.058 135.096 226.047 135.16H219.695C219.727 136.195 220.015 137.005 220.559 137.592C221.114 138.168 221.829 138.456 222.703 138.456C223.322 138.456 223.85 138.323 224.287 138.056C224.735 137.789 225.082 137.421 225.327 136.952L225.967 137.32C225.669 137.885 225.237 138.333 224.671 138.664C224.117 138.995 223.466 139.16 222.719 139.16ZM222.607 131.544C221.829 131.544 221.173 131.8 220.639 132.312C220.117 132.813 219.807 133.523 219.711 134.44H225.295C225.263 133.555 225.007 132.851 224.527 132.328C224.058 131.805 223.418 131.544 222.607 131.544ZM228.362 139V131H229.082L229.13 132.6C229.375 132.035 229.764 131.603 230.298 131.304C230.831 130.995 231.434 130.84 232.106 130.84C232.991 130.84 233.722 131.091 234.298 131.592C234.874 132.093 235.161 132.835 235.161 133.816V139H234.362V134.072C234.362 133.197 234.143 132.557 233.706 132.152C233.268 131.747 232.708 131.544 232.026 131.544C231.524 131.544 231.055 131.661 230.618 131.896C230.18 132.12 229.828 132.451 229.562 132.888C229.295 133.325 229.162 133.859 229.162 134.488V139H228.362ZM241.044 139.16C240.351 139.16 239.727 138.995 239.172 138.664C238.628 138.333 238.196 137.859 237.876 137.24C237.556 136.611 237.396 135.864 237.396 135C237.396 134.125 237.561 133.379 237.892 132.76C238.223 132.131 238.665 131.656 239.22 131.336C239.785 131.005 240.42 130.84 241.124 130.84C241.796 130.84 242.388 131.011 242.9 131.352C243.412 131.693 243.775 132.168 243.988 132.776V127.32H244.788V139H244.068L244.02 137.112C243.817 137.763 243.444 138.269 242.9 138.632C242.356 138.984 241.737 139.16 241.044 139.16ZM241.14 138.456C241.695 138.456 242.185 138.317 242.612 138.04C243.049 137.752 243.385 137.347 243.62 136.824C243.865 136.291 243.988 135.661 243.988 134.936C243.988 133.891 243.721 133.064 243.188 132.456C242.665 131.848 241.993 131.544 241.172 131.544C240.255 131.544 239.529 131.853 238.996 132.472C238.463 133.091 238.196 133.933 238.196 135C238.196 136.067 238.457 136.909 238.98 137.528C239.513 138.147 240.233 138.456 241.14 138.456ZM256.666 131V131.688H253.674V136.888C253.674 137.912 254.143 138.424 255.082 138.424C255.381 138.424 255.642 138.376 255.866 138.28C256.101 138.173 256.309 138.024 256.49 137.832L256.794 138.488C256.581 138.691 256.319 138.856 256.01 138.984C255.711 139.101 255.37 139.16 254.986 139.16C254.357 139.16 253.845 138.989 253.45 138.648C253.066 138.296 252.874 137.747 252.874 137V131.688H251.274V131H252.874V129L253.674 128.776V131H256.666ZM258.777 129.448C258.574 129.448 258.409 129.389 258.281 129.272C258.164 129.144 258.105 128.979 258.105 128.776C258.105 128.573 258.164 128.413 258.281 128.296C258.409 128.168 258.574 128.104 258.777 128.104C258.98 128.104 259.14 128.168 259.257 128.296C259.385 128.413 259.449 128.573 259.449 128.776C259.449 128.979 259.385 129.144 259.257 129.272C259.14 129.389 258.98 129.448 258.777 129.448ZM259.177 131V139H258.377V131H259.177ZM262.033 139V131H262.753L262.801 132.664C263.036 132.099 263.415 131.656 263.937 131.336C264.46 131.005 265.052 130.84 265.713 130.84C266.407 130.84 267.004 131.005 267.505 131.336C268.017 131.667 268.369 132.152 268.561 132.792C268.7 132.387 268.924 132.04 269.233 131.752C269.543 131.453 269.905 131.224 270.321 131.064C270.737 130.904 271.169 130.824 271.617 130.824C272.172 130.824 272.679 130.936 273.137 131.16C273.596 131.373 273.959 131.704 274.225 132.152C274.492 132.589 274.625 133.139 274.625 133.8V138.984H273.825V133.88C273.825 133.091 273.612 132.504 273.185 132.12C272.759 131.725 272.204 131.528 271.521 131.528C271.009 131.528 270.54 131.651 270.113 131.896C269.697 132.141 269.361 132.483 269.105 132.92C268.86 133.347 268.737 133.837 268.737 134.392V139H267.937V133.896C267.937 133.107 267.724 132.52 267.297 132.136C266.871 131.741 266.316 131.544 265.633 131.544C265.153 131.544 264.7 131.661 264.273 131.896C263.847 132.131 263.5 132.467 263.233 132.904C262.967 133.341 262.833 133.864 262.833 134.472V139H262.033ZM280.657 139.16C279.921 139.16 279.265 138.995 278.689 138.664C278.113 138.333 277.659 137.859 277.329 137.24C277.009 136.611 276.849 135.864 276.849 135C276.849 134.136 277.009 133.395 277.329 132.776C277.649 132.147 278.086 131.667 278.641 131.336C279.206 131.005 279.846 130.84 280.561 130.84C281.286 130.84 281.905 131 282.417 131.32C282.939 131.64 283.334 132.088 283.601 132.664C283.878 133.229 284.017 133.885 284.017 134.632C284.017 134.739 284.011 134.84 284.001 134.936C284.001 135.021 283.995 135.096 283.985 135.16H277.633C277.665 136.195 277.953 137.005 278.497 137.592C279.051 138.168 279.766 138.456 280.641 138.456C281.259 138.456 281.787 138.323 282.225 138.056C282.673 137.789 283.019 137.421 283.265 136.952L283.905 137.32C283.606 137.885 283.174 138.333 282.609 138.664C282.054 138.995 281.403 139.16 280.657 139.16ZM280.545 131.544C279.766 131.544 279.11 131.8 278.577 132.312C278.054 132.813 277.745 133.523 277.649 134.44H283.233C283.201 133.555 282.945 132.851 282.465 132.328C281.995 131.805 281.355 131.544 280.545 131.544ZM294.579 130.84C295.325 130.84 295.981 131.005 296.547 131.336C297.123 131.667 297.571 132.147 297.891 132.776C298.221 133.395 298.387 134.136 298.387 135C298.387 135.864 298.221 136.611 297.891 137.24C297.571 137.859 297.123 138.333 296.547 138.664C295.981 138.995 295.325 139.16 294.579 139.16C293.832 139.16 293.171 138.995 292.595 138.664C292.029 138.333 291.581 137.859 291.251 137.24C290.931 136.611 290.771 135.864 290.771 135C290.771 134.136 290.931 133.395 291.251 132.776C291.581 132.147 292.029 131.667 292.595 131.336C293.171 131.005 293.832 130.84 294.579 130.84ZM294.579 131.528C293.672 131.528 292.941 131.837 292.387 132.456C291.843 133.075 291.571 133.923 291.571 135C291.571 136.077 291.843 136.925 292.387 137.544C292.941 138.163 293.672 138.472 294.579 138.472C295.485 138.472 296.211 138.163 296.755 137.544C297.309 136.925 297.587 136.077 297.587 135C297.587 133.923 297.309 133.075 296.755 132.456C296.211 131.837 295.485 131.528 294.579 131.528ZM304.693 131V131.688H301.877V139H301.077V131.688H299.477V131H301.077V129.656C301.077 128.931 301.28 128.349 301.685 127.912C302.091 127.464 302.683 127.24 303.461 127.24C303.76 127.24 304.016 127.277 304.229 127.352C304.453 127.427 304.629 127.533 304.757 127.672L304.533 128.312C304.277 128.077 303.941 127.96 303.525 127.96C303.003 127.96 302.597 128.115 302.309 128.424C302.021 128.723 301.877 129.16 301.877 129.736V131H304.693ZM53.8459 172.36V161H54.5659L54.6139 162.824C54.8485 162.216 55.2325 161.736 55.7659 161.384C56.2992 161.021 56.9232 160.84 57.6379 160.84C58.3205 160.84 58.9339 161.005 59.4779 161.336C60.0219 161.667 60.4539 162.141 60.7739 162.76C61.0939 163.379 61.2539 164.125 61.2539 165C61.2539 165.864 61.0939 166.611 60.7739 167.24C60.4539 167.859 60.0165 168.333 59.4619 168.664C58.9179 168.995 58.2992 169.16 57.6059 169.16C56.9232 169.16 56.3205 168.989 55.7979 168.648C55.2752 168.307 54.8912 167.843 54.6459 167.256V172.36H53.8459ZM57.5099 168.456C58.4165 168.456 59.1312 168.147 59.6539 167.528C60.1872 166.909 60.4539 166.067 60.4539 165C60.4539 163.933 60.1925 163.091 59.6699 162.472C59.1472 161.853 58.4379 161.544 57.5419 161.544C56.9765 161.544 56.4752 161.688 56.0379 161.976C55.6112 162.253 55.2699 162.653 55.0139 163.176C54.7685 163.688 54.6459 164.296 54.6459 165C54.6459 165.704 54.7685 166.317 55.0139 166.84C55.2592 167.352 55.5952 167.752 56.0219 168.04C56.4592 168.317 56.9552 168.456 57.5099 168.456ZM66.8286 169.16C66.0926 169.16 65.4366 168.995 64.8606 168.664C64.2846 168.333 63.8313 167.859 63.5006 167.24C63.1806 166.611 63.0206 165.864 63.0206 165C63.0206 164.136 63.1806 163.395 63.5006 162.776C63.8206 162.147 64.258 161.667 64.8126 161.336C65.378 161.005 66.018 160.84 66.7326 160.84C67.458 160.84 68.0766 161 68.5886 161.32C69.1113 161.64 69.506 162.088 69.7726 162.664C70.05 163.229 70.1886 163.885 70.1886 164.632C70.1886 164.739 70.1833 164.84 70.1726 164.936C70.1726 165.021 70.1673 165.096 70.1566 165.16H63.8046C63.8366 166.195 64.1246 167.005 64.6686 167.592C65.2233 168.168 65.938 168.456 66.8126 168.456C67.4313 168.456 67.9593 168.323 68.3966 168.056C68.8446 167.789 69.1913 167.421 69.4366 166.952L70.0766 167.32C69.778 167.885 69.346 168.333 68.7806 168.664C68.226 168.995 67.5753 169.16 66.8286 169.16ZM66.7166 161.544C65.938 161.544 65.282 161.8 64.7486 162.312C64.226 162.813 63.9166 163.523 63.8206 164.44H69.4046C69.3726 163.555 69.1166 162.851 68.6366 162.328C68.1673 161.805 67.5273 161.544 66.7166 161.544ZM72.4709 169V161H73.1429L73.2389 162.664C73.4415 162.12 73.7615 161.683 74.1989 161.352C74.6469 161.011 75.1909 160.84 75.8309 160.84C76.2575 160.84 76.5935 160.931 76.8389 161.112L76.6469 161.816C76.5295 161.741 76.4015 161.683 76.2629 161.64C76.1242 161.597 75.9162 161.576 75.6389 161.576C75.2335 161.576 74.8495 161.704 74.4869 161.96C74.1242 162.205 73.8309 162.552 73.6069 163C73.3829 163.437 73.2709 163.944 73.2709 164.52V169H72.4709ZM78.9178 159.448C78.7151 159.448 78.5498 159.389 78.4218 159.272C78.3044 159.144 78.2458 158.979 78.2458 158.776C78.2458 158.573 78.3044 158.413 78.4218 158.296C78.5498 158.168 78.7151 158.104 78.9178 158.104C79.1204 158.104 79.2804 158.168 79.3978 158.296C79.5258 158.413 79.5898 158.573 79.5898 158.776C79.5898 158.979 79.5258 159.144 79.3978 159.272C79.2804 159.389 79.1204 159.448 78.9178 159.448ZM79.3178 161V169H78.5178V161H79.3178ZM85.438 160.84C86.1847 160.84 86.8407 161.005 87.406 161.336C87.982 161.667 88.43 162.147 88.75 162.776C89.0807 163.395 89.246 164.136 89.246 165C89.246 165.864 89.0807 166.611 88.75 167.24C88.43 167.859 87.982 168.333 87.406 168.664C86.8407 168.995 86.1847 169.16 85.438 169.16C84.6913 169.16 84.03 168.995 83.454 168.664C82.8887 168.333 82.4407 167.859 82.11 167.24C81.79 166.611 81.63 165.864 81.63 165C81.63 164.136 81.79 163.395 82.11 162.776C82.4407 162.147 82.8887 161.667 83.454 161.336C84.03 161.005 84.6913 160.84 85.438 160.84ZM85.438 161.528C84.5313 161.528 83.8007 161.837 83.246 162.456C82.702 163.075 82.43 163.923 82.43 165C82.43 166.077 82.702 166.925 83.246 167.544C83.8007 168.163 84.5313 168.472 85.438 168.472C86.3447 168.472 87.07 168.163 87.614 167.544C88.1687 166.925 88.446 166.077 88.446 165C88.446 163.923 88.1687 163.075 87.614 162.456C87.07 161.837 86.3447 161.528 85.438 161.528ZM94.6534 169.16C93.96 169.16 93.336 168.995 92.7814 168.664C92.2374 168.333 91.8054 167.859 91.4854 167.24C91.1654 166.611 91.0054 165.864 91.0054 165C91.0054 164.125 91.1707 163.379 91.5014 162.76C91.832 162.131 92.2747 161.656 92.8294 161.336C93.3947 161.005 94.0294 160.84 94.7334 160.84C95.4054 160.84 95.9974 161.011 96.5094 161.352C97.0214 161.693 97.384 162.168 97.5974 162.776V157.32H98.3974V169H97.6774L97.6294 167.112C97.4267 167.763 97.0534 168.269 96.5094 168.632C95.9654 168.984 95.3467 169.16 94.6534 169.16ZM94.7494 168.456C95.304 168.456 95.7947 168.317 96.2214 168.04C96.6587 167.752 96.9947 167.347 97.2294 166.824C97.4747 166.291 97.5974 165.661 97.5974 164.936C97.5974 163.891 97.3307 163.064 96.7974 162.456C96.2747 161.848 95.6027 161.544 94.7814 161.544C93.864 161.544 93.1387 161.853 92.6054 162.472C92.072 163.091 91.8054 163.933 91.8054 165C91.8054 166.067 92.0667 166.909 92.5894 167.528C93.1227 168.147 93.8427 168.456 94.7494 168.456ZM101.604 167.688C101.881 167.688 102.095 167.8 102.244 168.024C102.404 168.237 102.484 168.515 102.484 168.856C102.484 169.283 102.372 169.693 102.148 170.088C101.924 170.493 101.577 170.813 101.108 171.048L100.66 170.648C101.044 170.509 101.348 170.275 101.572 169.944C101.807 169.613 101.919 169.293 101.908 168.984L101.86 168.968C101.796 169.075 101.673 169.128 101.492 169.128C101.343 169.128 101.199 169.069 101.06 168.952C100.932 168.824 100.868 168.648 100.868 168.424C100.868 168.221 100.937 168.051 101.076 167.912C101.215 167.763 101.391 167.688 101.604 167.688ZM114.679 163.736C114.679 163.053 114.493 162.52 114.119 162.136C113.746 161.741 113.213 161.544 112.519 161.544C111.911 161.544 111.383 161.677 110.935 161.944C110.498 162.211 110.178 162.643 109.975 163.24L109.319 162.824C109.554 162.195 109.943 161.709 110.487 161.368C111.042 161.016 111.725 160.84 112.535 160.84C113.41 160.84 114.119 161.075 114.663 161.544C115.207 162.003 115.479 162.685 115.479 163.592V167.592C115.479 168.157 115.735 168.44 116.247 168.44C116.471 168.44 116.663 168.403 116.823 168.328L116.775 168.968C116.594 169.064 116.359 169.112 116.071 169.112C115.719 169.112 115.405 169.011 115.127 168.808C114.85 168.605 114.695 168.237 114.663 167.704C114.397 168.205 113.997 168.573 113.463 168.808C112.93 169.043 112.391 169.16 111.847 169.16C111.09 169.16 110.466 168.984 109.975 168.632C109.485 168.28 109.239 167.768 109.239 167.096C109.239 166.488 109.442 166.003 109.847 165.64C110.253 165.277 110.813 165.027 111.527 164.888L114.679 164.264V163.736ZM110.055 167.032C110.055 167.48 110.221 167.832 110.551 168.088C110.882 168.333 111.351 168.456 111.959 168.456C112.375 168.456 112.791 168.381 113.207 168.232C113.634 168.072 113.986 167.827 114.263 167.496C114.541 167.155 114.679 166.717 114.679 166.184V164.936L111.927 165.48C111.298 165.608 110.829 165.795 110.519 166.04C110.21 166.285 110.055 166.616 110.055 167.032ZM121.175 169.16C120.364 169.16 119.644 168.995 119.015 168.664C118.396 168.333 117.959 167.859 117.703 167.24L118.391 166.776C118.572 167.32 118.914 167.736 119.415 168.024C119.916 168.312 120.524 168.456 121.239 168.456C121.932 168.456 122.482 168.317 122.887 168.04C123.292 167.763 123.495 167.395 123.495 166.936C123.495 166.627 123.394 166.36 123.191 166.136C122.999 165.901 122.631 165.725 122.087 165.608L120.215 165.208C119.458 165.048 118.914 164.792 118.583 164.44C118.252 164.077 118.087 163.64 118.087 163.128C118.087 162.712 118.215 162.333 118.471 161.992C118.727 161.64 119.079 161.363 119.527 161.16C119.986 160.947 120.519 160.84 121.127 160.84C121.927 160.84 122.588 161 123.111 161.32C123.634 161.629 124.002 162.099 124.215 162.728L123.543 163.16C123.383 162.595 123.084 162.184 122.647 161.928C122.21 161.672 121.703 161.544 121.127 161.544C120.444 161.544 119.9 161.693 119.495 161.992C119.09 162.28 118.887 162.643 118.887 163.08C118.887 163.389 118.988 163.672 119.191 163.928C119.404 164.173 119.788 164.355 120.343 164.472L122.263 164.888C123.01 165.048 123.532 165.293 123.831 165.624C124.14 165.944 124.295 166.344 124.295 166.824C124.295 167.539 124.007 168.109 123.431 168.536C122.866 168.952 122.114 169.16 121.175 169.16ZM141.397 161H142.277L139.557 169H138.757L136.229 162.04L133.749 169H132.949L130.229 161H131.109L133.365 168.04L135.845 161H136.661L139.157 168.04L141.397 161ZM147.204 169.16C146.468 169.16 145.812 168.995 145.236 168.664C144.66 168.333 144.206 167.859 143.876 167.24C143.556 166.611 143.396 165.864 143.396 165C143.396 164.136 143.556 163.395 143.876 162.776C144.196 162.147 144.633 161.667 145.188 161.336C145.753 161.005 146.393 160.84 147.108 160.84C147.833 160.84 148.452 161 148.964 161.32C149.486 161.64 149.881 162.088 150.148 162.664C150.425 163.229 150.564 163.885 150.564 164.632C150.564 164.739 150.558 164.84 150.548 164.936C150.548 165.021 150.542 165.096 150.532 165.16H144.18C144.212 166.195 144.5 167.005 145.044 167.592C145.598 168.168 146.313 168.456 147.188 168.456C147.806 168.456 148.334 168.323 148.772 168.056C149.22 167.789 149.566 167.421 149.812 166.952L150.452 167.32C150.153 167.885 149.721 168.333 149.156 168.664C148.601 168.995 147.95 169.16 147.204 169.16ZM147.092 161.544C146.313 161.544 145.657 161.8 145.124 162.312C144.601 162.813 144.292 163.523 144.196 164.44H149.78C149.748 163.555 149.492 162.851 149.012 162.328C148.542 161.805 147.902 161.544 147.092 161.544ZM153.582 157.32V167.112C153.582 167.603 153.667 167.949 153.838 168.152C154.009 168.355 154.275 168.456 154.638 168.456C154.862 168.456 155.038 168.44 155.166 168.408C155.305 168.376 155.465 168.323 155.646 168.248L155.534 168.952C155.235 169.091 154.883 169.16 154.478 169.16C153.913 169.16 153.486 169 153.198 168.68C152.921 168.349 152.782 167.837 152.782 167.144V157.32H153.582ZM157.973 157.32V167.112C157.973 167.603 158.058 167.949 158.229 168.152C158.399 168.355 158.666 168.456 159.029 168.456C159.253 168.456 159.429 168.44 159.557 168.408C159.695 168.376 159.855 168.323 160.036 168.248L159.924 168.952C159.626 169.091 159.274 169.16 158.869 169.16C158.303 169.16 157.877 169 157.589 168.68C157.311 168.349 157.173 167.837 157.173 167.144V157.32H157.973ZM171.023 163.736C171.023 163.053 170.836 162.52 170.463 162.136C170.09 161.741 169.556 161.544 168.863 161.544C168.255 161.544 167.727 161.677 167.279 161.944C166.842 162.211 166.522 162.643 166.319 163.24L165.663 162.824C165.898 162.195 166.287 161.709 166.831 161.368C167.386 161.016 168.068 160.84 168.879 160.84C169.754 160.84 170.463 161.075 171.007 161.544C171.551 162.003 171.823 162.685 171.823 163.592V167.592C171.823 168.157 172.079 168.44 172.591 168.44C172.815 168.44 173.007 168.403 173.167 168.328L173.119 168.968C172.938 169.064 172.703 169.112 172.415 169.112C172.063 169.112 171.748 169.011 171.471 168.808C171.194 168.605 171.039 168.237 171.007 167.704C170.74 168.205 170.34 168.573 169.807 168.808C169.274 169.043 168.735 169.16 168.191 169.16C167.434 169.16 166.81 168.984 166.319 168.632C165.828 168.28 165.583 167.768 165.583 167.096C165.583 166.488 165.786 166.003 166.191 165.64C166.596 165.277 167.156 165.027 167.871 164.888L171.023 164.264V163.736ZM166.399 167.032C166.399 167.48 166.564 167.832 166.895 168.088C167.226 168.333 167.695 168.456 168.303 168.456C168.719 168.456 169.135 168.381 169.551 168.232C169.978 168.072 170.33 167.827 170.607 167.496C170.884 167.155 171.023 166.717 171.023 166.184V164.936L168.271 165.48C167.642 165.608 167.172 165.795 166.863 166.04C166.554 166.285 166.399 166.616 166.399 167.032ZM177.519 169.16C176.708 169.16 175.988 168.995 175.359 168.664C174.74 168.333 174.303 167.859 174.047 167.24L174.735 166.776C174.916 167.32 175.257 167.736 175.759 168.024C176.26 168.312 176.868 168.456 177.583 168.456C178.276 168.456 178.825 168.317 179.231 168.04C179.636 167.763 179.839 167.395 179.839 166.936C179.839 166.627 179.737 166.36 179.535 166.136C179.343 165.901 178.975 165.725 178.431 165.608L176.559 165.208C175.801 165.048 175.257 164.792 174.927 164.44C174.596 164.077 174.431 163.64 174.431 163.128C174.431 162.712 174.559 162.333 174.815 161.992C175.071 161.64 175.423 161.363 175.871 161.16C176.329 160.947 176.863 160.84 177.471 160.84C178.271 160.84 178.932 161 179.455 161.32C179.977 161.629 180.345 162.099 180.559 162.728L179.887 163.16C179.727 162.595 179.428 162.184 178.991 161.928C178.553 161.672 178.047 161.544 177.471 161.544C176.788 161.544 176.244 161.693 175.839 161.992C175.433 162.28 175.231 162.643 175.231 163.08C175.231 163.389 175.332 163.672 175.535 163.928C175.748 164.173 176.132 164.355 176.687 164.472L178.607 164.888C179.353 165.048 179.876 165.293 180.175 165.624C180.484 165.944 180.639 166.344 180.639 166.824C180.639 167.539 180.351 168.109 179.775 168.536C179.209 168.952 178.457 169.16 177.519 169.16ZM188.644 157.32V167.112C188.644 167.603 188.73 167.949 188.9 168.152C189.071 168.355 189.338 168.456 189.7 168.456C189.924 168.456 190.1 168.44 190.228 168.408C190.367 168.376 190.527 168.323 190.708 168.248L190.596 168.952C190.298 169.091 189.946 169.16 189.54 169.16C188.975 169.16 188.548 169 188.26 168.68C187.983 168.349 187.844 167.837 187.844 167.144V157.32H188.644ZM197.195 163.736C197.195 163.053 197.008 162.52 196.635 162.136C196.262 161.741 195.728 161.544 195.035 161.544C194.427 161.544 193.899 161.677 193.451 161.944C193.014 162.211 192.694 162.643 192.491 163.24L191.835 162.824C192.07 162.195 192.459 161.709 193.003 161.368C193.558 161.016 194.24 160.84 195.051 160.84C195.926 160.84 196.635 161.075 197.179 161.544C197.723 162.003 197.995 162.685 197.995 163.592V167.592C197.995 168.157 198.251 168.44 198.763 168.44C198.987 168.44 199.179 168.403 199.339 168.328L199.291 168.968C199.11 169.064 198.875 169.112 198.587 169.112C198.235 169.112 197.92 169.011 197.643 168.808C197.366 168.605 197.211 168.237 197.179 167.704C196.912 168.205 196.512 168.573 195.979 168.808C195.446 169.043 194.907 169.16 194.363 169.16C193.606 169.16 192.982 168.984 192.491 168.632C192 168.28 191.755 167.768 191.755 167.096C191.755 166.488 191.958 166.003 192.363 165.64C192.768 165.277 193.328 165.027 194.043 164.888L197.195 164.264V163.736ZM192.571 167.032C192.571 167.48 192.736 167.832 193.067 168.088C193.398 168.333 193.867 168.456 194.475 168.456C194.891 168.456 195.307 168.381 195.723 168.232C196.15 168.072 196.502 167.827 196.779 167.496C197.056 167.155 197.195 166.717 197.195 166.184V164.936L194.443 165.48C193.814 165.608 193.344 165.795 193.035 166.04C192.726 166.285 192.571 166.616 192.571 167.032ZM204.747 169.16C204.053 169.16 203.44 168.984 202.907 168.632C202.373 168.269 201.989 167.784 201.755 167.176L201.707 169H200.987V157.32H201.787V162.744C202.032 162.157 202.416 161.693 202.939 161.352C203.461 161.011 204.064 160.84 204.747 160.84C205.451 160.84 206.075 161.005 206.619 161.336C207.163 161.667 207.595 162.141 207.915 162.76C208.235 163.379 208.395 164.125 208.395 165C208.395 165.864 208.235 166.611 207.915 167.24C207.595 167.859 207.157 168.333 206.603 168.664C206.059 168.995 205.44 169.16 204.747 169.16ZM204.651 168.456C205.557 168.456 206.272 168.147 206.795 167.528C207.328 166.909 207.595 166.067 207.595 165C207.595 163.933 207.333 163.091 206.811 162.472C206.288 161.853 205.573 161.544 204.667 161.544C204.101 161.544 203.6 161.688 203.163 161.976C202.736 162.253 202.4 162.653 202.155 163.176C201.909 163.699 201.787 164.312 201.787 165.016C201.787 165.72 201.909 166.333 202.155 166.856C202.4 167.368 202.736 167.763 203.163 168.04C203.6 168.317 204.096 168.456 204.651 168.456ZM213.969 169.16C213.233 169.16 212.577 168.995 212.001 168.664C211.425 168.333 210.972 167.859 210.641 167.24C210.321 166.611 210.161 165.864 210.161 165C210.161 164.136 210.321 163.395 210.641 162.776C210.961 162.147 211.399 161.667 211.953 161.336C212.519 161.005 213.159 160.84 213.873 160.84C214.599 160.84 215.217 161 215.729 161.32C216.252 161.64 216.647 162.088 216.913 162.664C217.191 163.229 217.329 163.885 217.329 164.632C217.329 164.739 217.324 164.84 217.313 164.936C217.313 165.021 217.308 165.096 217.297 165.16H210.945C210.977 166.195 211.265 167.005 211.809 167.592C212.364 168.168 213.079 168.456 213.953 168.456C214.572 168.456 215.1 168.323 215.537 168.056C215.985 167.789 216.332 167.421 216.577 166.952L217.217 167.32C216.919 167.885 216.487 168.333 215.921 168.664C215.367 168.995 214.716 169.16 213.969 169.16ZM213.857 161.544C213.079 161.544 212.423 161.8 211.889 162.312C211.367 162.813 211.057 163.523 210.961 164.44H216.545C216.513 163.555 216.257 162.851 215.777 162.328C215.308 161.805 214.668 161.544 213.857 161.544ZM220.348 157.32V167.112C220.348 167.603 220.433 167.949 220.604 168.152C220.774 168.355 221.041 168.456 221.404 168.456C221.628 168.456 221.804 168.44 221.932 168.408C222.07 168.376 222.23 168.323 222.411 168.248L222.299 168.952C222.001 169.091 221.649 169.16 221.244 169.16C220.678 169.16 220.252 169 219.964 168.68C219.686 168.349 219.548 167.837 219.548 167.144V157.32H220.348ZM226.706 169.16C225.895 169.16 225.175 168.995 224.546 168.664C223.927 168.333 223.49 167.859 223.234 167.24L223.922 166.776C224.103 167.32 224.445 167.736 224.946 168.024C225.447 168.312 226.055 168.456 226.77 168.456C227.463 168.456 228.013 168.317 228.418 168.04C228.823 167.763 229.026 167.395 229.026 166.936C229.026 166.627 228.925 166.36 228.722 166.136C228.53 165.901 228.162 165.725 227.618 165.608L225.746 165.208C224.989 165.048 224.445 164.792 224.114 164.44C223.783 164.077 223.618 163.64 223.618 163.128C223.618 162.712 223.746 162.333 224.002 161.992C224.258 161.64 224.61 161.363 225.058 161.16C225.517 160.947 226.05 160.84 226.658 160.84C227.458 160.84 228.119 161 228.642 161.32C229.165 161.629 229.533 162.099 229.746 162.728L229.074 163.16C228.914 162.595 228.615 162.184 228.178 161.928C227.741 161.672 227.234 161.544 226.658 161.544C225.975 161.544 225.431 161.693 225.026 161.992C224.621 162.28 224.418 162.643 224.418 163.08C224.418 163.389 224.519 163.672 224.722 163.928C224.935 164.173 225.319 164.355 225.874 164.472L227.794 164.888C228.541 165.048 229.063 165.293 229.362 165.624C229.671 165.944 229.826 166.344 229.826 166.824C229.826 167.539 229.538 168.109 228.962 168.536C228.397 168.952 227.645 169.16 226.706 169.16ZM241.103 161V161.688H238.111V166.888C238.111 167.912 238.581 168.424 239.519 168.424C239.818 168.424 240.079 168.376 240.303 168.28C240.538 168.173 240.746 168.024 240.927 167.832L241.231 168.488C241.018 168.691 240.757 168.856 240.447 168.984C240.149 169.101 239.807 169.16 239.423 169.16C238.794 169.16 238.282 168.989 237.887 168.648C237.503 168.296 237.311 167.747 237.311 167V161.688H235.711V161H237.311V159L238.111 158.776V161H241.103ZM246.079 160.84C246.825 160.84 247.481 161.005 248.047 161.336C248.623 161.667 249.071 162.147 249.391 162.776C249.721 163.395 249.887 164.136 249.887 165C249.887 165.864 249.721 166.611 249.391 167.24C249.071 167.859 248.623 168.333 248.047 168.664C247.481 168.995 246.825 169.16 246.079 169.16C245.332 169.16 244.671 168.995 244.095 168.664C243.529 168.333 243.081 167.859 242.751 167.24C242.431 166.611 242.271 165.864 242.271 165C242.271 164.136 242.431 163.395 242.751 162.776C243.081 162.147 243.529 161.667 244.095 161.336C244.671 161.005 245.332 160.84 246.079 160.84ZM246.079 161.528C245.172 161.528 244.441 161.837 243.887 162.456C243.343 163.075 243.071 163.923 243.071 165C243.071 166.077 243.343 166.925 243.887 167.544C244.441 168.163 245.172 168.472 246.079 168.472C246.985 168.472 247.711 168.163 248.255 167.544C248.809 166.925 249.087 166.077 249.087 165C249.087 163.923 248.809 163.075 248.255 162.456C247.711 161.837 246.985 161.528 246.079 161.528ZM260.422 160.84C261.232 160.84 261.91 161.032 262.454 161.416C263.008 161.789 263.408 162.317 263.654 163L262.902 163.352C262.731 162.776 262.432 162.333 262.006 162.024C261.59 161.704 261.056 161.544 260.406 161.544C259.52 161.544 258.806 161.853 258.262 162.472C257.718 163.08 257.446 163.923 257.446 165C257.446 166.077 257.712 166.925 258.246 167.544C258.79 168.152 259.504 168.456 260.39 168.456C261.062 168.456 261.632 168.291 262.102 167.96C262.582 167.619 262.88 167.149 262.998 166.552L263.734 166.808C263.52 167.533 263.115 168.109 262.518 168.536C261.931 168.952 261.227 169.16 260.406 169.16C259.67 169.16 259.019 168.995 258.454 168.664C257.888 168.333 257.446 167.859 257.126 167.24C256.806 166.611 256.646 165.864 256.646 165C256.646 164.136 256.806 163.395 257.126 162.776C257.456 162.147 257.904 161.667 258.47 161.336C259.046 161.005 259.696 160.84 260.422 160.84ZM266.613 157.32V167.112C266.613 167.603 266.698 167.949 266.869 168.152C267.04 168.355 267.306 168.456 267.669 168.456C267.893 168.456 268.069 168.44 268.197 168.408C268.336 168.376 268.496 168.323 268.677 168.248L268.565 168.952C268.266 169.091 267.914 169.16 267.509 169.16C266.944 169.16 266.517 169 266.229 168.68C265.952 168.349 265.813 167.837 265.813 167.144V157.32H266.613ZM275.164 163.736C275.164 163.053 274.977 162.52 274.604 162.136C274.23 161.741 273.697 161.544 273.004 161.544C272.396 161.544 271.868 161.677 271.42 161.944C270.982 162.211 270.662 162.643 270.46 163.24L269.804 162.824C270.038 162.195 270.428 161.709 270.972 161.368C271.526 161.016 272.209 160.84 273.02 160.84C273.894 160.84 274.604 161.075 275.148 161.544C275.692 162.003 275.964 162.685 275.964 163.592V167.592C275.964 168.157 276.22 168.44 276.732 168.44C276.956 168.44 277.148 168.403 277.308 168.328L277.26 168.968C277.078 169.064 276.844 169.112 276.556 169.112C276.204 169.112 275.889 169.011 275.612 168.808C275.334 168.605 275.18 168.237 275.148 167.704C274.881 168.205 274.481 168.573 273.948 168.808C273.414 169.043 272.876 169.16 272.332 169.16C271.574 169.16 270.95 168.984 270.46 168.632C269.969 168.28 269.724 167.768 269.724 167.096C269.724 166.488 269.926 166.003 270.332 165.64C270.737 165.277 271.297 165.027 272.012 164.888L275.164 164.264V163.736ZM270.54 167.032C270.54 167.48 270.705 167.832 271.036 168.088C271.366 168.333 271.836 168.456 272.444 168.456C272.86 168.456 273.276 168.381 273.692 168.232C274.118 168.072 274.47 167.827 274.748 167.496C275.025 167.155 275.164 166.717 275.164 166.184V164.936L272.412 165.48C271.782 165.608 271.313 165.795 271.004 166.04C270.694 166.285 270.54 166.616 270.54 167.032ZM278.955 169V161H279.627L279.723 162.664C279.926 162.12 280.246 161.683 280.683 161.352C281.131 161.011 281.675 160.84 282.315 160.84C282.742 160.84 283.078 160.931 283.323 161.112L283.131 161.816C283.014 161.741 282.886 161.683 282.747 161.64C282.609 161.597 282.401 161.576 282.123 161.576C281.718 161.576 281.334 161.704 280.971 161.96C280.609 162.205 280.315 162.552 280.091 163C279.867 163.437 279.755 163.944 279.755 164.52V169H278.955ZM285.402 159.448C285.199 159.448 285.034 159.389 284.906 159.272C284.789 159.144 284.73 158.979 284.73 158.776C284.73 158.573 284.789 158.413 284.906 158.296C285.034 158.168 285.199 158.104 285.402 158.104C285.605 158.104 285.765 158.168 285.882 158.296C286.01 158.413 286.074 158.573 286.074 158.776C286.074 158.979 286.01 159.144 285.882 159.272C285.765 159.389 285.605 159.448 285.402 159.448ZM285.802 161V169H285.002V161H285.802ZM292.818 161V161.688H290.002V169H289.202V161.688H287.602V161H289.202V159.656C289.202 158.931 289.405 158.349 289.81 157.912C290.216 157.464 290.808 157.24 291.586 157.24C291.885 157.24 292.141 157.277 292.354 157.352C292.578 157.427 292.754 157.533 292.882 157.672L292.658 158.312C292.402 158.077 292.066 157.96 291.65 157.96C291.128 157.96 290.722 158.115 290.434 158.424C290.146 158.723 290.002 159.16 290.002 159.736V161H292.818ZM300.712 161L296.84 170.472C296.542 171.219 296.211 171.731 295.848 172.008C295.486 172.296 295.038 172.44 294.504 172.44C293.843 172.44 293.331 172.259 292.968 171.896L293.224 171.208C293.384 171.4 293.576 171.533 293.8 171.608C294.024 171.693 294.254 171.736 294.488 171.736C294.83 171.736 295.134 171.635 295.4 171.432C295.678 171.24 295.928 170.856 296.152 170.28L296.68 169L295.832 167.016L293.304 161H294.216L296.664 167.064L297.064 168.136L297.496 166.984L299.848 161H300.712ZM138.936 191V191.688H136.12V199H135.32V191.688H133.72V191H135.32V189.656C135.32 188.931 135.522 188.349 135.928 187.912C136.333 187.464 136.925 187.24 137.704 187.24C138.002 187.24 138.258 187.277 138.472 187.352C138.696 187.427 138.872 187.533 139 187.672L138.776 188.312C138.52 188.077 138.184 187.96 137.768 187.96C137.245 187.96 136.84 188.115 136.552 188.424C136.264 188.723 136.12 189.16 136.12 189.736V191H138.936ZM143.342 199.16C142.51 199.16 141.816 198.925 141.262 198.456C140.718 197.987 140.446 197.261 140.446 196.28V191H141.246V196.088C141.246 196.92 141.443 197.523 141.838 197.896C142.243 198.269 142.808 198.456 143.534 198.456C144.099 198.456 144.595 198.328 145.022 198.072C145.448 197.805 145.774 197.459 145.998 197.032C146.232 196.595 146.35 196.115 146.35 195.592V191H147.15V199H146.43L146.398 197.352C146.163 197.917 145.779 198.36 145.246 198.68C144.712 199 144.078 199.16 143.342 199.16ZM149.994 199V191H150.714L150.762 192.6C151.008 192.035 151.397 191.603 151.93 191.304C152.464 190.995 153.066 190.84 153.738 190.84C154.624 190.84 155.354 191.091 155.93 191.592C156.506 192.093 156.794 192.835 156.794 193.816V199H155.994V194.072C155.994 193.197 155.776 192.557 155.338 192.152C154.901 191.747 154.341 191.544 153.658 191.544C153.157 191.544 152.688 191.661 152.25 191.896C151.813 192.12 151.461 192.451 151.194 192.888C150.928 193.325 150.794 193.859 150.794 194.488V199H149.994ZM163.674 191V191.688H160.682V196.888C160.682 197.912 161.151 198.424 162.09 198.424C162.388 198.424 162.65 198.376 162.874 198.28C163.108 198.173 163.316 198.024 163.498 197.832L163.802 198.488C163.588 198.691 163.327 198.856 163.018 198.984C162.719 199.101 162.378 199.16 161.994 199.16C161.364 199.16 160.852 198.989 160.458 198.648C160.074 198.296 159.882 197.747 159.882 197V191.688H158.282V191H159.882V189L160.682 188.776V191H163.674ZM165.785 189.448C165.582 189.448 165.417 189.389 165.289 189.272C165.172 189.144 165.113 188.979 165.113 188.776C165.113 188.573 165.172 188.413 165.289 188.296C165.417 188.168 165.582 188.104 165.785 188.104C165.988 188.104 166.148 188.168 166.265 188.296C166.393 188.413 166.457 188.573 166.457 188.776C166.457 188.979 166.393 189.144 166.265 189.272C166.148 189.389 165.988 189.448 165.785 189.448ZM166.185 191V199H165.385V191H166.185ZM172.305 190.84C173.052 190.84 173.708 191.005 174.273 191.336C174.849 191.667 175.297 192.147 175.617 192.776C175.948 193.395 176.113 194.136 176.113 195C176.113 195.864 175.948 196.611 175.617 197.24C175.297 197.859 174.849 198.333 174.273 198.664C173.708 198.995 173.052 199.16 172.305 199.16C171.559 199.16 170.897 198.995 170.321 198.664C169.756 198.333 169.308 197.859 168.977 197.24C168.657 196.611 168.497 195.864 168.497 195C168.497 194.136 168.657 193.395 168.977 192.776C169.308 192.147 169.756 191.667 170.321 191.336C170.897 191.005 171.559 190.84 172.305 190.84ZM172.305 191.528C171.399 191.528 170.668 191.837 170.113 192.456C169.569 193.075 169.297 193.923 169.297 195C169.297 196.077 169.569 196.925 170.113 197.544C170.668 198.163 171.399 198.472 172.305 198.472C173.212 198.472 173.937 198.163 174.481 197.544C175.036 196.925 175.313 196.077 175.313 195C175.313 193.923 175.036 193.075 174.481 192.456C173.937 191.837 173.212 191.528 172.305 191.528ZM178.401 199V191H179.121L179.169 192.6C179.414 192.035 179.803 191.603 180.337 191.304C180.87 190.995 181.473 190.84 182.145 190.84C183.03 190.84 183.761 191.091 184.337 191.592C184.913 192.093 185.201 192.835 185.201 193.816V199H184.401V194.072C184.401 193.197 184.182 192.557 183.745 192.152C183.307 191.747 182.747 191.544 182.065 191.544C181.563 191.544 181.094 191.661 180.657 191.896C180.219 192.12 179.867 192.451 179.601 192.888C179.334 193.325 179.201 193.859 179.201 194.488V199H178.401ZM192.859 193.736C192.859 193.053 192.672 192.52 192.299 192.136C191.926 191.741 191.392 191.544 190.699 191.544C190.091 191.544 189.563 191.677 189.115 191.944C188.678 192.211 188.358 192.643 188.155 193.24L187.499 192.824C187.734 192.195 188.123 191.709 188.667 191.368C189.222 191.016 189.904 190.84 190.715 190.84C191.59 190.84 192.299 191.075 192.843 191.544C193.387 192.003 193.659 192.685 193.659 193.592V197.592C193.659 198.157 193.915 198.44 194.427 198.44C194.651 198.44 194.843 198.403 195.003 198.328L194.955 198.968C194.774 199.064 194.539 199.112 194.251 199.112C193.899 199.112 193.584 199.011 193.307 198.808C193.03 198.605 192.875 198.237 192.843 197.704C192.576 198.205 192.176 198.573 191.643 198.808C191.11 199.043 190.571 199.16 190.027 199.16C189.27 199.16 188.646 198.984 188.155 198.632C187.664 198.28 187.419 197.768 187.419 197.096C187.419 196.488 187.622 196.003 188.027 195.64C188.432 195.277 188.992 195.027 189.707 194.888L192.859 194.264V193.736ZM188.235 197.032C188.235 197.48 188.4 197.832 188.731 198.088C189.062 198.333 189.531 198.456 190.139 198.456C190.555 198.456 190.971 198.381 191.387 198.232C191.814 198.072 192.166 197.827 192.443 197.496C192.72 197.155 192.859 196.717 192.859 196.184V194.936L190.107 195.48C189.478 195.608 189.008 195.795 188.699 196.04C188.39 196.285 188.235 196.616 188.235 197.032ZM197.387 187.32V197.112C197.387 197.603 197.472 197.949 197.643 198.152C197.813 198.355 198.08 198.456 198.443 198.456C198.667 198.456 198.843 198.44 198.971 198.408C199.109 198.376 199.269 198.323 199.451 198.248L199.339 198.952C199.04 199.091 198.688 199.16 198.283 199.16C197.717 199.16 197.291 199 197.003 198.68C196.725 198.349 196.587 197.837 196.587 197.144V187.32H197.387ZM201.441 189.448C201.239 189.448 201.073 189.389 200.945 189.272C200.828 189.144 200.769 188.979 200.769 188.776C200.769 188.573 200.828 188.413 200.945 188.296C201.073 188.168 201.239 188.104 201.441 188.104C201.644 188.104 201.804 188.168 201.921 188.296C202.049 188.413 202.113 188.573 202.113 188.776C202.113 188.979 202.049 189.144 201.921 189.272C201.804 189.389 201.644 189.448 201.441 189.448ZM201.841 191V199H201.041V191H201.841ZM209.017 191V191.688H206.025V196.888C206.025 197.912 206.495 198.424 207.433 198.424C207.732 198.424 207.993 198.376 208.217 198.28C208.452 198.173 208.66 198.024 208.841 197.832L209.145 198.488C208.932 198.691 208.671 198.856 208.361 198.984C208.063 199.101 207.721 199.16 207.337 199.16C206.708 199.16 206.196 198.989 205.801 198.648C205.417 198.296 205.225 197.747 205.225 197V191.688H203.625V191H205.225V189L206.025 188.776V191H209.017ZM217.033 191L213.161 200.472C212.862 201.219 212.531 201.731 212.169 202.008C211.806 202.296 211.358 202.44 210.825 202.44C210.163 202.44 209.651 202.259 209.289 201.896L209.545 201.208C209.705 201.4 209.897 201.533 210.121 201.608C210.345 201.693 210.574 201.736 210.809 201.736C211.15 201.736 211.454 201.635 211.721 201.432C211.998 201.24 212.249 200.856 212.473 200.28L213.001 199L212.153 197.016L209.625 191H210.537L212.985 197.064L213.385 198.136L213.817 196.984L216.169 191H217.033ZM217.893 197.688C218.106 197.688 218.277 197.757 218.405 197.896C218.543 198.024 218.613 198.195 218.613 198.408C218.613 198.621 218.543 198.797 218.405 198.936C218.277 199.064 218.106 199.128 217.893 199.128C217.679 199.128 217.503 199.064 217.365 198.936C217.237 198.797 217.173 198.621 217.173 198.408C217.173 198.195 217.237 198.024 217.365 197.896C217.503 197.757 217.679 197.688 217.893 197.688Z" fill="white"/>
<path d="M137.863 53.8H139.943V65H137.863V53.8ZM147.917 64.536C147.682 64.728 147.394 64.872 147.053 64.968C146.722 65.064 146.37 65.112 145.997 65.112C145.058 65.112 144.333 64.8667 143.821 64.376C143.309 63.8853 143.053 63.1707 143.053 62.232V58.12H141.645V56.52H143.053V54.568H145.053V56.52H147.341V58.12H145.053V62.184C145.053 62.6 145.154 62.92 145.357 63.144C145.559 63.3573 145.853 63.464 146.237 63.464C146.685 63.464 147.058 63.3467 147.357 63.112L147.917 64.536ZM157.313 60.776C157.313 60.9147 157.302 61.112 157.281 61.368H150.577C150.694 61.9973 150.998 62.4987 151.489 62.872C151.99 63.2347 152.609 63.416 153.345 63.416C154.283 63.416 155.057 63.1067 155.665 62.488L156.737 63.72C156.353 64.1787 155.867 64.5253 155.281 64.76C154.694 64.9947 154.033 65.112 153.297 65.112C152.358 65.112 151.531 64.9253 150.817 64.552C150.102 64.1787 149.547 63.6613 149.153 63C148.769 62.328 148.577 61.5707 148.577 60.728C148.577 59.896 148.763 59.1493 149.137 58.488C149.521 57.816 150.049 57.2933 150.721 56.92C151.393 56.5467 152.15 56.36 152.993 56.36C153.825 56.36 154.566 56.5467 155.217 56.92C155.878 57.2827 156.39 57.8 156.753 58.472C157.126 59.1333 157.313 59.9013 157.313 60.776ZM152.993 57.96C152.353 57.96 151.809 58.152 151.361 58.536C150.923 58.9093 150.657 59.4107 150.561 60.04H155.409C155.323 59.4213 155.062 58.92 154.625 58.536C154.187 58.152 153.643 57.96 152.993 57.96ZM161.138 57.704C161.714 56.808 162.727 56.36 164.178 56.36V58.264C164.007 58.232 163.853 58.216 163.714 58.216C162.935 58.216 162.327 58.4453 161.89 58.904C161.453 59.352 161.234 60.0027 161.234 60.856V65H159.234V56.456H161.138V57.704ZM169.092 56.36C170.35 56.36 171.31 56.664 171.972 57.272C172.644 57.8693 172.98 58.776 172.98 59.992V65H171.092V63.96C170.846 64.3333 170.494 64.6213 170.036 64.824C169.588 65.016 169.044 65.112 168.404 65.112C167.764 65.112 167.204 65.0053 166.724 64.792C166.244 64.568 165.87 64.264 165.604 63.88C165.348 63.4853 165.22 63.0427 165.22 62.552C165.22 61.784 165.502 61.1707 166.068 60.712C166.644 60.2427 167.545 60.008 168.772 60.008H170.98V59.88C170.98 59.2827 170.798 58.824 170.436 58.504C170.084 58.184 169.556 58.024 168.852 58.024C168.372 58.024 167.897 58.0987 167.428 58.248C166.969 58.3973 166.58 58.6053 166.26 58.872L165.476 57.416C165.924 57.0747 166.462 56.8133 167.092 56.632C167.721 56.4507 168.388 56.36 169.092 56.36ZM168.82 63.656C169.321 63.656 169.764 63.544 170.148 63.32C170.542 63.0853 170.82 62.7547 170.98 62.328V61.336H168.916C167.764 61.336 167.188 61.7147 167.188 62.472C167.188 62.8347 167.332 63.1227 167.62 63.336C167.908 63.5493 168.308 63.656 168.82 63.656ZM180.682 64.536C180.448 64.728 180.16 64.872 179.818 64.968C179.488 65.064 179.136 65.112 178.762 65.112C177.824 65.112 177.098 64.8667 176.586 64.376C176.074 63.8853 175.818 63.1707 175.818 62.232V58.12H174.41V56.52H175.818V54.568H177.818V56.52H180.106V58.12H177.818V62.184C177.818 62.6 177.92 62.92 178.122 63.144C178.325 63.3573 178.618 63.464 179.002 63.464C179.45 63.464 179.824 63.3467 180.122 63.112L180.682 64.536ZM182.328 56.456H184.328V65H182.328V56.456ZM183.336 55.048C182.973 55.048 182.669 54.936 182.424 54.712C182.178 54.4773 182.056 54.1893 182.056 53.848C182.056 53.5067 182.178 53.224 182.424 53C182.669 52.7653 182.973 52.648 183.336 52.648C183.698 52.648 184.002 52.76 184.248 52.984C184.493 53.1973 184.616 53.4693 184.616 53.8C184.616 54.152 184.493 54.4507 184.248 54.696C184.013 54.9307 183.709 55.048 183.336 55.048ZM190.793 65.112C189.929 65.112 189.15 64.9253 188.457 64.552C187.763 64.1787 187.219 63.6613 186.825 63C186.441 62.328 186.249 61.5707 186.249 60.728C186.249 59.8853 186.441 59.1333 186.825 58.472C187.219 57.8107 187.763 57.2933 188.457 56.92C189.15 56.5467 189.929 56.36 190.793 56.36C191.667 56.36 192.451 56.5467 193.145 56.92C193.838 57.2933 194.377 57.8107 194.761 58.472C195.155 59.1333 195.353 59.8853 195.353 60.728C195.353 61.5707 195.155 62.328 194.761 63C194.377 63.6613 193.838 64.1787 193.145 64.552C192.451 64.9253 191.667 65.112 190.793 65.112ZM190.793 63.4C191.529 63.4 192.137 63.1547 192.617 62.664C193.097 62.1733 193.337 61.528 193.337 60.728C193.337 59.928 193.097 59.2827 192.617 58.792C192.137 58.3013 191.529 58.056 190.793 58.056C190.057 58.056 189.449 58.3013 188.969 58.792C188.499 59.2827 188.265 59.928 188.265 60.728C188.265 61.528 188.499 62.1733 188.969 62.664C189.449 63.1547 190.057 63.4 190.793 63.4ZM202.113 56.36C203.19 56.36 204.054 56.6747 204.705 57.304C205.356 57.9333 205.681 58.8667 205.681 60.104V65H203.681V60.36C203.681 59.6133 203.505 59.0533 203.153 58.68C202.801 58.296 202.3 58.104 201.649 58.104C200.913 58.104 200.332 58.328 199.905 58.776C199.478 59.2133 199.265 59.848 199.265 60.68V65H197.265V56.456H199.169V57.56C199.5 57.1653 199.916 56.8667 200.417 56.664C200.918 56.4613 201.484 56.36 202.113 56.36ZM220.144 63.24V65H211.888V63.608L216.336 59.384C216.837 58.904 217.173 58.488 217.344 58.136C217.525 57.7733 217.616 57.416 217.616 57.064C217.616 56.5413 217.44 56.1413 217.088 55.864C216.736 55.5867 216.219 55.448 215.536 55.448C214.395 55.448 213.52 55.8373 212.912 56.616L211.456 55.496C211.893 54.9093 212.48 54.456 213.216 54.136C213.963 53.8053 214.795 53.64 215.712 53.64C216.928 53.64 217.899 53.928 218.624 54.504C219.349 55.08 219.712 55.864 219.712 56.856C219.712 57.464 219.584 58.0347 219.328 58.568C219.072 59.1013 218.581 59.7093 217.856 60.392L214.864 63.24H220.144Z" fill="white"/>
</svg>
