<svg width="419" height="120" viewBox="0 0 419 120" fill="none" xmlns="http://www.w3.org/2000/svg">
<path fill-rule="evenodd" clip-rule="evenodd" d="M347.833 4.01475C351.864 2.42364 356.422 4.40141 358.013 8.43222L375.79 53.4685C377.381 57.4993 375.404 62.0568 371.373 63.6479C367.342 65.239 362.785 63.2613 361.193 59.2304L343.416 14.1941C341.825 10.1633 343.803 5.60586 347.833 4.01475Z" fill="#FF5F57"/>
<path fill-rule="evenodd" clip-rule="evenodd" d="M372.344 117.343C368.244 115.939 366.059 111.477 367.463 107.378L401.611 7.66552C403.015 3.56579 407.477 1.38048 411.576 2.7845C415.676 4.18852 417.862 8.65019 416.458 12.7499L382.31 112.462C380.906 116.562 376.444 118.747 372.344 117.343Z" fill="#FF5F57"/>
<path fill-rule="evenodd" clip-rule="evenodd" d="M263.643 5.32812C267.976 5.32812 271.489 8.84111 271.489 13.1746L271.489 107.332C271.489 111.666 267.976 115.179 263.643 115.179C259.309 115.179 255.796 111.666 255.796 107.332L255.796 13.1746C255.796 8.84111 259.309 5.32812 263.643 5.32812Z" fill="#FF5F57"/>
<path fill-rule="evenodd" clip-rule="evenodd" d="M338.969 110.47C338.969 114.803 335.456 118.316 331.122 118.316L263.643 118.316C259.309 118.316 255.796 114.803 255.796 110.47C255.796 106.136 259.309 102.623 263.643 102.623L331.122 102.623C335.456 102.623 338.969 106.136 338.969 110.47Z" fill="#FF5F57"/>
<path fill-rule="evenodd" clip-rule="evenodd" d="M304.445 5.32812C308.778 5.32812 312.291 8.84111 312.291 13.1746L312.291 85.3621C312.291 89.6956 308.778 93.2086 304.445 93.2086C300.111 93.2086 296.598 89.6956 296.598 85.3621L296.598 13.1746C296.598 8.84111 300.111 5.32812 304.445 5.32812Z" fill="#FF5F57"/>
<path fill-rule="evenodd" clip-rule="evenodd" d="M154.214 117.343C150.115 115.939 147.929 111.477 149.333 107.378L183.481 7.66552C184.885 3.56579 189.347 1.38048 193.447 2.7845C197.546 4.18852 199.732 8.65019 198.328 12.7499L164.18 112.462C162.776 116.562 158.314 118.747 154.214 117.343Z" fill="#FF5F57"/>
<path fill-rule="evenodd" clip-rule="evenodd" d="M228.693 117.343C232.793 115.939 234.978 111.477 233.574 107.378L199.426 7.66552C198.022 3.56579 193.56 1.38048 189.461 2.7845C185.361 4.18852 183.176 8.65019 184.58 12.7499L218.728 112.462C220.132 116.562 224.593 118.747 228.693 117.343Z" fill="#FF5F57"/>
<path fill-rule="evenodd" clip-rule="evenodd" d="M42.7933 117.343C38.6936 115.939 36.5083 111.477 37.9123 107.378L72.0603 7.66552C73.4643 3.56579 77.926 1.38048 82.0257 2.7845C86.1254 4.18852 88.3107 8.65019 86.9067 12.7499L52.7588 112.462C51.3548 116.562 46.8931 118.747 42.7933 117.343Z" fill="#FF5F57"/>
<path fill-rule="evenodd" clip-rule="evenodd" d="M78.0761 2.8884C82.1951 1.54182 86.6258 3.78927 87.9724 7.90823L109.774 74.5954C111.121 78.7144 108.873 83.1451 104.754 84.4917C100.635 85.8383 96.2045 83.5908 94.8579 79.4719L73.0563 12.7846C71.7097 8.66568 73.9572 4.23498 78.0761 2.8884Z" fill="#FF5F57"/>
<path fill-rule="evenodd" clip-rule="evenodd" d="M7.45798 2.8884C11.5769 1.54182 16.0076 3.78927 17.3542 7.90823L39.1558 74.5954C40.5024 78.7144 38.2549 83.1451 34.136 84.4917C30.017 85.8383 25.5863 83.5908 24.2397 79.4719L2.43815 12.7846C1.09157 8.66568 3.33902 4.23498 7.45798 2.8884Z" fill="#FF5F57"/>
<path fill-rule="evenodd" clip-rule="evenodd" d="M113.412 117.344C109.312 115.94 107.126 111.478 108.53 107.379L142.678 7.6665C144.082 3.56677 148.544 1.38146 152.644 2.78548C156.744 4.1895 158.929 8.65117 157.525 12.7509L123.377 112.463C121.973 116.563 117.511 118.748 113.412 117.344Z" fill="#FF5F57"/>
</svg>
