<svg width="350" height="253" viewBox="0 0 350 253" fill="none" xmlns="http://www.w3.org/2000/svg">
<path d="M314.745 35.267C343.818 56.8279 336.783 79.4314 339.986 119.884C343.435 160.336 360.682 195.34 339.986 218.544C319.289 241.542 276.172 250.783 239.46 252.631C202.749 254.479 172.197 248.935 130.311 246.06C88.6718 243.39 50.6187 239.284 26.4729 218.544C-2.35442 193.784 -4.26386 151.875 4.85244 111.628C13.9687 71.381 24.6114 41.1284 55.6561 19.7728C86.7008 -1.58278 132.454 2.23515 182.963 0.181733C233.719 -1.87169 285.671 13.7061 314.745 35.267Z" fill="white"/>
<path d="M141.254 63.8H143.334V75H141.254V63.8ZM151.019 66.36C152.097 66.36 152.961 66.6747 153.611 67.304C154.262 67.9333 154.587 68.8667 154.587 70.104V75H152.587V70.36C152.587 69.6133 152.411 69.0533 152.059 68.68C151.707 68.296 151.206 68.104 150.555 68.104C149.819 68.104 149.238 68.328 148.811 68.776C148.385 69.2133 148.171 69.848 148.171 70.68V75H146.171V66.456H148.075V67.56C148.406 67.1653 148.822 66.8667 149.323 66.664C149.825 66.4613 150.39 66.36 151.019 66.36ZM159.765 75.112C159.071 75.112 158.394 75.0213 157.733 74.84C157.071 74.6587 156.543 74.4293 156.149 74.152L156.917 72.632C157.301 72.888 157.759 73.096 158.293 73.256C158.837 73.4053 159.37 73.48 159.893 73.48C161.087 73.48 161.685 73.1653 161.685 72.536C161.685 72.2373 161.53 72.0293 161.221 71.912C160.922 71.7947 160.437 71.6827 159.765 71.576C159.061 71.4693 158.485 71.3467 158.037 71.208C157.599 71.0693 157.215 70.8293 156.885 70.488C156.565 70.136 156.405 69.6507 156.405 69.032C156.405 68.2213 156.741 67.576 157.413 67.096C158.095 66.6053 159.013 66.36 160.165 66.36C160.751 66.36 161.338 66.4293 161.925 66.568C162.511 66.696 162.991 66.872 163.365 67.096L162.597 68.616C161.871 68.1893 161.055 67.976 160.149 67.976C159.562 67.976 159.114 68.0667 158.805 68.248C158.506 68.4187 158.357 68.648 158.357 68.936C158.357 69.256 158.517 69.4853 158.837 69.624C159.167 69.752 159.674 69.8747 160.357 69.992C161.039 70.0987 161.599 70.2213 162.037 70.36C162.474 70.4987 162.847 70.7333 163.157 71.064C163.477 71.3947 163.637 71.864 163.637 72.472C163.637 73.272 163.29 73.912 162.597 74.392C161.903 74.872 160.959 75.112 159.765 75.112ZM165.359 66.456H167.359V75H165.359V66.456ZM166.367 65.048C166.004 65.048 165.7 64.936 165.455 64.712C165.21 64.4773 165.087 64.1893 165.087 63.848C165.087 63.5067 165.21 63.224 165.455 63C165.7 62.7653 166.004 62.648 166.367 62.648C166.73 62.648 167.034 62.76 167.279 62.984C167.524 63.1973 167.647 63.4693 167.647 63.8C167.647 64.152 167.524 64.4507 167.279 64.696C167.044 64.9307 166.74 65.048 166.367 65.048ZM178.464 66.456V73.704C178.464 76.712 176.928 78.216 173.856 78.216C173.035 78.216 172.256 78.1093 171.52 77.896C170.784 77.6933 170.176 77.3947 169.696 77L170.592 75.496C170.965 75.8053 171.435 76.0507 172 76.232C172.576 76.424 173.157 76.52 173.744 76.52C174.683 76.52 175.371 76.3067 175.808 75.88C176.245 75.4533 176.464 74.8027 176.464 73.928V73.48C176.123 73.8533 175.707 74.136 175.216 74.328C174.725 74.52 174.187 74.616 173.6 74.616C172.789 74.616 172.053 74.4453 171.392 74.104C170.741 73.752 170.224 73.2613 169.84 72.632C169.467 72.0027 169.28 71.2827 169.28 70.472C169.28 69.6613 169.467 68.9467 169.84 68.328C170.224 67.6987 170.741 67.2133 171.392 66.872C172.053 66.5307 172.789 66.36 173.6 66.36C174.219 66.36 174.779 66.4613 175.28 66.664C175.792 66.8667 176.219 67.176 176.56 67.592V66.456H178.464ZM173.904 72.92C174.661 72.92 175.28 72.696 175.76 72.248C176.251 71.7893 176.496 71.1973 176.496 70.472C176.496 69.7573 176.251 69.176 175.76 68.728C175.28 68.28 174.661 68.056 173.904 68.056C173.136 68.056 172.507 68.28 172.016 68.728C171.536 69.176 171.296 69.7573 171.296 70.472C171.296 71.1973 171.536 71.7893 172.016 72.248C172.507 72.696 173.136 72.92 173.904 72.92ZM185.941 66.36C187.019 66.36 187.883 66.6747 188.533 67.304C189.184 67.9333 189.509 68.8667 189.509 70.104V75H187.509V70.36C187.509 69.6133 187.333 69.0533 186.981 68.68C186.629 68.296 186.128 68.104 185.477 68.104C184.741 68.104 184.16 68.328 183.733 68.776C183.307 69.2133 183.093 69.848 183.093 70.68V75H181.093V63.128H183.093V67.448C183.424 67.096 183.829 66.8293 184.309 66.648C184.8 66.456 185.344 66.36 185.941 66.36ZM197.182 74.536C196.948 74.728 196.66 74.872 196.318 74.968C195.988 75.064 195.636 75.112 195.262 75.112C194.324 75.112 193.598 74.8667 193.086 74.376C192.574 73.8853 192.318 73.1707 192.318 72.232V68.12H190.91V66.52H192.318V64.568H194.318V66.52H196.606V68.12H194.318V72.184C194.318 72.6 194.42 72.92 194.622 73.144C194.825 73.3573 195.118 73.464 195.502 73.464C195.95 73.464 196.324 73.3467 196.622 73.112L197.182 74.536ZM207.41 68.424C208.444 68.552 209.234 68.904 209.778 69.48C210.322 70.056 210.594 70.776 210.594 71.64C210.594 72.2907 210.428 72.8827 210.098 73.416C209.767 73.9493 209.266 74.376 208.594 74.696C207.932 75.0053 207.122 75.16 206.161 75.16C205.362 75.16 204.588 75.048 203.842 74.824C203.106 74.5893 202.476 74.2693 201.954 73.864L202.85 72.248C203.255 72.5893 203.746 72.8613 204.322 73.064C204.908 73.256 205.511 73.352 206.13 73.352C206.866 73.352 207.442 73.2027 207.858 72.904C208.284 72.5947 208.498 72.1787 208.498 71.656C208.498 71.1333 208.295 70.728 207.89 70.44C207.495 70.1413 206.887 69.992 206.066 69.992H205.042V68.568L207.586 65.544H202.498V63.8H210.13V65.192L207.41 68.424Z" fill="#F75759"/>
<path d="M47.0352 103.44C48.1339 103.44 49.0032 103.717 49.6432 104.272C50.2939 104.816 50.6192 105.568 50.6192 106.528C50.6192 107.499 50.2939 108.261 49.6432 108.816C49.0032 109.36 48.1339 109.632 47.0352 109.632H44.3312V114H43.5312V103.44H47.0352ZM46.9392 108.88C47.8672 108.88 48.5712 108.677 49.0512 108.272C49.5312 107.867 49.7712 107.285 49.7712 106.528C49.7712 105.781 49.5312 105.205 49.0512 104.8C48.5712 104.384 47.8672 104.176 46.9392 104.176H44.3312V108.88H46.9392ZM55.7896 114.16C55.0536 114.16 54.3976 113.995 53.8216 113.664C53.2456 113.333 52.7922 112.859 52.4616 112.24C52.1416 111.611 51.9816 110.864 51.9816 110C51.9816 109.136 52.1416 108.395 52.4616 107.776C52.7816 107.147 53.2189 106.667 53.7736 106.336C54.3389 106.005 54.9789 105.84 55.6936 105.84C56.4189 105.84 57.0376 106 57.5496 106.32C58.0722 106.64 58.4669 107.088 58.7336 107.664C59.0109 108.229 59.1496 108.885 59.1496 109.632C59.1496 109.739 59.1442 109.84 59.1336 109.936C59.1336 110.021 59.1282 110.096 59.1176 110.16H52.7656C52.7976 111.195 53.0856 112.005 53.6296 112.592C54.1842 113.168 54.8989 113.456 55.7736 113.456C56.3922 113.456 56.9202 113.323 57.3576 113.056C57.8056 112.789 58.1522 112.421 58.3976 111.952L59.0376 112.32C58.7389 112.885 58.3069 113.333 57.7416 113.664C57.1869 113.995 56.5362 114.16 55.7896 114.16ZM55.6776 106.544C54.8989 106.544 54.2429 106.8 53.7096 107.312C53.1869 107.813 52.8776 108.523 52.7816 109.44H58.3656C58.3336 108.555 58.0776 107.851 57.5976 107.328C57.1282 106.805 56.4882 106.544 55.6776 106.544ZM64.6958 105.84C65.4425 105.84 66.0985 106.005 66.6638 106.336C67.2398 106.667 67.6878 107.147 68.0078 107.776C68.3385 108.395 68.5038 109.136 68.5038 110C68.5038 110.864 68.3385 111.611 68.0078 112.24C67.6878 112.859 67.2398 113.333 66.6638 113.664C66.0985 113.995 65.4425 114.16 64.6958 114.16C63.9491 114.16 63.2878 113.995 62.7118 113.664C62.1465 113.333 61.6985 112.859 61.3678 112.24C61.0478 111.611 60.8878 110.864 60.8878 110C60.8878 109.136 61.0478 108.395 61.3678 107.776C61.6985 107.147 62.1465 106.667 62.7118 106.336C63.2878 106.005 63.9491 105.84 64.6958 105.84ZM64.6958 106.528C63.7891 106.528 63.0585 106.837 62.5038 107.456C61.9598 108.075 61.6878 108.923 61.6878 110C61.6878 111.077 61.9598 111.925 62.5038 112.544C63.0585 113.163 63.7891 113.472 64.6958 113.472C65.6025 113.472 66.3278 113.163 66.8718 112.544C67.4265 111.925 67.7038 111.077 67.7038 110C67.7038 108.923 67.4265 108.075 66.8718 107.456C66.3278 106.837 65.6025 106.528 64.6958 106.528ZM70.7912 117.36V106H71.5112L71.5592 107.824C71.7939 107.216 72.1779 106.736 72.7112 106.384C73.2445 106.021 73.8685 105.84 74.5832 105.84C75.2659 105.84 75.8792 106.005 76.4232 106.336C76.9672 106.667 77.3992 107.141 77.7192 107.76C78.0392 108.379 78.1992 109.125 78.1992 110C78.1992 110.864 78.0392 111.611 77.7192 112.24C77.3992 112.859 76.9619 113.333 76.4072 113.664C75.8632 113.995 75.2445 114.16 74.5512 114.16C73.8685 114.16 73.2659 113.989 72.7432 113.648C72.2205 113.307 71.8365 112.843 71.5912 112.256V117.36H70.7912ZM74.4552 113.456C75.3619 113.456 76.0765 113.147 76.5992 112.528C77.1325 111.909 77.3992 111.067 77.3992 110C77.3992 108.933 77.1379 108.091 76.6152 107.472C76.0925 106.853 75.3832 106.544 74.4872 106.544C73.9219 106.544 73.4205 106.688 72.9832 106.976C72.5565 107.253 72.2152 107.653 71.9592 108.176C71.7139 108.688 71.5912 109.296 71.5912 110C71.5912 110.704 71.7139 111.317 71.9592 111.84C72.2045 112.352 72.5405 112.752 72.9672 113.04C73.4045 113.317 73.9005 113.456 74.4552 113.456ZM81.2459 102.32V112.112C81.2459 112.603 81.3313 112.949 81.5019 113.152C81.6726 113.355 81.9393 113.456 82.3019 113.456C82.5259 113.456 82.7019 113.44 82.8299 113.408C82.9686 113.376 83.1286 113.323 83.3099 113.248L83.1979 113.952C82.8993 114.091 82.5473 114.16 82.1419 114.16C81.5766 114.16 81.1499 114 80.8619 113.68C80.5846 113.349 80.4459 112.837 80.4459 112.144V102.32H81.2459ZM88.1021 114.16C87.3661 114.16 86.7101 113.995 86.1341 113.664C85.5581 113.333 85.1047 112.859 84.7741 112.24C84.4541 111.611 84.2941 110.864 84.2941 110C84.2941 109.136 84.4541 108.395 84.7741 107.776C85.0941 107.147 85.5314 106.667 86.0861 106.336C86.6514 106.005 87.2914 105.84 88.0061 105.84C88.7314 105.84 89.3501 106 89.8621 106.32C90.3847 106.64 90.7794 107.088 91.0461 107.664C91.3234 108.229 91.4621 108.885 91.4621 109.632C91.4621 109.739 91.4567 109.84 91.4461 109.936C91.4461 110.021 91.4407 110.096 91.4301 110.16H85.0781C85.1101 111.195 85.3981 112.005 85.9421 112.592C86.4967 113.168 87.2114 113.456 88.0861 113.456C88.7047 113.456 89.2327 113.323 89.6701 113.056C90.1181 112.789 90.4647 112.421 90.7101 111.952L91.3501 112.32C91.0514 112.885 90.6194 113.333 90.0541 113.664C89.4994 113.995 88.8487 114.16 88.1021 114.16ZM87.9901 106.544C87.2114 106.544 86.5554 106.8 86.0221 107.312C85.4994 107.813 85.1901 108.523 85.0941 109.44H90.6781C90.6461 108.555 90.3901 107.851 89.9101 107.328C89.4407 106.805 88.8007 106.544 87.9901 106.544ZM108.593 106H109.473L106.753 114H105.953L103.425 107.04L100.945 114H100.145L97.4246 106H98.3046L100.561 113.04L103.041 106H103.857L106.353 113.04L108.593 106ZM116.062 108.736C116.062 108.053 115.876 107.52 115.502 107.136C115.129 106.741 114.596 106.544 113.902 106.544C113.294 106.544 112.766 106.677 112.318 106.944C111.881 107.211 111.561 107.643 111.358 108.24L110.702 107.824C110.937 107.195 111.326 106.709 111.87 106.368C112.425 106.016 113.108 105.84 113.918 105.84C114.793 105.84 115.502 106.075 116.046 106.544C116.59 107.003 116.862 107.685 116.862 108.592V112.592C116.862 113.157 117.118 113.44 117.63 113.44C117.854 113.44 118.046 113.403 118.206 113.328L118.158 113.968C117.977 114.064 117.742 114.112 117.454 114.112C117.102 114.112 116.788 114.011 116.51 113.808C116.233 113.605 116.078 113.237 116.046 112.704C115.78 113.205 115.38 113.573 114.846 113.808C114.313 114.043 113.774 114.16 113.23 114.16C112.473 114.16 111.849 113.984 111.358 113.632C110.868 113.28 110.622 112.768 110.622 112.096C110.622 111.488 110.825 111.003 111.23 110.64C111.636 110.277 112.196 110.027 112.91 109.888L116.062 109.264V108.736ZM111.438 112.032C111.438 112.48 111.604 112.832 111.934 113.088C112.265 113.333 112.734 113.456 113.342 113.456C113.758 113.456 114.174 113.381 114.59 113.232C115.017 113.072 115.369 112.827 115.646 112.496C115.924 112.155 116.062 111.717 116.062 111.184V109.936L113.31 110.48C112.681 110.608 112.212 110.795 111.902 111.04C111.593 111.285 111.438 111.616 111.438 112.032ZM119.854 114V106H120.574L120.622 107.6C120.867 107.035 121.256 106.603 121.79 106.304C122.323 105.995 122.926 105.84 123.598 105.84C124.483 105.84 125.214 106.091 125.79 106.592C126.366 107.093 126.654 107.835 126.654 108.816V114H125.854V109.072C125.854 108.197 125.635 107.557 125.198 107.152C124.76 106.747 124.2 106.544 123.518 106.544C123.016 106.544 122.547 106.661 122.11 106.896C121.672 107.12 121.32 107.451 121.054 107.888C120.787 108.325 120.654 108.859 120.654 109.488V114H119.854ZM133.533 106V106.688H130.541V111.888C130.541 112.912 131.01 113.424 131.949 113.424C132.248 113.424 132.509 113.376 132.733 113.28C132.968 113.173 133.176 113.024 133.357 112.832L133.661 113.488C133.448 113.691 133.186 113.856 132.877 113.984C132.578 114.101 132.237 114.16 131.853 114.16C131.224 114.16 130.712 113.989 130.317 113.648C129.933 113.296 129.741 112.747 129.741 112V106.688H128.141V106H129.741V104L130.541 103.776V106H133.533ZM145.078 108.736C145.078 108.053 144.891 107.52 144.518 107.136C144.144 106.741 143.611 106.544 142.918 106.544C142.31 106.544 141.782 106.677 141.334 106.944C140.896 107.211 140.576 107.643 140.374 108.24L139.718 107.824C139.952 107.195 140.342 106.709 140.886 106.368C141.44 106.016 142.123 105.84 142.934 105.84C143.808 105.84 144.518 106.075 145.062 106.544C145.606 107.003 145.878 107.685 145.878 108.592V112.592C145.878 113.157 146.134 113.44 146.646 113.44C146.87 113.44 147.062 113.403 147.222 113.328L147.174 113.968C146.992 114.064 146.758 114.112 146.47 114.112C146.118 114.112 145.803 114.011 145.526 113.808C145.248 113.605 145.094 113.237 145.062 112.704C144.795 113.205 144.395 113.573 143.862 113.808C143.328 114.043 142.79 114.16 142.246 114.16C141.488 114.16 140.864 113.984 140.374 113.632C139.883 113.28 139.638 112.768 139.638 112.096C139.638 111.488 139.84 111.003 140.246 110.64C140.651 110.277 141.211 110.027 141.926 109.888L145.078 109.264V108.736ZM140.454 112.032C140.454 112.48 140.619 112.832 140.95 113.088C141.28 113.333 141.75 113.456 142.358 113.456C142.774 113.456 143.19 113.381 143.606 113.232C144.032 113.072 144.384 112.827 144.662 112.496C144.939 112.155 145.078 111.717 145.078 111.184V109.936L142.326 110.48C141.696 110.608 141.227 110.795 140.918 111.04C140.608 111.285 140.454 111.616 140.454 112.032ZM163.311 106H164.191L161.471 114H160.671L158.143 107.04L155.663 114H154.863L152.143 106H153.023L155.279 113.04L157.759 106H158.575L161.071 113.04L163.311 106ZM170.781 108.736C170.781 108.053 170.594 107.52 170.221 107.136C169.848 106.741 169.314 106.544 168.621 106.544C168.013 106.544 167.485 106.677 167.037 106.944C166.6 107.211 166.28 107.643 166.077 108.24L165.421 107.824C165.656 107.195 166.045 106.709 166.589 106.368C167.144 106.016 167.826 105.84 168.637 105.84C169.512 105.84 170.221 106.075 170.765 106.544C171.309 107.003 171.581 107.685 171.581 108.592V112.592C171.581 113.157 171.837 113.44 172.349 113.44C172.573 113.44 172.765 113.403 172.925 113.328L172.877 113.968C172.696 114.064 172.461 114.112 172.173 114.112C171.821 114.112 171.506 114.011 171.229 113.808C170.952 113.605 170.797 113.237 170.765 112.704C170.498 113.205 170.098 113.573 169.565 113.808C169.032 114.043 168.493 114.16 167.949 114.16C167.192 114.16 166.568 113.984 166.077 113.632C165.586 113.28 165.341 112.768 165.341 112.096C165.341 111.488 165.544 111.003 165.949 110.64C166.354 110.277 166.914 110.027 167.629 109.888L170.781 109.264V108.736ZM166.157 112.032C166.157 112.48 166.322 112.832 166.653 113.088C166.984 113.333 167.453 113.456 168.061 113.456C168.477 113.456 168.893 113.381 169.309 113.232C169.736 113.072 170.088 112.827 170.365 112.496C170.642 112.155 170.781 111.717 170.781 111.184V109.936L168.029 110.48C167.4 110.608 166.93 110.795 166.621 111.04C166.312 111.285 166.157 111.616 166.157 112.032ZM180.501 106L176.629 115.472C176.331 116.219 176 116.731 175.637 117.008C175.275 117.296 174.827 117.44 174.293 117.44C173.632 117.44 173.12 117.259 172.757 116.896L173.013 116.208C173.173 116.4 173.365 116.533 173.589 116.608C173.813 116.693 174.043 116.736 174.277 116.736C174.619 116.736 174.923 116.635 175.189 116.432C175.467 116.24 175.717 115.856 175.941 115.28L176.469 114L175.621 112.016L173.093 106H174.005L176.453 112.064L176.853 113.136L177.285 111.984L179.637 106H180.501ZM190.814 106V106.688H187.822V111.888C187.822 112.912 188.292 113.424 189.23 113.424C189.529 113.424 189.79 113.376 190.014 113.28C190.249 113.173 190.457 113.024 190.638 112.832L190.942 113.488C190.729 113.691 190.468 113.856 190.158 113.984C189.86 114.101 189.518 114.16 189.134 114.16C188.505 114.16 187.993 113.989 187.598 113.648C187.214 113.296 187.022 112.747 187.022 112V106.688H185.422V106H187.022V104L187.822 103.776V106H190.814ZM195.79 105.84C196.536 105.84 197.192 106.005 197.758 106.336C198.334 106.667 198.782 107.147 199.102 107.776C199.432 108.395 199.598 109.136 199.598 110C199.598 110.864 199.432 111.611 199.102 112.24C198.782 112.859 198.334 113.333 197.758 113.664C197.192 113.995 196.536 114.16 195.79 114.16C195.043 114.16 194.382 113.995 193.806 113.664C193.24 113.333 192.792 112.859 192.462 112.24C192.142 111.611 191.982 110.864 191.982 110C191.982 109.136 192.142 108.395 192.462 107.776C192.792 107.147 193.24 106.667 193.806 106.336C194.382 106.005 195.043 105.84 195.79 105.84ZM195.79 106.528C194.883 106.528 194.152 106.837 193.598 107.456C193.054 108.075 192.782 108.923 192.782 110C192.782 111.077 193.054 111.925 193.598 112.544C194.152 113.163 194.883 113.472 195.79 113.472C196.696 113.472 197.422 113.163 197.966 112.544C198.52 111.925 198.798 111.077 198.798 110C198.798 108.923 198.52 108.075 197.966 107.456C197.422 106.837 196.696 106.528 195.79 106.528ZM210.165 114.16C209.429 114.16 208.773 113.995 208.197 113.664C207.621 113.333 207.167 112.859 206.837 112.24C206.517 111.611 206.357 110.864 206.357 110C206.357 109.136 206.517 108.395 206.837 107.776C207.157 107.147 207.594 106.667 208.149 106.336C208.714 106.005 209.354 105.84 210.069 105.84C210.794 105.84 211.413 106 211.925 106.32C212.447 106.64 212.842 107.088 213.109 107.664C213.386 108.229 213.525 108.885 213.525 109.632C213.525 109.739 213.519 109.84 213.509 109.936C213.509 110.021 213.503 110.096 213.493 110.16H207.141C207.173 111.195 207.461 112.005 208.005 112.592C208.559 113.168 209.274 113.456 210.149 113.456C210.767 113.456 211.295 113.323 211.733 113.056C212.181 112.789 212.527 112.421 212.773 111.952L213.413 112.32C213.114 112.885 212.682 113.333 212.117 113.664C211.562 113.995 210.911 114.16 210.165 114.16ZM210.053 106.544C209.274 106.544 208.618 106.8 208.085 107.312C207.562 107.813 207.253 108.523 207.157 109.44H212.741C212.709 108.555 212.453 107.851 211.973 107.328C211.503 106.805 210.863 106.544 210.053 106.544ZM220.703 108.736C220.703 108.053 220.516 107.52 220.143 107.136C219.769 106.741 219.236 106.544 218.543 106.544C217.935 106.544 217.407 106.677 216.959 106.944C216.521 107.211 216.201 107.643 215.999 108.24L215.343 107.824C215.577 107.195 215.967 106.709 216.511 106.368C217.065 106.016 217.748 105.84 218.559 105.84C219.433 105.84 220.143 106.075 220.687 106.544C221.231 107.003 221.503 107.685 221.503 108.592V112.592C221.503 113.157 221.759 113.44 222.271 113.44C222.495 113.44 222.687 113.403 222.847 113.328L222.799 113.968C222.617 114.064 222.383 114.112 222.095 114.112C221.743 114.112 221.428 114.011 221.151 113.808C220.873 113.605 220.719 113.237 220.687 112.704C220.42 113.205 220.02 113.573 219.487 113.808C218.953 114.043 218.415 114.16 217.871 114.16C217.113 114.16 216.489 113.984 215.999 113.632C215.508 113.28 215.263 112.768 215.263 112.096C215.263 111.488 215.465 111.003 215.871 110.64C216.276 110.277 216.836 110.027 217.551 109.888L220.703 109.264V108.736ZM216.079 112.032C216.079 112.48 216.244 112.832 216.575 113.088C216.905 113.333 217.375 113.456 217.983 113.456C218.399 113.456 218.815 113.381 219.231 113.232C219.657 113.072 220.009 112.827 220.287 112.496C220.564 112.155 220.703 111.717 220.703 111.184V109.936L217.951 110.48C217.321 110.608 216.852 110.795 216.543 111.04C216.233 111.285 216.079 111.616 216.079 112.032ZM227.198 114.16C226.388 114.16 225.668 113.995 225.038 113.664C224.42 113.333 223.982 112.859 223.726 112.24L224.414 111.776C224.596 112.32 224.937 112.736 225.438 113.024C225.94 113.312 226.548 113.456 227.262 113.456C227.956 113.456 228.505 113.317 228.91 113.04C229.316 112.763 229.518 112.395 229.518 111.936C229.518 111.627 229.417 111.36 229.214 111.136C229.022 110.901 228.654 110.725 228.11 110.608L226.238 110.208C225.481 110.048 224.937 109.792 224.606 109.44C224.276 109.077 224.11 108.64 224.11 108.128C224.11 107.712 224.238 107.333 224.494 106.992C224.75 106.64 225.102 106.363 225.55 106.16C226.009 105.947 226.542 105.84 227.15 105.84C227.95 105.84 228.612 106 229.134 106.32C229.657 106.629 230.025 107.099 230.238 107.728L229.566 108.16C229.406 107.595 229.108 107.184 228.67 106.928C228.233 106.672 227.726 106.544 227.15 106.544C226.468 106.544 225.924 106.693 225.518 106.992C225.113 107.28 224.91 107.643 224.91 108.08C224.91 108.389 225.012 108.672 225.214 108.928C225.428 109.173 225.812 109.355 226.366 109.472L228.286 109.888C229.033 110.048 229.556 110.293 229.854 110.624C230.164 110.944 230.318 111.344 230.318 111.824C230.318 112.539 230.03 113.109 229.454 113.536C228.889 113.952 228.137 114.16 227.198 114.16ZM232.972 104.448C232.77 104.448 232.604 104.389 232.476 104.272C232.359 104.144 232.3 103.979 232.3 103.776C232.3 103.573 232.359 103.413 232.476 103.296C232.604 103.168 232.77 103.104 232.972 103.104C233.175 103.104 233.335 103.168 233.452 103.296C233.58 103.413 233.644 103.573 233.644 103.776C233.644 103.979 233.58 104.144 233.452 104.272C233.335 104.389 233.175 104.448 232.972 104.448ZM233.372 106V114H232.572V106H233.372ZM236.965 102.32V112.112C236.965 112.603 237.05 112.949 237.221 113.152C237.391 113.355 237.658 113.456 238.021 113.456C238.245 113.456 238.421 113.44 238.549 113.408C238.687 113.376 238.847 113.323 239.029 113.248L238.917 113.952C238.618 114.091 238.266 114.16 237.861 114.16C237.295 114.16 236.869 114 236.581 113.68C236.303 113.349 236.165 112.837 236.165 112.144V102.32H236.965ZM246.548 106L242.676 115.472C242.378 116.219 242.047 116.731 241.684 117.008C241.322 117.296 240.874 117.44 240.34 117.44C239.679 117.44 239.167 117.259 238.804 116.896L239.06 116.208C239.22 116.4 239.412 116.533 239.636 116.608C239.86 116.693 240.09 116.736 240.324 116.736C240.666 116.736 240.97 116.635 241.236 116.432C241.514 116.24 241.764 115.856 241.988 115.28L242.516 114L241.668 112.016L239.14 106H240.052L242.5 112.064L242.9 113.136L243.332 111.984L245.684 106H246.548ZM252.854 114V106H253.526L253.622 107.664C253.824 107.12 254.144 106.683 254.582 106.352C255.03 106.011 255.574 105.84 256.214 105.84C256.64 105.84 256.976 105.931 257.222 106.112L257.03 106.816C256.912 106.741 256.784 106.683 256.646 106.64C256.507 106.597 256.299 106.576 256.022 106.576C255.616 106.576 255.232 106.704 254.87 106.96C254.507 107.205 254.214 107.552 253.99 108C253.766 108.437 253.654 108.944 253.654 109.52V114H252.854ZM261.79 114.16C261.054 114.16 260.398 113.995 259.822 113.664C259.246 113.333 258.792 112.859 258.462 112.24C258.142 111.611 257.982 110.864 257.982 110C257.982 109.136 258.142 108.395 258.462 107.776C258.782 107.147 259.219 106.667 259.774 106.336C260.339 106.005 260.979 105.84 261.694 105.84C262.419 105.84 263.038 106 263.55 106.32C264.072 106.64 264.467 107.088 264.734 107.664C265.011 108.229 265.15 108.885 265.15 109.632C265.15 109.739 265.144 109.84 265.134 109.936C265.134 110.021 265.128 110.096 265.118 110.16H258.766C258.798 111.195 259.086 112.005 259.63 112.592C260.184 113.168 260.899 113.456 261.774 113.456C262.392 113.456 262.92 113.323 263.358 113.056C263.806 112.789 264.152 112.421 264.398 111.952L265.038 112.32C264.739 112.885 264.307 113.333 263.742 113.664C263.187 113.995 262.536 114.16 261.79 114.16ZM261.678 106.544C260.899 106.544 260.243 106.8 259.71 107.312C259.187 107.813 258.878 108.523 258.782 109.44H264.366C264.334 108.555 264.078 107.851 263.598 107.328C263.128 106.805 262.488 106.544 261.678 106.544ZM273.496 117.36V112.208C273.272 112.837 272.893 113.323 272.36 113.664C271.826 113.995 271.224 114.16 270.552 114.16C269.858 114.16 269.234 113.995 268.68 113.664C268.136 113.333 267.704 112.859 267.384 112.24C267.064 111.611 266.904 110.864 266.904 110C266.904 109.125 267.069 108.379 267.4 107.76C267.73 107.131 268.173 106.656 268.728 106.336C269.293 106.005 269.928 105.84 270.632 105.84C271.304 105.84 271.901 106.016 272.424 106.368C272.957 106.709 273.325 107.189 273.528 107.808L273.576 106H274.296V117.36H273.496ZM270.648 113.456C271.202 113.456 271.693 113.317 272.12 113.04C272.557 112.752 272.893 112.347 273.128 111.824C273.373 111.301 273.496 110.683 273.496 109.968C273.496 108.901 273.229 108.064 272.696 107.456C272.173 106.848 271.496 106.544 270.664 106.544C269.757 106.544 269.037 106.853 268.504 107.472C267.97 108.091 267.704 108.933 267.704 110C267.704 111.067 267.965 111.909 268.488 112.528C269.021 113.147 269.741 113.456 270.648 113.456ZM279.967 114.16C279.135 114.16 278.441 113.925 277.887 113.456C277.343 112.987 277.071 112.261 277.071 111.28V106H277.871V111.088C277.871 111.92 278.068 112.523 278.463 112.896C278.868 113.269 279.433 113.456 280.159 113.456C280.724 113.456 281.22 113.328 281.647 113.072C282.073 112.805 282.399 112.459 282.623 112.032C282.857 111.595 282.975 111.115 282.975 110.592V106H283.775V114H283.055L283.023 112.352C282.788 112.917 282.404 113.36 281.871 113.68C281.337 114 280.703 114.16 279.967 114.16ZM289.883 114.16C289.147 114.16 288.491 113.995 287.915 113.664C287.339 113.333 286.886 112.859 286.555 112.24C286.235 111.611 286.075 110.864 286.075 110C286.075 109.136 286.235 108.395 286.555 107.776C286.875 107.147 287.313 106.667 287.867 106.336C288.433 106.005 289.073 105.84 289.787 105.84C290.513 105.84 291.131 106 291.643 106.32C292.166 106.64 292.561 107.088 292.827 107.664C293.105 108.229 293.243 108.885 293.243 109.632C293.243 109.739 293.238 109.84 293.227 109.936C293.227 110.021 293.222 110.096 293.211 110.16H286.859C286.891 111.195 287.179 112.005 287.723 112.592C288.278 113.168 288.993 113.456 289.867 113.456C290.486 113.456 291.014 113.323 291.451 113.056C291.899 112.789 292.246 112.421 292.491 111.952L293.131 112.32C292.833 112.885 292.401 113.333 291.835 113.664C291.281 113.995 290.63 114.16 289.883 114.16ZM289.771 106.544C288.993 106.544 288.337 106.8 287.803 107.312C287.281 107.813 286.971 108.523 286.875 109.44H292.459C292.427 108.555 292.171 107.851 291.691 107.328C291.222 106.805 290.582 106.544 289.771 106.544ZM298.23 114.16C297.419 114.16 296.699 113.995 296.07 113.664C295.451 113.333 295.014 112.859 294.758 112.24L295.446 111.776C295.627 112.32 295.968 112.736 296.47 113.024C296.971 113.312 297.579 113.456 298.294 113.456C298.987 113.456 299.536 113.317 299.942 113.04C300.347 112.763 300.55 112.395 300.55 111.936C300.55 111.627 300.448 111.36 300.246 111.136C300.054 110.901 299.686 110.725 299.142 110.608L297.27 110.208C296.512 110.048 295.968 109.792 295.638 109.44C295.307 109.077 295.142 108.64 295.142 108.128C295.142 107.712 295.27 107.333 295.526 106.992C295.782 106.64 296.134 106.363 296.582 106.16C297.04 105.947 297.574 105.84 298.182 105.84C298.982 105.84 299.643 106 300.166 106.32C300.688 106.629 301.056 107.099 301.27 107.728L300.598 108.16C300.438 107.595 300.139 107.184 299.702 106.928C299.264 106.672 298.758 106.544 298.182 106.544C297.499 106.544 296.955 106.693 296.55 106.992C296.144 107.28 295.942 107.643 295.942 108.08C295.942 108.389 296.043 108.672 296.246 108.928C296.459 109.173 296.843 109.355 297.398 109.472L299.318 109.888C300.064 110.048 300.587 110.293 300.886 110.624C301.195 110.944 301.35 111.344 301.35 111.824C301.35 112.539 301.062 113.109 300.486 113.536C299.92 113.952 299.168 114.16 298.23 114.16ZM307.924 106V106.688H304.932V111.888C304.932 112.912 305.401 113.424 306.34 113.424C306.638 113.424 306.9 113.376 307.124 113.28C307.358 113.173 307.566 113.024 307.748 112.832L308.052 113.488C307.838 113.691 307.577 113.856 307.268 113.984C306.969 114.101 306.628 114.16 306.244 114.16C305.614 114.16 305.102 113.989 304.708 113.648C304.324 113.296 304.132 112.747 304.132 112V106.688H302.532V106H304.132V104L304.932 103.776V106H307.924ZM51.5881 133V125H52.3081L52.3561 126.664C52.5907 126.099 52.9694 125.656 53.4921 125.336C54.0147 125.005 54.6067 124.84 55.2681 124.84C55.9614 124.84 56.5587 125.005 57.0601 125.336C57.5721 125.667 57.9241 126.152 58.1161 126.792C58.2547 126.387 58.4787 126.04 58.7881 125.752C59.0974 125.453 59.4601 125.224 59.8761 125.064C60.2921 124.904 60.7241 124.824 61.1721 124.824C61.7267 124.824 62.2334 124.936 62.6921 125.16C63.1507 125.373 63.5134 125.704 63.7801 126.152C64.0467 126.589 64.1801 127.139 64.1801 127.8V132.984H63.3801V127.88C63.3801 127.091 63.1667 126.504 62.7401 126.12C62.3134 125.725 61.7587 125.528 61.0761 125.528C60.5641 125.528 60.0947 125.651 59.6681 125.896C59.2521 126.141 58.9161 126.483 58.6601 126.92C58.4147 127.347 58.2921 127.837 58.2921 128.392V133H57.4921V127.896C57.4921 127.107 57.2787 126.52 56.8521 126.136C56.4254 125.741 55.8707 125.544 55.1881 125.544C54.7081 125.544 54.2547 125.661 53.8281 125.896C53.4014 126.131 53.0547 126.467 52.7881 126.904C52.5214 127.341 52.3881 127.864 52.3881 128.472V133H51.5881ZM70.2114 124.84C70.9581 124.84 71.6141 125.005 72.1794 125.336C72.7554 125.667 73.2034 126.147 73.5234 126.776C73.8541 127.395 74.0194 128.136 74.0194 129C74.0194 129.864 73.8541 130.611 73.5234 131.24C73.2034 131.859 72.7554 132.333 72.1794 132.664C71.6141 132.995 70.9581 133.16 70.2114 133.16C69.4648 133.16 68.8034 132.995 68.2274 132.664C67.6621 132.333 67.2141 131.859 66.8834 131.24C66.5634 130.611 66.4034 129.864 66.4034 129C66.4034 128.136 66.5634 127.395 66.8834 126.776C67.2141 126.147 67.6621 125.667 68.2274 125.336C68.8034 125.005 69.4648 124.84 70.2114 124.84ZM70.2114 125.528C69.3048 125.528 68.5741 125.837 68.0194 126.456C67.4754 127.075 67.2034 127.923 67.2034 129C67.2034 130.077 67.4754 130.925 68.0194 131.544C68.5741 132.163 69.3048 132.472 70.2114 132.472C71.1181 132.472 71.8434 132.163 72.3874 131.544C72.9421 130.925 73.2194 130.077 73.2194 129C73.2194 127.923 72.9421 127.075 72.3874 126.456C71.8434 125.837 71.1181 125.528 70.2114 125.528ZM76.3068 133V125H77.0268L77.0748 126.6C77.3201 126.035 77.7095 125.603 78.2428 125.304C78.7761 124.995 79.3788 124.84 80.0508 124.84C80.9361 124.84 81.6668 125.091 82.2428 125.592C82.8188 126.093 83.1068 126.835 83.1068 127.816V133H82.3068V128.072C82.3068 127.197 82.0881 126.557 81.6508 126.152C81.2135 125.747 80.6535 125.544 79.9708 125.544C79.4695 125.544 79.0001 125.661 78.5628 125.896C78.1255 126.12 77.7735 126.451 77.5068 126.888C77.2401 127.325 77.1068 127.859 77.1068 128.488V133H76.3068ZM89.1333 133.16C88.3973 133.16 87.7413 132.995 87.1653 132.664C86.5893 132.333 86.136 131.859 85.8053 131.24C85.4853 130.611 85.3253 129.864 85.3253 129C85.3253 128.136 85.4853 127.395 85.8053 126.776C86.1253 126.147 86.5626 125.667 87.1173 125.336C87.6826 125.005 88.3226 124.84 89.0373 124.84C89.7626 124.84 90.3813 125 90.8933 125.32C91.416 125.64 91.8106 126.088 92.0773 126.664C92.3546 127.229 92.4933 127.885 92.4933 128.632C92.4933 128.739 92.488 128.84 92.4773 128.936C92.4773 129.021 92.472 129.096 92.4613 129.16H86.1093C86.1413 130.195 86.4293 131.005 86.9733 131.592C87.528 132.168 88.2426 132.456 89.1173 132.456C89.736 132.456 90.264 132.323 90.7013 132.056C91.1493 131.789 91.496 131.421 91.7413 130.952L92.3813 131.32C92.0826 131.885 91.6506 132.333 91.0853 132.664C90.5306 132.995 89.88 133.16 89.1333 133.16ZM89.0213 125.544C88.2426 125.544 87.5866 125.8 87.0533 126.312C86.5306 126.813 86.2213 127.523 86.1253 128.44H91.7093C91.6773 127.555 91.4213 126.851 90.9413 126.328C90.472 125.805 89.832 125.544 89.0213 125.544ZM100.783 125L96.9107 134.472C96.612 135.219 96.2814 135.731 95.9187 136.008C95.556 136.296 95.108 136.44 94.5747 136.44C93.9134 136.44 93.4014 136.259 93.0387 135.896L93.2947 135.208C93.4547 135.4 93.6467 135.533 93.8707 135.608C94.0947 135.693 94.324 135.736 94.5587 135.736C94.9 135.736 95.204 135.635 95.4707 135.432C95.748 135.24 95.9987 134.856 96.2227 134.28L96.7507 133L95.9027 131.016L93.3747 125H94.2867L96.7347 131.064L97.1347 132.136L97.5667 130.984L99.9187 125H100.783ZM110.848 133.16C110.155 133.16 109.541 132.984 109.008 132.632C108.475 132.269 108.091 131.784 107.856 131.176L107.808 133H107.088V121.32H107.888V126.744C108.133 126.157 108.517 125.693 109.04 125.352C109.563 125.011 110.165 124.84 110.848 124.84C111.552 124.84 112.176 125.005 112.72 125.336C113.264 125.667 113.696 126.141 114.016 126.76C114.336 127.379 114.496 128.125 114.496 129C114.496 129.864 114.336 130.611 114.016 131.24C113.696 131.859 113.259 132.333 112.704 132.664C112.16 132.995 111.541 133.16 110.848 133.16ZM110.752 132.456C111.659 132.456 112.373 132.147 112.896 131.528C113.429 130.909 113.696 130.067 113.696 129C113.696 127.933 113.435 127.091 112.912 126.472C112.389 125.853 111.675 125.544 110.768 125.544C110.203 125.544 109.701 125.688 109.264 125.976C108.837 126.253 108.501 126.653 108.256 127.176C108.011 127.699 107.888 128.312 107.888 129.016C107.888 129.72 108.011 130.333 108.256 130.856C108.501 131.368 108.837 131.763 109.264 132.04C109.701 132.317 110.197 132.456 110.752 132.456ZM121.703 127.736C121.703 127.053 121.516 126.52 121.143 126.136C120.769 125.741 120.236 125.544 119.543 125.544C118.935 125.544 118.407 125.677 117.959 125.944C117.521 126.211 117.201 126.643 116.999 127.24L116.343 126.824C116.577 126.195 116.967 125.709 117.511 125.368C118.065 125.016 118.748 124.84 119.559 124.84C120.433 124.84 121.143 125.075 121.687 125.544C122.231 126.003 122.503 126.685 122.503 127.592V131.592C122.503 132.157 122.759 132.44 123.271 132.44C123.495 132.44 123.687 132.403 123.847 132.328L123.799 132.968C123.617 133.064 123.383 133.112 123.095 133.112C122.743 133.112 122.428 133.011 122.151 132.808C121.873 132.605 121.719 132.237 121.687 131.704C121.42 132.205 121.02 132.573 120.487 132.808C119.953 133.043 119.415 133.16 118.871 133.16C118.113 133.16 117.489 132.984 116.999 132.632C116.508 132.28 116.263 131.768 116.263 131.096C116.263 130.488 116.465 130.003 116.871 129.64C117.276 129.277 117.836 129.027 118.551 128.888L121.703 128.264V127.736ZM117.079 131.032C117.079 131.48 117.244 131.832 117.575 132.088C117.905 132.333 118.375 132.456 118.983 132.456C119.399 132.456 119.815 132.381 120.231 132.232C120.657 132.072 121.009 131.827 121.287 131.496C121.564 131.155 121.703 130.717 121.703 130.184V128.936L118.951 129.48C118.321 129.608 117.852 129.795 117.543 130.04C117.233 130.285 117.079 130.616 117.079 131.032ZM128.726 124.84C129.537 124.84 130.214 125.032 130.758 125.416C131.313 125.789 131.713 126.317 131.958 127L131.206 127.352C131.036 126.776 130.737 126.333 130.31 126.024C129.894 125.704 129.361 125.544 128.71 125.544C127.825 125.544 127.11 125.853 126.566 126.472C126.022 127.08 125.75 127.923 125.75 129C125.75 130.077 126.017 130.925 126.55 131.544C127.094 132.152 127.809 132.456 128.694 132.456C129.366 132.456 129.937 132.291 130.406 131.96C130.886 131.619 131.185 131.149 131.302 130.552L132.038 130.808C131.825 131.533 131.42 132.109 130.822 132.536C130.236 132.952 129.532 133.16 128.71 133.16C127.974 133.16 127.324 132.995 126.758 132.664C126.193 132.333 125.75 131.859 125.43 131.24C125.11 130.611 124.95 129.864 124.95 129C124.95 128.136 125.11 127.395 125.43 126.776C125.761 126.147 126.209 125.667 126.774 125.336C127.35 125.005 128.001 124.84 128.726 124.84ZM140.774 125L137.462 128.2L140.902 133H139.926L136.87 128.76L134.982 130.584V133H134.182V121.32H134.982V129.576L139.734 125H140.774ZM151.217 125V125.688H148.401V133H147.601V125.688H146.001V125H147.601V123.656C147.601 122.931 147.803 122.349 148.209 121.912C148.614 121.464 149.206 121.24 149.985 121.24C150.283 121.24 150.539 121.277 150.753 121.352C150.977 121.427 151.153 121.533 151.281 121.672L151.057 122.312C150.801 122.077 150.465 121.96 150.049 121.96C149.526 121.96 149.121 122.115 148.833 122.424C148.545 122.723 148.401 123.16 148.401 123.736V125H151.217ZM152.807 133V125H153.479L153.575 126.664C153.777 126.12 154.097 125.683 154.535 125.352C154.983 125.011 155.527 124.84 156.167 124.84C156.593 124.84 156.929 124.931 157.175 125.112L156.983 125.816C156.865 125.741 156.737 125.683 156.599 125.64C156.46 125.597 156.252 125.576 155.975 125.576C155.569 125.576 155.185 125.704 154.823 125.96C154.46 126.205 154.167 126.552 153.943 127C153.719 127.437 153.607 127.944 153.607 128.52V133H152.807ZM161.743 124.84C162.489 124.84 163.145 125.005 163.711 125.336C164.287 125.667 164.735 126.147 165.055 126.776C165.385 127.395 165.551 128.136 165.551 129C165.551 129.864 165.385 130.611 165.055 131.24C164.735 131.859 164.287 132.333 163.711 132.664C163.145 132.995 162.489 133.16 161.743 133.16C160.996 133.16 160.335 132.995 159.759 132.664C159.193 132.333 158.745 131.859 158.415 131.24C158.095 130.611 157.935 129.864 157.935 129C157.935 128.136 158.095 127.395 158.415 126.776C158.745 126.147 159.193 125.667 159.759 125.336C160.335 125.005 160.996 124.84 161.743 124.84ZM161.743 125.528C160.836 125.528 160.105 125.837 159.551 126.456C159.007 127.075 158.735 127.923 158.735 129C158.735 130.077 159.007 130.925 159.551 131.544C160.105 132.163 160.836 132.472 161.743 132.472C162.649 132.472 163.375 132.163 163.919 131.544C164.473 130.925 164.751 130.077 164.751 129C164.751 127.923 164.473 127.075 163.919 126.456C163.375 125.837 162.649 125.528 161.743 125.528ZM167.838 133V125H168.558L168.606 126.664C168.841 126.099 169.219 125.656 169.742 125.336C170.265 125.005 170.857 124.84 171.518 124.84C172.211 124.84 172.809 125.005 173.31 125.336C173.822 125.667 174.174 126.152 174.366 126.792C174.505 126.387 174.729 126.04 175.038 125.752C175.347 125.453 175.71 125.224 176.126 125.064C176.542 124.904 176.974 124.824 177.422 124.824C177.977 124.824 178.483 124.936 178.942 125.16C179.401 125.373 179.763 125.704 180.03 126.152C180.297 126.589 180.43 127.139 180.43 127.8V132.984H179.63V127.88C179.63 127.091 179.417 126.504 178.99 126.12C178.563 125.725 178.009 125.528 177.326 125.528C176.814 125.528 176.345 125.651 175.918 125.896C175.502 126.141 175.166 126.483 174.91 126.92C174.665 127.347 174.542 127.837 174.542 128.392V133H173.742V127.896C173.742 127.107 173.529 126.52 173.102 126.136C172.675 125.741 172.121 125.544 171.438 125.544C170.958 125.544 170.505 125.661 170.078 125.896C169.651 126.131 169.305 126.467 169.038 126.904C168.771 127.341 168.638 127.864 168.638 128.472V133H167.838ZM192.076 125V125.688H189.26V133H188.46V125.688H186.86V125H188.46V123.656C188.46 122.931 188.663 122.349 189.068 121.912C189.474 121.464 190.066 121.24 190.844 121.24C191.143 121.24 191.399 121.277 191.612 121.352C191.836 121.427 192.012 121.533 192.14 121.672L191.916 122.312C191.66 122.077 191.324 121.96 190.908 121.96C190.386 121.96 189.98 122.115 189.692 122.424C189.404 122.723 189.26 123.16 189.26 123.736V125H192.076ZM193.666 133V125H194.338L194.434 126.664C194.637 126.12 194.957 125.683 195.394 125.352C195.842 125.011 196.386 124.84 197.026 124.84C197.453 124.84 197.789 124.931 198.034 125.112L197.842 125.816C197.725 125.741 197.597 125.683 197.458 125.64C197.32 125.597 197.112 125.576 196.834 125.576C196.429 125.576 196.045 125.704 195.682 125.96C195.32 126.205 195.026 126.552 194.802 127C194.578 127.437 194.466 127.944 194.466 128.52V133H193.666ZM200.113 123.448C199.91 123.448 199.745 123.389 199.617 123.272C199.5 123.144 199.441 122.979 199.441 122.776C199.441 122.573 199.5 122.413 199.617 122.296C199.745 122.168 199.91 122.104 200.113 122.104C200.316 122.104 200.476 122.168 200.593 122.296C200.721 122.413 200.785 122.573 200.785 122.776C200.785 122.979 200.721 123.144 200.593 123.272C200.476 123.389 200.316 123.448 200.113 123.448ZM200.513 125V133H199.713V125H200.513ZM206.633 133.16C205.897 133.16 205.241 132.995 204.665 132.664C204.089 132.333 203.636 131.859 203.305 131.24C202.985 130.611 202.825 129.864 202.825 129C202.825 128.136 202.985 127.395 203.305 126.776C203.625 126.147 204.063 125.667 204.617 125.336C205.183 125.005 205.823 124.84 206.537 124.84C207.263 124.84 207.881 125 208.393 125.32C208.916 125.64 209.311 126.088 209.577 126.664C209.855 127.229 209.993 127.885 209.993 128.632C209.993 128.739 209.988 128.84 209.977 128.936C209.977 129.021 209.972 129.096 209.961 129.16H203.609C203.641 130.195 203.929 131.005 204.473 131.592C205.028 132.168 205.743 132.456 206.617 132.456C207.236 132.456 207.764 132.323 208.201 132.056C208.649 131.789 208.996 131.421 209.241 130.952L209.881 131.32C209.583 131.885 209.151 132.333 208.585 132.664C208.031 132.995 207.38 133.16 206.633 133.16ZM206.521 125.544C205.743 125.544 205.087 125.8 204.553 126.312C204.031 126.813 203.721 127.523 203.625 128.44H209.209C209.177 127.555 208.921 126.851 208.441 126.328C207.972 125.805 207.332 125.544 206.521 125.544ZM212.276 133V125H212.996L213.044 126.6C213.289 126.035 213.678 125.603 214.212 125.304C214.745 124.995 215.348 124.84 216.02 124.84C216.905 124.84 217.636 125.091 218.212 125.592C218.788 126.093 219.076 126.835 219.076 127.816V133H218.276V128.072C218.276 127.197 218.057 126.557 217.62 126.152C217.182 125.747 216.622 125.544 215.94 125.544C215.438 125.544 214.969 125.661 214.532 125.896C214.094 126.12 213.742 126.451 213.476 126.888C213.209 127.325 213.076 127.859 213.076 128.488V133H212.276ZM224.958 133.16C224.265 133.16 223.641 132.995 223.086 132.664C222.542 132.333 222.11 131.859 221.79 131.24C221.47 130.611 221.31 129.864 221.31 129C221.31 128.125 221.475 127.379 221.806 126.76C222.137 126.131 222.579 125.656 223.134 125.336C223.699 125.005 224.334 124.84 225.038 124.84C225.71 124.84 226.302 125.011 226.814 125.352C227.326 125.693 227.689 126.168 227.902 126.776V121.32H228.702V133H227.982L227.934 131.112C227.731 131.763 227.358 132.269 226.814 132.632C226.27 132.984 225.651 133.16 224.958 133.16ZM225.054 132.456C225.609 132.456 226.099 132.317 226.526 132.04C226.963 131.752 227.299 131.347 227.534 130.824C227.779 130.291 227.902 129.661 227.902 128.936C227.902 127.891 227.635 127.064 227.102 126.456C226.579 125.848 225.907 125.544 225.086 125.544C224.169 125.544 223.443 125.853 222.91 126.472C222.377 127.091 222.11 127.933 222.11 129C222.11 130.067 222.371 130.909 222.894 131.528C223.427 132.147 224.147 132.456 225.054 132.456ZM234.261 133.16C233.45 133.16 232.73 132.995 232.101 132.664C231.482 132.333 231.045 131.859 230.789 131.24L231.477 130.776C231.658 131.32 231.999 131.736 232.501 132.024C233.002 132.312 233.61 132.456 234.325 132.456C235.018 132.456 235.567 132.317 235.973 132.04C236.378 131.763 236.581 131.395 236.581 130.936C236.581 130.627 236.479 130.36 236.277 130.136C236.085 129.901 235.717 129.725 235.173 129.608L233.301 129.208C232.543 129.048 231.999 128.792 231.669 128.44C231.338 128.077 231.173 127.64 231.173 127.128C231.173 126.712 231.301 126.333 231.557 125.992C231.813 125.64 232.165 125.363 232.613 125.16C233.071 124.947 233.605 124.84 234.213 124.84C235.013 124.84 235.674 125 236.197 125.32C236.719 125.629 237.087 126.099 237.301 126.728L236.629 127.16C236.469 126.595 236.17 126.184 235.733 125.928C235.295 125.672 234.789 125.544 234.213 125.544C233.53 125.544 232.986 125.693 232.581 125.992C232.175 126.28 231.973 126.643 231.973 127.08C231.973 127.389 232.074 127.672 232.277 127.928C232.49 128.173 232.874 128.355 233.429 128.472L235.349 128.888C236.095 129.048 236.618 129.293 236.917 129.624C237.226 129.944 237.381 130.344 237.381 130.824C237.381 131.539 237.093 132.109 236.517 132.536C235.951 132.952 235.199 133.16 234.261 133.16ZM254.483 125H255.363L252.643 133H251.843L249.315 126.04L246.835 133H246.035L243.315 125H244.195L246.451 132.04L248.931 125H249.747L252.243 132.04L254.483 125ZM257.629 123.448C257.426 123.448 257.261 123.389 257.133 123.272C257.015 123.144 256.957 122.979 256.957 122.776C256.957 122.573 257.015 122.413 257.133 122.296C257.261 122.168 257.426 122.104 257.629 122.104C257.831 122.104 257.991 122.168 258.109 122.296C258.237 122.413 258.301 122.573 258.301 122.776C258.301 122.979 258.237 123.144 258.109 123.272C257.991 123.389 257.831 123.448 257.629 123.448ZM258.029 125V133H257.229V125H258.029ZM265.205 125V125.688H262.213V130.888C262.213 131.912 262.682 132.424 263.621 132.424C263.92 132.424 264.181 132.376 264.405 132.28C264.64 132.173 264.848 132.024 265.029 131.832L265.333 132.488C265.12 132.691 264.858 132.856 264.549 132.984C264.25 133.101 263.909 133.16 263.525 133.16C262.896 133.16 262.384 132.989 261.989 132.648C261.605 132.296 261.413 131.747 261.413 131V125.688H259.813V125H261.413V123L262.213 122.776V125H265.205ZM266.916 133V121.32H267.716V126.632C267.951 126.067 268.33 125.629 268.852 125.32C269.375 125 269.978 124.84 270.66 124.84C271.546 124.84 272.276 125.091 272.852 125.592C273.428 126.083 273.716 126.819 273.716 127.8V133H272.916V128.056C272.916 127.181 272.698 126.541 272.26 126.136C271.823 125.731 271.263 125.528 270.58 125.528C270.079 125.528 269.61 125.645 269.172 125.88C268.735 126.115 268.383 126.451 268.116 126.888C267.85 127.325 267.716 127.859 267.716 128.488V133H266.916ZM279.743 124.84C280.489 124.84 281.145 125.005 281.711 125.336C282.287 125.667 282.735 126.147 283.055 126.776C283.385 127.395 283.551 128.136 283.551 129C283.551 129.864 283.385 130.611 283.055 131.24C282.735 131.859 282.287 132.333 281.711 132.664C281.145 132.995 280.489 133.16 279.743 133.16C278.996 133.16 278.335 132.995 277.759 132.664C277.193 132.333 276.745 131.859 276.415 131.24C276.095 130.611 275.935 129.864 275.935 129C275.935 128.136 276.095 127.395 276.415 126.776C276.745 126.147 277.193 125.667 277.759 125.336C278.335 125.005 278.996 124.84 279.743 124.84ZM279.743 125.528C278.836 125.528 278.105 125.837 277.551 126.456C277.007 127.075 276.735 127.923 276.735 129C276.735 130.077 277.007 130.925 277.551 131.544C278.105 132.163 278.836 132.472 279.743 132.472C280.649 132.472 281.375 132.163 281.919 131.544C282.473 130.925 282.751 130.077 282.751 129C282.751 127.923 282.473 127.075 281.919 126.456C281.375 125.837 280.649 125.528 279.743 125.528ZM288.654 133.16C287.822 133.16 287.129 132.925 286.574 132.456C286.03 131.987 285.758 131.261 285.758 130.28V125H286.558V130.088C286.558 130.92 286.755 131.523 287.15 131.896C287.555 132.269 288.121 132.456 288.846 132.456C289.411 132.456 289.907 132.328 290.334 132.072C290.761 131.805 291.086 131.459 291.31 131.032C291.545 130.595 291.662 130.115 291.662 129.592V125H292.462V133H291.742L291.71 131.352C291.475 131.917 291.091 132.36 290.558 132.68C290.025 133 289.39 133.16 288.654 133.16ZM299.627 125V125.688H296.635V130.888C296.635 131.912 297.104 132.424 298.043 132.424C298.341 132.424 298.603 132.376 298.827 132.28C299.061 132.173 299.269 132.024 299.451 131.832L299.755 132.488C299.541 132.691 299.28 132.856 298.971 132.984C298.672 133.101 298.331 133.16 297.947 133.16C297.317 133.16 296.805 132.989 296.411 132.648C296.027 132.296 295.835 131.747 295.835 131V125.688H294.235V125H295.835V123L296.635 122.776V125H299.627ZM39.4709 152V140.32H40.2709V145.632C40.5055 145.067 40.8842 144.629 41.4069 144.32C41.9295 144 42.5322 143.84 43.2149 143.84C44.1002 143.84 44.8309 144.091 45.4069 144.592C45.9829 145.083 46.2709 145.819 46.2709 146.8V152H45.4709V147.056C45.4709 146.181 45.2522 145.541 44.8149 145.136C44.3775 144.731 43.8175 144.528 43.1349 144.528C42.6335 144.528 42.1642 144.645 41.7269 144.88C41.2895 145.115 40.9375 145.451 40.6709 145.888C40.4042 146.325 40.2709 146.859 40.2709 147.488V152H39.4709ZM53.9294 146.736C53.9294 146.053 53.7427 145.52 53.3694 145.136C52.996 144.741 52.4627 144.544 51.7694 144.544C51.1614 144.544 50.6334 144.677 50.1854 144.944C49.748 145.211 49.428 145.643 49.2254 146.24L48.5694 145.824C48.804 145.195 49.1934 144.709 49.7374 144.368C50.292 144.016 50.9747 143.84 51.7854 143.84C52.66 143.84 53.3694 144.075 53.9134 144.544C54.4574 145.003 54.7294 145.685 54.7294 146.592V150.592C54.7294 151.157 54.9854 151.44 55.4974 151.44C55.7214 151.44 55.9134 151.403 56.0734 151.328L56.0254 151.968C55.844 152.064 55.6094 152.112 55.3214 152.112C54.9694 152.112 54.6547 152.011 54.3774 151.808C54.1 151.605 53.9454 151.237 53.9134 150.704C53.6467 151.205 53.2467 151.573 52.7134 151.808C52.18 152.043 51.6414 152.16 51.0974 152.16C50.34 152.16 49.716 151.984 49.2254 151.632C48.7347 151.28 48.4894 150.768 48.4894 150.096C48.4894 149.488 48.692 149.003 49.0974 148.64C49.5027 148.277 50.0627 148.027 50.7774 147.888L53.9294 147.264V146.736ZM49.3054 150.032C49.3054 150.48 49.4707 150.832 49.8014 151.088C50.132 151.333 50.6014 151.456 51.2094 151.456C51.6254 151.456 52.0414 151.381 52.4574 151.232C52.884 151.072 53.236 150.827 53.5134 150.496C53.7907 150.155 53.9294 149.717 53.9294 149.184V147.936L51.1774 148.48C50.548 148.608 50.0787 148.795 49.7694 149.04C49.46 149.285 49.3054 149.616 49.3054 150.032ZM62.9433 144H63.7913L60.4473 152H59.6473L56.3033 144H57.1993L60.0633 151.168L62.9433 144ZM65.8865 142.448C65.6838 142.448 65.5185 142.389 65.3905 142.272C65.2732 142.144 65.2145 141.979 65.2145 141.776C65.2145 141.573 65.2732 141.413 65.3905 141.296C65.5185 141.168 65.6838 141.104 65.8865 141.104C66.0892 141.104 66.2492 141.168 66.3665 141.296C66.4945 141.413 66.5585 141.573 66.5585 141.776C66.5585 141.979 66.4945 142.144 66.3665 142.272C66.2492 142.389 66.0892 142.448 65.8865 142.448ZM66.2865 144V152H65.4865V144H66.2865ZM69.1428 152V144H69.8628L69.9108 145.6C70.1561 145.035 70.5454 144.603 71.0788 144.304C71.6121 143.995 72.2148 143.84 72.8868 143.84C73.7721 143.84 74.5028 144.091 75.0788 144.592C75.6548 145.093 75.9427 145.835 75.9427 146.816V152H75.1428V147.072C75.1428 146.197 74.9241 145.557 74.4868 145.152C74.0494 144.747 73.4894 144.544 72.8068 144.544C72.3054 144.544 71.8361 144.661 71.3988 144.896C70.9614 145.12 70.6094 145.451 70.3428 145.888C70.0761 146.325 69.9428 146.859 69.9428 147.488V152H69.1428ZM82.8013 151.184C83.5906 151.184 84.2093 151.355 84.6573 151.696C85.1053 152.027 85.3293 152.464 85.3293 153.008C85.3293 153.499 85.1639 153.925 84.8333 154.288C84.5133 154.661 84.0653 154.944 83.4893 155.136C82.9239 155.339 82.2839 155.44 81.5693 155.44C80.3533 155.44 79.4253 155.232 78.7853 154.816C78.1559 154.411 77.8413 153.899 77.8413 153.28C77.8413 152.875 77.9746 152.517 78.2413 152.208C78.5079 151.899 78.8973 151.685 79.4093 151.568C79.1319 151.461 78.8919 151.301 78.6893 151.088C78.4973 150.875 78.4013 150.587 78.4013 150.224C78.4013 149.861 78.5133 149.547 78.7373 149.28C78.9719 149.013 79.2919 148.827 79.6973 148.72C79.2279 148.507 78.8653 148.208 78.6093 147.824C78.3533 147.429 78.2253 146.971 78.2253 146.448C78.2253 145.936 78.3586 145.483 78.6253 145.088C78.9026 144.693 79.2813 144.389 79.7613 144.176C80.2519 143.952 80.8173 143.84 81.4573 143.84C82.1719 143.84 82.7906 143.979 83.3133 144.256C83.3773 143.733 83.5853 143.317 83.9373 143.008C84.2999 142.688 84.7426 142.528 85.2653 142.528H85.3293L85.5213 143.232H85.4413C84.9506 143.232 84.5666 143.355 84.2893 143.6C84.0119 143.835 83.8573 144.171 83.8253 144.608C84.3799 145.088 84.6573 145.701 84.6573 146.448C84.6573 146.971 84.5239 147.429 84.2573 147.824C83.9906 148.219 83.6119 148.528 83.1213 148.752C82.6413 148.965 82.0866 149.072 81.4573 149.072C81.0839 149.072 80.7373 149.035 80.4173 148.96C80.0226 149.024 79.7079 149.157 79.4733 149.36C79.2493 149.552 79.1373 149.797 79.1373 150.096C79.1373 150.459 79.2759 150.731 79.5533 150.912C79.8413 151.093 80.2039 151.184 80.6413 151.184H82.8013ZM81.4573 144.496C80.7426 144.496 80.1613 144.677 79.7133 145.04C79.2759 145.392 79.0573 145.861 79.0573 146.448C79.0573 147.035 79.2759 147.509 79.7133 147.872C80.1613 148.235 80.7426 148.416 81.4573 148.416C82.1506 148.416 82.7213 148.235 83.1693 147.872C83.6173 147.509 83.8413 147.035 83.8413 146.448C83.8413 145.861 83.6173 145.392 83.1693 145.04C82.7213 144.677 82.1506 144.496 81.4573 144.496ZM81.5693 154.768C82.5079 154.768 83.2439 154.608 83.7773 154.288C84.3106 153.968 84.5773 153.573 84.5773 153.104C84.5773 152.731 84.4119 152.432 84.0813 152.208C83.7613 151.984 83.2706 151.872 82.6093 151.872H80.3373C79.8359 151.872 79.4199 151.989 79.0893 152.224C78.7586 152.459 78.5933 152.773 78.5933 153.168C78.5933 153.637 78.8546 154.021 79.3773 154.32C79.9106 154.619 80.6413 154.768 81.5693 154.768ZM95.9628 144V144.688H92.9708V149.888C92.9708 150.912 93.4401 151.424 94.3788 151.424C94.6774 151.424 94.9388 151.376 95.1628 151.28C95.3974 151.173 95.6054 151.024 95.7868 150.832L96.0908 151.488C95.8774 151.691 95.6161 151.856 95.3068 151.984C95.0081 152.101 94.6668 152.16 94.2828 152.16C93.6534 152.16 93.1414 151.989 92.7468 151.648C92.3628 151.296 92.1708 150.747 92.1708 150V144.688H90.5708V144H92.1708V142L92.9708 141.776V144H95.9628ZM100.938 143.84C101.685 143.84 102.341 144.005 102.906 144.336C103.482 144.667 103.93 145.147 104.25 145.776C104.581 146.395 104.746 147.136 104.746 148C104.746 148.864 104.581 149.611 104.25 150.24C103.93 150.859 103.482 151.333 102.906 151.664C102.341 151.995 101.685 152.16 100.938 152.16C100.191 152.16 99.53 151.995 98.954 151.664C98.3887 151.333 97.9407 150.859 97.61 150.24C97.29 149.611 97.13 148.864 97.13 148C97.13 147.136 97.29 146.395 97.61 145.776C97.9407 145.147 98.3887 144.667 98.954 144.336C99.53 144.005 100.191 143.84 100.938 143.84ZM100.938 144.528C100.031 144.528 99.3007 144.837 98.746 145.456C98.202 146.075 97.93 146.923 97.93 148C97.93 149.077 98.202 149.925 98.746 150.544C99.3007 151.163 100.031 151.472 100.938 151.472C101.845 151.472 102.57 151.163 103.114 150.544C103.669 149.925 103.946 149.077 103.946 148C103.946 146.923 103.669 146.075 103.114 145.456C102.57 144.837 101.845 144.528 100.938 144.528ZM114.737 140.064L115.185 140.528C114.161 141.424 113.43 142.443 112.993 143.584C112.566 144.725 112.353 146.021 112.353 147.472C112.353 148.923 112.566 150.219 112.993 151.36C113.43 152.501 114.161 153.52 115.185 154.416L114.737 154.88C112.604 153.056 111.537 150.587 111.537 147.472C111.537 144.357 112.604 141.888 114.737 140.064ZM116.393 152V144H117.065L117.161 145.664C117.363 145.12 117.683 144.683 118.121 144.352C118.569 144.011 119.113 143.84 119.753 143.84C120.179 143.84 120.515 143.931 120.761 144.112L120.569 144.816C120.451 144.741 120.323 144.683 120.185 144.64C120.046 144.597 119.838 144.576 119.561 144.576C119.155 144.576 118.771 144.704 118.409 144.96C118.046 145.205 117.753 145.552 117.529 146C117.305 146.437 117.193 146.944 117.193 147.52V152H116.393ZM125.329 152.16C124.593 152.16 123.937 151.995 123.361 151.664C122.785 151.333 122.331 150.859 122.001 150.24C121.681 149.611 121.521 148.864 121.521 148C121.521 147.136 121.681 146.395 122.001 145.776C122.321 145.147 122.758 144.667 123.313 144.336C123.878 144.005 124.518 143.84 125.233 143.84C125.958 143.84 126.577 144 127.089 144.32C127.611 144.64 128.006 145.088 128.273 145.664C128.55 146.229 128.689 146.885 128.689 147.632C128.689 147.739 128.683 147.84 128.673 147.936C128.673 148.021 128.667 148.096 128.657 148.16H122.305C122.337 149.195 122.625 150.005 123.169 150.592C123.723 151.168 124.438 151.456 125.313 151.456C125.931 151.456 126.459 151.323 126.897 151.056C127.345 150.789 127.691 150.421 127.937 149.952L128.577 150.32C128.278 150.885 127.846 151.333 127.281 151.664C126.726 151.995 126.075 152.16 125.329 152.16ZM125.217 144.544C124.438 144.544 123.782 144.8 123.249 145.312C122.726 145.813 122.417 146.523 122.321 147.44H127.905C127.873 146.555 127.617 145.851 127.137 145.328C126.667 144.805 126.027 144.544 125.217 144.544ZM130.971 155.36V144H131.691L131.739 145.824C131.974 145.216 132.358 144.736 132.891 144.384C133.424 144.021 134.048 143.84 134.763 143.84C135.446 143.84 136.059 144.005 136.603 144.336C137.147 144.667 137.579 145.141 137.899 145.76C138.219 146.379 138.379 147.125 138.379 148C138.379 148.864 138.219 149.611 137.899 150.24C137.579 150.859 137.142 151.333 136.587 151.664C136.043 151.995 135.424 152.16 134.731 152.16C134.048 152.16 133.446 151.989 132.923 151.648C132.4 151.307 132.016 150.843 131.771 150.256V155.36H130.971ZM134.635 151.456C135.542 151.456 136.256 151.147 136.779 150.528C137.312 149.909 137.579 149.067 137.579 148C137.579 146.933 137.318 146.091 136.795 145.472C136.272 144.853 135.563 144.544 134.667 144.544C134.102 144.544 133.6 144.688 133.163 144.976C132.736 145.253 132.395 145.653 132.139 146.176C131.894 146.688 131.771 147.296 131.771 148C131.771 148.704 131.894 149.317 132.139 149.84C132.384 150.352 132.72 150.752 133.147 151.04C133.584 151.317 134.08 151.456 134.635 151.456ZM143.954 152.16C143.218 152.16 142.562 151.995 141.986 151.664C141.41 151.333 140.956 150.859 140.626 150.24C140.306 149.611 140.146 148.864 140.146 148C140.146 147.136 140.306 146.395 140.626 145.776C140.946 145.147 141.383 144.667 141.938 144.336C142.503 144.005 143.143 143.84 143.858 143.84C144.583 143.84 145.202 144 145.714 144.32C146.236 144.64 146.631 145.088 146.898 145.664C147.175 146.229 147.314 146.885 147.314 147.632C147.314 147.739 147.308 147.84 147.298 147.936C147.298 148.021 147.292 148.096 147.282 148.16H140.93C140.962 149.195 141.25 150.005 141.794 150.592C142.348 151.168 143.063 151.456 143.938 151.456C144.556 151.456 145.084 151.323 145.522 151.056C145.97 150.789 146.316 150.421 146.562 149.952L147.202 150.32C146.903 150.885 146.471 151.333 145.906 151.664C145.351 151.995 144.7 152.16 143.954 152.16ZM143.842 144.544C143.063 144.544 142.407 144.8 141.874 145.312C141.351 145.813 141.042 146.523 140.946 147.44H146.53C146.498 146.555 146.242 145.851 145.762 145.328C145.292 144.805 144.652 144.544 143.842 144.544ZM154.492 146.736C154.492 146.053 154.305 145.52 153.932 145.136C153.559 144.741 153.025 144.544 152.332 144.544C151.724 144.544 151.196 144.677 150.748 144.944C150.311 145.211 149.991 145.643 149.788 146.24L149.132 145.824C149.367 145.195 149.756 144.709 150.3 144.368C150.855 144.016 151.537 143.84 152.348 143.84C153.223 143.84 153.932 144.075 154.476 144.544C155.02 145.003 155.292 145.685 155.292 146.592V150.592C155.292 151.157 155.548 151.44 156.06 151.44C156.284 151.44 156.476 151.403 156.636 151.328L156.588 151.968C156.407 152.064 156.172 152.112 155.884 152.112C155.532 152.112 155.217 152.011 154.94 151.808C154.663 151.605 154.508 151.237 154.476 150.704C154.209 151.205 153.809 151.573 153.276 151.808C152.743 152.043 152.204 152.16 151.66 152.16C150.903 152.16 150.279 151.984 149.788 151.632C149.297 151.28 149.052 150.768 149.052 150.096C149.052 149.488 149.255 149.003 149.66 148.64C150.065 148.277 150.625 148.027 151.34 147.888L154.492 147.264V146.736ZM149.868 150.032C149.868 150.48 150.033 150.832 150.364 151.088C150.695 151.333 151.164 151.456 151.772 151.456C152.188 151.456 152.604 151.381 153.02 151.232C153.447 151.072 153.799 150.827 154.076 150.496C154.353 150.155 154.492 149.717 154.492 149.184V147.936L151.74 148.48C151.111 148.608 150.641 148.795 150.332 149.04C150.023 149.285 149.868 149.616 149.868 150.032ZM162.369 144V144.688H159.377V149.888C159.377 150.912 159.846 151.424 160.785 151.424C161.084 151.424 161.345 151.376 161.569 151.28C161.804 151.173 162.012 151.024 162.193 150.832L162.497 151.488C162.284 151.691 162.022 151.856 161.713 151.984C161.414 152.101 161.073 152.16 160.689 152.16C160.06 152.16 159.548 151.989 159.153 151.648C158.769 151.296 158.577 150.747 158.577 150V144.688H156.977V144H158.577V142L159.377 141.776V144H162.369ZM167.344 152.16C166.608 152.16 165.952 151.995 165.376 151.664C164.8 151.333 164.347 150.859 164.016 150.24C163.696 149.611 163.536 148.864 163.536 148C163.536 147.136 163.696 146.395 164.016 145.776C164.336 145.147 164.774 144.667 165.328 144.336C165.894 144.005 166.534 143.84 167.248 143.84C167.974 143.84 168.592 144 169.104 144.32C169.627 144.64 170.022 145.088 170.288 145.664C170.566 146.229 170.704 146.885 170.704 147.632C170.704 147.739 170.699 147.84 170.688 147.936C170.688 148.021 170.683 148.096 170.672 148.16H164.32C164.352 149.195 164.64 150.005 165.184 150.592C165.739 151.168 166.454 151.456 167.328 151.456C167.947 151.456 168.475 151.323 168.912 151.056C169.36 150.789 169.707 150.421 169.952 149.952L170.592 150.32C170.294 150.885 169.862 151.333 169.296 151.664C168.742 151.995 168.091 152.16 167.344 152.16ZM167.232 144.544C166.454 144.544 165.798 144.8 165.264 145.312C164.742 145.813 164.432 146.523 164.336 147.44H169.92C169.888 146.555 169.632 145.851 169.152 145.328C168.683 144.805 168.043 144.544 167.232 144.544ZM176.107 152.16C175.413 152.16 174.789 151.995 174.235 151.664C173.691 151.333 173.259 150.859 172.939 150.24C172.619 149.611 172.459 148.864 172.459 148C172.459 147.125 172.624 146.379 172.955 145.76C173.285 145.131 173.728 144.656 174.283 144.336C174.848 144.005 175.483 143.84 176.187 143.84C176.859 143.84 177.451 144.011 177.963 144.352C178.475 144.693 178.837 145.168 179.051 145.776V140.32H179.851V152H179.131L179.083 150.112C178.88 150.763 178.507 151.269 177.963 151.632C177.419 151.984 176.8 152.16 176.107 152.16ZM176.203 151.456C176.757 151.456 177.248 151.317 177.675 151.04C178.112 150.752 178.448 150.347 178.683 149.824C178.928 149.291 179.051 148.661 179.051 147.936C179.051 146.891 178.784 146.064 178.251 145.456C177.728 144.848 177.056 144.544 176.235 144.544C175.317 144.544 174.592 144.853 174.059 145.472C173.525 146.091 173.259 146.933 173.259 148C173.259 149.067 173.52 149.909 174.043 150.528C174.576 151.147 175.296 151.456 176.203 151.456ZM183.441 140.32V150.112C183.441 150.603 183.527 150.949 183.697 151.152C183.868 151.355 184.135 151.456 184.497 151.456C184.721 151.456 184.897 151.44 185.025 151.408C185.164 151.376 185.324 151.323 185.505 151.248L185.393 151.952C185.095 152.091 184.743 152.16 184.337 152.16C183.772 152.16 183.345 152 183.057 151.68C182.78 151.349 182.641 150.837 182.641 150.144V140.32H183.441ZM193.025 144L189.153 153.472C188.854 154.219 188.524 154.731 188.161 155.008C187.798 155.296 187.35 155.44 186.817 155.44C186.156 155.44 185.644 155.259 185.281 154.896L185.537 154.208C185.697 154.4 185.889 154.533 186.113 154.608C186.337 154.693 186.566 154.736 186.801 154.736C187.142 154.736 187.446 154.635 187.713 154.432C187.99 154.24 188.241 153.856 188.465 153.28L188.993 152L188.145 150.016L185.617 144H186.529L188.977 150.064L189.377 151.136L189.809 149.984L192.161 144H193.025ZM193.44 154.88L192.992 154.416C194.016 153.52 194.741 152.501 195.168 151.36C195.605 150.219 195.824 148.923 195.824 147.472C195.824 146.021 195.605 144.725 195.168 143.584C194.741 142.443 194.016 141.424 192.992 140.528L193.44 140.064C195.573 141.888 196.64 144.357 196.64 147.472C196.64 150.587 195.573 153.056 193.44 154.88ZM208.083 151.184C208.872 151.184 209.491 151.355 209.939 151.696C210.387 152.027 210.611 152.464 210.611 153.008C210.611 153.499 210.445 153.925 210.115 154.288C209.795 154.661 209.347 154.944 208.771 155.136C208.205 155.339 207.565 155.44 206.851 155.44C205.635 155.44 204.707 155.232 204.067 154.816C203.437 154.411 203.123 153.899 203.123 153.28C203.123 152.875 203.256 152.517 203.523 152.208C203.789 151.899 204.179 151.685 204.691 151.568C204.413 151.461 204.173 151.301 203.971 151.088C203.779 150.875 203.683 150.587 203.683 150.224C203.683 149.861 203.795 149.547 204.019 149.28C204.253 149.013 204.573 148.827 204.979 148.72C204.509 148.507 204.147 148.208 203.891 147.824C203.635 147.429 203.507 146.971 203.507 146.448C203.507 145.936 203.64 145.483 203.907 145.088C204.184 144.693 204.563 144.389 205.043 144.176C205.533 143.952 206.099 143.84 206.739 143.84C207.453 143.84 208.072 143.979 208.595 144.256C208.659 143.733 208.867 143.317 209.219 143.008C209.581 142.688 210.024 142.528 210.547 142.528H210.611L210.803 143.232H210.723C210.232 143.232 209.848 143.355 209.571 143.6C209.293 143.835 209.139 144.171 209.107 144.608C209.661 145.088 209.939 145.701 209.939 146.448C209.939 146.971 209.805 147.429 209.539 147.824C209.272 148.219 208.893 148.528 208.403 148.752C207.923 148.965 207.368 149.072 206.739 149.072C206.365 149.072 206.019 149.035 205.699 148.96C205.304 149.024 204.989 149.157 204.755 149.36C204.531 149.552 204.419 149.797 204.419 150.096C204.419 150.459 204.557 150.731 204.835 150.912C205.123 151.093 205.485 151.184 205.923 151.184H208.083ZM206.739 144.496C206.024 144.496 205.443 144.677 204.995 145.04C204.557 145.392 204.339 145.861 204.339 146.448C204.339 147.035 204.557 147.509 204.995 147.872C205.443 148.235 206.024 148.416 206.739 148.416C207.432 148.416 208.003 148.235 208.451 147.872C208.899 147.509 209.123 147.035 209.123 146.448C209.123 145.861 208.899 145.392 208.451 145.04C208.003 144.677 207.432 144.496 206.739 144.496ZM206.851 154.768C207.789 154.768 208.525 154.608 209.059 154.288C209.592 153.968 209.859 153.573 209.859 153.104C209.859 152.731 209.693 152.432 209.363 152.208C209.043 151.984 208.552 151.872 207.891 151.872H205.619C205.117 151.872 204.701 151.989 204.371 152.224C204.04 152.459 203.875 152.773 203.875 153.168C203.875 153.637 204.136 154.021 204.659 154.32C205.192 154.619 205.923 154.768 206.851 154.768ZM215.485 143.84C216.232 143.84 216.888 144.005 217.453 144.336C218.029 144.667 218.477 145.147 218.797 145.776C219.128 146.395 219.293 147.136 219.293 148C219.293 148.864 219.128 149.611 218.797 150.24C218.477 150.859 218.029 151.333 217.453 151.664C216.888 151.995 216.232 152.16 215.485 152.16C214.738 152.16 214.077 151.995 213.501 151.664C212.936 151.333 212.488 150.859 212.157 150.24C211.837 149.611 211.677 148.864 211.677 148C211.677 147.136 211.837 146.395 212.157 145.776C212.488 145.147 212.936 144.667 213.501 144.336C214.077 144.005 214.738 143.84 215.485 143.84ZM215.485 144.528C214.578 144.528 213.848 144.837 213.293 145.456C212.749 146.075 212.477 146.923 212.477 148C212.477 149.077 212.749 149.925 213.293 150.544C213.848 151.163 214.578 151.472 215.485 151.472C216.392 151.472 217.117 151.163 217.661 150.544C218.216 149.925 218.493 149.077 218.493 148C218.493 146.923 218.216 146.075 217.661 145.456C217.117 144.837 216.392 144.528 215.485 144.528ZM230.603 144V144.688H227.611V149.888C227.611 150.912 228.081 151.424 229.019 151.424C229.318 151.424 229.579 151.376 229.803 151.28C230.038 151.173 230.246 151.024 230.427 150.832L230.731 151.488C230.518 151.691 230.257 151.856 229.947 151.984C229.649 152.101 229.307 152.16 228.923 152.16C228.294 152.16 227.782 151.989 227.387 151.648C227.003 151.296 226.811 150.747 226.811 150V144.688H225.211V144H226.811V142L227.611 141.776V144H230.603ZM232.315 152V140.32H233.115V145.632C233.349 145.067 233.728 144.629 234.251 144.32C234.773 144 235.376 143.84 236.059 143.84C236.944 143.84 237.675 144.091 238.251 144.592C238.827 145.083 239.115 145.819 239.115 146.8V152H238.315V147.056C238.315 146.181 238.096 145.541 237.659 145.136C237.221 144.731 236.661 144.528 235.979 144.528C235.477 144.528 235.008 144.645 234.571 144.88C234.133 145.115 233.781 145.451 233.515 145.888C233.248 146.325 233.115 146.859 233.115 147.488V152H232.315ZM241.877 152V144H242.549L242.645 145.664C242.848 145.12 243.168 144.683 243.605 144.352C244.053 144.011 244.597 143.84 245.237 143.84C245.664 143.84 246 143.931 246.245 144.112L246.053 144.816C245.936 144.741 245.808 144.683 245.669 144.64C245.53 144.597 245.322 144.576 245.045 144.576C244.64 144.576 244.256 144.704 243.893 144.96C243.53 145.205 243.237 145.552 243.013 146C242.789 146.437 242.677 146.944 242.677 147.52V152H241.877ZM250.813 143.84C251.56 143.84 252.216 144.005 252.781 144.336C253.357 144.667 253.805 145.147 254.125 145.776C254.456 146.395 254.621 147.136 254.621 148C254.621 148.864 254.456 149.611 254.125 150.24C253.805 150.859 253.357 151.333 252.781 151.664C252.216 151.995 251.56 152.16 250.813 152.16C250.066 152.16 249.405 151.995 248.829 151.664C248.264 151.333 247.816 150.859 247.485 150.24C247.165 149.611 247.005 148.864 247.005 148C247.005 147.136 247.165 146.395 247.485 145.776C247.816 145.147 248.264 144.667 248.829 144.336C249.405 144.005 250.066 143.84 250.813 143.84ZM250.813 144.528C249.906 144.528 249.176 144.837 248.621 145.456C248.077 146.075 247.805 146.923 247.805 148C247.805 149.077 248.077 149.925 248.621 150.544C249.176 151.163 249.906 151.472 250.813 151.472C251.72 151.472 252.445 151.163 252.989 150.544C253.544 149.925 253.821 149.077 253.821 148C253.821 146.923 253.544 146.075 252.989 145.456C252.445 144.837 251.72 144.528 250.813 144.528ZM259.724 152.16C258.892 152.16 258.199 151.925 257.644 151.456C257.1 150.987 256.828 150.261 256.828 149.28V144H257.628V149.088C257.628 149.92 257.826 150.523 258.22 150.896C258.626 151.269 259.191 151.456 259.916 151.456C260.482 151.456 260.978 151.328 261.404 151.072C261.831 150.805 262.156 150.459 262.38 150.032C262.615 149.595 262.732 149.115 262.732 148.592V144H263.532V152H262.812L262.78 150.352C262.546 150.917 262.162 151.36 261.628 151.68C261.095 152 260.46 152.16 259.724 152.16ZM270.473 151.184C271.262 151.184 271.881 151.355 272.329 151.696C272.777 152.027 273.001 152.464 273.001 153.008C273.001 153.499 272.836 153.925 272.505 154.288C272.185 154.661 271.737 154.944 271.161 155.136C270.596 155.339 269.956 155.44 269.241 155.44C268.025 155.44 267.097 155.232 266.457 154.816C265.828 154.411 265.513 153.899 265.513 153.28C265.513 152.875 265.646 152.517 265.913 152.208C266.18 151.899 266.569 151.685 267.081 151.568C266.804 151.461 266.564 151.301 266.361 151.088C266.169 150.875 266.073 150.587 266.073 150.224C266.073 149.861 266.185 149.547 266.409 149.28C266.644 149.013 266.964 148.827 267.369 148.72C266.9 148.507 266.537 148.208 266.281 147.824C266.025 147.429 265.897 146.971 265.897 146.448C265.897 145.936 266.03 145.483 266.297 145.088C266.574 144.693 266.953 144.389 267.433 144.176C267.924 143.952 268.489 143.84 269.129 143.84C269.844 143.84 270.462 143.979 270.985 144.256C271.049 143.733 271.257 143.317 271.609 143.008C271.972 142.688 272.414 142.528 272.937 142.528H273.001L273.193 143.232H273.113C272.622 143.232 272.238 143.355 271.961 143.6C271.684 143.835 271.529 144.171 271.497 144.608C272.052 145.088 272.329 145.701 272.329 146.448C272.329 146.971 272.196 147.429 271.929 147.824C271.662 148.219 271.284 148.528 270.793 148.752C270.313 148.965 269.758 149.072 269.129 149.072C268.756 149.072 268.409 149.035 268.089 148.96C267.694 149.024 267.38 149.157 267.145 149.36C266.921 149.552 266.809 149.797 266.809 150.096C266.809 150.459 266.948 150.731 267.225 150.912C267.513 151.093 267.876 151.184 268.313 151.184H270.473ZM269.129 144.496C268.414 144.496 267.833 144.677 267.385 145.04C266.948 145.392 266.729 145.861 266.729 146.448C266.729 147.035 266.948 147.509 267.385 147.872C267.833 148.235 268.414 148.416 269.129 148.416C269.822 148.416 270.393 148.235 270.841 147.872C271.289 147.509 271.513 147.035 271.513 146.448C271.513 145.861 271.289 145.392 270.841 145.04C270.393 144.677 269.822 144.496 269.129 144.496ZM269.241 154.768C270.18 154.768 270.916 154.608 271.449 154.288C271.982 153.968 272.249 153.573 272.249 153.104C272.249 152.731 272.084 152.432 271.753 152.208C271.433 151.984 270.942 151.872 270.281 151.872H268.009C267.508 151.872 267.092 151.989 266.761 152.224C266.43 152.459 266.265 152.773 266.265 153.168C266.265 153.637 266.526 154.021 267.049 154.32C267.582 154.619 268.313 154.768 269.241 154.768ZM274.612 152V140.32H275.412V145.632C275.646 145.067 276.025 144.629 276.548 144.32C277.07 144 277.673 143.84 278.356 143.84C279.241 143.84 279.972 144.091 280.548 144.592C281.124 145.083 281.411 145.819 281.411 146.8V152H280.612V147.056C280.612 146.181 280.393 145.541 279.956 145.136C279.518 144.731 278.958 144.528 278.276 144.528C277.774 144.528 277.305 144.645 276.868 144.88C276.43 145.115 276.078 145.451 275.812 145.888C275.545 146.325 275.412 146.859 275.412 147.488V152H274.612ZM293.197 144V144.688H290.205V149.888C290.205 150.912 290.674 151.424 291.613 151.424C291.912 151.424 292.173 151.376 292.397 151.28C292.632 151.173 292.84 151.024 293.021 150.832L293.325 151.488C293.112 151.691 292.85 151.856 292.541 151.984C292.242 152.101 291.901 152.16 291.517 152.16C290.888 152.16 290.376 151.989 289.981 151.648C289.597 151.296 289.405 150.747 289.405 150V144.688H287.805V144H289.405V142L290.205 141.776V144H293.197ZM294.908 152V140.32H295.708V145.632C295.943 145.067 296.322 144.629 296.844 144.32C297.367 144 297.97 143.84 298.652 143.84C299.538 143.84 300.268 144.091 300.844 144.592C301.42 145.083 301.708 145.819 301.708 146.8V152H300.908V147.056C300.908 146.181 300.69 145.541 300.252 145.136C299.815 144.731 299.255 144.528 298.572 144.528C298.071 144.528 297.602 144.645 297.164 144.88C296.727 145.115 296.375 145.451 296.108 145.888C295.842 146.325 295.708 146.859 295.708 147.488V152H294.908ZM307.735 152.16C306.999 152.16 306.343 151.995 305.767 151.664C305.191 151.333 304.738 150.859 304.407 150.24C304.087 149.611 303.927 148.864 303.927 148C303.927 147.136 304.087 146.395 304.407 145.776C304.727 145.147 305.164 144.667 305.719 144.336C306.284 144.005 306.924 143.84 307.639 143.84C308.364 143.84 308.983 144 309.495 144.32C310.018 144.64 310.412 145.088 310.679 145.664C310.956 146.229 311.095 146.885 311.095 147.632C311.095 147.739 311.09 147.84 311.079 147.936C311.079 148.021 311.074 148.096 311.063 148.16H304.711C304.743 149.195 305.031 150.005 305.575 150.592C306.13 151.168 306.844 151.456 307.719 151.456C308.338 151.456 308.866 151.323 309.303 151.056C309.751 150.789 310.098 150.421 310.343 149.952L310.983 150.32C310.684 150.885 310.252 151.333 309.687 151.664C309.132 151.995 308.482 152.16 307.735 152.16ZM307.623 144.544C306.844 144.544 306.188 144.8 305.655 145.312C305.132 145.813 304.823 146.523 304.727 147.44H310.311C310.279 146.555 310.023 145.851 309.543 145.328C309.074 144.805 308.434 144.544 307.623 144.544ZM66.3434 165.736C66.3434 165.053 66.1568 164.52 65.7834 164.136C65.4101 163.741 64.8768 163.544 64.1834 163.544C63.5754 163.544 63.0474 163.677 62.5994 163.944C62.1621 164.211 61.8421 164.643 61.6394 165.24L60.9834 164.824C61.2181 164.195 61.6074 163.709 62.1514 163.368C62.7061 163.016 63.3888 162.84 64.1994 162.84C65.0741 162.84 65.7834 163.075 66.3274 163.544C66.8714 164.003 67.1434 164.685 67.1434 165.592V169.592C67.1434 170.157 67.3994 170.44 67.9114 170.44C68.1354 170.44 68.3274 170.403 68.4874 170.328L68.4394 170.968C68.2581 171.064 68.0234 171.112 67.7354 171.112C67.3834 171.112 67.0688 171.011 66.7914 170.808C66.5141 170.605 66.3594 170.237 66.3274 169.704C66.0608 170.205 65.6608 170.573 65.1274 170.808C64.5941 171.043 64.0554 171.16 63.5114 171.16C62.7541 171.16 62.1301 170.984 61.6394 170.632C61.1488 170.28 60.9034 169.768 60.9034 169.096C60.9034 168.488 61.1061 168.003 61.5114 167.64C61.9168 167.277 62.4768 167.027 63.1914 166.888L66.3434 166.264V165.736ZM61.7194 169.032C61.7194 169.48 61.8848 169.832 62.2154 170.088C62.5461 170.333 63.0154 170.456 63.6234 170.456C64.0394 170.456 64.4554 170.381 64.8714 170.232C65.2981 170.072 65.6501 169.827 65.9274 169.496C66.2048 169.155 66.3434 168.717 66.3434 168.184V166.936L63.5914 167.48C62.9621 167.608 62.4928 167.795 62.1834 168.04C61.8741 168.285 61.7194 168.616 61.7194 169.032ZM80.1707 163H81.0507L78.3307 171H77.5307L75.0027 164.04L72.5227 171H71.7227L69.0027 163H69.8827L72.1387 170.04L74.6187 163H75.4347L77.9307 170.04L80.1707 163ZM89.5082 163L86.1962 166.2L89.6362 171H88.6602L85.6042 166.76L83.7162 168.584V171H82.9162V159.32H83.7162V167.576L88.4682 163H89.5082ZM101.546 163H102.426L99.7057 171H98.9057L96.3777 164.04L93.8977 171H93.0977L90.3777 163H91.2577L93.5137 170.04L95.9937 163H96.8097L99.3057 170.04L101.546 163ZM109.015 165.736C109.015 165.053 108.829 164.52 108.455 164.136C108.082 163.741 107.549 163.544 106.855 163.544C106.247 163.544 105.719 163.677 105.271 163.944C104.834 164.211 104.514 164.643 104.311 165.24L103.655 164.824C103.89 164.195 104.279 163.709 104.823 163.368C105.378 163.016 106.061 162.84 106.871 162.84C107.746 162.84 108.455 163.075 108.999 163.544C109.543 164.003 109.815 164.685 109.815 165.592V169.592C109.815 170.157 110.071 170.44 110.583 170.44C110.807 170.44 110.999 170.403 111.159 170.328L111.111 170.968C110.93 171.064 110.695 171.112 110.407 171.112C110.055 171.112 109.741 171.011 109.463 170.808C109.186 170.605 109.031 170.237 108.999 169.704C108.733 170.205 108.333 170.573 107.799 170.808C107.266 171.043 106.727 171.16 106.183 171.16C105.426 171.16 104.802 170.984 104.311 170.632C103.821 170.28 103.575 169.768 103.575 169.096C103.575 168.488 103.778 168.003 104.183 167.64C104.589 167.277 105.149 167.027 105.863 166.888L109.015 166.264V165.736ZM104.391 169.032C104.391 169.48 104.557 169.832 104.887 170.088C105.218 170.333 105.687 170.456 106.295 170.456C106.711 170.456 107.127 170.381 107.543 170.232C107.97 170.072 108.322 169.827 108.599 169.496C108.877 169.155 109.015 168.717 109.015 168.184V166.936L106.263 167.48C105.634 167.608 105.165 167.795 104.855 168.04C104.546 168.285 104.391 168.616 104.391 169.032ZM112.807 171V163H113.479L113.575 164.664C113.777 164.12 114.097 163.683 114.535 163.352C114.983 163.011 115.527 162.84 116.167 162.84C116.593 162.84 116.929 162.931 117.175 163.112L116.983 163.816C116.865 163.741 116.737 163.683 116.599 163.64C116.46 163.597 116.252 163.576 115.975 163.576C115.569 163.576 115.185 163.704 114.823 163.96C114.46 164.205 114.167 164.552 113.943 165C113.719 165.437 113.607 165.944 113.607 166.52V171H112.807ZM121.599 171.16C120.905 171.16 120.281 170.995 119.727 170.664C119.183 170.333 118.751 169.859 118.431 169.24C118.111 168.611 117.951 167.864 117.951 167C117.951 166.125 118.116 165.379 118.447 164.76C118.777 164.131 119.22 163.656 119.775 163.336C120.34 163.005 120.975 162.84 121.679 162.84C122.351 162.84 122.943 163.011 123.455 163.352C123.967 163.693 124.329 164.168 124.543 164.776V159.32H125.343V171H124.623L124.575 169.112C124.372 169.763 123.999 170.269 123.455 170.632C122.911 170.984 122.292 171.16 121.599 171.16ZM121.695 170.456C122.249 170.456 122.74 170.317 123.167 170.04C123.604 169.752 123.94 169.347 124.175 168.824C124.42 168.291 124.543 167.661 124.543 166.936C124.543 165.891 124.276 165.064 123.743 164.456C123.22 163.848 122.548 163.544 121.727 163.544C120.809 163.544 120.084 163.853 119.551 164.472C119.017 165.091 118.751 165.933 118.751 167C118.751 168.067 119.012 168.909 119.535 169.528C120.068 170.147 120.788 170.456 121.695 170.456ZM135.981 160.04L135.757 163.32H135.117V160.04H135.981ZM133.853 160.04L133.629 163.32H132.989V160.04H133.853ZM144.751 163L140.879 172.472C140.581 173.219 140.25 173.731 139.887 174.008C139.525 174.296 139.077 174.44 138.543 174.44C137.882 174.44 137.37 174.259 137.007 173.896L137.263 173.208C137.423 173.4 137.615 173.533 137.839 173.608C138.063 173.693 138.293 173.736 138.527 173.736C138.869 173.736 139.173 173.635 139.439 173.432C139.717 173.24 139.967 172.856 140.191 172.28L140.719 171L139.871 169.016L137.343 163H138.255L140.703 169.064L141.103 170.136L141.535 168.984L143.887 163H144.751ZM149.602 162.84C150.349 162.84 151.005 163.005 151.57 163.336C152.146 163.667 152.594 164.147 152.914 164.776C153.245 165.395 153.41 166.136 153.41 167C153.41 167.864 153.245 168.611 152.914 169.24C152.594 169.859 152.146 170.333 151.57 170.664C151.005 170.995 150.349 171.16 149.602 171.16C148.855 171.16 148.194 170.995 147.618 170.664C147.053 170.333 146.605 169.859 146.274 169.24C145.954 168.611 145.794 167.864 145.794 167C145.794 166.136 145.954 165.395 146.274 164.776C146.605 164.147 147.053 163.667 147.618 163.336C148.194 163.005 148.855 162.84 149.602 162.84ZM149.602 163.528C148.695 163.528 147.965 163.837 147.41 164.456C146.866 165.075 146.594 165.923 146.594 167C146.594 168.077 146.866 168.925 147.41 169.544C147.965 170.163 148.695 170.472 149.602 170.472C150.509 170.472 151.234 170.163 151.778 169.544C152.333 168.925 152.61 168.077 152.61 167C152.61 165.923 152.333 165.075 151.778 164.456C151.234 163.837 150.509 163.528 149.602 163.528ZM158.513 171.16C157.681 171.16 156.988 170.925 156.433 170.456C155.889 169.987 155.617 169.261 155.617 168.28V163H156.417V168.088C156.417 168.92 156.615 169.523 157.009 169.896C157.415 170.269 157.98 170.456 158.705 170.456C159.271 170.456 159.767 170.328 160.193 170.072C160.62 169.805 160.945 169.459 161.169 169.032C161.404 168.595 161.521 168.115 161.521 167.592V163H162.321V171H161.601L161.569 169.352C161.335 169.917 160.951 170.36 160.417 170.68C159.884 171 159.249 171.16 158.513 171.16ZM173.446 162.84C174.192 162.84 174.848 163.005 175.414 163.336C175.99 163.667 176.438 164.147 176.758 164.776C177.088 165.395 177.254 166.136 177.254 167C177.254 167.864 177.088 168.611 176.758 169.24C176.438 169.859 175.99 170.333 175.414 170.664C174.848 170.995 174.192 171.16 173.446 171.16C172.699 171.16 172.038 170.995 171.462 170.664C170.896 170.333 170.448 169.859 170.118 169.24C169.798 168.611 169.638 167.864 169.638 167C169.638 166.136 169.798 165.395 170.118 164.776C170.448 164.147 170.896 163.667 171.462 163.336C172.038 163.005 172.699 162.84 173.446 162.84ZM173.446 163.528C172.539 163.528 171.808 163.837 171.254 164.456C170.71 165.075 170.438 165.923 170.438 167C170.438 168.077 170.71 168.925 171.254 169.544C171.808 170.163 172.539 170.472 173.446 170.472C174.352 170.472 175.078 170.163 175.622 169.544C176.176 168.925 176.454 168.077 176.454 167C176.454 165.923 176.176 165.075 175.622 164.456C175.078 163.837 174.352 163.528 173.446 163.528ZM189.53 163H190.41L187.69 171H186.89L184.362 164.04L181.882 171H181.082L178.362 163H179.242L181.498 170.04L183.978 163H184.794L187.29 170.04L189.53 163ZM195.336 171.16C194.6 171.16 193.944 170.995 193.368 170.664C192.792 170.333 192.339 169.859 192.008 169.24C191.688 168.611 191.528 167.864 191.528 167C191.528 166.136 191.688 165.395 192.008 164.776C192.328 164.147 192.766 163.667 193.32 163.336C193.886 163.005 194.526 162.84 195.24 162.84C195.966 162.84 196.584 163 197.096 163.32C197.619 163.64 198.014 164.088 198.28 164.664C198.558 165.229 198.696 165.885 198.696 166.632C198.696 166.739 198.691 166.84 198.68 166.936C198.68 167.021 198.675 167.096 198.664 167.16H192.312C192.344 168.195 192.632 169.005 193.176 169.592C193.731 170.168 194.446 170.456 195.32 170.456C195.939 170.456 196.467 170.323 196.904 170.056C197.352 169.789 197.699 169.421 197.944 168.952L198.584 169.32C198.286 169.885 197.854 170.333 197.288 170.664C196.734 170.995 196.083 171.16 195.336 171.16ZM195.224 163.544C194.446 163.544 193.79 163.8 193.256 164.312C192.734 164.813 192.424 165.523 192.328 166.44H197.912C197.88 165.555 197.624 164.851 197.144 164.328C196.675 163.805 196.035 163.544 195.224 163.544ZM205.994 171V163H206.714L206.762 164.664C206.997 164.099 207.376 163.656 207.898 163.336C208.421 163.005 209.013 162.84 209.674 162.84C210.368 162.84 210.965 163.005 211.466 163.336C211.978 163.667 212.33 164.152 212.522 164.792C212.661 164.387 212.885 164.04 213.194 163.752C213.504 163.453 213.866 163.224 214.282 163.064C214.698 162.904 215.13 162.824 215.578 162.824C216.133 162.824 216.64 162.936 217.098 163.16C217.557 163.373 217.92 163.704 218.186 164.152C218.453 164.589 218.586 165.139 218.586 165.8V170.984H217.786V165.88C217.786 165.091 217.573 164.504 217.146 164.12C216.72 163.725 216.165 163.528 215.482 163.528C214.97 163.528 214.501 163.651 214.074 163.896C213.658 164.141 213.322 164.483 213.066 164.92C212.821 165.347 212.698 165.837 212.698 166.392V171H211.898V165.896C211.898 165.107 211.685 164.52 211.258 164.136C210.832 163.741 210.277 163.544 209.594 163.544C209.114 163.544 208.661 163.661 208.234 163.896C207.808 164.131 207.461 164.467 207.194 164.904C206.928 165.341 206.794 165.864 206.794 166.472V171H205.994ZM224.618 171.16C223.882 171.16 223.226 170.995 222.65 170.664C222.074 170.333 221.62 169.859 221.29 169.24C220.97 168.611 220.81 167.864 220.81 167C220.81 166.136 220.97 165.395 221.29 164.776C221.61 164.147 222.047 163.667 222.602 163.336C223.167 163.005 223.807 162.84 224.522 162.84C225.247 162.84 225.866 163 226.378 163.32C226.9 163.64 227.295 164.088 227.562 164.664C227.839 165.229 227.978 165.885 227.978 166.632C227.978 166.739 227.972 166.84 227.962 166.936C227.962 167.021 227.956 167.096 227.946 167.16H221.594C221.626 168.195 221.914 169.005 222.458 169.592C223.012 170.168 223.727 170.456 224.602 170.456C225.22 170.456 225.748 170.323 226.186 170.056C226.634 169.789 226.98 169.421 227.226 168.952L227.866 169.32C227.567 169.885 227.135 170.333 226.57 170.664C226.015 170.995 225.364 171.16 224.618 171.16ZM224.506 163.544C223.727 163.544 223.071 163.8 222.538 164.312C222.015 164.813 221.706 165.523 221.61 166.44H227.194C227.162 165.555 226.906 164.851 226.426 164.328C225.956 163.805 225.316 163.544 224.506 163.544ZM235.276 171V163H235.996L236.044 164.664C236.278 164.099 236.657 163.656 237.18 163.336C237.702 163.005 238.294 162.84 238.956 162.84C239.649 162.84 240.246 163.005 240.748 163.336C241.26 163.667 241.612 164.152 241.804 164.792C241.942 164.387 242.166 164.04 242.476 163.752C242.785 163.453 243.148 163.224 243.564 163.064C243.98 162.904 244.412 162.824 244.86 162.824C245.414 162.824 245.921 162.936 246.38 163.16C246.838 163.373 247.201 163.704 247.468 164.152C247.734 164.589 247.868 165.139 247.868 165.8V170.984H247.068V165.88C247.068 165.091 246.854 164.504 246.428 164.12C246.001 163.725 245.446 163.528 244.764 163.528C244.252 163.528 243.782 163.651 243.356 163.896C242.94 164.141 242.604 164.483 242.348 164.92C242.102 165.347 241.98 165.837 241.98 166.392V171H241.18V165.896C241.18 165.107 240.966 164.52 240.54 164.136C240.113 163.741 239.558 163.544 238.876 163.544C238.396 163.544 237.942 163.661 237.516 163.896C237.089 164.131 236.742 164.467 236.476 164.904C236.209 165.341 236.076 165.864 236.076 166.472V171H235.276ZM253.899 162.84C254.646 162.84 255.302 163.005 255.867 163.336C256.443 163.667 256.891 164.147 257.211 164.776C257.542 165.395 257.707 166.136 257.707 167C257.707 167.864 257.542 168.611 257.211 169.24C256.891 169.859 256.443 170.333 255.867 170.664C255.302 170.995 254.646 171.16 253.899 171.16C253.152 171.16 252.491 170.995 251.915 170.664C251.35 170.333 250.902 169.859 250.571 169.24C250.251 168.611 250.091 167.864 250.091 167C250.091 166.136 250.251 165.395 250.571 164.776C250.902 164.147 251.35 163.667 251.915 163.336C252.491 163.005 253.152 162.84 253.899 162.84ZM253.899 163.528C252.992 163.528 252.262 163.837 251.707 164.456C251.163 165.075 250.891 165.923 250.891 167C250.891 168.077 251.163 168.925 251.707 169.544C252.262 170.163 252.992 170.472 253.899 170.472C254.806 170.472 255.531 170.163 256.075 169.544C256.63 168.925 256.907 168.077 256.907 167C256.907 165.923 256.63 165.075 256.075 164.456C255.531 163.837 254.806 163.528 253.899 163.528ZM259.994 171V163H260.714L260.762 164.6C261.008 164.035 261.397 163.603 261.93 163.304C262.464 162.995 263.066 162.84 263.738 162.84C264.624 162.84 265.354 163.091 265.93 163.592C266.506 164.093 266.794 164.835 266.794 165.816V171H265.994V166.072C265.994 165.197 265.776 164.557 265.338 164.152C264.901 163.747 264.341 163.544 263.658 163.544C263.157 163.544 262.688 163.661 262.25 163.896C261.813 164.12 261.461 164.451 261.194 164.888C260.928 165.325 260.794 165.859 260.794 166.488V171H259.994ZM272.821 171.16C272.085 171.16 271.429 170.995 270.853 170.664C270.277 170.333 269.823 169.859 269.493 169.24C269.173 168.611 269.013 167.864 269.013 167C269.013 166.136 269.173 165.395 269.493 164.776C269.813 164.147 270.25 163.667 270.805 163.336C271.37 163.005 272.01 162.84 272.725 162.84C273.45 162.84 274.069 163 274.581 163.32C275.103 163.64 275.498 164.088 275.765 164.664C276.042 165.229 276.181 165.885 276.181 166.632C276.181 166.739 276.175 166.84 276.165 166.936C276.165 167.021 276.159 167.096 276.149 167.16H269.797C269.829 168.195 270.117 169.005 270.661 169.592C271.215 170.168 271.93 170.456 272.805 170.456C273.423 170.456 273.951 170.323 274.389 170.056C274.837 169.789 275.183 169.421 275.429 168.952L276.069 169.32C275.77 169.885 275.338 170.333 274.773 170.664C274.218 170.995 273.567 171.16 272.821 171.16ZM272.709 163.544C271.93 163.544 271.274 163.8 270.741 164.312C270.218 164.813 269.909 165.523 269.813 166.44H275.397C275.365 165.555 275.109 164.851 274.629 164.328C274.159 163.805 273.519 163.544 272.709 163.544ZM284.47 163L280.598 172.472C280.3 173.219 279.969 173.731 279.606 174.008C279.244 174.296 278.796 174.44 278.262 174.44C277.601 174.44 277.089 174.259 276.726 173.896L276.982 173.208C277.142 173.4 277.334 173.533 277.558 173.608C277.782 173.693 278.012 173.736 278.246 173.736C278.588 173.736 278.892 173.635 279.158 173.432C279.436 173.24 279.686 172.856 279.91 172.28L280.438 171L279.59 169.016L277.062 163H277.974L280.422 169.064L280.822 170.136L281.254 168.984L283.606 163H284.47ZM288.934 160.04L288.71 163.32H288.07V160.04H288.934ZM286.806 160.04L286.582 163.32H285.942V160.04H286.806ZM130.312 181.84C131.123 181.84 131.8 182.032 132.344 182.416C132.899 182.789 133.299 183.317 133.544 184L132.792 184.352C132.622 183.776 132.323 183.333 131.896 183.024C131.48 182.704 130.947 182.544 130.296 182.544C129.411 182.544 128.696 182.853 128.152 183.472C127.608 184.08 127.336 184.923 127.336 186C127.336 187.077 127.603 187.925 128.136 188.544C128.68 189.152 129.395 189.456 130.28 189.456C130.952 189.456 131.523 189.291 131.992 188.96C132.472 188.619 132.771 188.149 132.888 187.552L133.624 187.808C133.411 188.533 133.006 189.109 132.408 189.536C131.822 189.952 131.118 190.16 130.296 190.16C129.56 190.16 128.91 189.995 128.344 189.664C127.779 189.333 127.336 188.859 127.016 188.24C126.696 187.611 126.536 186.864 126.536 186C126.536 185.136 126.696 184.395 127.016 183.776C127.347 183.147 127.795 182.667 128.36 182.336C128.936 182.005 129.587 181.84 130.312 181.84ZM139.032 181.84C139.778 181.84 140.434 182.005 141 182.336C141.576 182.667 142.024 183.147 142.344 183.776C142.674 184.395 142.84 185.136 142.84 186C142.84 186.864 142.674 187.611 142.344 188.24C142.024 188.859 141.576 189.333 141 189.664C140.434 189.995 139.778 190.16 139.032 190.16C138.285 190.16 137.624 189.995 137.048 189.664C136.482 189.333 136.034 188.859 135.704 188.24C135.384 187.611 135.224 186.864 135.224 186C135.224 185.136 135.384 184.395 135.704 183.776C136.034 183.147 136.482 182.667 137.048 182.336C137.624 182.005 138.285 181.84 139.032 181.84ZM139.032 182.528C138.125 182.528 137.394 182.837 136.84 183.456C136.296 184.075 136.024 184.923 136.024 186C136.024 187.077 136.296 187.925 136.84 188.544C137.394 189.163 138.125 189.472 139.032 189.472C139.938 189.472 140.664 189.163 141.208 188.544C141.762 187.925 142.04 187.077 142.04 186C142.04 184.923 141.762 184.075 141.208 183.456C140.664 182.837 139.938 182.528 139.032 182.528ZM145.127 190V182H145.847L145.895 183.6C146.14 183.035 146.53 182.603 147.063 182.304C147.596 181.995 148.199 181.84 148.871 181.84C149.756 181.84 150.487 182.091 151.063 182.592C151.639 183.093 151.927 183.835 151.927 184.816V190H151.127V185.072C151.127 184.197 150.908 183.557 150.471 183.152C150.034 182.747 149.474 182.544 148.791 182.544C148.29 182.544 147.82 182.661 147.383 182.896C146.946 183.12 146.594 183.451 146.327 183.888C146.06 184.325 145.927 184.859 145.927 185.488V190H145.127ZM159.99 182H160.838L157.494 190H156.694L153.35 182H154.246L157.11 189.168L159.99 182ZM165.688 190.16C164.952 190.16 164.296 189.995 163.72 189.664C163.144 189.333 162.691 188.859 162.36 188.24C162.04 187.611 161.88 186.864 161.88 186C161.88 185.136 162.04 184.395 162.36 183.776C162.68 183.147 163.117 182.667 163.672 182.336C164.237 182.005 164.877 181.84 165.592 181.84C166.317 181.84 166.936 182 167.448 182.32C167.971 182.64 168.365 183.088 168.632 183.664C168.909 184.229 169.048 184.885 169.048 185.632C169.048 185.739 169.043 185.84 169.032 185.936C169.032 186.021 169.027 186.096 169.016 186.16H162.664C162.696 187.195 162.984 188.005 163.528 188.592C164.083 189.168 164.797 189.456 165.672 189.456C166.291 189.456 166.819 189.323 167.256 189.056C167.704 188.789 168.051 188.421 168.296 187.952L168.936 188.32C168.637 188.885 168.205 189.333 167.64 189.664C167.085 189.995 166.435 190.16 165.688 190.16ZM165.576 182.544C164.797 182.544 164.141 182.8 163.608 183.312C163.085 183.813 162.776 184.523 162.68 185.44H168.264C168.232 184.555 167.976 183.851 167.496 183.328C167.027 182.805 166.387 182.544 165.576 182.544ZM171.33 190V182H172.002L172.098 183.664C172.301 183.12 172.621 182.683 173.058 182.352C173.506 182.011 174.05 181.84 174.69 181.84C175.117 181.84 175.453 181.931 175.698 182.112L175.506 182.816C175.389 182.741 175.261 182.683 175.122 182.64C174.984 182.597 174.776 182.576 174.498 182.576C174.093 182.576 173.709 182.704 173.346 182.96C172.984 183.205 172.69 183.552 172.466 184C172.242 184.437 172.13 184.944 172.13 185.52V190H171.33ZM179.816 190.16C179.005 190.16 178.285 189.995 177.656 189.664C177.037 189.333 176.6 188.859 176.344 188.24L177.032 187.776C177.213 188.32 177.554 188.736 178.056 189.024C178.557 189.312 179.165 189.456 179.88 189.456C180.573 189.456 181.122 189.317 181.528 189.04C181.933 188.763 182.136 188.395 182.136 187.936C182.136 187.627 182.034 187.36 181.832 187.136C181.64 186.901 181.272 186.725 180.728 186.608L178.856 186.208C178.098 186.048 177.554 185.792 177.224 185.44C176.893 185.077 176.728 184.64 176.728 184.128C176.728 183.712 176.856 183.333 177.112 182.992C177.368 182.64 177.72 182.363 178.168 182.16C178.626 181.947 179.16 181.84 179.768 181.84C180.568 181.84 181.229 182 181.752 182.32C182.274 182.629 182.642 183.099 182.856 183.728L182.184 184.16C182.024 183.595 181.725 183.184 181.288 182.928C180.85 182.672 180.344 182.544 179.768 182.544C179.085 182.544 178.541 182.693 178.136 182.992C177.73 183.28 177.528 183.643 177.528 184.08C177.528 184.389 177.629 184.672 177.832 184.928C178.045 185.173 178.429 185.355 178.984 185.472L180.904 185.888C181.65 186.048 182.173 186.293 182.472 186.624C182.781 186.944 182.936 187.344 182.936 187.824C182.936 188.539 182.648 189.109 182.072 189.536C181.506 189.952 180.754 190.16 179.816 190.16ZM190.086 184.736C190.086 184.053 189.899 183.52 189.526 183.136C189.152 182.741 188.619 182.544 187.926 182.544C187.318 182.544 186.79 182.677 186.342 182.944C185.904 183.211 185.584 183.643 185.382 184.24L184.726 183.824C184.96 183.195 185.35 182.709 185.894 182.368C186.448 182.016 187.131 181.84 187.942 181.84C188.816 181.84 189.526 182.075 190.07 182.544C190.614 183.003 190.886 183.685 190.886 184.592V188.592C190.886 189.157 191.142 189.44 191.654 189.44C191.878 189.44 192.07 189.403 192.23 189.328L192.182 189.968C192 190.064 191.766 190.112 191.478 190.112C191.126 190.112 190.811 190.011 190.534 189.808C190.256 189.605 190.102 189.237 190.07 188.704C189.803 189.205 189.403 189.573 188.87 189.808C188.336 190.043 187.798 190.16 187.254 190.16C186.496 190.16 185.872 189.984 185.382 189.632C184.891 189.28 184.646 188.768 184.646 188.096C184.646 187.488 184.848 187.003 185.254 186.64C185.659 186.277 186.219 186.027 186.934 185.888L190.086 185.264V184.736ZM185.462 188.032C185.462 188.48 185.627 188.832 185.958 189.088C186.288 189.333 186.758 189.456 187.366 189.456C187.782 189.456 188.198 189.381 188.614 189.232C189.04 189.072 189.392 188.827 189.67 188.496C189.947 188.155 190.086 187.717 190.086 187.184V185.936L187.334 186.48C186.704 186.608 186.235 186.795 185.926 187.04C185.616 187.285 185.462 187.616 185.462 188.032ZM197.963 182V182.688H194.971V187.888C194.971 188.912 195.44 189.424 196.379 189.424C196.677 189.424 196.939 189.376 197.163 189.28C197.397 189.173 197.605 189.024 197.787 188.832L198.091 189.488C197.877 189.691 197.616 189.856 197.307 189.984C197.008 190.101 196.667 190.16 196.283 190.16C195.653 190.16 195.141 189.989 194.747 189.648C194.363 189.296 194.171 188.747 194.171 188V182.688H192.571V182H194.171V180L194.971 179.776V182H197.963ZM200.074 180.448C199.871 180.448 199.706 180.389 199.578 180.272C199.461 180.144 199.402 179.979 199.402 179.776C199.402 179.573 199.461 179.413 199.578 179.296C199.706 179.168 199.871 179.104 200.074 179.104C200.277 179.104 200.437 179.168 200.554 179.296C200.682 179.413 200.746 179.573 200.746 179.776C200.746 179.979 200.682 180.144 200.554 180.272C200.437 180.389 200.277 180.448 200.074 180.448ZM200.474 182V190H199.674V182H200.474ZM206.594 181.84C207.341 181.84 207.997 182.005 208.562 182.336C209.138 182.667 209.586 183.147 209.906 183.776C210.237 184.395 210.402 185.136 210.402 186C210.402 186.864 210.237 187.611 209.906 188.24C209.586 188.859 209.138 189.333 208.562 189.664C207.997 189.995 207.341 190.16 206.594 190.16C205.848 190.16 205.186 189.995 204.61 189.664C204.045 189.333 203.597 188.859 203.266 188.24C202.946 187.611 202.786 186.864 202.786 186C202.786 185.136 202.946 184.395 203.266 183.776C203.597 183.147 204.045 182.667 204.61 182.336C205.186 182.005 205.848 181.84 206.594 181.84ZM206.594 182.528C205.688 182.528 204.957 182.837 204.402 183.456C203.858 184.075 203.586 184.923 203.586 186C203.586 187.077 203.858 187.925 204.402 188.544C204.957 189.163 205.688 189.472 206.594 189.472C207.501 189.472 208.226 189.163 208.77 188.544C209.325 187.925 209.602 187.077 209.602 186C209.602 184.923 209.325 184.075 208.77 183.456C208.226 182.837 207.501 182.528 206.594 182.528ZM212.69 190V182H213.41L213.458 183.6C213.703 183.035 214.092 182.603 214.626 182.304C215.159 181.995 215.762 181.84 216.434 181.84C217.319 181.84 218.05 182.091 218.626 182.592C219.202 183.093 219.49 183.835 219.49 184.816V190H218.69V185.072C218.69 184.197 218.471 183.557 218.034 183.152C217.596 182.747 217.036 182.544 216.354 182.544C215.852 182.544 215.383 182.661 214.946 182.896C214.508 183.12 214.156 183.451 213.89 183.888C213.623 184.325 213.49 184.859 213.49 185.488V190H212.69ZM222.588 188.688C222.801 188.688 222.972 188.757 223.1 188.896C223.239 189.024 223.308 189.195 223.308 189.408C223.308 189.621 223.239 189.797 223.1 189.936C222.972 190.064 222.801 190.128 222.588 190.128C222.375 190.128 222.199 190.064 222.06 189.936C221.932 189.797 221.868 189.621 221.868 189.408C221.868 189.195 221.932 189.024 222.06 188.896C222.199 188.757 222.375 188.688 222.588 188.688Z" fill="#1F2937"/>
</svg>
