<svg width="auto" height="auto" viewBox="0 0 350 253" fill="none" xmlns="http://www.w3.org/2000/svg">
<path d="M311.785 19.2247C339.784 40.1188 345.004 82.7031 348.089 121.904C351.411 161.106 352.597 197.123 332.666 219.61C312.734 241.897 271.209 250.851 235.854 252.642C200.499 254.433 171.076 249.06 130.738 246.274C90.6374 243.688 39.8589 243.688 16.6052 223.589C-6.41122 203.491 -1.42827 163.494 7.35119 124.491C16.1306 85.489 28.9439 47.6805 58.8415 26.9853C88.7391 6.29018 135.484 2.90731 184.127 0.917389C233.007 -1.07253 283.785 -1.6695 311.785 19.2247Z" fill="#F75759"/>
<path d="M36.652 120.645L40.876 110.085H41.82L46.044 120.645H45.196L43.868 117.333H38.812L37.5 120.645H36.652ZM40.956 111.957L39.116 116.597H43.58L41.74 111.989L41.356 110.869H41.34L40.956 111.957ZM50.7514 120.805C50.0581 120.805 49.4341 120.64 48.8794 120.309C48.3354 119.978 47.9034 119.504 47.5834 118.885C47.2634 118.256 47.1034 117.509 47.1034 116.645C47.1034 115.77 47.2687 115.024 47.5994 114.405C47.9301 113.776 48.3727 113.301 48.9274 112.981C49.4927 112.65 50.1274 112.485 50.8314 112.485C51.5034 112.485 52.0954 112.656 52.6074 112.997C53.1194 113.338 53.4821 113.813 53.6954 114.421V108.965H54.4954V120.645H53.7754L53.7274 118.757C53.5247 119.408 53.1514 119.914 52.6074 120.277C52.0634 120.629 51.4447 120.805 50.7514 120.805ZM50.8474 120.101C51.4021 120.101 51.8927 119.962 52.3194 119.685C52.7567 119.397 53.0927 118.992 53.3274 118.469C53.5727 117.936 53.6954 117.306 53.6954 116.581C53.6954 115.536 53.4287 114.709 52.8954 114.101C52.3727 113.493 51.7007 113.189 50.8794 113.189C49.9621 113.189 49.2367 113.498 48.7034 114.117C48.1701 114.736 47.9034 115.578 47.9034 116.645C47.9034 117.712 48.1647 118.554 48.6874 119.173C49.2207 119.792 49.9407 120.101 50.8474 120.101ZM60.4701 120.805C59.7768 120.805 59.1528 120.64 58.5981 120.309C58.0541 119.978 57.6221 119.504 57.3021 118.885C56.9821 118.256 56.8221 117.509 56.8221 116.645C56.8221 115.77 56.9875 115.024 57.3181 114.405C57.6488 113.776 58.0915 113.301 58.6461 112.981C59.2115 112.65 59.8461 112.485 60.5501 112.485C61.2221 112.485 61.8141 112.656 62.3261 112.997C62.8381 113.338 63.2008 113.813 63.4141 114.421V108.965H64.2141V120.645H63.4941L63.4461 118.757C63.2435 119.408 62.8701 119.914 62.3261 120.277C61.7821 120.629 61.1635 120.805 60.4701 120.805ZM60.5661 120.101C61.1208 120.101 61.6115 119.962 62.0381 119.685C62.4755 119.397 62.8115 118.992 63.0461 118.469C63.2915 117.936 63.4141 117.306 63.4141 116.581C63.4141 115.536 63.1475 114.709 62.6141 114.101C62.0915 113.493 61.4195 113.189 60.5981 113.189C59.6808 113.189 58.9555 113.498 58.4221 114.117C57.8888 114.736 57.6221 115.578 57.6221 116.645C57.6221 117.712 57.8835 118.554 58.4061 119.173C58.9395 119.792 59.6595 120.101 60.5661 120.101ZM76.9805 115.381C76.9805 114.698 76.7939 114.165 76.4205 113.781C76.0472 113.386 75.5139 113.189 74.8205 113.189C74.2125 113.189 73.6845 113.322 73.2365 113.589C72.7992 113.856 72.4792 114.288 72.2765 114.885L71.6205 114.469C71.8552 113.84 72.2445 113.354 72.7885 113.013C73.3432 112.661 74.0259 112.485 74.8365 112.485C75.7112 112.485 76.4205 112.72 76.9645 113.189C77.5085 113.648 77.7805 114.33 77.7805 115.237V119.237C77.7805 119.802 78.0365 120.085 78.5485 120.085C78.7725 120.085 78.9645 120.048 79.1245 119.973L79.0765 120.613C78.8952 120.709 78.6605 120.757 78.3725 120.757C78.0205 120.757 77.7059 120.656 77.4285 120.453C77.1512 120.25 76.9965 119.882 76.9645 119.349C76.6979 119.85 76.2979 120.218 75.7645 120.453C75.2312 120.688 74.6925 120.805 74.1485 120.805C73.3912 120.805 72.7672 120.629 72.2765 120.277C71.7859 119.925 71.5405 119.413 71.5405 118.741C71.5405 118.133 71.7432 117.648 72.1485 117.285C72.5539 116.922 73.1139 116.672 73.8285 116.533L76.9805 115.909V115.381ZM72.3565 118.677C72.3565 119.125 72.5219 119.477 72.8525 119.733C73.1832 119.978 73.6525 120.101 74.2605 120.101C74.6765 120.101 75.0925 120.026 75.5085 119.877C75.9352 119.717 76.2872 119.472 76.5645 119.141C76.8419 118.8 76.9805 118.362 76.9805 117.829V116.581L74.2285 117.125C73.5992 117.253 73.1299 117.44 72.8205 117.685C72.5112 117.93 72.3565 118.261 72.3565 118.677ZM88.0854 120.805C87.2747 120.805 86.5547 120.64 85.9254 120.309C85.3067 119.978 84.8694 119.504 84.6134 118.885L85.3014 118.421C85.4827 118.965 85.8241 119.381 86.3254 119.669C86.8267 119.957 87.4347 120.101 88.1494 120.101C88.8427 120.101 89.3921 119.962 89.7974 119.685C90.2027 119.408 90.4054 119.04 90.4054 118.581C90.4054 118.272 90.3041 118.005 90.1014 117.781C89.9094 117.546 89.5414 117.37 88.9974 117.253L87.1254 116.853C86.3681 116.693 85.8241 116.437 85.4934 116.085C85.1627 115.722 84.9974 115.285 84.9974 114.773C84.9974 114.357 85.1254 113.978 85.3814 113.637C85.6374 113.285 85.9894 113.008 86.4374 112.805C86.8961 112.592 87.4294 112.485 88.0374 112.485C88.8374 112.485 89.4987 112.645 90.0214 112.965C90.5441 113.274 90.9121 113.744 91.1254 114.373L90.4534 114.805C90.2934 114.24 89.9947 113.829 89.5574 113.573C89.1201 113.317 88.6134 113.189 88.0374 113.189C87.3547 113.189 86.8107 113.338 86.4054 113.637C86.0001 113.925 85.7974 114.288 85.7974 114.725C85.7974 115.034 85.8987 115.317 86.1014 115.573C86.3147 115.818 86.6987 116 87.2534 116.117L89.1734 116.533C89.9201 116.693 90.4427 116.938 90.7414 117.269C91.0507 117.589 91.2054 117.989 91.2054 118.469C91.2054 119.184 90.9174 119.754 90.3414 120.181C89.7761 120.597 89.0241 120.805 88.0854 120.805ZM96.2755 120.805C95.4435 120.805 94.7502 120.57 94.1955 120.101C93.6515 119.632 93.3795 118.906 93.3795 117.925V112.645H94.1795V117.733C94.1795 118.565 94.3769 119.168 94.7715 119.541C95.1769 119.914 95.7422 120.101 96.4675 120.101C97.0329 120.101 97.5289 119.973 97.9555 119.717C98.3822 119.45 98.7075 119.104 98.9315 118.677C99.1662 118.24 99.2835 117.76 99.2835 117.237V112.645H100.084V120.645H99.3635L99.3315 118.997C99.0969 119.562 98.7129 120.005 98.1795 120.325C97.6462 120.645 97.0115 120.805 96.2755 120.805ZM107.024 119.829C107.814 119.829 108.432 120 108.88 120.341C109.328 120.672 109.552 121.109 109.552 121.653C109.552 122.144 109.387 122.57 109.056 122.933C108.736 123.306 108.288 123.589 107.712 123.781C107.147 123.984 106.507 124.085 105.792 124.085C104.576 124.085 103.648 123.877 103.008 123.461C102.379 123.056 102.064 122.544 102.064 121.925C102.064 121.52 102.198 121.162 102.464 120.853C102.731 120.544 103.12 120.33 103.632 120.213C103.355 120.106 103.115 119.946 102.912 119.733C102.72 119.52 102.624 119.232 102.624 118.869C102.624 118.506 102.736 118.192 102.96 117.925C103.195 117.658 103.515 117.472 103.92 117.365C103.451 117.152 103.088 116.853 102.832 116.469C102.576 116.074 102.448 115.616 102.448 115.093C102.448 114.581 102.582 114.128 102.848 113.733C103.126 113.338 103.504 113.034 103.984 112.821C104.475 112.597 105.04 112.485 105.68 112.485C106.395 112.485 107.014 112.624 107.536 112.901C107.6 112.378 107.808 111.962 108.16 111.653C108.523 111.333 108.966 111.173 109.488 111.173H109.552L109.744 111.877H109.664C109.174 111.877 108.79 112 108.512 112.245C108.235 112.48 108.08 112.816 108.048 113.253C108.603 113.733 108.88 114.346 108.88 115.093C108.88 115.616 108.747 116.074 108.48 116.469C108.214 116.864 107.835 117.173 107.344 117.397C106.864 117.61 106.31 117.717 105.68 117.717C105.307 117.717 104.96 117.68 104.64 117.605C104.246 117.669 103.931 117.802 103.696 118.005C103.472 118.197 103.36 118.442 103.36 118.741C103.36 119.104 103.499 119.376 103.776 119.557C104.064 119.738 104.427 119.829 104.864 119.829H107.024ZM105.68 113.141C104.966 113.141 104.384 113.322 103.936 113.685C103.499 114.037 103.28 114.506 103.28 115.093C103.28 115.68 103.499 116.154 103.936 116.517C104.384 116.88 104.966 117.061 105.68 117.061C106.374 117.061 106.944 116.88 107.392 116.517C107.84 116.154 108.064 115.68 108.064 115.093C108.064 114.506 107.84 114.037 107.392 113.685C106.944 113.322 106.374 113.141 105.68 113.141ZM105.792 123.413C106.731 123.413 107.467 123.253 108 122.933C108.534 122.613 108.8 122.218 108.8 121.749C108.8 121.376 108.635 121.077 108.304 120.853C107.984 120.629 107.494 120.517 106.832 120.517H104.56C104.059 120.517 103.643 120.634 103.312 120.869C102.982 121.104 102.816 121.418 102.816 121.813C102.816 122.282 103.078 122.666 103.6 122.965C104.134 123.264 104.864 123.413 105.792 123.413ZM115.259 119.829C116.048 119.829 116.667 120 117.115 120.341C117.563 120.672 117.787 121.109 117.787 121.653C117.787 122.144 117.621 122.57 117.291 122.933C116.971 123.306 116.523 123.589 115.947 123.781C115.381 123.984 114.741 124.085 114.027 124.085C112.811 124.085 111.883 123.877 111.243 123.461C110.613 123.056 110.299 122.544 110.299 121.925C110.299 121.52 110.432 121.162 110.699 120.853C110.965 120.544 111.355 120.33 111.867 120.213C111.589 120.106 111.349 119.946 111.147 119.733C110.955 119.52 110.859 119.232 110.859 118.869C110.859 118.506 110.971 118.192 111.195 117.925C111.429 117.658 111.749 117.472 112.155 117.365C111.685 117.152 111.323 116.853 111.067 116.469C110.811 116.074 110.683 115.616 110.683 115.093C110.683 114.581 110.816 114.128 111.083 113.733C111.36 113.338 111.739 113.034 112.219 112.821C112.709 112.597 113.275 112.485 113.915 112.485C114.629 112.485 115.248 112.624 115.771 112.901C115.835 112.378 116.043 111.962 116.395 111.653C116.757 111.333 117.2 111.173 117.723 111.173H117.787L117.979 111.877H117.899C117.408 111.877 117.024 112 116.747 112.245C116.469 112.48 116.315 112.816 116.283 113.253C116.837 113.733 117.115 114.346 117.115 115.093C117.115 115.616 116.981 116.074 116.715 116.469C116.448 116.864 116.069 117.173 115.579 117.397C115.099 117.61 114.544 117.717 113.915 117.717C113.541 117.717 113.195 117.68 112.875 117.605C112.48 117.669 112.165 117.802 111.931 118.005C111.707 118.197 111.595 118.442 111.595 118.741C111.595 119.104 111.733 119.376 112.011 119.557C112.299 119.738 112.661 119.829 113.099 119.829H115.259ZM113.915 113.141C113.2 113.141 112.619 113.322 112.171 113.685C111.733 114.037 111.515 114.506 111.515 115.093C111.515 115.68 111.733 116.154 112.171 116.517C112.619 116.88 113.2 117.061 113.915 117.061C114.608 117.061 115.179 116.88 115.627 116.517C116.075 116.154 116.299 115.68 116.299 115.093C116.299 114.506 116.075 114.037 115.627 113.685C115.179 113.322 114.608 113.141 113.915 113.141ZM114.027 123.413C114.965 123.413 115.701 123.253 116.235 122.933C116.768 122.613 117.035 122.218 117.035 121.749C117.035 121.376 116.869 121.077 116.539 120.853C116.219 120.629 115.728 120.517 115.067 120.517H112.795C112.293 120.517 111.877 120.634 111.547 120.869C111.216 121.104 111.051 121.418 111.051 121.813C111.051 122.282 111.312 122.666 111.835 122.965C112.368 123.264 113.099 123.413 114.027 123.413ZM122.661 120.805C121.925 120.805 121.269 120.64 120.693 120.309C120.117 119.978 119.664 119.504 119.333 118.885C119.013 118.256 118.853 117.509 118.853 116.645C118.853 115.781 119.013 115.04 119.333 114.421C119.653 113.792 120.09 113.312 120.645 112.981C121.21 112.65 121.85 112.485 122.565 112.485C123.29 112.485 123.909 112.645 124.421 112.965C124.944 113.285 125.338 113.733 125.605 114.309C125.882 114.874 126.021 115.53 126.021 116.277C126.021 116.384 126.016 116.485 126.005 116.581C126.005 116.666 126 116.741 125.989 116.805H119.637C119.669 117.84 119.957 118.65 120.501 119.237C121.056 119.813 121.77 120.101 122.645 120.101C123.264 120.101 123.792 119.968 124.229 119.701C124.677 119.434 125.024 119.066 125.269 118.597L125.909 118.965C125.61 119.53 125.178 119.978 124.613 120.309C124.058 120.64 123.408 120.805 122.661 120.805ZM122.549 113.189C121.77 113.189 121.114 113.445 120.581 113.957C120.058 114.458 119.749 115.168 119.653 116.085H125.237C125.205 115.2 124.949 114.496 124.469 113.973C124 113.45 123.36 113.189 122.549 113.189ZM131.007 120.805C130.197 120.805 129.477 120.64 128.847 120.309C128.229 119.978 127.791 119.504 127.535 118.885L128.223 118.421C128.405 118.965 128.746 119.381 129.247 119.669C129.749 119.957 130.357 120.101 131.071 120.101C131.765 120.101 132.314 119.962 132.719 119.685C133.125 119.408 133.327 119.04 133.327 118.581C133.327 118.272 133.226 118.005 133.023 117.781C132.831 117.546 132.463 117.37 131.919 117.253L130.047 116.853C129.29 116.693 128.746 116.437 128.415 116.085C128.085 115.722 127.919 115.285 127.919 114.773C127.919 114.357 128.047 113.978 128.303 113.637C128.559 113.285 128.911 113.008 129.359 112.805C129.818 112.592 130.351 112.485 130.959 112.485C131.759 112.485 132.421 112.645 132.943 112.965C133.466 113.274 133.834 113.744 134.047 114.373L133.375 114.805C133.215 114.24 132.917 113.829 132.479 113.573C132.042 113.317 131.535 113.189 130.959 113.189C130.277 113.189 129.733 113.338 129.327 113.637C128.922 113.925 128.719 114.288 128.719 114.725C128.719 115.034 128.821 115.317 129.023 115.573C129.237 115.818 129.621 116 130.175 116.117L132.095 116.533C132.842 116.693 133.365 116.938 133.663 117.269C133.973 117.589 134.127 117.989 134.127 118.469C134.127 119.184 133.839 119.754 133.263 120.181C132.698 120.597 131.946 120.805 131.007 120.805ZM140.701 112.645V113.333H137.709V118.533C137.709 119.557 138.179 120.069 139.117 120.069C139.416 120.069 139.677 120.021 139.901 119.925C140.136 119.818 140.344 119.669 140.525 119.477L140.829 120.133C140.616 120.336 140.355 120.501 140.045 120.629C139.747 120.746 139.405 120.805 139.021 120.805C138.392 120.805 137.88 120.634 137.485 120.293C137.101 119.941 136.909 119.392 136.909 118.645V113.333H135.309V112.645H136.909V110.645L137.709 110.421V112.645H140.701ZM145.677 120.805C144.941 120.805 144.285 120.64 143.709 120.309C143.133 119.978 142.679 119.504 142.349 118.885C142.029 118.256 141.869 117.509 141.869 116.645C141.869 115.781 142.029 115.04 142.349 114.421C142.669 113.792 143.106 113.312 143.661 112.981C144.226 112.65 144.866 112.485 145.581 112.485C146.306 112.485 146.925 112.645 147.437 112.965C147.959 113.285 148.354 113.733 148.621 114.309C148.898 114.874 149.037 115.53 149.037 116.277C149.037 116.384 149.031 116.485 149.021 116.581C149.021 116.666 149.015 116.741 149.005 116.805H142.653C142.685 117.84 142.973 118.65 143.517 119.237C144.071 119.813 144.786 120.101 145.661 120.101C146.279 120.101 146.807 119.968 147.245 119.701C147.693 119.434 148.039 119.066 148.285 118.597L148.925 118.965C148.626 119.53 148.194 119.978 147.629 120.309C147.074 120.64 146.423 120.805 145.677 120.805ZM145.565 113.189C144.786 113.189 144.13 113.445 143.597 113.957C143.074 114.458 142.765 115.168 142.669 116.085H148.253C148.221 115.2 147.965 114.496 147.485 113.973C147.015 113.45 146.375 113.189 145.565 113.189ZM154.439 120.805C153.746 120.805 153.122 120.64 152.567 120.309C152.023 119.978 151.591 119.504 151.271 118.885C150.951 118.256 150.791 117.509 150.791 116.645C150.791 115.77 150.956 115.024 151.287 114.405C151.618 113.776 152.06 113.301 152.615 112.981C153.18 112.65 153.815 112.485 154.519 112.485C155.191 112.485 155.783 112.656 156.295 112.997C156.807 113.338 157.17 113.813 157.383 114.421V108.965H158.183V120.645H157.463L157.415 118.757C157.212 119.408 156.839 119.914 156.295 120.277C155.751 120.629 155.132 120.805 154.439 120.805ZM154.535 120.101C155.09 120.101 155.58 119.962 156.007 119.685C156.444 119.397 156.78 118.992 157.015 118.469C157.26 117.936 157.383 117.306 157.383 116.581C157.383 115.536 157.116 114.709 156.583 114.101C156.06 113.493 155.388 113.189 154.567 113.189C153.65 113.189 152.924 113.498 152.391 114.117C151.858 114.736 151.591 115.578 151.591 116.645C151.591 117.712 151.852 118.554 152.375 119.173C152.908 119.792 153.628 120.101 154.535 120.101ZM175.886 112.645H176.766L174.046 120.645H173.246L170.718 113.685L168.238 120.645H167.438L164.718 112.645H165.598L167.854 119.685L170.334 112.645H171.15L173.646 119.685L175.886 112.645ZM181.692 120.805C180.956 120.805 180.3 120.64 179.724 120.309C179.148 119.978 178.695 119.504 178.364 118.885C178.044 118.256 177.884 117.509 177.884 116.645C177.884 115.781 178.044 115.04 178.364 114.421C178.684 113.792 179.122 113.312 179.676 112.981C180.242 112.65 180.882 112.485 181.596 112.485C182.322 112.485 182.94 112.645 183.452 112.965C183.975 113.285 184.37 113.733 184.636 114.309C184.914 114.874 185.052 115.53 185.052 116.277C185.052 116.384 185.047 116.485 185.036 116.581C185.036 116.666 185.031 116.741 185.02 116.805H178.668C178.7 117.84 178.988 118.65 179.532 119.237C180.087 119.813 180.802 120.101 181.676 120.101C182.295 120.101 182.823 119.968 183.26 119.701C183.708 119.434 184.055 119.066 184.3 118.597L184.94 118.965C184.642 119.53 184.21 119.978 183.644 120.309C183.09 120.64 182.439 120.805 181.692 120.805ZM181.58 113.189C180.802 113.189 180.146 113.445 179.612 113.957C179.09 114.458 178.78 115.168 178.684 116.085H184.268C184.236 115.2 183.98 114.496 183.5 113.973C183.031 113.45 182.391 113.189 181.58 113.189ZM190.599 120.805C189.863 120.805 189.207 120.64 188.631 120.309C188.055 119.978 187.601 119.504 187.271 118.885C186.951 118.256 186.791 117.509 186.791 116.645C186.791 115.781 186.951 115.04 187.271 114.421C187.591 113.792 188.028 113.312 188.583 112.981C189.148 112.65 189.788 112.485 190.503 112.485C191.228 112.485 191.847 112.645 192.359 112.965C192.881 113.285 193.276 113.733 193.543 114.309C193.82 114.874 193.959 115.53 193.959 116.277C193.959 116.384 193.953 116.485 193.943 116.581C193.943 116.666 193.937 116.741 193.927 116.805H187.575C187.607 117.84 187.895 118.65 188.439 119.237C188.993 119.813 189.708 120.101 190.583 120.101C191.201 120.101 191.729 119.968 192.167 119.701C192.615 119.434 192.961 119.066 193.207 118.597L193.847 118.965C193.548 119.53 193.116 119.978 192.551 120.309C191.996 120.64 191.345 120.805 190.599 120.805ZM190.487 113.189C189.708 113.189 189.052 113.445 188.519 113.957C187.996 114.458 187.687 115.168 187.591 116.085H193.175C193.143 115.2 192.887 114.496 192.407 113.973C191.937 113.45 191.297 113.189 190.487 113.189ZM202.833 112.645L199.521 115.845L202.961 120.645H201.985L198.929 116.405L197.041 118.229V120.645H196.241V108.965H197.041V117.221L201.793 112.645H202.833ZM205.414 108.965V118.757C205.414 119.248 205.5 119.594 205.67 119.797C205.841 120 206.108 120.101 206.47 120.101C206.694 120.101 206.87 120.085 206.998 120.053C207.137 120.021 207.297 119.968 207.478 119.893L207.366 120.597C207.068 120.736 206.716 120.805 206.31 120.805C205.745 120.805 205.318 120.645 205.03 120.325C204.753 119.994 204.614 119.482 204.614 118.789V108.965H205.414ZM214.998 112.645L211.126 122.117C210.827 122.864 210.497 123.376 210.134 123.653C209.771 123.941 209.323 124.085 208.79 124.085C208.129 124.085 207.617 123.904 207.254 123.541L207.51 122.853C207.67 123.045 207.862 123.178 208.086 123.253C208.31 123.338 208.539 123.381 208.774 123.381C209.115 123.381 209.419 123.28 209.686 123.077C209.963 122.885 210.214 122.501 210.438 121.925L210.966 120.645L210.118 118.661L207.59 112.645H208.502L210.95 118.709L211.35 119.781L211.782 118.629L214.134 112.645H214.998ZM226.199 115.381C226.199 114.698 226.013 114.165 225.639 113.781C225.266 113.386 224.733 113.189 224.039 113.189C223.431 113.189 222.903 113.322 222.455 113.589C222.018 113.856 221.698 114.288 221.495 114.885L220.839 114.469C221.074 113.84 221.463 113.354 222.007 113.013C222.562 112.661 223.245 112.485 224.055 112.485C224.93 112.485 225.639 112.72 226.183 113.189C226.727 113.648 226.999 114.33 226.999 115.237V119.237C226.999 119.802 227.255 120.085 227.767 120.085C227.991 120.085 228.183 120.048 228.343 119.973L228.295 120.613C228.114 120.709 227.879 120.757 227.591 120.757C227.239 120.757 226.925 120.656 226.647 120.453C226.37 120.25 226.215 119.882 226.183 119.349C225.917 119.85 225.517 120.218 224.983 120.453C224.45 120.688 223.911 120.805 223.367 120.805C222.61 120.805 221.986 120.629 221.495 120.277C221.005 119.925 220.759 119.413 220.759 118.741C220.759 118.133 220.962 117.648 221.367 117.285C221.773 116.922 222.333 116.672 223.047 116.533L226.199 115.909V115.381ZM221.575 118.677C221.575 119.125 221.741 119.477 222.071 119.733C222.402 119.978 222.871 120.101 223.479 120.101C223.895 120.101 224.311 120.026 224.727 119.877C225.154 119.717 225.506 119.472 225.783 119.141C226.061 118.8 226.199 118.362 226.199 117.829V116.581L223.447 117.125C222.818 117.253 222.349 117.44 222.039 117.685C221.73 117.93 221.575 118.261 221.575 118.677ZM229.991 120.645V112.645H230.711L230.759 114.245C231.004 113.68 231.393 113.248 231.927 112.949C232.46 112.64 233.063 112.485 233.735 112.485C234.62 112.485 235.351 112.736 235.927 113.237C236.503 113.738 236.791 114.48 236.791 115.461V120.645H235.991V115.717C235.991 114.842 235.772 114.202 235.335 113.797C234.897 113.392 234.337 113.189 233.655 113.189C233.153 113.189 232.684 113.306 232.247 113.541C231.809 113.765 231.457 114.096 231.191 114.533C230.924 114.97 230.791 115.504 230.791 116.133V120.645H229.991ZM242.673 120.805C241.98 120.805 241.356 120.64 240.801 120.309C240.257 119.978 239.825 119.504 239.505 118.885C239.185 118.256 239.025 117.509 239.025 116.645C239.025 115.77 239.191 115.024 239.521 114.405C239.852 113.776 240.295 113.301 240.849 112.981C241.415 112.65 242.049 112.485 242.753 112.485C243.425 112.485 244.017 112.656 244.529 112.997C245.041 113.338 245.404 113.813 245.617 114.421V108.965H246.417V120.645H245.697L245.649 118.757C245.447 119.408 245.073 119.914 244.529 120.277C243.985 120.629 243.367 120.805 242.673 120.805ZM242.769 120.101C243.324 120.101 243.815 119.962 244.241 119.685C244.679 119.397 245.015 118.992 245.249 118.469C245.495 117.936 245.617 117.306 245.617 116.581C245.617 115.536 245.351 114.709 244.817 114.101C244.295 113.493 243.623 113.189 242.801 113.189C241.884 113.189 241.159 113.498 240.625 114.117C240.092 114.736 239.825 115.578 239.825 116.645C239.825 117.712 240.087 118.554 240.609 119.173C241.143 119.792 241.863 120.101 242.769 120.101ZM254.288 120.645V112.645H255.008L255.056 114.309C255.29 113.744 255.669 113.301 256.192 112.981C256.714 112.65 257.306 112.485 257.968 112.485C258.661 112.485 259.258 112.65 259.76 112.981C260.272 113.312 260.624 113.797 260.816 114.437C260.954 114.032 261.178 113.685 261.488 113.397C261.797 113.098 262.16 112.869 262.576 112.709C262.992 112.549 263.424 112.469 263.872 112.469C264.426 112.469 264.933 112.581 265.392 112.805C265.85 113.018 266.213 113.349 266.48 113.797C266.746 114.234 266.88 114.784 266.88 115.445V120.629H266.08V115.525C266.08 114.736 265.866 114.149 265.44 113.765C265.013 113.37 264.458 113.173 263.776 113.173C263.264 113.173 262.794 113.296 262.368 113.541C261.952 113.786 261.616 114.128 261.36 114.565C261.114 114.992 260.992 115.482 260.992 116.037V120.645H260.192V115.541C260.192 114.752 259.978 114.165 259.552 113.781C259.125 113.386 258.57 113.189 257.888 113.189C257.408 113.189 256.954 113.306 256.528 113.541C256.101 113.776 255.754 114.112 255.488 114.549C255.221 114.986 255.088 115.509 255.088 116.117V120.645H254.288ZM272.911 112.485C273.658 112.485 274.314 112.65 274.879 112.981C275.455 113.312 275.903 113.792 276.223 114.421C276.554 115.04 276.719 115.781 276.719 116.645C276.719 117.509 276.554 118.256 276.223 118.885C275.903 119.504 275.455 119.978 274.879 120.309C274.314 120.64 273.658 120.805 272.911 120.805C272.164 120.805 271.503 120.64 270.927 120.309C270.362 119.978 269.914 119.504 269.583 118.885C269.263 118.256 269.103 117.509 269.103 116.645C269.103 115.781 269.263 115.04 269.583 114.421C269.914 113.792 270.362 113.312 270.927 112.981C271.503 112.65 272.164 112.485 272.911 112.485ZM272.911 113.173C272.004 113.173 271.274 113.482 270.719 114.101C270.175 114.72 269.903 115.568 269.903 116.645C269.903 117.722 270.175 118.57 270.719 119.189C271.274 119.808 272.004 120.117 272.911 120.117C273.818 120.117 274.543 119.808 275.087 119.189C275.642 118.57 275.919 117.722 275.919 116.645C275.919 115.568 275.642 114.72 275.087 114.101C274.543 113.482 273.818 113.173 272.911 113.173ZM279.006 120.645V112.645H279.726L279.774 114.245C280.02 113.68 280.409 113.248 280.942 112.949C281.476 112.64 282.078 112.485 282.75 112.485C283.636 112.485 284.366 112.736 284.942 113.237C285.518 113.738 285.806 114.48 285.806 115.461V120.645H285.006V115.717C285.006 114.842 284.788 114.202 284.35 113.797C283.913 113.392 283.353 113.189 282.67 113.189C282.169 113.189 281.7 113.306 281.262 113.541C280.825 113.765 280.473 114.096 280.206 114.533C279.94 114.97 279.806 115.504 279.806 116.133V120.645H279.006ZM292.686 112.645V113.333H289.694V118.533C289.694 119.557 290.163 120.069 291.102 120.069C291.4 120.069 291.662 120.021 291.886 119.925C292.12 119.818 292.328 119.669 292.51 119.477L292.814 120.133C292.6 120.336 292.339 120.501 292.03 120.629C291.731 120.746 291.39 120.805 291.006 120.805C290.376 120.805 289.864 120.634 289.47 120.293C289.086 119.941 288.894 119.392 288.894 118.645V113.333H287.294V112.645H288.894V110.645L289.694 110.421V112.645H292.686ZM294.397 120.645V108.965H295.197V114.277C295.432 113.712 295.81 113.274 296.333 112.965C296.856 112.645 297.458 112.485 298.141 112.485C299.026 112.485 299.757 112.736 300.333 113.237C300.909 113.728 301.197 114.464 301.197 115.445V120.645H300.397V115.701C300.397 114.826 300.178 114.186 299.741 113.781C299.304 113.376 298.744 113.173 298.061 113.173C297.56 113.173 297.09 113.29 296.653 113.525C296.216 113.76 295.864 114.096 295.597 114.533C295.33 114.97 295.197 115.504 295.197 116.133V120.645H294.397ZM304.696 108.965V118.757C304.696 119.248 304.781 119.594 304.952 119.797C305.122 120 305.389 120.101 305.752 120.101C305.976 120.101 306.152 120.085 306.28 120.053C306.418 120.021 306.578 119.968 306.76 119.893L306.648 120.597C306.349 120.736 305.997 120.805 305.592 120.805C305.026 120.805 304.6 120.645 304.312 120.325C304.034 119.994 303.896 119.482 303.896 118.789V108.965H304.696ZM314.279 112.645L310.407 122.117C310.108 122.864 309.778 123.376 309.415 123.653C309.052 123.941 308.604 124.085 308.071 124.085C307.41 124.085 306.898 123.904 306.535 123.541L306.791 122.853C306.951 123.045 307.143 123.178 307.367 123.253C307.591 123.338 307.82 123.381 308.055 123.381C308.396 123.381 308.7 123.28 308.967 123.077C309.244 122.885 309.495 122.501 309.719 121.925L310.247 120.645L309.399 118.661L306.871 112.645H307.783L310.231 118.709L310.631 119.781L311.063 118.629L313.415 112.645H314.279ZM43.2963 150.805C42.4857 150.805 41.7657 150.64 41.1363 150.309C40.5177 149.978 40.0803 149.504 39.8243 148.885L40.5123 148.421C40.6937 148.965 41.035 149.381 41.5363 149.669C42.0377 149.957 42.6457 150.101 43.3603 150.101C44.0537 150.101 44.603 149.962 45.0083 149.685C45.4137 149.408 45.6163 149.04 45.6163 148.581C45.6163 148.272 45.515 148.005 45.3123 147.781C45.1203 147.546 44.7523 147.37 44.2083 147.253L42.3363 146.853C41.579 146.693 41.035 146.437 40.7043 146.085C40.3737 145.722 40.2083 145.285 40.2083 144.773C40.2083 144.357 40.3363 143.978 40.5923 143.637C40.8483 143.285 41.2003 143.008 41.6483 142.805C42.107 142.592 42.6403 142.485 43.2483 142.485C44.0483 142.485 44.7097 142.645 45.2323 142.965C45.755 143.274 46.123 143.744 46.3363 144.373L45.6643 144.805C45.5043 144.24 45.2057 143.829 44.7683 143.573C44.331 143.317 43.8243 143.189 43.2483 143.189C42.5657 143.189 42.0217 143.338 41.6163 143.637C41.211 143.925 41.0083 144.288 41.0083 144.725C41.0083 145.034 41.1097 145.317 41.3123 145.573C41.5257 145.818 41.9097 146 42.4643 146.117L44.3843 146.533C45.131 146.693 45.6537 146.938 45.9523 147.269C46.2617 147.589 46.4163 147.989 46.4163 148.469C46.4163 149.184 46.1283 149.754 45.5523 150.181C44.987 150.597 44.235 150.805 43.2963 150.805ZM53.5665 145.381C53.5665 144.698 53.3798 144.165 53.0065 143.781C52.6331 143.386 52.0998 143.189 51.4065 143.189C50.7985 143.189 50.2705 143.322 49.8225 143.589C49.3851 143.856 49.0651 144.288 48.8625 144.885L48.2065 144.469C48.4411 143.84 48.8305 143.354 49.3745 143.013C49.9291 142.661 50.6118 142.485 51.4225 142.485C52.2971 142.485 53.0065 142.72 53.5505 143.189C54.0945 143.648 54.3665 144.33 54.3665 145.237V149.237C54.3665 149.802 54.6225 150.085 55.1345 150.085C55.3585 150.085 55.5505 150.048 55.7105 149.973L55.6625 150.613C55.4811 150.709 55.2465 150.757 54.9585 150.757C54.6065 150.757 54.2918 150.656 54.0145 150.453C53.7371 150.25 53.5825 149.882 53.5505 149.349C53.2838 149.85 52.8838 150.218 52.3505 150.453C51.8171 150.688 51.2785 150.805 50.7345 150.805C49.9771 150.805 49.3531 150.629 48.8625 150.277C48.3718 149.925 48.1265 149.413 48.1265 148.741C48.1265 148.133 48.3291 147.648 48.7345 147.285C49.1398 146.922 49.6998 146.672 50.4145 146.533L53.5665 145.909V145.381ZM48.9425 148.677C48.9425 149.125 49.1078 149.477 49.4385 149.733C49.7691 149.978 50.2385 150.101 50.8465 150.101C51.2625 150.101 51.6785 150.026 52.0945 149.877C52.5211 149.717 52.8731 149.472 53.1505 149.141C53.4278 148.8 53.5665 148.362 53.5665 147.829V146.581L50.8145 147.125C50.1851 147.253 49.7158 147.44 49.4065 147.685C49.0971 147.93 48.9425 148.261 48.9425 148.677ZM62.5803 142.645H63.4283L60.0843 150.645H59.2843L55.9403 142.645H56.8363L59.7003 149.813L62.5803 142.645ZM65.5236 141.093C65.3209 141.093 65.1556 141.034 65.0276 140.917C64.9103 140.789 64.8516 140.624 64.8516 140.421C64.8516 140.218 64.9103 140.058 65.0276 139.941C65.1556 139.813 65.3209 139.749 65.5236 139.749C65.7263 139.749 65.8863 139.813 66.0036 139.941C66.1316 140.058 66.1956 140.218 66.1956 140.421C66.1956 140.624 66.1316 140.789 66.0036 140.917C65.8863 141.034 65.7263 141.093 65.5236 141.093ZM65.9236 142.645V150.645H65.1236V142.645H65.9236ZM68.7798 150.645V142.645H69.4998L69.5478 144.245C69.7932 143.68 70.1825 143.248 70.7158 142.949C71.2492 142.64 71.8518 142.485 72.5238 142.485C73.4092 142.485 74.1398 142.736 74.7158 143.237C75.2918 143.738 75.5798 144.48 75.5798 145.461V150.645H74.7798V145.717C74.7798 144.842 74.5612 144.202 74.1238 143.797C73.6865 143.392 73.1265 143.189 72.4438 143.189C71.9425 143.189 71.4732 143.306 71.0358 143.541C70.5985 143.765 70.2465 144.096 69.9798 144.533C69.7132 144.97 69.5798 145.504 69.5798 146.133V150.645H68.7798ZM82.4383 149.829C83.2277 149.829 83.8463 150 84.2943 150.341C84.7423 150.672 84.9663 151.109 84.9663 151.653C84.9663 152.144 84.801 152.57 84.4703 152.933C84.1503 153.306 83.7023 153.589 83.1263 153.781C82.561 153.984 81.921 154.085 81.2063 154.085C79.9903 154.085 79.0623 153.877 78.4223 153.461C77.793 153.056 77.4783 152.544 77.4783 151.925C77.4783 151.52 77.6117 151.162 77.8783 150.853C78.145 150.544 78.5343 150.33 79.0463 150.213C78.769 150.106 78.529 149.946 78.3263 149.733C78.1343 149.52 78.0383 149.232 78.0383 148.869C78.0383 148.506 78.1503 148.192 78.3743 147.925C78.609 147.658 78.929 147.472 79.3343 147.365C78.865 147.152 78.5023 146.853 78.2463 146.469C77.9903 146.074 77.8623 145.616 77.8623 145.093C77.8623 144.581 77.9957 144.128 78.2623 143.733C78.5397 143.338 78.9183 143.034 79.3983 142.821C79.889 142.597 80.4543 142.485 81.0943 142.485C81.809 142.485 82.4277 142.624 82.9503 142.901C83.0143 142.378 83.2223 141.962 83.5743 141.653C83.937 141.333 84.3797 141.173 84.9023 141.173H84.9663L85.1583 141.877H85.0783C84.5877 141.877 84.2037 142 83.9263 142.245C83.649 142.48 83.4943 142.816 83.4623 143.253C84.017 143.733 84.2943 144.346 84.2943 145.093C84.2943 145.616 84.161 146.074 83.8943 146.469C83.6277 146.864 83.249 147.173 82.7583 147.397C82.2783 147.61 81.7237 147.717 81.0943 147.717C80.721 147.717 80.3743 147.68 80.0543 147.605C79.6597 147.669 79.345 147.802 79.1103 148.005C78.8863 148.197 78.7743 148.442 78.7743 148.741C78.7743 149.104 78.913 149.376 79.1903 149.557C79.4783 149.738 79.841 149.829 80.2783 149.829H82.4383ZM81.0943 143.141C80.3797 143.141 79.7983 143.322 79.3503 143.685C78.913 144.037 78.6943 144.506 78.6943 145.093C78.6943 145.68 78.913 146.154 79.3503 146.517C79.7983 146.88 80.3797 147.061 81.0943 147.061C81.7877 147.061 82.3583 146.88 82.8063 146.517C83.2543 146.154 83.4783 145.68 83.4783 145.093C83.4783 144.506 83.2543 144.037 82.8063 143.685C82.3583 143.322 81.7877 143.141 81.0943 143.141ZM81.2063 153.413C82.145 153.413 82.881 153.253 83.4143 152.933C83.9477 152.613 84.2143 152.218 84.2143 151.749C84.2143 151.376 84.049 151.077 83.7183 150.853C83.3983 150.629 82.9077 150.517 82.2463 150.517H79.9743C79.473 150.517 79.057 150.634 78.7263 150.869C78.3957 151.104 78.2303 151.418 78.2303 151.813C78.2303 152.282 78.4917 152.666 79.0143 152.965C79.5477 153.264 80.2783 153.413 81.2063 153.413ZM89.2807 150.805C88.47 150.805 87.75 150.64 87.1207 150.309C86.502 149.978 86.0647 149.504 85.8087 148.885L86.4967 148.421C86.678 148.965 87.0194 149.381 87.5207 149.669C88.022 149.957 88.63 150.101 89.3447 150.101C90.038 150.101 90.5874 149.962 90.9927 149.685C91.398 149.408 91.6007 149.04 91.6007 148.581C91.6007 148.272 91.4994 148.005 91.2967 147.781C91.1047 147.546 90.7367 147.37 90.1927 147.253L88.3207 146.853C87.5634 146.693 87.0194 146.437 86.6887 146.085C86.358 145.722 86.1927 145.285 86.1927 144.773C86.1927 144.357 86.3207 143.978 86.5767 143.637C86.8327 143.285 87.1847 143.008 87.6327 142.805C88.0914 142.592 88.6247 142.485 89.2327 142.485C90.0327 142.485 90.694 142.645 91.2167 142.965C91.7394 143.274 92.1074 143.744 92.3207 144.373L91.6487 144.805C91.4887 144.24 91.19 143.829 90.7527 143.573C90.3154 143.317 89.8087 143.189 89.2327 143.189C88.55 143.189 88.006 143.338 87.6007 143.637C87.1954 143.925 86.9927 144.288 86.9927 144.725C86.9927 145.034 87.094 145.317 87.2967 145.573C87.51 145.818 87.894 146 88.4487 146.117L90.3687 146.533C91.1154 146.693 91.638 146.938 91.9367 147.269C92.246 147.589 92.4007 147.989 92.4007 148.469C92.4007 149.184 92.1127 149.754 91.5367 150.181C90.9714 150.597 90.2194 150.805 89.2807 150.805ZM104.566 145.381C104.566 144.698 104.38 144.165 104.006 143.781C103.633 143.386 103.1 143.189 102.406 143.189C101.798 143.189 101.27 143.322 100.822 143.589C100.385 143.856 100.065 144.288 99.8625 144.885L99.2065 144.469C99.4411 143.84 99.8305 143.354 100.374 143.013C100.929 142.661 101.612 142.485 102.422 142.485C103.297 142.485 104.006 142.72 104.55 143.189C105.094 143.648 105.366 144.33 105.366 145.237V149.237C105.366 149.802 105.622 150.085 106.134 150.085C106.358 150.085 106.55 150.048 106.71 149.973L106.662 150.613C106.481 150.709 106.246 150.757 105.958 150.757C105.606 150.757 105.292 150.656 105.014 150.453C104.737 150.25 104.582 149.882 104.55 149.349C104.284 149.85 103.884 150.218 103.35 150.453C102.817 150.688 102.278 150.805 101.734 150.805C100.977 150.805 100.353 150.629 99.8625 150.277C99.3718 149.925 99.1265 149.413 99.1265 148.741C99.1265 148.133 99.3291 147.648 99.7345 147.285C100.14 146.922 100.7 146.672 101.414 146.533L104.566 145.909V145.381ZM99.9425 148.677C99.9425 149.125 100.108 149.477 100.438 149.733C100.769 149.978 101.238 150.101 101.846 150.101C102.262 150.101 102.678 150.026 103.094 149.877C103.521 149.717 103.873 149.472 104.15 149.141C104.428 148.8 104.566 148.362 104.566 147.829V146.581L101.814 147.125C101.185 147.253 100.716 147.44 100.406 147.685C100.097 147.93 99.9425 148.261 99.9425 148.677ZM108.358 150.645V142.645H109.078L109.126 144.309C109.361 143.744 109.739 143.301 110.262 142.981C110.785 142.65 111.377 142.485 112.038 142.485C112.731 142.485 113.329 142.65 113.83 142.981C114.342 143.312 114.694 143.797 114.886 144.437C115.025 144.032 115.249 143.685 115.558 143.397C115.867 143.098 116.23 142.869 116.646 142.709C117.062 142.549 117.494 142.469 117.942 142.469C118.497 142.469 119.003 142.581 119.462 142.805C119.921 143.018 120.283 143.349 120.55 143.797C120.817 144.234 120.95 144.784 120.95 145.445V150.629H120.15V145.525C120.15 144.736 119.937 144.149 119.51 143.765C119.083 143.37 118.529 143.173 117.846 143.173C117.334 143.173 116.865 143.296 116.438 143.541C116.022 143.786 115.686 144.128 115.43 144.565C115.185 144.992 115.062 145.482 115.062 146.037V150.645H114.262V145.541C114.262 144.752 114.049 144.165 113.622 143.781C113.195 143.386 112.641 143.189 111.958 143.189C111.478 143.189 111.025 143.306 110.598 143.541C110.171 143.776 109.825 144.112 109.558 144.549C109.291 144.986 109.158 145.509 109.158 146.117V150.645H108.358ZM126.981 142.485C127.728 142.485 128.384 142.65 128.949 142.981C129.525 143.312 129.973 143.792 130.293 144.421C130.624 145.04 130.789 145.781 130.789 146.645C130.789 147.509 130.624 148.256 130.293 148.885C129.973 149.504 129.525 149.978 128.949 150.309C128.384 150.64 127.728 150.805 126.981 150.805C126.235 150.805 125.573 150.64 124.997 150.309C124.432 149.978 123.984 149.504 123.653 148.885C123.333 148.256 123.173 147.509 123.173 146.645C123.173 145.781 123.333 145.04 123.653 144.421C123.984 143.792 124.432 143.312 124.997 142.981C125.573 142.65 126.235 142.485 126.981 142.485ZM126.981 143.173C126.075 143.173 125.344 143.482 124.789 144.101C124.245 144.72 123.973 145.568 123.973 146.645C123.973 147.722 124.245 148.57 124.789 149.189C125.344 149.808 126.075 150.117 126.981 150.117C127.888 150.117 128.613 149.808 129.157 149.189C129.712 148.57 129.989 147.722 129.989 146.645C129.989 145.568 129.712 144.72 129.157 144.101C128.613 143.482 127.888 143.173 126.981 143.173ZM135.893 150.805C135.061 150.805 134.367 150.57 133.813 150.101C133.269 149.632 132.997 148.906 132.997 147.925V142.645H133.797V147.733C133.797 148.565 133.994 149.168 134.389 149.541C134.794 149.914 135.359 150.101 136.085 150.101C136.65 150.101 137.146 149.973 137.573 149.717C137.999 149.45 138.325 149.104 138.549 148.677C138.783 148.24 138.901 147.76 138.901 147.237V142.645H139.701V150.645H138.981L138.949 148.997C138.714 149.562 138.33 150.005 137.797 150.325C137.263 150.645 136.629 150.805 135.893 150.805ZM142.545 150.645V142.645H143.265L143.313 144.245C143.559 143.68 143.948 143.248 144.481 142.949C145.015 142.64 145.617 142.485 146.289 142.485C147.175 142.485 147.905 142.736 148.481 143.237C149.057 143.738 149.345 144.48 149.345 145.461V150.645H148.545V145.717C148.545 144.842 148.327 144.202 147.889 143.797C147.452 143.392 146.892 143.189 146.209 143.189C145.708 143.189 145.239 143.306 144.801 143.541C144.364 143.765 144.012 144.096 143.745 144.533C143.479 144.97 143.345 145.504 143.345 146.133V150.645H142.545ZM156.225 142.645V143.333H153.233V148.533C153.233 149.557 153.702 150.069 154.641 150.069C154.94 150.069 155.201 150.021 155.425 149.925C155.66 149.818 155.868 149.669 156.049 149.477L156.353 150.133C156.14 150.336 155.878 150.501 155.569 150.629C155.27 150.746 154.929 150.805 154.545 150.805C153.916 150.805 153.404 150.634 153.009 150.293C152.625 149.941 152.433 149.392 152.433 148.645V143.333H150.833V142.645H152.433V140.645L153.233 140.421V142.645H156.225ZM166.881 142.645V143.333H163.889V148.533C163.889 149.557 164.358 150.069 165.297 150.069C165.596 150.069 165.857 150.021 166.081 149.925C166.316 149.818 166.524 149.669 166.705 149.477L167.009 150.133C166.796 150.336 166.534 150.501 166.225 150.629C165.926 150.746 165.585 150.805 165.201 150.805C164.572 150.805 164.06 150.634 163.665 150.293C163.281 149.941 163.089 149.392 163.089 148.645V143.333H161.489V142.645H163.089V140.645L163.889 140.421V142.645H166.881ZM171.856 142.485C172.603 142.485 173.259 142.65 173.824 142.981C174.4 143.312 174.848 143.792 175.168 144.421C175.499 145.04 175.664 145.781 175.664 146.645C175.664 147.509 175.499 148.256 175.168 148.885C174.848 149.504 174.4 149.978 173.824 150.309C173.259 150.64 172.603 150.805 171.856 150.805C171.11 150.805 170.448 150.64 169.872 150.309C169.307 149.978 168.859 149.504 168.528 148.885C168.208 148.256 168.048 147.509 168.048 146.645C168.048 145.781 168.208 145.04 168.528 144.421C168.859 143.792 169.307 143.312 169.872 142.981C170.448 142.65 171.11 142.485 171.856 142.485ZM171.856 143.173C170.95 143.173 170.219 143.482 169.664 144.101C169.12 144.72 168.848 145.568 168.848 146.645C168.848 147.722 169.12 148.57 169.664 149.189C170.219 149.808 170.95 150.117 171.856 150.117C172.763 150.117 173.488 149.808 174.032 149.189C174.587 148.57 174.864 147.722 174.864 146.645C174.864 145.568 174.587 144.72 174.032 144.101C173.488 143.482 172.763 143.173 171.856 143.173ZM182.967 150.645V142.645H183.687L183.735 144.309C183.97 143.744 184.349 143.301 184.871 142.981C185.394 142.65 185.986 142.485 186.647 142.485C187.341 142.485 187.938 142.65 188.439 142.981C188.951 143.312 189.303 143.797 189.495 144.437C189.634 144.032 189.858 143.685 190.167 143.397C190.477 143.098 190.839 142.869 191.255 142.709C191.671 142.549 192.103 142.469 192.551 142.469C193.106 142.469 193.613 142.581 194.071 142.805C194.53 143.018 194.893 143.349 195.159 143.797C195.426 144.234 195.559 144.784 195.559 145.445V150.629H194.759V145.525C194.759 144.736 194.546 144.149 194.119 143.765C193.693 143.37 193.138 143.173 192.455 143.173C191.943 143.173 191.474 143.296 191.047 143.541C190.631 143.786 190.295 144.128 190.039 144.565C189.794 144.992 189.671 145.482 189.671 146.037V150.645H188.871V145.541C188.871 144.752 188.658 144.165 188.231 143.781C187.805 143.386 187.25 143.189 186.567 143.189C186.087 143.189 185.634 143.306 185.207 143.541C184.781 143.776 184.434 144.112 184.167 144.549C183.901 144.986 183.767 145.509 183.767 146.117V150.645H182.967ZM203.223 145.381C203.223 144.698 203.036 144.165 202.663 143.781C202.289 143.386 201.756 143.189 201.063 143.189C200.455 143.189 199.927 143.322 199.479 143.589C199.041 143.856 198.721 144.288 198.519 144.885L197.863 144.469C198.097 143.84 198.487 143.354 199.031 143.013C199.585 142.661 200.268 142.485 201.079 142.485C201.953 142.485 202.663 142.72 203.207 143.189C203.751 143.648 204.023 144.33 204.023 145.237V149.237C204.023 149.802 204.279 150.085 204.791 150.085C205.015 150.085 205.207 150.048 205.367 149.973L205.319 150.613C205.137 150.709 204.903 150.757 204.615 150.757C204.263 150.757 203.948 150.656 203.671 150.453C203.393 150.25 203.239 149.882 203.207 149.349C202.94 149.85 202.54 150.218 202.007 150.453C201.473 150.688 200.935 150.805 200.391 150.805C199.633 150.805 199.009 150.629 198.519 150.277C198.028 149.925 197.783 149.413 197.783 148.741C197.783 148.133 197.985 147.648 198.391 147.285C198.796 146.922 199.356 146.672 200.071 146.533L203.223 145.909V145.381ZM198.599 148.677C198.599 149.125 198.764 149.477 199.095 149.733C199.425 149.978 199.895 150.101 200.503 150.101C200.919 150.101 201.335 150.026 201.751 149.877C202.177 149.717 202.529 149.472 202.807 149.141C203.084 148.8 203.223 148.362 203.223 147.829V146.581L200.471 147.125C199.841 147.253 199.372 147.44 199.063 147.685C198.753 147.93 198.599 148.261 198.599 148.677ZM213.606 142.645L210.294 145.845L213.734 150.645H212.758L209.702 146.405L207.814 148.229V150.645H207.014V138.965H207.814V147.221L212.566 142.645H213.606ZM218.434 150.805C217.698 150.805 217.042 150.64 216.466 150.309C215.89 149.978 215.437 149.504 215.106 148.885C214.786 148.256 214.626 147.509 214.626 146.645C214.626 145.781 214.786 145.04 215.106 144.421C215.426 143.792 215.864 143.312 216.418 142.981C216.984 142.65 217.624 142.485 218.338 142.485C219.064 142.485 219.682 142.645 220.194 142.965C220.717 143.285 221.112 143.733 221.378 144.309C221.656 144.874 221.794 145.53 221.794 146.277C221.794 146.384 221.789 146.485 221.778 146.581C221.778 146.666 221.773 146.741 221.762 146.805H215.41C215.442 147.84 215.73 148.65 216.274 149.237C216.829 149.813 217.544 150.101 218.418 150.101C219.037 150.101 219.565 149.968 220.002 149.701C220.45 149.434 220.797 149.066 221.042 148.597L221.682 148.965C221.384 149.53 220.952 149.978 220.386 150.309C219.832 150.64 219.181 150.805 218.434 150.805ZM218.322 143.189C217.544 143.189 216.888 143.445 216.354 143.957C215.832 144.458 215.522 145.168 215.426 146.085H221.01C220.978 145.2 220.722 144.496 220.242 143.973C219.773 143.45 219.133 143.189 218.322 143.189ZM229.492 141.093C229.29 141.093 229.124 141.034 228.996 140.917C228.879 140.789 228.82 140.624 228.82 140.421C228.82 140.218 228.879 140.058 228.996 139.941C229.124 139.813 229.29 139.749 229.492 139.749C229.695 139.749 229.855 139.813 229.972 139.941C230.1 140.058 230.164 140.218 230.164 140.421C230.164 140.624 230.1 140.789 229.972 140.917C229.855 141.034 229.695 141.093 229.492 141.093ZM229.892 142.645V150.645H229.092V142.645H229.892ZM237.069 142.645V143.333H234.077V148.533C234.077 149.557 234.546 150.069 235.485 150.069C235.783 150.069 236.045 150.021 236.269 149.925C236.503 149.818 236.711 149.669 236.893 149.477L237.197 150.133C236.983 150.336 236.722 150.501 236.413 150.629C236.114 150.746 235.773 150.805 235.389 150.805C234.759 150.805 234.247 150.634 233.853 150.293C233.469 149.941 233.277 149.392 233.277 148.645V143.333H231.677V142.645H233.277V140.645L234.077 140.421V142.645H237.069ZM246.981 150.805C246.245 150.805 245.589 150.64 245.013 150.309C244.437 149.978 243.984 149.504 243.653 148.885C243.333 148.256 243.173 147.509 243.173 146.645C243.173 145.781 243.333 145.04 243.653 144.421C243.973 143.792 244.411 143.312 244.965 142.981C245.531 142.65 246.171 142.485 246.885 142.485C247.611 142.485 248.229 142.645 248.741 142.965C249.264 143.285 249.659 143.733 249.925 144.309C250.203 144.874 250.341 145.53 250.341 146.277C250.341 146.384 250.336 146.485 250.325 146.581C250.325 146.666 250.32 146.741 250.309 146.805H243.957C243.989 147.84 244.277 148.65 244.821 149.237C245.376 149.813 246.091 150.101 246.965 150.101C247.584 150.101 248.112 149.968 248.549 149.701C248.997 149.434 249.344 149.066 249.589 148.597L250.229 148.965C249.931 149.53 249.499 149.978 248.933 150.309C248.379 150.64 247.728 150.805 246.981 150.805ZM246.869 143.189C246.091 143.189 245.435 143.445 244.901 143.957C244.379 144.458 244.069 145.168 243.973 146.085H249.557C249.525 145.2 249.269 144.496 248.789 143.973C248.32 143.45 247.68 143.189 246.869 143.189ZM257.52 145.381C257.52 144.698 257.333 144.165 256.96 143.781C256.586 143.386 256.053 143.189 255.36 143.189C254.752 143.189 254.224 143.322 253.776 143.589C253.338 143.856 253.018 144.288 252.816 144.885L252.16 144.469C252.394 143.84 252.784 143.354 253.328 143.013C253.882 142.661 254.565 142.485 255.376 142.485C256.25 142.485 256.96 142.72 257.504 143.189C258.048 143.648 258.32 144.33 258.32 145.237V149.237C258.32 149.802 258.576 150.085 259.088 150.085C259.312 150.085 259.504 150.048 259.664 149.973L259.616 150.613C259.434 150.709 259.2 150.757 258.912 150.757C258.56 150.757 258.245 150.656 257.968 150.453C257.69 150.25 257.536 149.882 257.504 149.349C257.237 149.85 256.837 150.218 256.304 150.453C255.77 150.688 255.232 150.805 254.688 150.805C253.93 150.805 253.306 150.629 252.816 150.277C252.325 149.925 252.08 149.413 252.08 148.741C252.08 148.133 252.282 147.648 252.688 147.285C253.093 146.922 253.653 146.672 254.368 146.533L257.52 145.909V145.381ZM252.896 148.677C252.896 149.125 253.061 149.477 253.392 149.733C253.722 149.978 254.192 150.101 254.8 150.101C255.216 150.101 255.632 150.026 256.048 149.877C256.474 149.717 256.826 149.472 257.104 149.141C257.381 148.8 257.52 148.362 257.52 147.829V146.581L254.768 147.125C254.138 147.253 253.669 147.44 253.36 147.685C253.05 147.93 252.896 148.261 252.896 148.677ZM264.015 150.805C263.204 150.805 262.484 150.64 261.855 150.309C261.236 149.978 260.799 149.504 260.543 148.885L261.231 148.421C261.412 148.965 261.754 149.381 262.255 149.669C262.756 149.957 263.364 150.101 264.079 150.101C264.772 150.101 265.322 149.962 265.727 149.685C266.132 149.408 266.335 149.04 266.335 148.581C266.335 148.272 266.234 148.005 266.031 147.781C265.839 147.546 265.471 147.37 264.927 147.253L263.055 146.853C262.298 146.693 261.754 146.437 261.423 146.085C261.092 145.722 260.927 145.285 260.927 144.773C260.927 144.357 261.055 143.978 261.311 143.637C261.567 143.285 261.919 143.008 262.367 142.805C262.826 142.592 263.359 142.485 263.967 142.485C264.767 142.485 265.428 142.645 265.951 142.965C266.474 143.274 266.842 143.744 267.055 144.373L266.383 144.805C266.223 144.24 265.924 143.829 265.487 143.573C265.05 143.317 264.543 143.189 263.967 143.189C263.284 143.189 262.74 143.338 262.335 143.637C261.93 143.925 261.727 144.288 261.727 144.725C261.727 145.034 261.828 145.317 262.031 145.573C262.244 145.818 262.628 146 263.183 146.117L265.103 146.533C265.85 146.693 266.372 146.938 266.671 147.269C266.98 147.589 267.135 147.989 267.135 148.469C267.135 149.184 266.847 149.754 266.271 150.181C265.706 150.597 264.954 150.805 264.015 150.805ZM269.789 141.093C269.587 141.093 269.421 141.034 269.293 140.917C269.176 140.789 269.117 140.624 269.117 140.421C269.117 140.218 269.176 140.058 269.293 139.941C269.421 139.813 269.587 139.749 269.789 139.749C269.992 139.749 270.152 139.813 270.269 139.941C270.397 140.058 270.461 140.218 270.461 140.421C270.461 140.624 270.397 140.789 270.269 140.917C270.152 141.034 269.992 141.093 269.789 141.093ZM270.189 142.645V150.645H269.389V142.645H270.189ZM276.309 150.805C275.573 150.805 274.917 150.64 274.341 150.309C273.765 149.978 273.312 149.504 272.981 148.885C272.661 148.256 272.501 147.509 272.501 146.645C272.501 145.781 272.661 145.04 272.981 144.421C273.301 143.792 273.739 143.312 274.293 142.981C274.859 142.65 275.499 142.485 276.213 142.485C276.939 142.485 277.557 142.645 278.069 142.965C278.592 143.285 278.987 143.733 279.253 144.309C279.531 144.874 279.669 145.53 279.669 146.277C279.669 146.384 279.664 146.485 279.653 146.581C279.653 146.666 279.648 146.741 279.637 146.805H273.285C273.317 147.84 273.605 148.65 274.149 149.237C274.704 149.813 275.419 150.101 276.293 150.101C276.912 150.101 277.44 149.968 277.877 149.701C278.325 149.434 278.672 149.066 278.917 148.597L279.557 148.965C279.259 149.53 278.827 149.978 278.261 150.309C277.707 150.64 277.056 150.805 276.309 150.805ZM276.197 143.189C275.419 143.189 274.763 143.445 274.229 143.957C273.707 144.458 273.397 145.168 273.301 146.085H278.885C278.853 145.2 278.597 144.496 278.117 143.973C277.648 143.45 277.008 143.189 276.197 143.189ZM281.952 150.645V142.645H282.624L282.72 144.309C282.922 143.765 283.242 143.328 283.68 142.997C284.128 142.656 284.672 142.485 285.312 142.485C285.738 142.485 286.074 142.576 286.32 142.757L286.128 143.461C286.01 143.386 285.882 143.328 285.744 143.285C285.605 143.242 285.397 143.221 285.12 143.221C284.714 143.221 284.33 143.349 283.968 143.605C283.605 143.85 283.312 144.197 283.088 144.645C282.864 145.082 282.752 145.589 282.752 146.165V150.645H281.952ZM296.487 142.645V143.333H293.671V150.645H292.871V143.333H291.271V142.645H292.871V141.301C292.871 140.576 293.073 139.994 293.479 139.557C293.884 139.109 294.476 138.885 295.255 138.885C295.553 138.885 295.809 138.922 296.023 138.997C296.247 139.072 296.423 139.178 296.551 139.317L296.327 139.957C296.071 139.722 295.735 139.605 295.319 139.605C294.796 139.605 294.391 139.76 294.103 140.069C293.815 140.368 293.671 140.805 293.671 141.381V142.645H296.487ZM300.997 142.485C301.744 142.485 302.4 142.65 302.965 142.981C303.541 143.312 303.989 143.792 304.309 144.421C304.64 145.04 304.805 145.781 304.805 146.645C304.805 147.509 304.64 148.256 304.309 148.885C303.989 149.504 303.541 149.978 302.965 150.309C302.4 150.64 301.744 150.805 300.997 150.805C300.25 150.805 299.589 150.64 299.013 150.309C298.448 149.978 298 149.504 297.669 148.885C297.349 148.256 297.189 147.509 297.189 146.645C297.189 145.781 297.349 145.04 297.669 144.421C298 143.792 298.448 143.312 299.013 142.981C299.589 142.65 300.25 142.485 300.997 142.485ZM300.997 143.173C300.09 143.173 299.36 143.482 298.805 144.101C298.261 144.72 297.989 145.568 297.989 146.645C297.989 147.722 298.261 148.57 298.805 149.189C299.36 149.808 300.09 150.117 300.997 150.117C301.904 150.117 302.629 149.808 303.173 149.189C303.728 148.57 304.005 147.722 304.005 146.645C304.005 145.568 303.728 144.72 303.173 144.101C302.629 143.482 301.904 143.173 300.997 143.173ZM307.092 150.645V142.645H307.764L307.86 144.309C308.063 143.765 308.383 143.328 308.82 142.997C309.268 142.656 309.812 142.485 310.452 142.485C310.879 142.485 311.215 142.576 311.46 142.757L311.268 143.461C311.151 143.386 311.023 143.328 310.884 143.285C310.746 143.242 310.538 143.221 310.26 143.221C309.855 143.221 309.471 143.349 309.108 143.605C308.746 143.85 308.452 144.197 308.228 144.645C308.004 145.082 307.892 145.589 307.892 146.165V150.645H307.092ZM87.1583 180.805C86.3263 180.805 85.633 180.57 85.0783 180.101C84.5343 179.632 84.2623 178.906 84.2623 177.925V172.645H85.0623V177.733C85.0623 178.565 85.2597 179.168 85.6543 179.541C86.0597 179.914 86.625 180.101 87.3503 180.101C87.9157 180.101 88.4117 179.973 88.8383 179.717C89.265 179.45 89.5903 179.104 89.8143 178.677C90.049 178.24 90.1663 177.76 90.1663 177.237V172.645H90.9663V180.645H90.2463L90.2143 178.997C89.9797 179.562 89.5957 180.005 89.0623 180.325C88.529 180.645 87.8943 180.805 87.1583 180.805ZM96.5151 180.805C95.7044 180.805 94.9844 180.64 94.3551 180.309C93.7364 179.978 93.2991 179.504 93.0431 178.885L93.7311 178.421C93.9124 178.965 94.2538 179.381 94.7551 179.669C95.2564 179.957 95.8644 180.101 96.5791 180.101C97.2724 180.101 97.8218 179.962 98.2271 179.685C98.6324 179.408 98.8351 179.04 98.8351 178.581C98.8351 178.272 98.7338 178.005 98.5311 177.781C98.3391 177.546 97.9711 177.37 97.4271 177.253L95.5551 176.853C94.7978 176.693 94.2538 176.437 93.9231 176.085C93.5924 175.722 93.4271 175.285 93.4271 174.773C93.4271 174.357 93.5551 173.978 93.8111 173.637C94.0671 173.285 94.4191 173.008 94.8671 172.805C95.3258 172.592 95.8591 172.485 96.4671 172.485C97.2671 172.485 97.9284 172.645 98.4511 172.965C98.9738 173.274 99.3418 173.744 99.5551 174.373L98.8831 174.805C98.7231 174.24 98.4244 173.829 97.9871 173.573C97.5498 173.317 97.0431 173.189 96.4671 173.189C95.7844 173.189 95.2404 173.338 94.8351 173.637C94.4298 173.925 94.2271 174.288 94.2271 174.725C94.2271 175.034 94.3284 175.317 94.5311 175.573C94.7444 175.818 95.1284 176 95.6831 176.117L97.6031 176.533C98.3498 176.693 98.8724 176.938 99.1711 177.269C99.4804 177.589 99.6351 177.989 99.6351 178.469C99.6351 179.184 99.3471 179.754 98.7711 180.181C98.2058 180.597 97.4538 180.805 96.5151 180.805ZM105.153 180.805C104.417 180.805 103.761 180.64 103.185 180.309C102.609 179.978 102.156 179.504 101.825 178.885C101.505 178.256 101.345 177.509 101.345 176.645C101.345 175.781 101.505 175.04 101.825 174.421C102.145 173.792 102.583 173.312 103.137 172.981C103.703 172.65 104.343 172.485 105.057 172.485C105.783 172.485 106.401 172.645 106.913 172.965C107.436 173.285 107.831 173.733 108.097 174.309C108.375 174.874 108.513 175.53 108.513 176.277C108.513 176.384 108.508 176.485 108.497 176.581C108.497 176.666 108.492 176.741 108.481 176.805H102.129C102.161 177.84 102.449 178.65 102.993 179.237C103.548 179.813 104.263 180.101 105.137 180.101C105.756 180.101 106.284 179.968 106.721 179.701C107.169 179.434 107.516 179.066 107.761 178.597L108.401 178.965C108.103 179.53 107.671 179.978 107.105 180.309C106.551 180.64 105.9 180.805 105.153 180.805ZM105.041 173.189C104.263 173.189 103.607 173.445 103.073 173.957C102.551 174.458 102.241 175.168 102.145 176.085H107.729C107.697 175.2 107.441 174.496 106.961 173.973C106.492 173.45 105.852 173.189 105.041 173.189ZM110.795 180.645V172.645H111.467L111.563 174.309C111.766 173.765 112.086 173.328 112.523 172.997C112.971 172.656 113.515 172.485 114.155 172.485C114.582 172.485 114.918 172.576 115.163 172.757L114.971 173.461C114.854 173.386 114.726 173.328 114.587 173.285C114.449 173.242 114.241 173.221 113.963 173.221C113.558 173.221 113.174 173.349 112.811 173.605C112.449 173.85 112.155 174.197 111.931 174.645C111.707 175.082 111.595 175.589 111.595 176.165V180.645H110.795ZM119.281 180.805C118.47 180.805 117.75 180.64 117.121 180.309C116.502 179.978 116.065 179.504 115.809 178.885L116.497 178.421C116.678 178.965 117.019 179.381 117.521 179.669C118.022 179.957 118.63 180.101 119.345 180.101C120.038 180.101 120.587 179.962 120.993 179.685C121.398 179.408 121.601 179.04 121.601 178.581C121.601 178.272 121.499 178.005 121.297 177.781C121.105 177.546 120.737 177.37 120.193 177.253L118.321 176.853C117.563 176.693 117.019 176.437 116.689 176.085C116.358 175.722 116.193 175.285 116.193 174.773C116.193 174.357 116.321 173.978 116.577 173.637C116.833 173.285 117.185 173.008 117.633 172.805C118.091 172.592 118.625 172.485 119.233 172.485C120.033 172.485 120.694 172.645 121.217 172.965C121.739 173.274 122.107 173.744 122.321 174.373L121.649 174.805C121.489 174.24 121.19 173.829 120.753 173.573C120.315 173.317 119.809 173.189 119.233 173.189C118.55 173.189 118.006 173.338 117.601 173.637C117.195 173.925 116.993 174.288 116.993 174.725C116.993 175.034 117.094 175.317 117.297 175.573C117.51 175.818 117.894 176 118.449 176.117L120.369 176.533C121.115 176.693 121.638 176.938 121.937 177.269C122.246 177.589 122.401 177.989 122.401 178.469C122.401 179.184 122.113 179.754 121.537 180.181C120.971 180.597 120.219 180.805 119.281 180.805ZM133.678 172.645V173.333H130.686V178.533C130.686 179.557 131.155 180.069 132.094 180.069C132.393 180.069 132.654 180.021 132.878 179.925C133.113 179.818 133.321 179.669 133.502 179.477L133.806 180.133C133.593 180.336 133.331 180.501 133.022 180.629C132.723 180.746 132.382 180.805 131.998 180.805C131.369 180.805 130.857 180.634 130.462 180.293C130.078 179.941 129.886 179.392 129.886 178.645V173.333H128.286V172.645H129.886V170.645L130.686 170.421V172.645H133.678ZM138.653 172.485C139.4 172.485 140.056 172.65 140.621 172.981C141.197 173.312 141.645 173.792 141.965 174.421C142.296 175.04 142.461 175.781 142.461 176.645C142.461 177.509 142.296 178.256 141.965 178.885C141.645 179.504 141.197 179.978 140.621 180.309C140.056 180.64 139.4 180.805 138.653 180.805C137.907 180.805 137.245 180.64 136.669 180.309C136.104 179.978 135.656 179.504 135.325 178.885C135.005 178.256 134.845 177.509 134.845 176.645C134.845 175.781 135.005 175.04 135.325 174.421C135.656 173.792 136.104 173.312 136.669 172.981C137.245 172.65 137.907 172.485 138.653 172.485ZM138.653 173.173C137.747 173.173 137.016 173.482 136.461 174.101C135.917 174.72 135.645 175.568 135.645 176.645C135.645 177.722 135.917 178.57 136.461 179.189C137.016 179.808 137.747 180.117 138.653 180.117C139.56 180.117 140.285 179.808 140.829 179.189C141.384 178.57 141.661 177.722 141.661 176.645C141.661 175.568 141.384 174.72 140.829 174.101C140.285 173.482 139.56 173.173 138.653 173.173ZM149.764 180.645V172.645H150.436L150.532 174.309C150.735 173.765 151.055 173.328 151.492 172.997C151.94 172.656 152.484 172.485 153.124 172.485C153.551 172.485 153.887 172.576 154.132 172.757L153.94 173.461C153.823 173.386 153.695 173.328 153.556 173.285C153.418 173.242 153.21 173.221 152.932 173.221C152.527 173.221 152.143 173.349 151.78 173.605C151.418 173.85 151.124 174.197 150.9 174.645C150.676 175.082 150.564 175.589 150.564 176.165V180.645H149.764ZM158.7 180.805C157.964 180.805 157.308 180.64 156.732 180.309C156.156 179.978 155.703 179.504 155.372 178.885C155.052 178.256 154.892 177.509 154.892 176.645C154.892 175.781 155.052 175.04 155.372 174.421C155.692 173.792 156.129 173.312 156.684 172.981C157.249 172.65 157.889 172.485 158.604 172.485C159.329 172.485 159.948 172.645 160.46 172.965C160.983 173.285 161.377 173.733 161.644 174.309C161.921 174.874 162.06 175.53 162.06 176.277C162.06 176.384 162.055 176.485 162.044 176.581C162.044 176.666 162.039 176.741 162.028 176.805H155.676C155.708 177.84 155.996 178.65 156.54 179.237C157.095 179.813 157.809 180.101 158.684 180.101C159.303 180.101 159.831 179.968 160.268 179.701C160.716 179.434 161.063 179.066 161.308 178.597L161.948 178.965C161.649 179.53 161.217 179.978 160.652 180.309C160.097 180.64 159.447 180.805 158.7 180.805ZM158.588 173.189C157.809 173.189 157.153 173.445 156.62 173.957C156.097 174.458 155.788 175.168 155.692 176.085H161.276C161.244 175.2 160.988 174.496 160.508 173.973C160.039 173.45 159.399 173.189 158.588 173.189ZM169.238 175.381C169.238 174.698 169.052 174.165 168.678 173.781C168.305 173.386 167.772 173.189 167.078 173.189C166.47 173.189 165.942 173.322 165.494 173.589C165.057 173.856 164.737 174.288 164.534 174.885L163.878 174.469C164.113 173.84 164.502 173.354 165.046 173.013C165.601 172.661 166.284 172.485 167.094 172.485C167.969 172.485 168.678 172.72 169.222 173.189C169.766 173.648 170.038 174.33 170.038 175.237V179.237C170.038 179.802 170.294 180.085 170.806 180.085C171.03 180.085 171.222 180.048 171.382 179.973L171.334 180.613C171.153 180.709 170.918 180.757 170.63 180.757C170.278 180.757 169.964 180.656 169.686 180.453C169.409 180.25 169.254 179.882 169.222 179.349C168.956 179.85 168.556 180.218 168.022 180.453C167.489 180.688 166.95 180.805 166.406 180.805C165.649 180.805 165.025 180.629 164.534 180.277C164.044 179.925 163.798 179.413 163.798 178.741C163.798 178.133 164.001 177.648 164.406 177.285C164.812 176.922 165.372 176.672 166.086 176.533L169.238 175.909V175.381ZM164.614 178.677C164.614 179.125 164.78 179.477 165.11 179.733C165.441 179.978 165.91 180.101 166.518 180.101C166.934 180.101 167.35 180.026 167.766 179.877C168.193 179.717 168.545 179.472 168.822 179.141C169.1 178.8 169.238 178.362 169.238 177.829V176.581L166.486 177.125C165.857 177.253 165.388 177.44 165.078 177.685C164.769 177.93 164.614 178.261 164.614 178.677ZM176.262 172.485C177.073 172.485 177.75 172.677 178.294 173.061C178.849 173.434 179.249 173.962 179.494 174.645L178.742 174.997C178.571 174.421 178.273 173.978 177.846 173.669C177.43 173.349 176.897 173.189 176.246 173.189C175.361 173.189 174.646 173.498 174.102 174.117C173.558 174.725 173.286 175.568 173.286 176.645C173.286 177.722 173.553 178.57 174.086 179.189C174.63 179.797 175.345 180.101 176.23 180.101C176.902 180.101 177.473 179.936 177.942 179.605C178.422 179.264 178.721 178.794 178.838 178.197L179.574 178.453C179.361 179.178 178.955 179.754 178.358 180.181C177.771 180.597 177.067 180.805 176.246 180.805C175.51 180.805 174.859 180.64 174.294 180.309C173.729 179.978 173.286 179.504 172.966 178.885C172.646 178.256 172.486 177.509 172.486 176.645C172.486 175.781 172.646 175.04 172.966 174.421C173.297 173.792 173.745 173.312 174.31 172.981C174.886 172.65 175.537 172.485 176.262 172.485ZM181.717 180.645V168.965H182.517V174.277C182.752 173.712 183.131 173.274 183.653 172.965C184.176 172.645 184.779 172.485 185.461 172.485C186.347 172.485 187.077 172.736 187.653 173.237C188.229 173.728 188.517 174.464 188.517 175.445V180.645H187.717V175.701C187.717 174.826 187.499 174.186 187.061 173.781C186.624 173.376 186.064 173.173 185.381 173.173C184.88 173.173 184.411 173.29 183.973 173.525C183.536 173.76 183.184 174.096 182.917 174.533C182.651 174.97 182.517 175.504 182.517 176.133V180.645H181.717ZM200.303 172.645V173.333H197.311V178.533C197.311 179.557 197.78 180.069 198.719 180.069C199.018 180.069 199.279 180.021 199.503 179.925C199.738 179.818 199.946 179.669 200.127 179.477L200.431 180.133C200.218 180.336 199.956 180.501 199.647 180.629C199.348 180.746 199.007 180.805 198.623 180.805C197.994 180.805 197.482 180.634 197.087 180.293C196.703 179.941 196.511 179.392 196.511 178.645V173.333H194.911V172.645H196.511V170.645L197.311 170.421V172.645H200.303ZM202.014 180.645V168.965H202.814V174.277C203.049 173.712 203.428 173.274 203.95 172.965C204.473 172.645 205.076 172.485 205.758 172.485C206.644 172.485 207.374 172.736 207.95 173.237C208.526 173.728 208.814 174.464 208.814 175.445V180.645H208.014V175.701C208.014 174.826 207.796 174.186 207.358 173.781C206.921 173.376 206.361 173.173 205.678 173.173C205.177 173.173 204.708 173.29 204.27 173.525C203.833 173.76 203.481 174.096 203.214 174.533C202.948 174.97 202.814 175.504 202.814 176.133V180.645H202.014ZM214.841 180.805C214.105 180.805 213.449 180.64 212.873 180.309C212.297 179.978 211.843 179.504 211.513 178.885C211.193 178.256 211.033 177.509 211.033 176.645C211.033 175.781 211.193 175.04 211.513 174.421C211.833 173.792 212.27 173.312 212.825 172.981C213.39 172.65 214.03 172.485 214.745 172.485C215.47 172.485 216.089 172.645 216.601 172.965C217.123 173.285 217.518 173.733 217.785 174.309C218.062 174.874 218.201 175.53 218.201 176.277C218.201 176.384 218.195 176.485 218.185 176.581C218.185 176.666 218.179 176.741 218.169 176.805H211.817C211.849 177.84 212.137 178.65 212.681 179.237C213.235 179.813 213.95 180.101 214.825 180.101C215.443 180.101 215.971 179.968 216.409 179.701C216.857 179.434 217.203 179.066 217.449 178.597L218.089 178.965C217.79 179.53 217.358 179.978 216.793 180.309C216.238 180.64 215.587 180.805 214.841 180.805ZM214.729 173.189C213.95 173.189 213.294 173.445 212.761 173.957C212.238 174.458 211.929 175.168 211.833 176.085H217.417C217.385 175.2 217.129 174.496 216.649 173.973C216.179 173.45 215.539 173.189 214.729 173.189ZM220.883 171.093C220.68 171.093 220.515 171.034 220.387 170.917C220.27 170.789 220.211 170.624 220.211 170.421C220.211 170.218 220.27 170.058 220.387 169.941C220.515 169.813 220.68 169.749 220.883 169.749C221.086 169.749 221.246 169.813 221.363 169.941C221.491 170.058 221.555 170.218 221.555 170.421C221.555 170.624 221.491 170.789 221.363 170.917C221.246 171.034 221.086 171.093 220.883 171.093ZM221.283 172.645V180.645H220.483V172.645H221.283ZM224.139 180.645V172.645H224.811L224.907 174.309C225.11 173.765 225.43 173.328 225.867 172.997C226.315 172.656 226.859 172.485 227.499 172.485C227.926 172.485 228.262 172.576 228.507 172.757L228.315 173.461C228.198 173.386 228.07 173.328 227.931 173.285C227.793 173.242 227.585 173.221 227.307 173.221C226.902 173.221 226.518 173.349 226.155 173.605C225.793 173.85 225.499 174.197 225.275 174.645C225.051 175.082 224.939 175.589 224.939 176.165V180.645H224.139ZM238.907 179.829C239.696 179.829 240.315 180 240.763 180.341C241.211 180.672 241.435 181.109 241.435 181.653C241.435 182.144 241.27 182.57 240.939 182.933C240.619 183.306 240.171 183.589 239.595 183.781C239.03 183.984 238.39 184.085 237.675 184.085C236.459 184.085 235.531 183.877 234.891 183.461C234.262 183.056 233.947 182.544 233.947 181.925C233.947 181.52 234.08 181.162 234.347 180.853C234.614 180.544 235.003 180.33 235.515 180.213C235.238 180.106 234.998 179.946 234.795 179.733C234.603 179.52 234.507 179.232 234.507 178.869C234.507 178.506 234.619 178.192 234.843 177.925C235.078 177.658 235.398 177.472 235.803 177.365C235.334 177.152 234.971 176.853 234.715 176.469C234.459 176.074 234.331 175.616 234.331 175.093C234.331 174.581 234.464 174.128 234.731 173.733C235.008 173.338 235.387 173.034 235.867 172.821C236.358 172.597 236.923 172.485 237.563 172.485C238.278 172.485 238.896 172.624 239.419 172.901C239.483 172.378 239.691 171.962 240.043 171.653C240.406 171.333 240.848 171.173 241.371 171.173H241.435L241.627 171.877H241.547C241.056 171.877 240.672 172 240.395 172.245C240.118 172.48 239.963 172.816 239.931 173.253C240.486 173.733 240.763 174.346 240.763 175.093C240.763 175.616 240.63 176.074 240.363 176.469C240.096 176.864 239.718 177.173 239.227 177.397C238.747 177.61 238.192 177.717 237.563 177.717C237.19 177.717 236.843 177.68 236.523 177.605C236.128 177.669 235.814 177.802 235.579 178.005C235.355 178.197 235.243 178.442 235.243 178.741C235.243 179.104 235.382 179.376 235.659 179.557C235.947 179.738 236.31 179.829 236.747 179.829H238.907ZM237.563 173.141C236.848 173.141 236.267 173.322 235.819 173.685C235.382 174.037 235.163 174.506 235.163 175.093C235.163 175.68 235.382 176.154 235.819 176.517C236.267 176.88 236.848 177.061 237.563 177.061C238.256 177.061 238.827 176.88 239.275 176.517C239.723 176.154 239.947 175.68 239.947 175.093C239.947 174.506 239.723 174.037 239.275 173.685C238.827 173.322 238.256 173.141 237.563 173.141ZM237.675 183.413C238.614 183.413 239.35 183.253 239.883 182.933C240.416 182.613 240.683 182.218 240.683 181.749C240.683 181.376 240.518 181.077 240.187 180.853C239.867 180.629 239.376 180.517 238.715 180.517H236.443C235.942 180.517 235.526 180.634 235.195 180.869C234.864 181.104 234.699 181.418 234.699 181.813C234.699 182.282 234.96 182.666 235.483 182.965C236.016 183.264 236.747 183.413 237.675 183.413ZM246.309 172.485C247.056 172.485 247.712 172.65 248.277 172.981C248.853 173.312 249.301 173.792 249.621 174.421C249.952 175.04 250.117 175.781 250.117 176.645C250.117 177.509 249.952 178.256 249.621 178.885C249.301 179.504 248.853 179.978 248.277 180.309C247.712 180.64 247.056 180.805 246.309 180.805C245.563 180.805 244.901 180.64 244.325 180.309C243.76 179.978 243.312 179.504 242.981 178.885C242.661 178.256 242.501 177.509 242.501 176.645C242.501 175.781 242.661 175.04 242.981 174.421C243.312 173.792 243.76 173.312 244.325 172.981C244.901 172.65 245.563 172.485 246.309 172.485ZM246.309 173.173C245.403 173.173 244.672 173.482 244.117 174.101C243.573 174.72 243.301 175.568 243.301 176.645C243.301 177.722 243.573 178.57 244.117 179.189C244.672 179.808 245.403 180.117 246.309 180.117C247.216 180.117 247.941 179.808 248.485 179.189C249.04 178.57 249.317 177.722 249.317 176.645C249.317 175.568 249.04 174.72 248.485 174.101C247.941 173.482 247.216 173.173 246.309 173.173ZM257.301 175.381C257.301 174.698 257.114 174.165 256.741 173.781C256.368 173.386 255.834 173.189 255.141 173.189C254.533 173.189 254.005 173.322 253.557 173.589C253.12 173.856 252.8 174.288 252.597 174.885L251.941 174.469C252.176 173.84 252.565 173.354 253.109 173.013C253.664 172.661 254.346 172.485 255.157 172.485C256.032 172.485 256.741 172.72 257.285 173.189C257.829 173.648 258.101 174.33 258.101 175.237V179.237C258.101 179.802 258.357 180.085 258.869 180.085C259.093 180.085 259.285 180.048 259.445 179.973L259.397 180.613C259.216 180.709 258.981 180.757 258.693 180.757C258.341 180.757 258.026 180.656 257.749 180.453C257.472 180.25 257.317 179.882 257.285 179.349C257.018 179.85 256.618 180.218 256.085 180.453C255.552 180.688 255.013 180.805 254.469 180.805C253.712 180.805 253.088 180.629 252.597 180.277C252.106 179.925 251.861 179.413 251.861 178.741C251.861 178.133 252.064 177.648 252.469 177.285C252.874 176.922 253.434 176.672 254.149 176.533L257.301 175.909V175.381ZM252.677 178.677C252.677 179.125 252.842 179.477 253.173 179.733C253.504 179.978 253.973 180.101 254.581 180.101C254.997 180.101 255.413 180.026 255.829 179.877C256.256 179.717 256.608 179.472 256.885 179.141C257.162 178.8 257.301 178.362 257.301 177.829V176.581L254.549 177.125C253.92 177.253 253.45 177.44 253.141 177.685C252.832 177.93 252.677 178.261 252.677 178.677ZM261.828 168.965V178.757C261.828 179.248 261.914 179.594 262.084 179.797C262.255 180 262.522 180.101 262.884 180.101C263.108 180.101 263.284 180.085 263.412 180.053C263.551 180.021 263.711 179.968 263.892 179.893L263.78 180.597C263.482 180.736 263.13 180.805 262.724 180.805C262.159 180.805 261.732 180.645 261.444 180.325C261.167 179.994 261.028 179.482 261.028 178.789V168.965H261.828ZM265.819 179.333C266.032 179.333 266.203 179.402 266.331 179.541C266.47 179.669 266.539 179.84 266.539 180.053C266.539 180.266 266.47 180.442 266.331 180.581C266.203 180.709 266.032 180.773 265.819 180.773C265.606 180.773 265.43 180.709 265.291 180.581C265.163 180.442 265.099 180.266 265.099 180.053C265.099 179.84 265.163 179.669 265.291 179.541C265.43 179.402 265.606 179.333 265.819 179.333Z" fill="white"/>
<path d="M136.219 71.8H138.299V83H136.219V71.8ZM146.273 82.536C146.038 82.728 145.75 82.872 145.409 82.968C145.078 83.064 144.726 83.112 144.353 83.112C143.414 83.112 142.689 82.8667 142.177 82.376C141.665 81.8853 141.409 81.1707 141.409 80.232V76.12H140.001V74.52H141.409V72.568H143.409V74.52H145.697V76.12H143.409V80.184C143.409 80.6 143.51 80.92 143.713 81.144C143.915 81.3573 144.209 81.464 144.593 81.464C145.041 81.464 145.414 81.3467 145.713 81.112L146.273 82.536ZM155.669 78.776C155.669 78.9147 155.658 79.112 155.637 79.368H148.933C149.05 79.9973 149.354 80.4987 149.845 80.872C150.346 81.2347 150.965 81.416 151.701 81.416C152.639 81.416 153.413 81.1067 154.021 80.488L155.093 81.72C154.709 82.1787 154.223 82.5253 153.637 82.76C153.05 82.9947 152.389 83.112 151.653 83.112C150.714 83.112 149.887 82.9253 149.173 82.552C148.458 82.1787 147.903 81.6613 147.509 81C147.125 80.328 146.933 79.5707 146.933 78.728C146.933 77.896 147.119 77.1493 147.493 76.488C147.877 75.816 148.405 75.2933 149.077 74.92C149.749 74.5467 150.506 74.36 151.349 74.36C152.181 74.36 152.922 74.5467 153.573 74.92C154.234 75.2827 154.746 75.8 155.109 76.472C155.482 77.1333 155.669 77.9013 155.669 78.776ZM151.349 75.96C150.709 75.96 150.165 76.152 149.717 76.536C149.279 76.9093 149.013 77.4107 148.917 78.04H153.765C153.679 77.4213 153.418 76.92 152.981 76.536C152.543 76.152 151.999 75.96 151.349 75.96ZM159.494 75.704C160.07 74.808 161.083 74.36 162.534 74.36V76.264C162.363 76.232 162.208 76.216 162.07 76.216C161.291 76.216 160.683 76.4453 160.246 76.904C159.808 77.352 159.59 78.0027 159.59 78.856V83H157.59V74.456H159.494V75.704ZM167.447 74.36C168.706 74.36 169.666 74.664 170.327 75.272C170.999 75.8693 171.335 76.776 171.335 77.992V83H169.447V81.96C169.202 82.3333 168.85 82.6213 168.391 82.824C167.943 83.016 167.399 83.112 166.759 83.112C166.119 83.112 165.559 83.0053 165.079 82.792C164.599 82.568 164.226 82.264 163.959 81.88C163.703 81.4853 163.575 81.0427 163.575 80.552C163.575 79.784 163.858 79.1707 164.423 78.712C164.999 78.2427 165.901 78.008 167.127 78.008H169.335V77.88C169.335 77.2827 169.154 76.824 168.791 76.504C168.439 76.184 167.911 76.024 167.207 76.024C166.727 76.024 166.253 76.0987 165.783 76.248C165.325 76.3973 164.935 76.6053 164.615 76.872L163.831 75.416C164.279 75.0747 164.818 74.8133 165.447 74.632C166.077 74.4507 166.743 74.36 167.447 74.36ZM167.175 81.656C167.677 81.656 168.119 81.544 168.503 81.32C168.898 81.0853 169.175 80.7547 169.335 80.328V79.336H167.271C166.119 79.336 165.543 79.7147 165.543 80.472C165.543 80.8347 165.687 81.1227 165.975 81.336C166.263 81.5493 166.663 81.656 167.175 81.656ZM179.038 82.536C178.804 82.728 178.516 82.872 178.174 82.968C177.844 83.064 177.492 83.112 177.118 83.112C176.18 83.112 175.454 82.8667 174.942 82.376C174.43 81.8853 174.174 81.1707 174.174 80.232V76.12H172.766V74.52H174.174V72.568H176.174V74.52H178.462V76.12H176.174V80.184C176.174 80.6 176.276 80.92 176.478 81.144C176.681 81.3573 176.974 81.464 177.358 81.464C177.806 81.464 178.18 81.3467 178.478 81.112L179.038 82.536ZM180.683 74.456H182.683V83H180.683V74.456ZM181.691 73.048C181.329 73.048 181.025 72.936 180.779 72.712C180.534 72.4773 180.411 72.1893 180.411 71.848C180.411 71.5067 180.534 71.224 180.779 71C181.025 70.7653 181.329 70.648 181.691 70.648C182.054 70.648 182.358 70.76 182.603 70.984C182.849 71.1973 182.971 71.4693 182.971 71.8C182.971 72.152 182.849 72.4507 182.603 72.696C182.369 72.9307 182.065 73.048 181.691 73.048ZM189.148 83.112C188.284 83.112 187.506 82.9253 186.812 82.552C186.119 82.1787 185.575 81.6613 185.18 81C184.796 80.328 184.604 79.5707 184.604 78.728C184.604 77.8853 184.796 77.1333 185.18 76.472C185.575 75.8107 186.119 75.2933 186.812 74.92C187.506 74.5467 188.284 74.36 189.148 74.36C190.023 74.36 190.807 74.5467 191.5 74.92C192.194 75.2933 192.732 75.8107 193.116 76.472C193.511 77.1333 193.708 77.8853 193.708 78.728C193.708 79.5707 193.511 80.328 193.116 81C192.732 81.6613 192.194 82.1787 191.5 82.552C190.807 82.9253 190.023 83.112 189.148 83.112ZM189.148 81.4C189.884 81.4 190.492 81.1547 190.972 80.664C191.452 80.1733 191.692 79.528 191.692 78.728C191.692 77.928 191.452 77.2827 190.972 76.792C190.492 76.3013 189.884 76.056 189.148 76.056C188.412 76.056 187.804 76.3013 187.324 76.792C186.855 77.2827 186.62 77.928 186.62 78.728C186.62 79.528 186.855 80.1733 187.324 80.664C187.804 81.1547 188.412 81.4 189.148 81.4ZM200.469 74.36C201.546 74.36 202.41 74.6747 203.061 75.304C203.712 75.9333 204.037 76.8667 204.037 78.104V83H202.037V78.36C202.037 77.6133 201.861 77.0533 201.509 76.68C201.157 76.296 200.656 76.104 200.005 76.104C199.269 76.104 198.688 76.328 198.261 76.776C197.834 77.2133 197.621 77.848 197.621 78.68V83H195.621V74.456H197.525V75.56C197.856 75.1653 198.272 74.8667 198.773 74.664C199.274 74.4613 199.84 74.36 200.469 74.36ZM214.26 71.8V83H212.18V73.544H209.812V71.8H214.26Z" fill="white"/>
</svg>
