<svg width="350" height="253" viewBox="0 0 350 253" fill="none" xmlns="http://www.w3.org/2000/svg">
<path d="M47.1516 226.551C18.1129 205.607 4.00233 170.701 0.80314 131.406C-2.64214 92.112 4.88548 65.2011 25.5571 42.6617C46.2288 20.3218 80.5366 2.15381 117.204 0.35865C153.872 -1.43653 184.387 3.949 226.223 6.7415C267.812 9.33454 292.451 15.4056 316.568 35.5514C340.439 55.6973 356.523 92.3115 347.418 131.406C338.312 170.501 327.88 200.409 288.804 226.551C257.797 247.295 221.301 250.686 170.852 252.68C120.157 254.675 76.1904 247.494 47.1516 226.551Z" fill="#F75759"/>
<path d="M39.5576 120.701L43.7816 110.141H44.7256L48.9496 120.701H48.1016L46.7736 117.389H41.7176L40.4056 120.701H39.5576ZM43.8616 112.013L42.0216 116.653H46.4856L44.6456 112.045L44.2616 110.925H44.2456L43.8616 112.013ZM53.657 120.861C52.9636 120.861 52.3396 120.696 51.785 120.365C51.241 120.035 50.809 119.56 50.489 118.941C50.169 118.312 50.009 117.565 50.009 116.701C50.009 115.827 50.1743 115.08 50.505 114.461C50.8356 113.832 51.2783 113.357 51.833 113.037C52.3983 112.707 53.033 112.541 53.737 112.541C54.409 112.541 55.001 112.712 55.513 113.053C56.025 113.395 56.3876 113.869 56.601 114.477V109.021H57.401V120.701H56.681L56.633 118.813C56.4303 119.464 56.057 119.971 55.513 120.333C54.969 120.685 54.3503 120.861 53.657 120.861ZM53.753 120.157C54.3076 120.157 54.7983 120.019 55.225 119.741C55.6623 119.453 55.9983 119.048 56.233 118.525C56.4783 117.992 56.601 117.363 56.601 116.637C56.601 115.592 56.3343 114.765 55.801 114.157C55.2783 113.549 54.6063 113.245 53.785 113.245C52.8676 113.245 52.1423 113.555 51.609 114.173C51.0756 114.792 50.809 115.635 50.809 116.701C50.809 117.768 51.0703 118.611 51.593 119.229C52.1263 119.848 52.8463 120.157 53.753 120.157ZM63.3757 120.861C62.6824 120.861 62.0584 120.696 61.5037 120.365C60.9597 120.035 60.5277 119.56 60.2077 118.941C59.8877 118.312 59.7277 117.565 59.7277 116.701C59.7277 115.827 59.8931 115.08 60.2237 114.461C60.5544 113.832 60.9971 113.357 61.5517 113.037C62.1171 112.707 62.7517 112.541 63.4557 112.541C64.1277 112.541 64.7197 112.712 65.2317 113.053C65.7437 113.395 66.1064 113.869 66.3197 114.477V109.021H67.1197V120.701H66.3997L66.3517 118.813C66.1491 119.464 65.7757 119.971 65.2317 120.333C64.6877 120.685 64.0691 120.861 63.3757 120.861ZM63.4717 120.157C64.0264 120.157 64.5171 120.019 64.9437 119.741C65.3811 119.453 65.7171 119.048 65.9517 118.525C66.1971 117.992 66.3197 117.363 66.3197 116.637C66.3197 115.592 66.0531 114.765 65.5197 114.157C64.9971 113.549 64.3251 113.245 63.5037 113.245C62.5864 113.245 61.8611 113.555 61.3277 114.173C60.7944 114.792 60.5277 115.635 60.5277 116.701C60.5277 117.768 60.7891 118.611 61.3117 119.229C61.8451 119.848 62.5651 120.157 63.4717 120.157ZM79.8861 115.437C79.8861 114.755 79.6994 114.221 79.3261 113.837C78.9528 113.443 78.4194 113.245 77.7261 113.245C77.1181 113.245 76.5901 113.379 76.1421 113.645C75.7048 113.912 75.3848 114.344 75.1821 114.941L74.5261 114.525C74.7608 113.896 75.1501 113.411 75.6941 113.069C76.2488 112.717 76.9314 112.541 77.7421 112.541C78.6168 112.541 79.3261 112.776 79.8701 113.245C80.4141 113.704 80.6861 114.387 80.6861 115.293V119.293C80.6861 119.859 80.9421 120.141 81.4541 120.141C81.6781 120.141 81.8701 120.104 82.0301 120.029L81.9821 120.669C81.8008 120.765 81.5661 120.813 81.2781 120.813C80.9261 120.813 80.6114 120.712 80.3341 120.509C80.0568 120.307 79.9021 119.939 79.8701 119.405C79.6034 119.907 79.2034 120.275 78.6701 120.509C78.1368 120.744 77.5981 120.861 77.0541 120.861C76.2968 120.861 75.6728 120.685 75.1821 120.333C74.6914 119.981 74.4461 119.469 74.4461 118.797C74.4461 118.189 74.6488 117.704 75.0541 117.341C75.4594 116.979 76.0194 116.728 76.7341 116.589L79.8861 115.965V115.437ZM75.2621 118.733C75.2621 119.181 75.4274 119.533 75.7581 119.789C76.0888 120.035 76.5581 120.157 77.1661 120.157C77.5821 120.157 77.9981 120.083 78.4141 119.933C78.8408 119.773 79.1928 119.528 79.4701 119.197C79.7474 118.856 79.8861 118.419 79.8861 117.885V116.637L77.1341 117.181C76.5048 117.309 76.0354 117.496 75.7261 117.741C75.4168 117.987 75.2621 118.317 75.2621 118.733ZM88.287 120.701V112.701H89.007L89.055 114.365C89.2896 113.8 89.6683 113.357 90.191 113.037C90.7136 112.707 91.3056 112.541 91.967 112.541C92.6603 112.541 93.2576 112.707 93.759 113.037C94.271 113.368 94.623 113.853 94.815 114.493C94.9536 114.088 95.1776 113.741 95.487 113.453C95.7963 113.155 96.159 112.925 96.575 112.765C96.991 112.605 97.423 112.525 97.871 112.525C98.4256 112.525 98.9323 112.637 99.391 112.861C99.8496 113.075 100.212 113.405 100.479 113.853C100.746 114.291 100.879 114.84 100.879 115.501V120.685H100.079V115.581C100.079 114.792 99.8656 114.205 99.439 113.821C99.0123 113.427 98.4576 113.229 97.775 113.229C97.263 113.229 96.7936 113.352 96.367 113.597C95.951 113.843 95.615 114.184 95.359 114.621C95.1136 115.048 94.991 115.539 94.991 116.093V120.701H94.191V115.597C94.191 114.808 93.9776 114.221 93.551 113.837C93.1243 113.443 92.5696 113.245 91.887 113.245C91.407 113.245 90.9536 113.363 90.527 113.597C90.1003 113.832 89.7536 114.168 89.487 114.605C89.2203 115.043 89.087 115.565 89.087 116.173V120.701H88.287ZM106.91 120.861C106.174 120.861 105.518 120.696 104.942 120.365C104.366 120.035 103.913 119.56 103.582 118.941C103.262 118.312 103.102 117.565 103.102 116.701C103.102 115.837 103.262 115.096 103.582 114.477C103.902 113.848 104.34 113.368 104.894 113.037C105.46 112.707 106.1 112.541 106.814 112.541C107.54 112.541 108.158 112.701 108.67 113.021C109.193 113.341 109.588 113.789 109.854 114.365C110.132 114.931 110.27 115.587 110.27 116.333C110.27 116.44 110.265 116.541 110.254 116.637C110.254 116.723 110.249 116.797 110.238 116.861H103.886C103.918 117.896 104.206 118.707 104.75 119.293C105.305 119.869 106.02 120.157 106.894 120.157C107.513 120.157 108.041 120.024 108.478 119.757C108.926 119.491 109.273 119.123 109.518 118.653L110.158 119.021C109.86 119.587 109.428 120.035 108.862 120.365C108.308 120.696 107.657 120.861 106.91 120.861ZM106.798 113.245C106.02 113.245 105.364 113.501 104.83 114.013C104.308 114.515 103.998 115.224 103.902 116.141H109.486C109.454 115.256 109.198 114.552 108.718 114.029C108.249 113.507 107.609 113.245 106.798 113.245ZM115.257 120.861C114.446 120.861 113.726 120.696 113.097 120.365C112.478 120.035 112.041 119.56 111.785 118.941L112.473 118.477C112.654 119.021 112.995 119.437 113.497 119.725C113.998 120.013 114.606 120.157 115.321 120.157C116.014 120.157 116.563 120.019 116.969 119.741C117.374 119.464 117.577 119.096 117.577 118.637C117.577 118.328 117.475 118.061 117.273 117.837C117.081 117.603 116.713 117.427 116.169 117.309L114.297 116.909C113.539 116.749 112.995 116.493 112.665 116.141C112.334 115.779 112.169 115.341 112.169 114.829C112.169 114.413 112.297 114.035 112.553 113.693C112.809 113.341 113.161 113.064 113.609 112.861C114.067 112.648 114.601 112.541 115.209 112.541C116.009 112.541 116.67 112.701 117.193 113.021C117.715 113.331 118.083 113.8 118.297 114.429L117.625 114.861C117.465 114.296 117.166 113.885 116.729 113.629C116.291 113.373 115.785 113.245 115.209 113.245C114.526 113.245 113.982 113.395 113.577 113.693C113.171 113.981 112.969 114.344 112.969 114.781C112.969 115.091 113.07 115.373 113.273 115.629C113.486 115.875 113.87 116.056 114.425 116.173L116.345 116.589C117.091 116.749 117.614 116.995 117.913 117.325C118.222 117.645 118.377 118.045 118.377 118.525C118.377 119.24 118.089 119.811 117.513 120.237C116.947 120.653 116.195 120.861 115.257 120.861ZM123.335 120.861C122.524 120.861 121.804 120.696 121.175 120.365C120.556 120.035 120.119 119.56 119.863 118.941L120.551 118.477C120.732 119.021 121.073 119.437 121.575 119.725C122.076 120.013 122.684 120.157 123.399 120.157C124.092 120.157 124.641 120.019 125.047 119.741C125.452 119.464 125.655 119.096 125.655 118.637C125.655 118.328 125.553 118.061 125.351 117.837C125.159 117.603 124.791 117.427 124.247 117.309L122.375 116.909C121.617 116.749 121.073 116.493 120.743 116.141C120.412 115.779 120.247 115.341 120.247 114.829C120.247 114.413 120.375 114.035 120.631 113.693C120.887 113.341 121.239 113.064 121.687 112.861C122.145 112.648 122.679 112.541 123.287 112.541C124.087 112.541 124.748 112.701 125.271 113.021C125.793 113.331 126.161 113.8 126.375 114.429L125.703 114.861C125.543 114.296 125.244 113.885 124.807 113.629C124.369 113.373 123.863 113.245 123.287 113.245C122.604 113.245 122.06 113.395 121.655 113.693C121.249 113.981 121.047 114.344 121.047 114.781C121.047 115.091 121.148 115.373 121.351 115.629C121.564 115.875 121.948 116.056 122.503 116.173L124.423 116.589C125.169 116.749 125.692 116.995 125.991 117.325C126.3 117.645 126.455 118.045 126.455 118.525C126.455 119.24 126.167 119.811 125.591 120.237C125.025 120.653 124.273 120.861 123.335 120.861ZM133.605 115.437C133.605 114.755 133.418 114.221 133.045 113.837C132.672 113.443 132.138 113.245 131.445 113.245C130.837 113.245 130.309 113.379 129.861 113.645C129.424 113.912 129.104 114.344 128.901 114.941L128.245 114.525C128.48 113.896 128.869 113.411 129.413 113.069C129.968 112.717 130.65 112.541 131.461 112.541C132.336 112.541 133.045 112.776 133.589 113.245C134.133 113.704 134.405 114.387 134.405 115.293V119.293C134.405 119.859 134.661 120.141 135.173 120.141C135.397 120.141 135.589 120.104 135.749 120.029L135.701 120.669C135.52 120.765 135.285 120.813 134.997 120.813C134.645 120.813 134.33 120.712 134.053 120.509C133.776 120.307 133.621 119.939 133.589 119.405C133.322 119.907 132.922 120.275 132.389 120.509C131.856 120.744 131.317 120.861 130.773 120.861C130.016 120.861 129.392 120.685 128.901 120.333C128.41 119.981 128.165 119.469 128.165 118.797C128.165 118.189 128.368 117.704 128.773 117.341C129.178 116.979 129.738 116.728 130.453 116.589L133.605 115.965V115.437ZM128.981 118.733C128.981 119.181 129.146 119.533 129.477 119.789C129.808 120.035 130.277 120.157 130.885 120.157C131.301 120.157 131.717 120.083 132.133 119.933C132.56 119.773 132.912 119.528 133.189 119.197C133.466 118.856 133.605 118.419 133.605 117.885V116.637L130.853 117.181C130.224 117.309 129.754 117.496 129.445 117.741C129.136 117.987 128.981 118.317 128.981 118.733ZM141.492 119.885C142.282 119.885 142.9 120.056 143.348 120.397C143.796 120.728 144.02 121.165 144.02 121.709C144.02 122.2 143.855 122.627 143.524 122.989C143.204 123.363 142.756 123.645 142.18 123.837C141.615 124.04 140.975 124.141 140.26 124.141C139.044 124.141 138.116 123.933 137.476 123.517C136.847 123.112 136.532 122.6 136.532 121.981C136.532 121.576 136.666 121.219 136.932 120.909C137.199 120.6 137.588 120.387 138.1 120.269C137.823 120.163 137.583 120.003 137.38 119.789C137.188 119.576 137.092 119.288 137.092 118.925C137.092 118.563 137.204 118.248 137.428 117.981C137.663 117.715 137.983 117.528 138.388 117.421C137.919 117.208 137.556 116.909 137.3 116.525C137.044 116.131 136.916 115.672 136.916 115.149C136.916 114.637 137.05 114.184 137.316 113.789C137.594 113.395 137.972 113.091 138.452 112.877C138.943 112.653 139.508 112.541 140.148 112.541C140.863 112.541 141.482 112.68 142.004 112.957C142.068 112.435 142.276 112.019 142.628 111.709C142.991 111.389 143.434 111.229 143.956 111.229H144.02L144.212 111.933H144.132C143.642 111.933 143.258 112.056 142.98 112.301C142.703 112.536 142.548 112.872 142.516 113.309C143.071 113.789 143.348 114.403 143.348 115.149C143.348 115.672 143.215 116.131 142.948 116.525C142.682 116.92 142.303 117.229 141.812 117.453C141.332 117.667 140.778 117.773 140.148 117.773C139.775 117.773 139.428 117.736 139.108 117.661C138.714 117.725 138.399 117.859 138.164 118.061C137.94 118.253 137.828 118.499 137.828 118.797C137.828 119.16 137.967 119.432 138.244 119.613C138.532 119.795 138.895 119.885 139.332 119.885H141.492ZM140.148 113.197C139.434 113.197 138.852 113.379 138.404 113.741C137.967 114.093 137.748 114.563 137.748 115.149C137.748 115.736 137.967 116.211 138.404 116.573C138.852 116.936 139.434 117.117 140.148 117.117C140.842 117.117 141.412 116.936 141.86 116.573C142.308 116.211 142.532 115.736 142.532 115.149C142.532 114.563 142.308 114.093 141.86 113.741C141.412 113.379 140.842 113.197 140.148 113.197ZM140.26 123.469C141.199 123.469 141.935 123.309 142.468 122.989C143.002 122.669 143.268 122.275 143.268 121.805C143.268 121.432 143.103 121.133 142.772 120.909C142.452 120.685 141.962 120.573 141.3 120.573H139.028C138.527 120.573 138.111 120.691 137.78 120.925C137.45 121.16 137.284 121.475 137.284 121.869C137.284 122.339 137.546 122.723 138.068 123.021C138.602 123.32 139.332 123.469 140.26 123.469ZM148.895 120.861C148.159 120.861 147.503 120.696 146.927 120.365C146.351 120.035 145.897 119.56 145.567 118.941C145.247 118.312 145.087 117.565 145.087 116.701C145.087 115.837 145.247 115.096 145.567 114.477C145.887 113.848 146.324 113.368 146.879 113.037C147.444 112.707 148.084 112.541 148.799 112.541C149.524 112.541 150.143 112.701 150.655 113.021C151.177 113.341 151.572 113.789 151.839 114.365C152.116 114.931 152.255 115.587 152.255 116.333C152.255 116.44 152.249 116.541 152.239 116.637C152.239 116.723 152.233 116.797 152.223 116.861H145.871C145.903 117.896 146.191 118.707 146.735 119.293C147.289 119.869 148.004 120.157 148.879 120.157C149.497 120.157 150.025 120.024 150.463 119.757C150.911 119.491 151.257 119.123 151.503 118.653L152.143 119.021C151.844 119.587 151.412 120.035 150.847 120.365C150.292 120.696 149.641 120.861 148.895 120.861ZM148.783 113.245C148.004 113.245 147.348 113.501 146.815 114.013C146.292 114.515 145.983 115.224 145.887 116.141H151.471C151.439 115.256 151.183 114.552 150.703 114.029C150.233 113.507 149.593 113.245 148.783 113.245ZM163.416 112.701V113.389H160.6V120.701H159.8V113.389H158.2V112.701H159.8V111.357C159.8 110.632 160.002 110.051 160.408 109.613C160.813 109.165 161.405 108.941 162.184 108.941C162.482 108.941 162.738 108.979 162.952 109.053C163.176 109.128 163.352 109.235 163.48 109.373L163.256 110.013C163 109.779 162.664 109.661 162.248 109.661C161.725 109.661 161.32 109.816 161.032 110.125C160.744 110.424 160.6 110.861 160.6 111.437V112.701H163.416ZM165.4 111.149C165.197 111.149 165.032 111.091 164.904 110.973C164.786 110.845 164.728 110.68 164.728 110.477C164.728 110.275 164.786 110.115 164.904 109.997C165.032 109.869 165.197 109.805 165.4 109.805C165.602 109.805 165.762 109.869 165.88 109.997C166.008 110.115 166.072 110.275 166.072 110.477C166.072 110.68 166.008 110.845 165.88 110.973C165.762 111.091 165.602 111.149 165.4 111.149ZM165.8 112.701V120.701H165V112.701H165.8ZM171.91 120.861C171.174 120.861 170.518 120.696 169.942 120.365C169.366 120.035 168.913 119.56 168.582 118.941C168.262 118.312 168.102 117.565 168.102 116.701C168.102 115.837 168.262 115.096 168.582 114.477C168.902 113.848 169.34 113.368 169.894 113.037C170.46 112.707 171.1 112.541 171.814 112.541C172.54 112.541 173.158 112.701 173.67 113.021C174.193 113.341 174.588 113.789 174.854 114.365C175.132 114.931 175.27 115.587 175.27 116.333C175.27 116.44 175.265 116.541 175.254 116.637C175.254 116.723 175.249 116.797 175.238 116.861H168.886C168.918 117.896 169.206 118.707 169.75 119.293C170.305 119.869 171.02 120.157 171.894 120.157C172.513 120.157 173.041 120.024 173.478 119.757C173.926 119.491 174.273 119.123 174.518 118.653L175.158 119.021C174.86 119.587 174.428 120.035 173.862 120.365C173.308 120.696 172.657 120.861 171.91 120.861ZM171.798 113.245C171.02 113.245 170.364 113.501 169.83 114.013C169.308 114.515 168.998 115.224 168.902 116.141H174.486C174.454 115.256 174.198 114.552 173.718 114.029C173.249 113.507 172.609 113.245 171.798 113.245ZM178.289 109.021V118.813C178.289 119.304 178.374 119.651 178.545 119.853C178.715 120.056 178.982 120.157 179.345 120.157C179.569 120.157 179.745 120.141 179.873 120.109C180.011 120.077 180.171 120.024 180.353 119.949L180.241 120.653C179.942 120.792 179.59 120.861 179.185 120.861C178.619 120.861 178.193 120.701 177.905 120.381C177.627 120.051 177.489 119.539 177.489 118.845V109.021H178.289ZM185.001 120.861C184.307 120.861 183.683 120.696 183.129 120.365C182.585 120.035 182.153 119.56 181.833 118.941C181.513 118.312 181.353 117.565 181.353 116.701C181.353 115.827 181.518 115.08 181.849 114.461C182.179 113.832 182.622 113.357 183.177 113.037C183.742 112.707 184.377 112.541 185.081 112.541C185.753 112.541 186.345 112.712 186.857 113.053C187.369 113.395 187.731 113.869 187.945 114.477V109.021H188.745V120.701H188.025L187.977 118.813C187.774 119.464 187.401 119.971 186.857 120.333C186.313 120.685 185.694 120.861 185.001 120.861ZM185.097 120.157C185.651 120.157 186.142 120.019 186.569 119.741C187.006 119.453 187.342 119.048 187.577 118.525C187.822 117.992 187.945 117.363 187.945 116.637C187.945 115.592 187.678 114.765 187.145 114.157C186.622 113.549 185.95 113.245 185.129 113.245C184.211 113.245 183.486 113.555 182.953 114.173C182.419 114.792 182.153 115.635 182.153 116.701C182.153 117.768 182.414 118.611 182.937 119.229C183.47 119.848 184.19 120.157 185.097 120.157ZM200.623 112.701V113.389H197.631V118.589C197.631 119.613 198.1 120.125 199.039 120.125C199.337 120.125 199.599 120.077 199.823 119.981C200.057 119.875 200.265 119.725 200.447 119.533L200.751 120.189C200.537 120.392 200.276 120.557 199.967 120.685C199.668 120.803 199.327 120.861 198.943 120.861C198.313 120.861 197.801 120.691 197.407 120.349C197.023 119.997 196.831 119.448 196.831 118.701V113.389H195.231V112.701H196.831V110.701L197.631 110.477V112.701H200.623ZM205.598 112.541C206.345 112.541 207.001 112.707 207.566 113.037C208.142 113.368 208.59 113.848 208.91 114.477C209.241 115.096 209.406 115.837 209.406 116.701C209.406 117.565 209.241 118.312 208.91 118.941C208.59 119.56 208.142 120.035 207.566 120.365C207.001 120.696 206.345 120.861 205.598 120.861C204.851 120.861 204.19 120.696 203.614 120.365C203.049 120.035 202.601 119.56 202.27 118.941C201.95 118.312 201.79 117.565 201.79 116.701C201.79 115.837 201.95 115.096 202.27 114.477C202.601 113.848 203.049 113.368 203.614 113.037C204.19 112.707 204.851 112.541 205.598 112.541ZM205.598 113.229C204.691 113.229 203.961 113.539 203.406 114.157C202.862 114.776 202.59 115.624 202.59 116.701C202.59 117.779 202.862 118.627 203.406 119.245C203.961 119.864 204.691 120.173 205.598 120.173C206.505 120.173 207.23 119.864 207.774 119.245C208.329 118.627 208.606 117.779 208.606 116.701C208.606 115.624 208.329 114.776 207.774 114.157C207.23 113.539 206.505 113.229 205.598 113.229ZM220.716 112.701V113.389H217.724V118.589C217.724 119.613 218.194 120.125 219.132 120.125C219.431 120.125 219.692 120.077 219.916 119.981C220.151 119.875 220.359 119.725 220.54 119.533L220.844 120.189C220.631 120.392 220.37 120.557 220.06 120.685C219.762 120.803 219.42 120.861 219.036 120.861C218.407 120.861 217.895 120.691 217.5 120.349C217.116 119.997 216.924 119.448 216.924 118.701V113.389H215.324V112.701H216.924V110.701L217.724 110.477V112.701H220.716ZM222.428 120.701V109.021H223.228V114.333C223.462 113.768 223.841 113.331 224.364 113.021C224.886 112.701 225.489 112.541 226.172 112.541C227.057 112.541 227.788 112.792 228.364 113.293C228.94 113.784 229.228 114.52 229.228 115.501V120.701H228.428V115.757C228.428 114.883 228.209 114.243 227.772 113.837C227.334 113.432 226.774 113.229 226.092 113.229C225.59 113.229 225.121 113.347 224.684 113.581C224.246 113.816 223.894 114.152 223.628 114.589C223.361 115.027 223.228 115.56 223.228 116.189V120.701H222.428ZM235.254 120.861C234.518 120.861 233.862 120.696 233.286 120.365C232.71 120.035 232.257 119.56 231.926 118.941C231.606 118.312 231.446 117.565 231.446 116.701C231.446 115.837 231.606 115.096 231.926 114.477C232.246 113.848 232.683 113.368 233.238 113.037C233.803 112.707 234.443 112.541 235.158 112.541C235.883 112.541 236.502 112.701 237.014 113.021C237.537 113.341 237.931 113.789 238.198 114.365C238.475 114.931 238.614 115.587 238.614 116.333C238.614 116.44 238.609 116.541 238.598 116.637C238.598 116.723 238.593 116.797 238.582 116.861H232.23C232.262 117.896 232.55 118.707 233.094 119.293C233.649 119.869 234.363 120.157 235.238 120.157C235.857 120.157 236.385 120.024 236.822 119.757C237.27 119.491 237.617 119.123 237.862 118.653L238.502 119.021C238.203 119.587 237.771 120.035 237.206 120.365C236.651 120.696 236.001 120.861 235.254 120.861ZM235.142 113.245C234.363 113.245 233.707 113.501 233.174 114.013C232.651 114.515 232.342 115.224 232.246 116.141H237.83C237.798 115.256 237.542 114.552 237.062 114.029C236.593 113.507 235.953 113.245 235.142 113.245ZM245.912 124.061V112.701H246.632L246.68 114.525C246.915 113.917 247.299 113.437 247.832 113.085C248.365 112.723 248.989 112.541 249.704 112.541C250.387 112.541 251 112.707 251.544 113.037C252.088 113.368 252.52 113.843 252.84 114.461C253.16 115.08 253.32 115.827 253.32 116.701C253.32 117.565 253.16 118.312 252.84 118.941C252.52 119.56 252.083 120.035 251.528 120.365C250.984 120.696 250.365 120.861 249.672 120.861C248.989 120.861 248.387 120.691 247.864 120.349C247.341 120.008 246.957 119.544 246.712 118.957V124.061H245.912ZM249.576 120.157C250.483 120.157 251.197 119.848 251.72 119.229C252.253 118.611 252.52 117.768 252.52 116.701C252.52 115.635 252.259 114.792 251.736 114.173C251.213 113.555 250.504 113.245 249.608 113.245C249.043 113.245 248.541 113.389 248.104 113.677C247.677 113.955 247.336 114.355 247.08 114.877C246.835 115.389 246.712 115.997 246.712 116.701C246.712 117.405 246.835 118.019 247.08 118.541C247.325 119.053 247.661 119.453 248.088 119.741C248.525 120.019 249.021 120.157 249.576 120.157ZM260.527 115.437C260.527 114.755 260.34 114.221 259.967 113.837C259.593 113.443 259.06 113.245 258.367 113.245C257.759 113.245 257.231 113.379 256.783 113.645C256.345 113.912 256.025 114.344 255.823 114.941L255.167 114.525C255.401 113.896 255.791 113.411 256.335 113.069C256.889 112.717 257.572 112.541 258.383 112.541C259.257 112.541 259.967 112.776 260.511 113.245C261.055 113.704 261.327 114.387 261.327 115.293V119.293C261.327 119.859 261.583 120.141 262.095 120.141C262.319 120.141 262.511 120.104 262.671 120.029L262.623 120.669C262.441 120.765 262.207 120.813 261.919 120.813C261.567 120.813 261.252 120.712 260.975 120.509C260.697 120.307 260.543 119.939 260.511 119.405C260.244 119.907 259.844 120.275 259.311 120.509C258.777 120.744 258.239 120.861 257.695 120.861C256.937 120.861 256.313 120.685 255.823 120.333C255.332 119.981 255.087 119.469 255.087 118.797C255.087 118.189 255.289 117.704 255.695 117.341C256.1 116.979 256.66 116.728 257.375 116.589L260.527 115.965V115.437ZM255.903 118.733C255.903 119.181 256.068 119.533 256.399 119.789C256.729 120.035 257.199 120.157 257.807 120.157C258.223 120.157 258.639 120.083 259.055 119.933C259.481 119.773 259.833 119.528 260.111 119.197C260.388 118.856 260.527 118.419 260.527 117.885V116.637L257.775 117.181C257.145 117.309 256.676 117.496 256.367 117.741C256.057 117.987 255.903 118.317 255.903 118.733ZM270.247 112.701L266.375 122.173C266.077 122.92 265.746 123.432 265.383 123.709C265.021 123.997 264.573 124.141 264.039 124.141C263.378 124.141 262.866 123.96 262.503 123.597L262.759 122.909C262.919 123.101 263.111 123.235 263.335 123.309C263.559 123.395 263.789 123.437 264.023 123.437C264.365 123.437 264.669 123.336 264.935 123.133C265.213 122.941 265.463 122.557 265.687 121.981L266.215 120.701L265.367 118.717L262.839 112.701H263.751L266.199 118.765L266.599 119.837L267.031 118.685L269.383 112.701H270.247ZM271.943 120.701V112.701H272.663L272.711 114.365C272.946 113.8 273.325 113.357 273.847 113.037C274.37 112.707 274.962 112.541 275.623 112.541C276.317 112.541 276.914 112.707 277.415 113.037C277.927 113.368 278.279 113.853 278.471 114.493C278.61 114.088 278.834 113.741 279.143 113.453C279.453 113.155 279.815 112.925 280.231 112.765C280.647 112.605 281.079 112.525 281.527 112.525C282.082 112.525 282.589 112.637 283.047 112.861C283.506 113.075 283.869 113.405 284.135 113.853C284.402 114.291 284.535 114.84 284.535 115.501V120.685H283.735V115.581C283.735 114.792 283.522 114.205 283.095 113.821C282.669 113.427 282.114 113.229 281.431 113.229C280.919 113.229 280.45 113.352 280.023 113.597C279.607 113.843 279.271 114.184 279.015 114.621C278.77 115.048 278.647 115.539 278.647 116.093V120.701H277.847V115.597C277.847 114.808 277.634 114.221 277.207 113.837C276.781 113.443 276.226 113.245 275.543 113.245C275.063 113.245 274.61 113.363 274.183 113.597C273.757 113.832 273.41 114.168 273.143 114.605C272.877 115.043 272.743 115.565 272.743 116.173V120.701H271.943ZM290.567 120.861C289.831 120.861 289.175 120.696 288.599 120.365C288.023 120.035 287.569 119.56 287.239 118.941C286.919 118.312 286.759 117.565 286.759 116.701C286.759 115.837 286.919 115.096 287.239 114.477C287.559 113.848 287.996 113.368 288.551 113.037C289.116 112.707 289.756 112.541 290.471 112.541C291.196 112.541 291.815 112.701 292.327 113.021C292.849 113.341 293.244 113.789 293.511 114.365C293.788 114.931 293.927 115.587 293.927 116.333C293.927 116.44 293.921 116.541 293.911 116.637C293.911 116.723 293.905 116.797 293.895 116.861H287.543C287.575 117.896 287.863 118.707 288.407 119.293C288.961 119.869 289.676 120.157 290.551 120.157C291.169 120.157 291.697 120.024 292.135 119.757C292.583 119.491 292.929 119.123 293.175 118.653L293.815 119.021C293.516 119.587 293.084 120.035 292.519 120.365C291.964 120.696 291.313 120.861 290.567 120.861ZM290.455 113.245C289.676 113.245 289.02 113.501 288.487 114.013C287.964 114.515 287.655 115.224 287.559 116.141H293.143C293.111 115.256 292.855 114.552 292.375 114.029C291.905 113.507 291.265 113.245 290.455 113.245ZM296.209 120.701V112.701H296.929L296.977 114.301C297.222 113.736 297.612 113.304 298.145 113.005C298.678 112.696 299.281 112.541 299.953 112.541C300.838 112.541 301.569 112.792 302.145 113.293C302.721 113.795 303.009 114.536 303.009 115.517V120.701H302.209V115.773C302.209 114.899 301.99 114.259 301.553 113.853C301.116 113.448 300.556 113.245 299.873 113.245C299.372 113.245 298.902 113.363 298.465 113.597C298.028 113.821 297.676 114.152 297.409 114.589C297.142 115.027 297.009 115.56 297.009 116.189V120.701H296.209ZM309.888 112.701V113.389H306.896V118.589C306.896 119.613 307.366 120.125 308.304 120.125C308.603 120.125 308.864 120.077 309.088 119.981C309.323 119.875 309.531 119.725 309.712 119.533L310.016 120.189C309.803 120.392 309.542 120.557 309.232 120.685C308.934 120.803 308.592 120.861 308.208 120.861C307.579 120.861 307.067 120.691 306.672 120.349C306.288 119.997 306.096 119.448 306.096 118.701V113.389H304.496V112.701H306.096V110.701L306.896 110.477V112.701H309.888ZM43.0917 150.701V142.701H43.7637L43.8597 144.365C44.0623 143.821 44.3823 143.384 44.8197 143.053C45.2677 142.712 45.8117 142.541 46.4517 142.541C46.8783 142.541 47.2143 142.632 47.4597 142.813L47.2677 143.517C47.1503 143.443 47.0223 143.384 46.8837 143.341C46.745 143.299 46.537 143.277 46.2597 143.277C45.8543 143.277 45.4703 143.405 45.1077 143.661C44.745 143.907 44.4517 144.253 44.2277 144.701C44.0037 145.139 43.8917 145.645 43.8917 146.221V150.701H43.0917ZM52.0275 150.861C51.2915 150.861 50.6355 150.696 50.0595 150.365C49.4835 150.035 49.0302 149.56 48.6995 148.941C48.3795 148.312 48.2195 147.565 48.2195 146.701C48.2195 145.837 48.3795 145.096 48.6995 144.477C49.0195 143.848 49.4569 143.368 50.0115 143.037C50.5769 142.707 51.2169 142.541 51.9315 142.541C52.6569 142.541 53.2755 142.701 53.7875 143.021C54.3102 143.341 54.7049 143.789 54.9715 144.365C55.2489 144.931 55.3875 145.587 55.3875 146.333C55.3875 146.44 55.3822 146.541 55.3715 146.637C55.3715 146.723 55.3662 146.797 55.3555 146.861H49.0035C49.0355 147.896 49.3235 148.707 49.8675 149.293C50.4222 149.869 51.1369 150.157 52.0115 150.157C52.6302 150.157 53.1582 150.024 53.5955 149.757C54.0435 149.491 54.3902 149.123 54.6355 148.653L55.2755 149.021C54.9769 149.587 54.5449 150.035 53.9795 150.365C53.4249 150.696 52.7742 150.861 52.0275 150.861ZM51.9155 143.245C51.1369 143.245 50.4809 143.501 49.9475 144.013C49.4249 144.515 49.1155 145.224 49.0195 146.141H54.6035C54.5715 145.256 54.3155 144.552 53.8355 144.029C53.3662 143.507 52.7262 143.245 51.9155 143.245ZM57.6698 150.701V142.701H58.3898L58.4378 144.365C58.6725 143.8 59.0511 143.357 59.5738 143.037C60.0965 142.707 60.6885 142.541 61.3498 142.541C62.0431 142.541 62.6405 142.707 63.1418 143.037C63.6538 143.368 64.0058 143.853 64.1978 144.493C64.3365 144.088 64.5605 143.741 64.8698 143.453C65.1791 143.155 65.5418 142.925 65.9578 142.765C66.3738 142.605 66.8058 142.525 67.2538 142.525C67.8085 142.525 68.3151 142.637 68.7738 142.861C69.2325 143.075 69.5951 143.405 69.8618 143.853C70.1285 144.291 70.2618 144.84 70.2618 145.501V150.685H69.4618V145.581C69.4618 144.792 69.2485 144.205 68.8218 143.821C68.3951 143.427 67.8405 143.229 67.1578 143.229C66.6458 143.229 66.1765 143.352 65.7498 143.597C65.3338 143.843 64.9978 144.184 64.7418 144.621C64.4965 145.048 64.3738 145.539 64.3738 146.093V150.701H63.5738V145.597C63.5738 144.808 63.3605 144.221 62.9338 143.837C62.5071 143.443 61.9525 143.245 61.2698 143.245C60.7898 143.245 60.3365 143.363 59.9098 143.597C59.4831 143.832 59.1365 144.168 58.8698 144.605C58.6031 145.043 58.4698 145.565 58.4698 146.173V150.701H57.6698ZM73.4292 141.149C73.2265 141.149 73.0612 141.091 72.9332 140.973C72.8158 140.845 72.7572 140.68 72.7572 140.477C72.7572 140.275 72.8158 140.115 72.9332 139.997C73.0612 139.869 73.2265 139.805 73.4292 139.805C73.6318 139.805 73.7918 139.869 73.9092 139.997C74.0372 140.115 74.1012 140.275 74.1012 140.477C74.1012 140.68 74.0372 140.845 73.9092 140.973C73.7918 141.091 73.6318 141.149 73.4292 141.149ZM73.8292 142.701V150.701H73.0292V142.701H73.8292ZM76.6854 150.701V142.701H77.4054L77.4534 144.301C77.6987 143.736 78.0881 143.304 78.6214 143.005C79.1547 142.696 79.7574 142.541 80.4294 142.541C81.3147 142.541 82.0454 142.792 82.6214 143.293C83.1974 143.795 83.4854 144.536 83.4854 145.517V150.701H82.6854V145.773C82.6854 144.899 82.4667 144.259 82.0294 143.853C81.5921 143.448 81.0321 143.245 80.3494 143.245C79.8481 143.245 79.3787 143.363 78.9414 143.597C78.5041 143.821 78.1521 144.152 77.8854 144.589C77.6187 145.027 77.4854 145.56 77.4854 146.189V150.701H76.6854ZM89.3679 150.861C88.6746 150.861 88.0506 150.696 87.4959 150.365C86.9519 150.035 86.5199 149.56 86.1999 148.941C85.8799 148.312 85.7199 147.565 85.7199 146.701C85.7199 145.827 85.8852 145.08 86.2159 144.461C86.5466 143.832 86.9892 143.357 87.5439 143.037C88.1092 142.707 88.7439 142.541 89.4479 142.541C90.1199 142.541 90.7119 142.712 91.2239 143.053C91.7359 143.395 92.0986 143.869 92.3119 144.477V139.021H93.1119V150.701H92.3919L92.3439 148.813C92.1412 149.464 91.7679 149.971 91.2239 150.333C90.6799 150.685 90.0612 150.861 89.3679 150.861ZM89.4639 150.157C90.0186 150.157 90.5092 150.019 90.9359 149.741C91.3732 149.453 91.7092 149.048 91.9439 148.525C92.1892 147.992 92.3119 147.363 92.3119 146.637C92.3119 145.592 92.0452 144.765 91.5119 144.157C90.9892 143.549 90.3172 143.245 89.4959 143.245C88.5786 143.245 87.8532 143.555 87.3199 144.173C86.7866 144.792 86.5199 145.635 86.5199 146.701C86.5199 147.768 86.7812 148.611 87.3039 149.229C87.8372 149.848 88.5572 150.157 89.4639 150.157ZM99.2307 150.861C98.4947 150.861 97.8387 150.696 97.2627 150.365C96.6867 150.035 96.2333 149.56 95.9027 148.941C95.5827 148.312 95.4227 147.565 95.4227 146.701C95.4227 145.837 95.5827 145.096 95.9027 144.477C96.2227 143.848 96.66 143.368 97.2147 143.037C97.78 142.707 98.42 142.541 99.1347 142.541C99.86 142.541 100.479 142.701 100.991 143.021C101.513 143.341 101.908 143.789 102.175 144.365C102.452 144.931 102.591 145.587 102.591 146.333C102.591 146.44 102.585 146.541 102.575 146.637C102.575 146.723 102.569 146.797 102.559 146.861H96.2067C96.2387 147.896 96.5267 148.707 97.0707 149.293C97.6253 149.869 98.34 150.157 99.2147 150.157C99.8333 150.157 100.361 150.024 100.799 149.757C101.247 149.491 101.593 149.123 101.839 148.653L102.479 149.021C102.18 149.587 101.748 150.035 101.183 150.365C100.628 150.696 99.9773 150.861 99.2307 150.861ZM99.1187 143.245C98.34 143.245 97.684 143.501 97.1507 144.013C96.628 144.515 96.3187 145.224 96.2227 146.141H101.807C101.775 145.256 101.519 144.552 101.039 144.029C100.569 143.507 99.9293 143.245 99.1187 143.245ZM104.873 150.701V142.701H105.545L105.641 144.365C105.844 143.821 106.164 143.384 106.601 143.053C107.049 142.712 107.593 142.541 108.233 142.541C108.66 142.541 108.996 142.632 109.241 142.813L109.049 143.517C108.932 143.443 108.804 143.384 108.665 143.341C108.526 143.299 108.318 143.277 108.041 143.277C107.636 143.277 107.252 143.405 106.889 143.661C106.526 143.907 106.233 144.253 106.009 144.701C105.785 145.139 105.673 145.645 105.673 146.221V150.701H104.873ZM118.249 150.861C117.438 150.861 116.718 150.696 116.089 150.365C115.47 150.035 115.033 149.56 114.777 148.941L115.465 148.477C115.646 149.021 115.987 149.437 116.489 149.725C116.99 150.013 117.598 150.157 118.313 150.157C119.006 150.157 119.555 150.019 119.961 149.741C120.366 149.464 120.569 149.096 120.569 148.637C120.569 148.328 120.467 148.061 120.265 147.837C120.073 147.603 119.705 147.427 119.161 147.309L117.289 146.909C116.531 146.749 115.987 146.493 115.657 146.141C115.326 145.779 115.161 145.341 115.161 144.829C115.161 144.413 115.289 144.035 115.545 143.693C115.801 143.341 116.153 143.064 116.601 142.861C117.059 142.648 117.593 142.541 118.201 142.541C119.001 142.541 119.662 142.701 120.185 143.021C120.707 143.331 121.075 143.8 121.289 144.429L120.617 144.861C120.457 144.296 120.158 143.885 119.721 143.629C119.283 143.373 118.777 143.245 118.201 143.245C117.518 143.245 116.974 143.395 116.569 143.693C116.163 143.981 115.961 144.344 115.961 144.781C115.961 145.091 116.062 145.373 116.265 145.629C116.478 145.875 116.862 146.056 117.417 146.173L119.337 146.589C120.083 146.749 120.606 146.995 120.905 147.325C121.214 147.645 121.369 148.045 121.369 148.525C121.369 149.24 121.081 149.811 120.505 150.237C119.939 150.653 119.187 150.861 118.249 150.861ZM126.855 142.541C127.666 142.541 128.343 142.733 128.887 143.117C129.442 143.491 129.842 144.019 130.087 144.701L129.335 145.053C129.164 144.477 128.866 144.035 128.439 143.725C128.023 143.405 127.49 143.245 126.839 143.245C125.954 143.245 125.239 143.555 124.695 144.173C124.151 144.781 123.879 145.624 123.879 146.701C123.879 147.779 124.146 148.627 124.679 149.245C125.223 149.853 125.938 150.157 126.823 150.157C127.495 150.157 128.066 149.992 128.535 149.661C129.015 149.32 129.314 148.851 129.431 148.253L130.167 148.509C129.954 149.235 129.548 149.811 128.951 150.237C128.364 150.653 127.66 150.861 126.839 150.861C126.103 150.861 125.452 150.696 124.887 150.365C124.322 150.035 123.879 149.56 123.559 148.941C123.239 148.312 123.079 147.565 123.079 146.701C123.079 145.837 123.239 145.096 123.559 144.477C123.89 143.848 124.338 143.368 124.903 143.037C125.479 142.707 126.13 142.541 126.855 142.541ZM132.31 150.701V142.701H132.982L133.078 144.365C133.281 143.821 133.601 143.384 134.038 143.053C134.486 142.712 135.03 142.541 135.67 142.541C136.097 142.541 136.433 142.632 136.678 142.813L136.486 143.517C136.369 143.443 136.241 143.384 136.102 143.341C135.964 143.299 135.756 143.277 135.478 143.277C135.073 143.277 134.689 143.405 134.326 143.661C133.964 143.907 133.67 144.253 133.446 144.701C133.222 145.139 133.11 145.645 133.11 146.221V150.701H132.31ZM141.246 150.861C140.51 150.861 139.854 150.696 139.278 150.365C138.702 150.035 138.249 149.56 137.918 148.941C137.598 148.312 137.438 147.565 137.438 146.701C137.438 145.837 137.598 145.096 137.918 144.477C138.238 143.848 138.676 143.368 139.23 143.037C139.796 142.707 140.436 142.541 141.15 142.541C141.876 142.541 142.494 142.701 143.006 143.021C143.529 143.341 143.924 143.789 144.19 144.365C144.468 144.931 144.606 145.587 144.606 146.333C144.606 146.44 144.601 146.541 144.59 146.637C144.59 146.723 144.585 146.797 144.574 146.861H138.222C138.254 147.896 138.542 148.707 139.086 149.293C139.641 149.869 140.356 150.157 141.23 150.157C141.849 150.157 142.377 150.024 142.814 149.757C143.262 149.491 143.609 149.123 143.854 148.653L144.494 149.021C144.196 149.587 143.764 150.035 143.198 150.365C142.644 150.696 141.993 150.861 141.246 150.861ZM141.134 143.245C140.356 143.245 139.7 143.501 139.166 144.013C138.644 144.515 138.334 145.224 138.238 146.141H143.822C143.79 145.256 143.534 144.552 143.054 144.029C142.585 143.507 141.945 143.245 141.134 143.245ZM150.153 150.861C149.417 150.861 148.761 150.696 148.185 150.365C147.609 150.035 147.155 149.56 146.825 148.941C146.505 148.312 146.345 147.565 146.345 146.701C146.345 145.837 146.505 145.096 146.825 144.477C147.145 143.848 147.582 143.368 148.137 143.037C148.702 142.707 149.342 142.541 150.057 142.541C150.782 142.541 151.401 142.701 151.913 143.021C152.435 143.341 152.83 143.789 153.097 144.365C153.374 144.931 153.513 145.587 153.513 146.333C153.513 146.44 153.507 146.541 153.497 146.637C153.497 146.723 153.491 146.797 153.481 146.861H147.129C147.161 147.896 147.449 148.707 147.993 149.293C148.547 149.869 149.262 150.157 150.137 150.157C150.755 150.157 151.283 150.024 151.721 149.757C152.169 149.491 152.515 149.123 152.761 148.653L153.401 149.021C153.102 149.587 152.67 150.035 152.105 150.365C151.55 150.696 150.899 150.861 150.153 150.861ZM150.041 143.245C149.262 143.245 148.606 143.501 148.073 144.013C147.55 144.515 147.241 145.224 147.145 146.141H152.729C152.697 145.256 152.441 144.552 151.961 144.029C151.491 143.507 150.851 143.245 150.041 143.245ZM155.795 150.701V142.701H156.515L156.563 144.301C156.808 143.736 157.197 143.304 157.731 143.005C158.264 142.696 158.867 142.541 159.539 142.541C160.424 142.541 161.155 142.792 161.731 143.293C162.307 143.795 162.595 144.536 162.595 145.517V150.701H161.795V145.773C161.795 144.899 161.576 144.259 161.139 143.853C160.701 143.448 160.141 143.245 159.459 143.245C158.957 143.245 158.488 143.363 158.051 143.597C157.613 143.821 157.261 144.152 156.995 144.589C156.728 145.027 156.595 145.56 156.595 146.189V150.701H155.795ZM180.206 142.701H181.086L178.366 150.701H177.566L175.038 143.741L172.558 150.701H171.758L169.038 142.701H169.918L172.174 149.741L174.654 142.701H175.47L177.966 149.741L180.206 142.701ZM183.351 141.149C183.148 141.149 182.983 141.091 182.855 140.973C182.738 140.845 182.679 140.68 182.679 140.477C182.679 140.275 182.738 140.115 182.855 139.997C182.983 139.869 183.148 139.805 183.351 139.805C183.554 139.805 183.714 139.869 183.831 139.997C183.959 140.115 184.023 140.275 184.023 140.477C184.023 140.68 183.959 140.845 183.831 140.973C183.714 141.091 183.554 141.149 183.351 141.149ZM183.751 142.701V150.701H182.951V142.701H183.751ZM190.927 142.701V143.389H187.935V148.589C187.935 149.613 188.405 150.125 189.343 150.125C189.642 150.125 189.903 150.077 190.127 149.981C190.362 149.875 190.57 149.725 190.751 149.533L191.055 150.189C190.842 150.392 190.581 150.557 190.271 150.685C189.973 150.803 189.631 150.861 189.247 150.861C188.618 150.861 188.106 150.691 187.711 150.349C187.327 149.997 187.135 149.448 187.135 148.701V143.389H185.535V142.701H187.135V140.701L187.935 140.477V142.701H190.927ZM192.639 150.701V139.021H193.439V144.333C193.673 143.768 194.052 143.331 194.575 143.021C195.097 142.701 195.7 142.541 196.383 142.541C197.268 142.541 197.999 142.792 198.575 143.293C199.151 143.784 199.439 144.52 199.439 145.501V150.701H198.639V145.757C198.639 144.883 198.42 144.243 197.983 143.837C197.545 143.432 196.985 143.229 196.303 143.229C195.801 143.229 195.332 143.347 194.895 143.581C194.457 143.816 194.105 144.152 193.839 144.589C193.572 145.027 193.439 145.56 193.439 146.189V150.701H192.639ZM211.224 142.701V143.389H208.232V148.589C208.232 149.613 208.701 150.125 209.64 150.125C209.939 150.125 210.2 150.077 210.424 149.981C210.659 149.875 210.867 149.725 211.048 149.533L211.352 150.189C211.139 150.392 210.877 150.557 210.568 150.685C210.269 150.803 209.928 150.861 209.544 150.861C208.915 150.861 208.403 150.691 208.008 150.349C207.624 149.997 207.432 149.448 207.432 148.701V143.389H205.832V142.701H207.432V140.701L208.232 140.477V142.701H211.224ZM212.935 150.701V139.021H213.735V144.333C213.97 143.768 214.349 143.331 214.871 143.021C215.394 142.701 215.997 142.541 216.679 142.541C217.565 142.541 218.295 142.792 218.871 143.293C219.447 143.784 219.735 144.52 219.735 145.501V150.701H218.935V145.757C218.935 144.883 218.717 144.243 218.279 143.837C217.842 143.432 217.282 143.229 216.599 143.229C216.098 143.229 215.629 143.347 215.191 143.581C214.754 143.816 214.402 144.152 214.135 144.589C213.869 145.027 213.735 145.56 213.735 146.189V150.701H212.935ZM225.762 150.861C225.026 150.861 224.37 150.696 223.794 150.365C223.218 150.035 222.765 149.56 222.434 148.941C222.114 148.312 221.954 147.565 221.954 146.701C221.954 145.837 222.114 145.096 222.434 144.477C222.754 143.848 223.191 143.368 223.746 143.037C224.311 142.707 224.951 142.541 225.666 142.541C226.391 142.541 227.01 142.701 227.522 143.021C228.045 143.341 228.439 143.789 228.706 144.365C228.983 144.931 229.122 145.587 229.122 146.333C229.122 146.44 229.117 146.541 229.106 146.637C229.106 146.723 229.101 146.797 229.09 146.861H222.738C222.77 147.896 223.058 148.707 223.602 149.293C224.157 149.869 224.871 150.157 225.746 150.157C226.365 150.157 226.893 150.024 227.33 149.757C227.778 149.491 228.125 149.123 228.37 148.653L229.01 149.021C228.711 149.587 228.279 150.035 227.714 150.365C227.159 150.696 226.509 150.861 225.762 150.861ZM225.65 143.245C224.871 143.245 224.215 143.501 223.682 144.013C223.159 144.515 222.85 145.224 222.754 146.141H228.338C228.306 145.256 228.05 144.552 227.57 144.029C227.101 143.507 226.461 143.245 225.65 143.245ZM239.684 142.541C240.43 142.541 241.086 142.707 241.652 143.037C242.228 143.368 242.676 143.848 242.996 144.477C243.326 145.096 243.492 145.837 243.492 146.701C243.492 147.565 243.326 148.312 242.996 148.941C242.676 149.56 242.228 150.035 241.652 150.365C241.086 150.696 240.43 150.861 239.684 150.861C238.937 150.861 238.276 150.696 237.7 150.365C237.134 150.035 236.686 149.56 236.356 148.941C236.036 148.312 235.876 147.565 235.876 146.701C235.876 145.837 236.036 145.096 236.356 144.477C236.686 143.848 237.134 143.368 237.7 143.037C238.276 142.707 238.937 142.541 239.684 142.541ZM239.684 143.229C238.777 143.229 238.046 143.539 237.492 144.157C236.948 144.776 236.676 145.624 236.676 146.701C236.676 147.779 236.948 148.627 237.492 149.245C238.046 149.864 238.777 150.173 239.684 150.173C240.59 150.173 241.316 149.864 241.86 149.245C242.414 148.627 242.692 147.779 242.692 146.701C242.692 145.624 242.414 144.776 241.86 144.157C241.316 143.539 240.59 143.229 239.684 143.229ZM245.779 154.061V142.701H246.499L246.547 144.525C246.782 143.917 247.166 143.437 247.699 143.085C248.232 142.723 248.856 142.541 249.571 142.541C250.254 142.541 250.867 142.707 251.411 143.037C251.955 143.368 252.387 143.843 252.707 144.461C253.027 145.08 253.187 145.827 253.187 146.701C253.187 147.565 253.027 148.312 252.707 148.941C252.387 149.56 251.95 150.035 251.395 150.365C250.851 150.696 250.232 150.861 249.539 150.861C248.856 150.861 248.254 150.691 247.731 150.349C247.208 150.008 246.824 149.544 246.579 148.957V154.061H245.779ZM249.443 150.157C250.35 150.157 251.064 149.848 251.587 149.229C252.12 148.611 252.387 147.768 252.387 146.701C252.387 145.635 252.126 144.792 251.603 144.173C251.08 143.555 250.371 143.245 249.475 143.245C248.91 143.245 248.408 143.389 247.971 143.677C247.544 143.955 247.203 144.355 246.947 144.877C246.702 145.389 246.579 145.997 246.579 146.701C246.579 147.405 246.702 148.019 246.947 148.541C247.192 149.053 247.528 149.453 247.955 149.741C248.392 150.019 248.888 150.157 249.443 150.157ZM259.677 142.701V143.389H256.685V148.589C256.685 149.613 257.155 150.125 258.093 150.125C258.392 150.125 258.653 150.077 258.877 149.981C259.112 149.875 259.32 149.725 259.501 149.533L259.805 150.189C259.592 150.392 259.331 150.557 259.021 150.685C258.723 150.803 258.381 150.861 257.997 150.861C257.368 150.861 256.856 150.691 256.461 150.349C256.077 149.997 255.885 149.448 255.885 148.701V143.389H254.285V142.701H255.885V140.701L256.685 140.477V142.701H259.677ZM261.789 141.149C261.586 141.149 261.421 141.091 261.293 140.973C261.175 140.845 261.117 140.68 261.117 140.477C261.117 140.275 261.175 140.115 261.293 139.997C261.421 139.869 261.586 139.805 261.789 139.805C261.991 139.805 262.151 139.869 262.269 139.997C262.397 140.115 262.461 140.275 262.461 140.477C262.461 140.68 262.397 140.845 262.269 140.973C262.151 141.091 261.991 141.149 261.789 141.149ZM262.189 142.701V150.701H261.389V142.701H262.189ZM268.309 142.541C269.055 142.541 269.711 142.707 270.277 143.037C270.853 143.368 271.301 143.848 271.621 144.477C271.951 145.096 272.117 145.837 272.117 146.701C272.117 147.565 271.951 148.312 271.621 148.941C271.301 149.56 270.853 150.035 270.277 150.365C269.711 150.696 269.055 150.861 268.309 150.861C267.562 150.861 266.901 150.696 266.325 150.365C265.759 150.035 265.311 149.56 264.981 148.941C264.661 148.312 264.501 147.565 264.501 146.701C264.501 145.837 264.661 145.096 264.981 144.477C265.311 143.848 265.759 143.368 266.325 143.037C266.901 142.707 267.562 142.541 268.309 142.541ZM268.309 143.229C267.402 143.229 266.671 143.539 266.117 144.157C265.573 144.776 265.301 145.624 265.301 146.701C265.301 147.779 265.573 148.627 266.117 149.245C266.671 149.864 267.402 150.173 268.309 150.173C269.215 150.173 269.941 149.864 270.485 149.245C271.039 148.627 271.317 147.779 271.317 146.701C271.317 145.624 271.039 144.776 270.485 144.157C269.941 143.539 269.215 143.229 268.309 143.229ZM274.404 150.701V142.701H275.124L275.172 144.301C275.417 143.736 275.807 143.304 276.34 143.005C276.873 142.696 277.476 142.541 278.148 142.541C279.033 142.541 279.764 142.792 280.34 143.293C280.916 143.795 281.204 144.536 281.204 145.517V150.701H280.404V145.773C280.404 144.899 280.185 144.259 279.748 143.853C279.311 143.448 278.751 143.245 278.068 143.245C277.567 143.245 277.097 143.363 276.66 143.597C276.223 143.821 275.871 144.152 275.604 144.589C275.337 145.027 275.204 145.56 275.204 146.189V150.701H274.404ZM292.845 142.701V143.389H290.029V150.701H289.229V143.389H287.629V142.701H289.229V141.357C289.229 140.632 289.432 140.051 289.837 139.613C290.243 139.165 290.835 138.941 291.613 138.941C291.912 138.941 292.168 138.979 292.381 139.053C292.605 139.128 292.781 139.235 292.909 139.373L292.685 140.013C292.429 139.779 292.093 139.661 291.677 139.661C291.155 139.661 290.749 139.816 290.461 140.125C290.173 140.424 290.029 140.861 290.029 141.437V142.701H292.845ZM297.356 142.541C298.102 142.541 298.758 142.707 299.324 143.037C299.9 143.368 300.348 143.848 300.668 144.477C300.998 145.096 301.164 145.837 301.164 146.701C301.164 147.565 300.998 148.312 300.668 148.941C300.348 149.56 299.9 150.035 299.324 150.365C298.758 150.696 298.102 150.861 297.356 150.861C296.609 150.861 295.948 150.696 295.372 150.365C294.806 150.035 294.358 149.56 294.028 148.941C293.708 148.312 293.548 147.565 293.548 146.701C293.548 145.837 293.708 145.096 294.028 144.477C294.358 143.848 294.806 143.368 295.372 143.037C295.948 142.707 296.609 142.541 297.356 142.541ZM297.356 143.229C296.449 143.229 295.718 143.539 295.164 144.157C294.62 144.776 294.348 145.624 294.348 146.701C294.348 147.779 294.62 148.627 295.164 149.245C295.718 149.864 296.449 150.173 297.356 150.173C298.262 150.173 298.988 149.864 299.532 149.245C300.086 148.627 300.364 147.779 300.364 146.701C300.364 145.624 300.086 144.776 299.532 144.157C298.988 143.539 298.262 143.229 297.356 143.229ZM303.451 150.701V142.701H304.123L304.219 144.365C304.422 143.821 304.742 143.384 305.179 143.053C305.627 142.712 306.171 142.541 306.811 142.541C307.238 142.541 307.574 142.632 307.819 142.813L307.627 143.517C307.51 143.443 307.382 143.384 307.243 143.341C307.104 143.299 306.896 143.277 306.619 143.277C306.214 143.277 305.83 143.405 305.467 143.661C305.104 143.907 304.811 144.253 304.587 144.701C304.363 145.139 304.251 145.645 304.251 146.221V150.701H303.451ZM53.1733 180.861C52.3413 180.861 51.648 180.627 51.0933 180.157C50.5493 179.688 50.2773 178.963 50.2773 177.981V172.701H51.0773V177.789C51.0773 178.621 51.2746 179.224 51.6693 179.597C52.0746 179.971 52.64 180.157 53.3653 180.157C53.9306 180.157 54.4266 180.029 54.8533 179.773C55.28 179.507 55.6053 179.16 55.8293 178.733C56.064 178.296 56.1813 177.816 56.1813 177.293V172.701H56.9813V180.701H56.2613L56.2293 179.053C55.9946 179.619 55.6106 180.061 55.0773 180.381C54.544 180.701 53.9093 180.861 53.1733 180.861ZM62.53 180.861C61.7194 180.861 60.9994 180.696 60.37 180.365C59.7514 180.035 59.314 179.56 59.058 178.941L59.746 178.477C59.9274 179.021 60.2687 179.437 60.77 179.725C61.2714 180.013 61.8794 180.157 62.594 180.157C63.2874 180.157 63.8367 180.019 64.242 179.741C64.6474 179.464 64.85 179.096 64.85 178.637C64.85 178.328 64.7487 178.061 64.546 177.837C64.354 177.603 63.986 177.427 63.442 177.309L61.57 176.909C60.8127 176.749 60.2687 176.493 59.938 176.141C59.6074 175.779 59.442 175.341 59.442 174.829C59.442 174.413 59.57 174.035 59.826 173.693C60.082 173.341 60.434 173.064 60.882 172.861C61.3407 172.648 61.874 172.541 62.482 172.541C63.282 172.541 63.9434 172.701 64.466 173.021C64.9887 173.331 65.3567 173.8 65.57 174.429L64.898 174.861C64.738 174.296 64.4394 173.885 64.002 173.629C63.5647 173.373 63.058 173.245 62.482 173.245C61.7994 173.245 61.2554 173.395 60.85 173.693C60.4447 173.981 60.242 174.344 60.242 174.781C60.242 175.091 60.3434 175.373 60.546 175.629C60.7594 175.875 61.1434 176.056 61.698 176.173L63.618 176.589C64.3647 176.749 64.8874 176.995 65.186 177.325C65.4954 177.645 65.65 178.045 65.65 178.525C65.65 179.24 65.362 179.811 64.786 180.237C64.2207 180.653 63.4687 180.861 62.53 180.861ZM71.1682 180.861C70.4322 180.861 69.7762 180.696 69.2002 180.365C68.6242 180.035 68.1708 179.56 67.8402 178.941C67.5202 178.312 67.3602 177.565 67.3602 176.701C67.3602 175.837 67.5202 175.096 67.8402 174.477C68.1602 173.848 68.5975 173.368 69.1522 173.037C69.7175 172.707 70.3575 172.541 71.0722 172.541C71.7975 172.541 72.4162 172.701 72.9282 173.021C73.4508 173.341 73.8455 173.789 74.1122 174.365C74.3895 174.931 74.5282 175.587 74.5282 176.333C74.5282 176.44 74.5228 176.541 74.5122 176.637C74.5122 176.723 74.5068 176.797 74.4962 176.861H68.1442C68.1762 177.896 68.4642 178.707 69.0082 179.293C69.5628 179.869 70.2775 180.157 71.1522 180.157C71.7708 180.157 72.2988 180.024 72.7362 179.757C73.1842 179.491 73.5308 179.123 73.7762 178.653L74.4162 179.021C74.1175 179.587 73.6855 180.035 73.1202 180.365C72.5655 180.696 71.9148 180.861 71.1682 180.861ZM71.0562 173.245C70.2775 173.245 69.6215 173.501 69.0882 174.013C68.5655 174.515 68.2562 175.224 68.1602 176.141H73.7442C73.7122 175.256 73.4562 174.552 72.9762 174.029C72.5068 173.507 71.8668 173.245 71.0562 173.245ZM76.8104 180.701V172.701H77.4824L77.5784 174.365C77.7811 173.821 78.1011 173.384 78.5384 173.053C78.9864 172.712 79.5304 172.541 80.1704 172.541C80.5971 172.541 80.9331 172.632 81.1784 172.813L80.9864 173.517C80.8691 173.443 80.7411 173.384 80.6024 173.341C80.4637 173.299 80.2557 173.277 79.9784 173.277C79.5731 173.277 79.1891 173.405 78.8264 173.661C78.4637 173.907 78.1704 174.253 77.9464 174.701C77.7224 175.139 77.6104 175.645 77.6104 176.221V180.701H76.8104ZM85.2957 180.861C84.485 180.861 83.765 180.696 83.1357 180.365C82.517 180.035 82.0797 179.56 81.8237 178.941L82.5117 178.477C82.693 179.021 83.0343 179.437 83.5357 179.725C84.037 180.013 84.645 180.157 85.3597 180.157C86.053 180.157 86.6023 180.019 87.0077 179.741C87.413 179.464 87.6157 179.096 87.6157 178.637C87.6157 178.328 87.5143 178.061 87.3117 177.837C87.1197 177.603 86.7517 177.427 86.2077 177.309L84.3357 176.909C83.5783 176.749 83.0343 176.493 82.7037 176.141C82.373 175.779 82.2077 175.341 82.2077 174.829C82.2077 174.413 82.3357 174.035 82.5917 173.693C82.8477 173.341 83.1997 173.064 83.6477 172.861C84.1063 172.648 84.6397 172.541 85.2477 172.541C86.0477 172.541 86.709 172.701 87.2317 173.021C87.7543 173.331 88.1223 173.8 88.3357 174.429L87.6637 174.861C87.5037 174.296 87.205 173.885 86.7677 173.629C86.3303 173.373 85.8237 173.245 85.2477 173.245C84.565 173.245 84.021 173.395 83.6157 173.693C83.2103 173.981 83.0077 174.344 83.0077 174.781C83.0077 175.091 83.109 175.373 83.3117 175.629C83.525 175.875 83.909 176.056 84.4637 176.173L86.3837 176.589C87.1303 176.749 87.653 176.995 87.9517 177.325C88.261 177.645 88.4157 178.045 88.4157 178.525C88.4157 179.24 88.1277 179.811 87.5517 180.237C86.9863 180.653 86.2343 180.861 85.2957 180.861ZM99.6929 172.701V173.389H96.7009V178.589C96.7009 179.613 97.1702 180.125 98.1089 180.125C98.4076 180.125 98.6689 180.077 98.8929 179.981C99.1276 179.875 99.3356 179.725 99.5169 179.533L99.8209 180.189C99.6076 180.392 99.3462 180.557 99.0369 180.685C98.7382 180.803 98.3969 180.861 98.0129 180.861C97.3836 180.861 96.8716 180.691 96.4769 180.349C96.0929 179.997 95.9009 179.448 95.9009 178.701V173.389H94.3009V172.701H95.9009V170.701L96.7009 170.477V172.701H99.6929ZM104.668 172.541C105.415 172.541 106.071 172.707 106.636 173.037C107.212 173.368 107.66 173.848 107.98 174.477C108.311 175.096 108.476 175.837 108.476 176.701C108.476 177.565 108.311 178.312 107.98 178.941C107.66 179.56 107.212 180.035 106.636 180.365C106.071 180.696 105.415 180.861 104.668 180.861C103.921 180.861 103.26 180.696 102.684 180.365C102.119 180.035 101.671 179.56 101.34 178.941C101.02 178.312 100.86 177.565 100.86 176.701C100.86 175.837 101.02 175.096 101.34 174.477C101.671 173.848 102.119 173.368 102.684 173.037C103.26 172.707 103.921 172.541 104.668 172.541ZM104.668 173.229C103.761 173.229 103.031 173.539 102.476 174.157C101.932 174.776 101.66 175.624 101.66 176.701C101.66 177.779 101.932 178.627 102.476 179.245C103.031 179.864 103.761 180.173 104.668 180.173C105.575 180.173 106.3 179.864 106.844 179.245C107.399 178.627 107.676 177.779 107.676 176.701C107.676 175.624 107.399 174.776 106.844 174.157C106.3 173.539 105.575 173.229 104.668 173.229ZM119.043 180.861C118.307 180.861 117.651 180.696 117.075 180.365C116.499 180.035 116.046 179.56 115.715 178.941C115.395 178.312 115.235 177.565 115.235 176.701C115.235 175.837 115.395 175.096 115.715 174.477C116.035 173.848 116.472 173.368 117.027 173.037C117.592 172.707 118.232 172.541 118.947 172.541C119.672 172.541 120.291 172.701 120.803 173.021C121.326 173.341 121.72 173.789 121.987 174.365C122.264 174.931 122.403 175.587 122.403 176.333C122.403 176.44 122.398 176.541 122.387 176.637C122.387 176.723 122.382 176.797 122.371 176.861H116.019C116.051 177.896 116.339 178.707 116.883 179.293C117.438 179.869 118.152 180.157 119.027 180.157C119.646 180.157 120.174 180.024 120.611 179.757C121.059 179.491 121.406 179.123 121.651 178.653L122.291 179.021C121.992 179.587 121.56 180.035 120.995 180.365C120.44 180.696 119.79 180.861 119.043 180.861ZM118.931 173.245C118.152 173.245 117.496 173.501 116.963 174.013C116.44 174.515 116.131 175.224 116.035 176.141H121.619C121.587 175.256 121.331 174.552 120.851 174.029C120.382 173.507 119.742 173.245 118.931 173.245ZM127.805 180.861C127.112 180.861 126.488 180.696 125.933 180.365C125.389 180.035 124.957 179.56 124.637 178.941C124.317 178.312 124.157 177.565 124.157 176.701C124.157 175.827 124.323 175.08 124.653 174.461C124.984 173.832 125.427 173.357 125.981 173.037C126.547 172.707 127.181 172.541 127.885 172.541C128.557 172.541 129.149 172.712 129.661 173.053C130.173 173.395 130.536 173.869 130.749 174.477V169.021H131.549V180.701H130.829L130.781 178.813C130.579 179.464 130.205 179.971 129.661 180.333C129.117 180.685 128.499 180.861 127.805 180.861ZM127.901 180.157C128.456 180.157 128.947 180.019 129.373 179.741C129.811 179.453 130.147 179.048 130.381 178.525C130.627 177.992 130.749 177.363 130.749 176.637C130.749 175.592 130.483 174.765 129.949 174.157C129.427 173.549 128.755 173.245 127.933 173.245C127.016 173.245 126.291 173.555 125.757 174.173C125.224 174.792 124.957 175.635 124.957 176.701C124.957 177.768 125.219 178.611 125.741 179.229C126.275 179.848 126.995 180.157 127.901 180.157ZM134.804 171.149C134.601 171.149 134.436 171.091 134.308 170.973C134.191 170.845 134.132 170.68 134.132 170.477C134.132 170.275 134.191 170.115 134.308 169.997C134.436 169.869 134.601 169.805 134.804 169.805C135.007 169.805 135.167 169.869 135.284 169.997C135.412 170.115 135.476 170.275 135.476 170.477C135.476 170.68 135.412 170.845 135.284 170.973C135.167 171.091 135.007 171.149 134.804 171.149ZM135.204 172.701V180.701H134.404V172.701H135.204ZM142.38 172.701V173.389H139.388V178.589C139.388 179.613 139.858 180.125 140.796 180.125C141.095 180.125 141.356 180.077 141.58 179.981C141.815 179.875 142.023 179.725 142.204 179.533L142.508 180.189C142.295 180.392 142.034 180.557 141.724 180.685C141.426 180.803 141.084 180.861 140.7 180.861C140.071 180.861 139.559 180.691 139.164 180.349C138.78 179.997 138.588 179.448 138.588 178.701V173.389H136.988V172.701H138.588V170.701L139.388 170.477V172.701H142.38ZM153.037 172.701V173.389H150.045V178.589C150.045 179.613 150.514 180.125 151.453 180.125C151.751 180.125 152.013 180.077 152.237 179.981C152.471 179.875 152.679 179.725 152.861 179.533L153.165 180.189C152.951 180.392 152.69 180.557 152.381 180.685C152.082 180.803 151.741 180.861 151.357 180.861C150.727 180.861 150.215 180.691 149.821 180.349C149.437 179.997 149.245 179.448 149.245 178.701V173.389H147.645V172.701H149.245V170.701L150.045 170.477V172.701H153.037ZM154.748 180.701V169.021H155.548V174.333C155.783 173.768 156.161 173.331 156.684 173.021C157.207 172.701 157.809 172.541 158.492 172.541C159.377 172.541 160.108 172.792 160.684 173.293C161.26 173.784 161.548 174.52 161.548 175.501V180.701H160.748V175.757C160.748 174.883 160.529 174.243 160.092 173.837C159.655 173.432 159.095 173.229 158.412 173.229C157.911 173.229 157.441 173.347 157.004 173.581C156.567 173.816 156.215 174.152 155.948 174.589C155.681 175.027 155.548 175.56 155.548 176.189V180.701H154.748ZM164.71 171.149C164.508 171.149 164.342 171.091 164.214 170.973C164.097 170.845 164.038 170.68 164.038 170.477C164.038 170.275 164.097 170.115 164.214 169.997C164.342 169.869 164.508 169.805 164.71 169.805C164.913 169.805 165.073 169.869 165.19 169.997C165.318 170.115 165.382 170.275 165.382 170.477C165.382 170.68 165.318 170.845 165.19 170.973C165.073 171.091 164.913 171.149 164.71 171.149ZM165.11 172.701V180.701H164.31V172.701H165.11ZM170.671 180.861C169.86 180.861 169.14 180.696 168.511 180.365C167.892 180.035 167.455 179.56 167.199 178.941L167.887 178.477C168.068 179.021 168.409 179.437 168.911 179.725C169.412 180.013 170.02 180.157 170.735 180.157C171.428 180.157 171.977 180.019 172.383 179.741C172.788 179.464 172.991 179.096 172.991 178.637C172.991 178.328 172.889 178.061 172.687 177.837C172.495 177.603 172.127 177.427 171.583 177.309L169.711 176.909C168.953 176.749 168.409 176.493 168.079 176.141C167.748 175.779 167.583 175.341 167.583 174.829C167.583 174.413 167.711 174.035 167.967 173.693C168.223 173.341 168.575 173.064 169.023 172.861C169.481 172.648 170.015 172.541 170.623 172.541C171.423 172.541 172.084 172.701 172.607 173.021C173.129 173.331 173.497 173.8 173.711 174.429L173.039 174.861C172.879 174.296 172.58 173.885 172.143 173.629C171.705 173.373 171.199 173.245 170.623 173.245C169.94 173.245 169.396 173.395 168.991 173.693C168.585 173.981 168.383 174.344 168.383 174.781C168.383 175.091 168.484 175.373 168.687 175.629C168.9 175.875 169.284 176.056 169.839 176.173L171.759 176.589C172.505 176.749 173.028 176.995 173.327 177.325C173.636 177.645 173.791 178.045 173.791 178.525C173.791 179.24 173.503 179.811 172.927 180.237C172.361 180.653 171.609 180.861 170.671 180.861ZM181.06 184.061V172.701H181.78L181.828 174.525C182.063 173.917 182.447 173.437 182.98 173.085C183.514 172.723 184.138 172.541 184.852 172.541C185.535 172.541 186.148 172.707 186.692 173.037C187.236 173.368 187.668 173.843 187.988 174.461C188.308 175.08 188.468 175.827 188.468 176.701C188.468 177.565 188.308 178.312 187.988 178.941C187.668 179.56 187.231 180.035 186.676 180.365C186.132 180.696 185.514 180.861 184.82 180.861C184.138 180.861 183.535 180.691 183.012 180.349C182.49 180.008 182.106 179.544 181.86 178.957V184.061H181.06ZM184.724 180.157C185.631 180.157 186.346 179.848 186.868 179.229C187.402 178.611 187.668 177.768 187.668 176.701C187.668 175.635 187.407 174.792 186.884 174.173C186.362 173.555 185.652 173.245 184.756 173.245C184.191 173.245 183.69 173.389 183.252 173.677C182.826 173.955 182.484 174.355 182.228 174.877C181.983 175.389 181.86 175.997 181.86 176.701C181.86 177.405 181.983 178.019 182.228 178.541C182.474 179.053 182.81 179.453 183.236 179.741C183.674 180.019 184.17 180.157 184.724 180.157ZM190.779 180.701V172.701H191.451L191.547 174.365C191.75 173.821 192.07 173.384 192.507 173.053C192.955 172.712 193.499 172.541 194.139 172.541C194.566 172.541 194.902 172.632 195.147 172.813L194.955 173.517C194.838 173.443 194.71 173.384 194.571 173.341C194.432 173.299 194.224 173.277 193.947 173.277C193.542 173.277 193.158 173.405 192.795 173.661C192.432 173.907 192.139 174.253 191.915 174.701C191.691 175.139 191.579 175.645 191.579 176.221V180.701H190.779ZM197.226 171.149C197.023 171.149 196.858 171.091 196.73 170.973C196.613 170.845 196.554 170.68 196.554 170.477C196.554 170.275 196.613 170.115 196.73 169.997C196.858 169.869 197.023 169.805 197.226 169.805C197.429 169.805 197.589 169.869 197.706 169.997C197.834 170.115 197.898 170.275 197.898 170.477C197.898 170.68 197.834 170.845 197.706 170.973C197.589 171.091 197.429 171.149 197.226 171.149ZM197.626 172.701V180.701H196.826V172.701H197.626ZM203.746 172.541C204.493 172.541 205.149 172.707 205.714 173.037C206.29 173.368 206.738 173.848 207.058 174.477C207.389 175.096 207.554 175.837 207.554 176.701C207.554 177.565 207.389 178.312 207.058 178.941C206.738 179.56 206.29 180.035 205.714 180.365C205.149 180.696 204.493 180.861 203.746 180.861C203 180.861 202.338 180.696 201.762 180.365C201.197 180.035 200.749 179.56 200.418 178.941C200.098 178.312 199.938 177.565 199.938 176.701C199.938 175.837 200.098 175.096 200.418 174.477C200.749 173.848 201.197 173.368 201.762 173.037C202.338 172.707 203 172.541 203.746 172.541ZM203.746 173.229C202.84 173.229 202.109 173.539 201.554 174.157C201.01 174.776 200.738 175.624 200.738 176.701C200.738 177.779 201.01 178.627 201.554 179.245C202.109 179.864 202.84 180.173 203.746 180.173C204.653 180.173 205.378 179.864 205.922 179.245C206.477 178.627 206.754 177.779 206.754 176.701C206.754 175.624 206.477 174.776 205.922 174.157C205.378 173.539 204.653 173.229 203.746 173.229ZM209.842 180.701V172.701H210.514L210.61 174.365C210.812 173.821 211.132 173.384 211.57 173.053C212.018 172.712 212.562 172.541 213.202 172.541C213.628 172.541 213.964 172.632 214.21 172.813L214.018 173.517C213.9 173.443 213.772 173.384 213.634 173.341C213.495 173.299 213.287 173.277 213.01 173.277C212.604 173.277 212.22 173.405 211.858 173.661C211.495 173.907 211.202 174.253 210.978 174.701C210.754 175.139 210.642 175.645 210.642 176.221V180.701H209.842ZM224.521 172.701V173.389H221.529V178.589C221.529 179.613 221.998 180.125 222.937 180.125C223.236 180.125 223.497 180.077 223.721 179.981C223.956 179.875 224.164 179.725 224.345 179.533L224.649 180.189C224.436 180.392 224.174 180.557 223.865 180.685C223.566 180.803 223.225 180.861 222.841 180.861C222.212 180.861 221.7 180.691 221.305 180.349C220.921 179.997 220.729 179.448 220.729 178.701V173.389H219.129V172.701H220.729V170.701L221.529 170.477V172.701H224.521ZM229.496 172.541C230.243 172.541 230.899 172.707 231.464 173.037C232.04 173.368 232.488 173.848 232.808 174.477C233.139 175.096 233.304 175.837 233.304 176.701C233.304 177.565 233.139 178.312 232.808 178.941C232.488 179.56 232.04 180.035 231.464 180.365C230.899 180.696 230.243 180.861 229.496 180.861C228.75 180.861 228.088 180.696 227.512 180.365C226.947 180.035 226.499 179.56 226.168 178.941C225.848 178.312 225.688 177.565 225.688 176.701C225.688 175.837 225.848 175.096 226.168 174.477C226.499 173.848 226.947 173.368 227.512 173.037C228.088 172.707 228.75 172.541 229.496 172.541ZM229.496 173.229C228.59 173.229 227.859 173.539 227.304 174.157C226.76 174.776 226.488 175.624 226.488 176.701C226.488 177.779 226.76 178.627 227.304 179.245C227.859 179.864 228.59 180.173 229.496 180.173C230.403 180.173 231.128 179.864 231.672 179.245C232.227 178.627 232.504 177.779 232.504 176.701C232.504 175.624 232.227 174.776 231.672 174.157C231.128 173.539 230.403 173.229 229.496 173.229ZM243.311 180.861C242.501 180.861 241.781 180.696 241.151 180.365C240.533 180.035 240.095 179.56 239.839 178.941L240.527 178.477C240.709 179.021 241.05 179.437 241.551 179.725C242.053 180.013 242.661 180.157 243.375 180.157C244.069 180.157 244.618 180.019 245.023 179.741C245.429 179.464 245.631 179.096 245.631 178.637C245.631 178.328 245.53 178.061 245.327 177.837C245.135 177.603 244.767 177.427 244.223 177.309L242.351 176.909C241.594 176.749 241.05 176.493 240.719 176.141C240.389 175.779 240.223 175.341 240.223 174.829C240.223 174.413 240.351 174.035 240.607 173.693C240.863 173.341 241.215 173.064 241.663 172.861C242.122 172.648 242.655 172.541 243.263 172.541C244.063 172.541 244.725 172.701 245.247 173.021C245.77 173.331 246.138 173.8 246.351 174.429L245.679 174.861C245.519 174.296 245.221 173.885 244.783 173.629C244.346 173.373 243.839 173.245 243.263 173.245C242.581 173.245 242.037 173.395 241.631 173.693C241.226 173.981 241.023 174.344 241.023 174.781C241.023 175.091 241.125 175.373 241.327 175.629C241.541 175.875 241.925 176.056 242.479 176.173L244.399 176.589C245.146 176.749 245.669 176.995 245.967 177.325C246.277 177.645 246.431 178.045 246.431 178.525C246.431 179.24 246.143 179.811 245.567 180.237C245.002 180.653 244.25 180.861 243.311 180.861ZM251.949 180.861C251.213 180.861 250.557 180.696 249.981 180.365C249.405 180.035 248.952 179.56 248.621 178.941C248.301 178.312 248.141 177.565 248.141 176.701C248.141 175.837 248.301 175.096 248.621 174.477C248.941 173.848 249.379 173.368 249.933 173.037C250.499 172.707 251.139 172.541 251.853 172.541C252.579 172.541 253.197 172.701 253.709 173.021C254.232 173.341 254.627 173.789 254.893 174.365C255.171 174.931 255.309 175.587 255.309 176.333C255.309 176.44 255.304 176.541 255.293 176.637C255.293 176.723 255.288 176.797 255.277 176.861H248.925C248.957 177.896 249.245 178.707 249.789 179.293C250.344 179.869 251.059 180.157 251.933 180.157C252.552 180.157 253.08 180.024 253.517 179.757C253.965 179.491 254.312 179.123 254.557 178.653L255.197 179.021C254.899 179.587 254.467 180.035 253.901 180.365C253.347 180.696 252.696 180.861 251.949 180.861ZM251.837 173.245C251.059 173.245 250.403 173.501 249.869 174.013C249.347 174.515 249.037 175.224 248.941 176.141H254.525C254.493 175.256 254.237 174.552 253.757 174.029C253.288 173.507 252.648 173.245 251.837 173.245ZM257.592 180.701V172.701H258.312L258.36 174.301C258.605 173.736 258.994 173.304 259.528 173.005C260.061 172.696 260.664 172.541 261.336 172.541C262.221 172.541 262.952 172.792 263.528 173.293C264.104 173.795 264.392 174.536 264.392 175.517V180.701H263.592V175.773C263.592 174.899 263.373 174.259 262.936 173.853C262.498 173.448 261.938 173.245 261.256 173.245C260.754 173.245 260.285 173.363 259.848 173.597C259.41 173.821 259.058 174.152 258.792 174.589C258.525 175.027 258.392 175.56 258.392 176.189V180.701H257.592ZM270.274 180.861C269.581 180.861 268.957 180.696 268.402 180.365C267.858 180.035 267.426 179.56 267.106 178.941C266.786 178.312 266.626 177.565 266.626 176.701C266.626 175.827 266.791 175.08 267.122 174.461C267.453 173.832 267.895 173.357 268.45 173.037C269.015 172.707 269.65 172.541 270.354 172.541C271.026 172.541 271.618 172.712 272.13 173.053C272.642 173.395 273.005 173.869 273.218 174.477V169.021H274.018V180.701H273.298L273.25 178.813C273.047 179.464 272.674 179.971 272.13 180.333C271.586 180.685 270.967 180.861 270.274 180.861ZM270.37 180.157C270.925 180.157 271.415 180.019 271.842 179.741C272.279 179.453 272.615 179.048 272.85 178.525C273.095 177.992 273.218 177.363 273.218 176.637C273.218 175.592 272.951 174.765 272.418 174.157C271.895 173.549 271.223 173.245 270.402 173.245C269.485 173.245 268.759 173.555 268.226 174.173C267.693 174.792 267.426 175.635 267.426 176.701C267.426 177.768 267.687 178.611 268.21 179.229C268.743 179.848 269.463 180.157 270.37 180.157ZM277.273 171.149C277.07 171.149 276.905 171.091 276.777 170.973C276.66 170.845 276.601 170.68 276.601 170.477C276.601 170.275 276.66 170.115 276.777 169.997C276.905 169.869 277.07 169.805 277.273 169.805C277.476 169.805 277.636 169.869 277.753 169.997C277.881 170.115 277.945 170.275 277.945 170.477C277.945 170.68 277.881 170.845 277.753 170.973C277.636 171.091 277.476 171.149 277.273 171.149ZM277.673 172.701V180.701H276.873V172.701H277.673ZM280.529 180.701V172.701H281.249L281.297 174.301C281.542 173.736 281.932 173.304 282.465 173.005C282.998 172.696 283.601 172.541 284.273 172.541C285.158 172.541 285.889 172.792 286.465 173.293C287.041 173.795 287.329 174.536 287.329 175.517V180.701H286.529V175.773C286.529 174.899 286.31 174.259 285.873 173.853C285.436 173.448 284.876 173.245 284.193 173.245C283.692 173.245 283.222 173.363 282.785 173.597C282.348 173.821 281.996 174.152 281.729 174.589C281.462 175.027 281.329 175.56 281.329 176.189V180.701H280.529ZM294.188 179.885C294.977 179.885 295.596 180.056 296.044 180.397C296.492 180.728 296.716 181.165 296.716 181.709C296.716 182.2 296.55 182.627 296.22 182.989C295.9 183.363 295.452 183.645 294.876 183.837C294.31 184.04 293.67 184.141 292.956 184.141C291.74 184.141 290.812 183.933 290.172 183.517C289.542 183.112 289.228 182.6 289.228 181.981C289.228 181.576 289.361 181.219 289.628 180.909C289.894 180.6 290.284 180.387 290.796 180.269C290.518 180.163 290.278 180.003 290.076 179.789C289.884 179.576 289.788 179.288 289.788 178.925C289.788 178.563 289.9 178.248 290.124 177.981C290.358 177.715 290.678 177.528 291.084 177.421C290.614 177.208 290.252 176.909 289.996 176.525C289.74 176.131 289.612 175.672 289.612 175.149C289.612 174.637 289.745 174.184 290.012 173.789C290.289 173.395 290.668 173.091 291.148 172.877C291.638 172.653 292.204 172.541 292.844 172.541C293.558 172.541 294.177 172.68 294.7 172.957C294.764 172.435 294.972 172.019 295.324 171.709C295.686 171.389 296.129 171.229 296.652 171.229H296.716L296.908 171.933H296.828C296.337 171.933 295.953 172.056 295.676 172.301C295.398 172.536 295.244 172.872 295.212 173.309C295.766 173.789 296.044 174.403 296.044 175.149C296.044 175.672 295.91 176.131 295.644 176.525C295.377 176.92 294.998 177.229 294.508 177.453C294.028 177.667 293.473 177.773 292.844 177.773C292.47 177.773 292.124 177.736 291.804 177.661C291.409 177.725 291.094 177.859 290.86 178.061C290.636 178.253 290.524 178.499 290.524 178.797C290.524 179.16 290.662 179.432 290.94 179.613C291.228 179.795 291.59 179.885 292.028 179.885H294.188ZM292.844 173.197C292.129 173.197 291.548 173.379 291.1 173.741C290.662 174.093 290.444 174.563 290.444 175.149C290.444 175.736 290.662 176.211 291.1 176.573C291.548 176.936 292.129 177.117 292.844 177.117C293.537 177.117 294.108 176.936 294.556 176.573C295.004 176.211 295.228 175.736 295.228 175.149C295.228 174.563 295.004 174.093 294.556 173.741C294.108 173.379 293.537 173.197 292.844 173.197ZM292.956 183.469C293.894 183.469 294.63 183.309 295.164 182.989C295.697 182.669 295.964 182.275 295.964 181.805C295.964 181.432 295.798 181.133 295.468 180.909C295.148 180.685 294.657 180.573 293.996 180.573H291.724C291.222 180.573 290.806 180.691 290.476 180.925C290.145 181.16 289.98 181.475 289.98 181.869C289.98 182.339 290.241 182.723 290.764 183.021C291.297 183.32 292.028 183.469 292.956 183.469ZM298.662 179.389C298.875 179.389 299.046 179.459 299.174 179.597C299.313 179.725 299.382 179.896 299.382 180.109C299.382 180.323 299.313 180.499 299.174 180.637C299.046 180.765 298.875 180.829 298.662 180.829C298.449 180.829 298.273 180.765 298.134 180.637C298.006 180.499 297.942 180.323 297.942 180.109C297.942 179.896 298.006 179.725 298.134 179.597C298.273 179.459 298.449 179.389 298.662 179.389Z" fill="white"/>
<path d="M134.039 71.8H136.119V83H134.039V71.8ZM144.092 82.536C143.858 82.728 143.57 82.872 143.228 82.968C142.898 83.064 142.546 83.112 142.172 83.112C141.234 83.112 140.508 82.8667 139.996 82.376C139.484 81.8853 139.228 81.1707 139.228 80.232V76.12H137.82V74.52H139.228V72.568H141.228V74.52H143.516V76.12H141.228V80.184C141.228 80.6 141.33 80.92 141.532 81.144C141.735 81.3573 142.028 81.464 142.412 81.464C142.86 81.464 143.234 81.3467 143.532 81.112L144.092 82.536ZM153.488 78.776C153.488 78.9147 153.478 79.112 153.456 79.368H146.752C146.87 79.9973 147.174 80.4987 147.664 80.872C148.166 81.2347 148.784 81.416 149.52 81.416C150.459 81.416 151.232 81.1067 151.84 80.488L152.912 81.72C152.528 82.1787 152.043 82.5253 151.456 82.76C150.87 82.9947 150.208 83.112 149.472 83.112C148.534 83.112 147.707 82.9253 146.992 82.552C146.278 82.1787 145.723 81.6613 145.328 81C144.944 80.328 144.752 79.5707 144.752 78.728C144.752 77.896 144.939 77.1493 145.312 76.488C145.696 75.816 146.224 75.2933 146.896 74.92C147.568 74.5467 148.326 74.36 149.168 74.36C150 74.36 150.742 74.5467 151.392 74.92C152.054 75.2827 152.566 75.8 152.928 76.472C153.302 77.1333 153.488 77.9013 153.488 78.776ZM149.168 75.96C148.528 75.96 147.984 76.152 147.536 76.536C147.099 76.9093 146.832 77.4107 146.736 78.04H151.584C151.499 77.4213 151.238 76.92 150.8 76.536C150.363 76.152 149.819 75.96 149.168 75.96ZM157.313 75.704C157.889 74.808 158.903 74.36 160.353 74.36V76.264C160.183 76.232 160.028 76.216 159.889 76.216C159.111 76.216 158.503 76.4453 158.065 76.904C157.628 77.352 157.409 78.0027 157.409 78.856V83H155.409V74.456H157.313V75.704ZM165.267 74.36C166.526 74.36 167.486 74.664 168.147 75.272C168.819 75.8693 169.155 76.776 169.155 77.992V83H167.267V81.96C167.022 82.3333 166.67 82.6213 166.211 82.824C165.763 83.016 165.219 83.112 164.579 83.112C163.939 83.112 163.379 83.0053 162.899 82.792C162.419 82.568 162.046 82.264 161.779 81.88C161.523 81.4853 161.395 81.0427 161.395 80.552C161.395 79.784 161.678 79.1707 162.243 78.712C162.819 78.2427 163.72 78.008 164.947 78.008H167.155V77.88C167.155 77.2827 166.974 76.824 166.611 76.504C166.259 76.184 165.731 76.024 165.027 76.024C164.547 76.024 164.072 76.0987 163.603 76.248C163.144 76.3973 162.755 76.6053 162.435 76.872L161.651 75.416C162.099 75.0747 162.638 74.8133 163.267 74.632C163.896 74.4507 164.563 74.36 165.267 74.36ZM164.995 81.656C165.496 81.656 165.939 81.544 166.323 81.32C166.718 81.0853 166.995 80.7547 167.155 80.328V79.336H165.091C163.939 79.336 163.363 79.7147 163.363 80.472C163.363 80.8347 163.507 81.1227 163.795 81.336C164.083 81.5493 164.483 81.656 164.995 81.656ZM176.858 82.536C176.623 82.728 176.335 82.872 175.994 82.968C175.663 83.064 175.311 83.112 174.938 83.112C173.999 83.112 173.274 82.8667 172.762 82.376C172.25 81.8853 171.994 81.1707 171.994 80.232V76.12H170.586V74.52H171.994V72.568H173.994V74.52H176.282V76.12H173.994V80.184C173.994 80.6 174.095 80.92 174.298 81.144C174.501 81.3573 174.794 81.464 175.178 81.464C175.626 81.464 175.999 81.3467 176.298 81.112L176.858 82.536ZM178.503 74.456H180.503V83H178.503V74.456ZM179.511 73.048C179.148 73.048 178.844 72.936 178.599 72.712C178.354 72.4773 178.231 72.1893 178.231 71.848C178.231 71.5067 178.354 71.224 178.599 71C178.844 70.7653 179.148 70.648 179.511 70.648C179.874 70.648 180.178 70.76 180.423 70.984C180.668 71.1973 180.791 71.4693 180.791 71.8C180.791 72.152 180.668 72.4507 180.423 72.696C180.188 72.9307 179.884 73.048 179.511 73.048ZM186.968 83.112C186.104 83.112 185.325 82.9253 184.632 82.552C183.939 82.1787 183.395 81.6613 183 81C182.616 80.328 182.424 79.5707 182.424 78.728C182.424 77.8853 182.616 77.1333 183 76.472C183.395 75.8107 183.939 75.2933 184.632 74.92C185.325 74.5467 186.104 74.36 186.968 74.36C187.843 74.36 188.627 74.5467 189.32 74.92C190.013 75.2933 190.552 75.8107 190.936 76.472C191.331 77.1333 191.528 77.8853 191.528 78.728C191.528 79.5707 191.331 80.328 190.936 81C190.552 81.6613 190.013 82.1787 189.32 82.552C188.627 82.9253 187.843 83.112 186.968 83.112ZM186.968 81.4C187.704 81.4 188.312 81.1547 188.792 80.664C189.272 80.1733 189.512 79.528 189.512 78.728C189.512 77.928 189.272 77.2827 188.792 76.792C188.312 76.3013 187.704 76.056 186.968 76.056C186.232 76.056 185.624 76.3013 185.144 76.792C184.675 77.2827 184.44 77.928 184.44 78.728C184.44 79.528 184.675 80.1733 185.144 80.664C185.624 81.1547 186.232 81.4 186.968 81.4ZM198.289 74.36C199.366 74.36 200.23 74.6747 200.881 75.304C201.531 75.9333 201.857 76.8667 201.857 78.104V83H199.857V78.36C199.857 77.6133 199.681 77.0533 199.329 76.68C198.977 76.296 198.475 76.104 197.825 76.104C197.089 76.104 196.507 76.328 196.081 76.776C195.654 77.2133 195.441 77.848 195.441 78.68V83H193.441V74.456H195.345V75.56C195.675 75.1653 196.091 74.8667 196.593 74.664C197.094 74.4613 197.659 74.36 198.289 74.36ZM212.976 76.424C214.01 76.552 214.8 76.904 215.344 77.48C215.888 78.056 216.16 78.776 216.16 79.64C216.16 80.2907 215.994 80.8827 215.664 81.416C215.333 81.9493 214.832 82.376 214.16 82.696C213.498 83.0053 212.688 83.16 211.728 83.16C210.928 83.16 210.154 83.048 209.408 82.824C208.672 82.5893 208.042 82.2693 207.52 81.864L208.416 80.248C208.821 80.5893 209.312 80.8613 209.888 81.064C210.474 81.256 211.077 81.352 211.696 81.352C212.432 81.352 213.008 81.2027 213.424 80.904C213.85 80.5947 214.064 80.1787 214.064 79.656C214.064 79.1333 213.861 78.728 213.456 78.44C213.061 78.1413 212.453 77.992 211.632 77.992H210.608V76.568L213.152 73.544H208.064V71.8H215.696V73.192L212.976 76.424Z" fill="white"/>
</svg>
