<svg width="600" height="80" viewBox="0 0 600 80" fill="none" xmlns="http://www.w3.org/2000/svg">
<path d="M28.728 59.288C19.752 59.288 13.104 56.744 8.784 51.656C7.248 49.832 6 47.408 5.04 44.384C4.08 41.36 3.6 37.688 3.6 33.368C3.6 29.048 4.296 25.184 5.688 21.776C7.128 18.32 9.072 15.656 11.52 13.784C16.272 10.28 22.008 8.528 28.728 8.528C30.648 8.528 32.52 8.696 34.344 9.032C36.168 9.32 37.536 9.632 38.448 9.968L39.744 10.472L39.528 11.192C36.264 9.896 32.664 9.248 28.728 9.248C23.64 9.248 19.392 10.904 15.984 14.216C13.392 16.664 11.568 20.264 10.512 25.016C9.888 27.704 9.576 30.992 9.576 34.88C9.576 38.768 10.128 42.368 11.232 45.68C12.336 48.944 13.584 51.368 14.976 52.952C16.416 54.536 18.144 55.808 20.16 56.768C22.176 57.68 23.784 58.208 24.984 58.352C26.184 58.496 27.624 58.568 29.304 58.568C31.032 58.568 32.976 58.4 35.136 58.064C37.296 57.728 38.928 57.416 40.032 57.128L41.688 56.624L41.904 57.344C38.256 58.64 33.864 59.288 28.728 59.288ZM77.0535 59C73.7895 59 71.5575 58.376 70.3575 57.128C69.2535 56.072 68.7015 55.16 68.7015 54.392V52.88C66.3495 57.152 62.5815 59.288 57.3975 59.288C51.3495 59.288 47.9175 56.552 47.1015 51.08C47.0055 50.504 46.9575 49.928 46.9575 49.352C46.9575 48.728 47.0535 48.056 47.2455 47.336C47.4375 46.616 47.9895 45.824 48.9015 44.96C50.7255 43.232 54.7335 42.176 60.9255 41.792C62.4615 41.648 63.8775 41.576 65.1735 41.576C66.4695 41.576 67.6455 41.624 68.7015 41.72V29.768C68.6055 29.72 68.6055 29.504 68.7015 29.12C68.7975 28.688 68.7015 28.16 68.4135 27.536C68.1735 26.864 67.8375 26.216 67.4055 25.592C66.9735 24.968 66.2055 24.44 65.1015 24.008C63.9975 23.528 62.5575 23.288 60.7815 23.288C59.0055 23.288 56.9175 23.624 54.5175 24.296C52.1655 24.92 50.4375 25.544 49.3335 26.168L49.0455 25.664C53.3175 23.696 57.6615 22.712 62.0775 22.712C67.0215 22.712 70.2855 23.6 71.8695 25.376C73.1175 26.768 73.7415 28.232 73.7415 29.768V53.888C73.7415 55.28 74.0055 56.36 74.5335 57.128C75.1095 57.848 75.6855 58.232 76.2615 58.28L77.0535 58.424H79.2855V59H77.0535ZM58.5495 58.712C61.0935 58.712 63.3735 57.848 65.3895 56.12C67.4535 54.344 68.5575 52.64 68.7015 51.008V42.296C67.4055 42.2 66.0855 42.152 64.7415 42.152C63.4455 42.152 62.1495 42.224 60.8535 42.368C57.2055 42.8 54.8295 43.616 53.7255 44.816C52.6215 46.016 52.0695 47.672 52.0695 49.784C52.0695 50.168 52.0935 50.6 52.1415 51.08C52.5735 56.168 54.7095 58.712 58.5495 58.712ZM96.9992 26.096V24.584C94.8392 25.448 92.8712 27.2 91.0952 29.84C89.3192 32.432 88.3832 34.88 88.2872 37.184V59H83.2472V23H88.2872V34.448C89.0552 31.664 90.5192 29.048 92.6792 26.6C94.8392 24.104 97.2872 22.808 100.023 22.712H100.311C101.271 22.712 102.063 23.048 102.687 23.72C103.359 24.344 103.695 25.136 103.695 26.096C103.695 27.056 103.359 27.848 102.687 28.472C102.063 29.096 101.271 29.408 100.311 29.408C99.3512 29.408 98.5592 29.096 97.9352 28.472C97.3112 27.848 96.9992 27.056 96.9992 26.096ZM116.466 59C114.498 59 112.986 58.568 111.93 57.704C110.922 56.84 110.394 55.976 110.346 55.112L110.274 53.888V23H115.314V53.888C115.314 55.28 115.578 56.36 116.106 57.128C116.682 57.848 117.234 58.232 117.762 58.28L118.626 58.424H120.858V59H116.466ZM110.706 14.936C110.13 14.36 109.842 13.64 109.842 12.776C109.842 11.912 110.13 11.192 110.706 10.616C111.282 9.992 112.002 9.68 112.866 9.68C113.73 9.68 114.45 9.992 115.026 10.616C115.65 11.192 115.962 11.912 115.962 12.776C115.962 13.64 115.65 14.36 115.026 14.936C114.45 15.512 113.73 15.8 112.866 15.8C112.002 15.8 111.282 15.512 110.706 14.936ZM155.104 59C153.136 59 151.624 58.568 150.568 57.704C149.56 56.84 149.032 55.976 148.984 55.112L148.912 53.888V31.28C148.912 27.488 147.928 25.064 145.96 24.008C144.952 23.528 143.704 23.288 142.216 23.288C139.144 23.288 136.384 24.512 133.936 26.96C131.488 29.36 130.264 31.52 130.264 33.44V59H125.224V23H130.264V31.208C131.08 29.144 132.592 27.224 134.8 25.448C137.008 23.624 139.432 22.712 142.072 22.712C144.712 22.712 146.848 22.976 148.48 23.504C150.16 23.984 151.384 24.68 152.152 25.592C153.352 27.08 153.952 29 153.952 31.352V53.888C153.952 55.28 154.216 56.36 154.744 57.128C155.32 57.848 155.896 58.232 156.472 58.28L157.264 58.424H159.496V59H155.104ZM167.315 41.432C167.315 47.384 168.347 51.752 170.411 54.536C172.523 57.32 175.283 58.712 178.691 58.712C183.491 58.712 187.763 57.992 191.507 56.552L191.723 57.056C187.883 58.544 183.539 59.288 178.691 59.288C173.891 59.288 169.979 57.848 166.955 54.968C163.931 52.088 162.419 47.648 162.419 41.648C162.419 35.648 164.003 30.992 167.171 27.68C170.339 24.368 174.371 22.712 179.267 22.712C183.203 22.712 186.515 23.888 189.203 26.24C191.891 28.592 193.235 32.072 193.235 36.68C193.235 36.92 193.235 37.16 193.235 37.4H167.531C167.387 38.696 167.315 40.04 167.315 41.432ZM188.339 36.824C188.291 32.216 187.403 28.808 185.675 26.6C183.947 24.392 181.715 23.288 178.979 23.288C176.243 23.288 173.795 24.488 171.635 26.888C169.523 29.288 168.179 32.6 167.603 36.824H188.339ZM246.432 23.432L246.864 23C247.056 23.096 247.296 23.384 247.584 23.864C247.92 24.344 248.112 24.776 248.16 25.16C248.256 25.544 248.304 25.904 248.304 26.24C248.304 27.536 248.016 28.856 247.44 30.2L233.616 59H232.896L219.504 23H224.544L235.56 52.808L246.72 30.2C247.296 29.192 247.584 27.992 247.584 26.6C247.584 25.208 247.2 24.152 246.432 23.432ZM282.014 59C278.75 59 276.518 58.376 275.318 57.128C274.214 56.072 273.662 55.16 273.662 54.392V52.88C271.31 57.152 267.542 59.288 262.358 59.288C256.31 59.288 252.878 56.552 252.062 51.08C251.966 50.504 251.918 49.928 251.918 49.352C251.918 48.728 252.014 48.056 252.206 47.336C252.398 46.616 252.95 45.824 253.862 44.96C255.686 43.232 259.694 42.176 265.886 41.792C267.422 41.648 268.838 41.576 270.134 41.576C271.43 41.576 272.606 41.624 273.662 41.72V29.768C273.566 29.72 273.566 29.504 273.662 29.12C273.758 28.688 273.662 28.16 273.374 27.536C273.134 26.864 272.798 26.216 272.366 25.592C271.934 24.968 271.166 24.44 270.062 24.008C268.958 23.528 267.518 23.288 265.742 23.288C263.966 23.288 261.878 23.624 259.478 24.296C257.126 24.92 255.398 25.544 254.294 26.168L254.006 25.664C258.278 23.696 262.622 22.712 267.038 22.712C271.982 22.712 275.246 23.6 276.83 25.376C278.078 26.768 278.702 28.232 278.702 29.768V53.888C278.702 55.28 278.966 56.36 279.494 57.128C280.07 57.848 280.646 58.232 281.222 58.28L282.014 58.424H284.246V59H282.014ZM263.51 58.712C266.054 58.712 268.334 57.848 270.35 56.12C272.414 54.344 273.518 52.64 273.662 51.008V42.296C272.366 42.2 271.046 42.152 269.702 42.152C268.406 42.152 267.11 42.224 265.814 42.368C262.166 42.8 259.79 43.616 258.686 44.816C257.582 46.016 257.03 47.672 257.03 49.784C257.03 50.168 257.054 50.6 257.102 51.08C257.534 56.168 259.67 58.712 263.51 58.712ZM318.088 59C316.12 59 314.608 58.568 313.552 57.704C312.544 56.84 312.016 55.976 311.968 55.112L311.896 53.888V31.28C311.896 27.488 310.912 25.064 308.944 24.008C307.936 23.528 306.688 23.288 305.2 23.288C302.128 23.288 299.368 24.512 296.92 26.96C294.472 29.36 293.248 31.52 293.248 33.44V59H288.208V23H293.248V31.208C294.064 29.144 295.576 27.224 297.784 25.448C299.992 23.624 302.416 22.712 305.056 22.712C307.696 22.712 309.832 22.976 311.464 23.504C313.144 23.984 314.368 24.68 315.136 25.592C316.336 27.08 316.936 29 316.936 31.352V53.888C316.936 55.28 317.2 56.36 317.728 57.128C318.304 57.848 318.88 58.232 319.456 58.28L320.248 58.424H322.48V59H318.088ZM376.35 11.624C371.982 9.944 367.854 9.104 363.966 9.104C360.126 9.104 357.126 9.92 354.966 11.552C352.806 13.184 351.726 15.44 351.726 18.32C351.726 21.824 353.55 24.536 357.198 26.456C358.83 27.272 360.606 28.04 362.526 28.76C364.494 29.432 366.462 30.2 368.43 31.064C370.398 31.928 372.198 32.912 373.83 34.016C375.462 35.12 376.782 36.656 377.79 38.624C378.798 40.544 379.302 43.016 379.302 46.04C379.302 49.016 378.462 51.56 376.782 53.672C375.102 55.784 373.062 57.224 370.662 57.992C368.31 58.712 365.55 59.072 362.382 59.072C356.478 59.072 351.438 57.608 347.262 54.68L347.622 54.104C349.206 55.352 351.246 56.384 353.742 57.2C356.286 57.968 358.878 58.352 361.518 58.352C365.406 58.352 368.718 57.464 371.454 55.688C374.238 53.864 375.63 51.2 375.63 47.696C375.63 43.856 373.806 40.856 370.158 38.696C368.526 37.736 366.726 36.848 364.758 36.032C362.838 35.216 360.894 34.376 358.926 33.512C356.958 32.6 355.158 31.592 353.526 30.488C349.878 28.088 348.054 24.68 348.054 20.264C348.054 16.76 349.23 13.928 351.582 11.768C353.934 9.56 357.462 8.456 362.166 8.456C366.918 8.456 371.742 9.272 376.638 10.904L376.35 11.624ZM393.821 59C389.597 59 386.933 57.896 385.829 55.688C385.589 55.208 385.469 54.776 385.469 54.392V5.072H390.509V53.888C390.509 55.28 390.773 56.36 391.301 57.128C391.877 57.848 392.453 58.232 393.029 58.28L393.821 58.424H396.053V59H393.821ZM429.811 59C426.547 59 424.315 58.376 423.115 57.128C422.011 56.072 421.459 55.16 421.459 54.392V52.88C419.107 57.152 415.339 59.288 410.155 59.288C404.107 59.288 400.675 56.552 399.859 51.08C399.763 50.504 399.715 49.928 399.715 49.352C399.715 48.728 399.811 48.056 400.003 47.336C400.195 46.616 400.747 45.824 401.659 44.96C403.483 43.232 407.491 42.176 413.683 41.792C415.219 41.648 416.635 41.576 417.931 41.576C419.227 41.576 420.403 41.624 421.459 41.72V29.768C421.363 29.72 421.363 29.504 421.459 29.12C421.555 28.688 421.459 28.16 421.171 27.536C420.931 26.864 420.595 26.216 420.163 25.592C419.731 24.968 418.963 24.44 417.859 24.008C416.755 23.528 415.315 23.288 413.539 23.288C411.763 23.288 409.675 23.624 407.275 24.296C404.923 24.92 403.195 25.544 402.091 26.168L401.803 25.664C406.075 23.696 410.419 22.712 414.835 22.712C419.779 22.712 423.043 23.6 424.627 25.376C425.875 26.768 426.499 28.232 426.499 29.768V53.888C426.499 55.28 426.763 56.36 427.291 57.128C427.867 57.848 428.443 58.232 429.019 58.28L429.811 58.424H432.043V59H429.811ZM411.307 58.712C413.851 58.712 416.131 57.848 418.147 56.12C420.211 54.344 421.315 52.64 421.459 51.008V42.296C420.163 42.2 418.843 42.152 417.499 42.152C416.203 42.152 414.907 42.224 413.611 42.368C409.963 42.8 407.587 43.616 406.483 44.816C405.379 46.016 404.827 47.672 404.827 49.784C404.827 50.168 404.851 50.6 404.899 51.08C405.331 56.168 407.467 58.712 411.307 58.712ZM435.645 42.296C435.645 36.056 437.157 31.232 440.181 27.824C443.205 24.416 447.741 22.712 453.789 22.712C458.253 22.712 462.789 23.504 467.397 25.088V59.864C467.349 71.288 462.357 77 452.421 77C446.949 77 442.269 75.224 438.381 71.672L438.885 71.24C443.013 74.696 447.525 76.424 452.421 76.424C459.045 76.424 462.357 70.904 462.357 59.864V52.736C461.445 54.416 459.933 55.904 457.821 57.2C455.709 58.496 453.213 59.144 450.333 59.144C440.541 58.904 435.645 53.288 435.645 42.296ZM450.405 58.568C453.621 58.568 456.381 57.704 458.685 55.976C460.989 54.248 462.213 52.544 462.357 50.864V25.448C458.901 24.008 455.973 23.288 453.573 23.288C449.301 23.288 446.085 24.968 443.925 28.328C441.765 31.64 440.685 36.296 440.685 42.296C440.685 53.144 443.925 58.568 450.405 58.568ZM477.674 41.432C477.674 47.384 478.706 51.752 480.77 54.536C482.882 57.32 485.642 58.712 489.05 58.712C493.85 58.712 498.122 57.992 501.866 56.552L502.082 57.056C498.242 58.544 493.898 59.288 489.05 59.288C484.25 59.288 480.338 57.848 477.314 54.968C474.29 52.088 472.778 47.648 472.778 41.648C472.778 35.648 474.362 30.992 477.53 27.68C480.698 24.368 484.73 22.712 489.626 22.712C493.562 22.712 496.874 23.888 499.562 26.24C502.25 28.592 503.594 32.072 503.594 36.68C503.594 36.92 503.594 37.16 503.594 37.4H477.89C477.746 38.696 477.674 40.04 477.674 41.432ZM498.698 36.824C498.65 32.216 497.762 28.808 496.034 26.6C494.306 24.392 492.074 23.288 489.338 23.288C486.602 23.288 484.154 24.488 481.994 26.888C479.882 29.288 478.538 32.6 477.962 36.824H498.698ZM520.28 26.096V24.584C518.12 25.448 516.152 27.2 514.376 29.84C512.6 32.432 511.664 34.88 511.568 37.184V59H506.528V23H511.568V34.448C512.336 31.664 513.8 29.048 515.96 26.6C518.12 24.104 520.568 22.808 523.304 22.712H523.592C524.552 22.712 525.344 23.048 525.968 23.72C526.64 24.344 526.976 25.136 526.976 26.096C526.976 27.056 526.64 27.848 525.968 28.472C525.344 29.096 524.552 29.408 523.592 29.408C522.632 29.408 521.84 29.096 521.216 28.472C520.592 27.848 520.28 27.056 520.28 26.096ZM535.12 41.432C535.12 47.384 536.152 51.752 538.216 54.536C540.328 57.32 543.088 58.712 546.496 58.712C551.296 58.712 555.568 57.992 559.312 56.552L559.528 57.056C555.688 58.544 551.344 59.288 546.496 59.288C541.696 59.288 537.784 57.848 534.76 54.968C531.736 52.088 530.224 47.648 530.224 41.648C530.224 35.648 531.808 30.992 534.976 27.68C538.144 24.368 542.176 22.712 547.072 22.712C551.008 22.712 554.32 23.888 557.008 26.24C559.696 28.592 561.04 32.072 561.04 36.68C561.04 36.92 561.04 37.16 561.04 37.4H535.336C535.192 38.696 535.12 40.04 535.12 41.432ZM556.144 36.824C556.096 32.216 555.208 28.808 553.48 26.6C551.752 24.392 549.52 23.288 546.784 23.288C544.048 23.288 541.6 24.488 539.44 26.888C537.328 29.288 535.984 32.6 535.408 36.824H556.144ZM593.854 59C591.886 59 590.374 58.568 589.318 57.704C588.31 56.84 587.782 55.976 587.734 55.112L587.662 53.888V31.28C587.662 27.488 586.678 25.064 584.71 24.008C583.702 23.528 582.454 23.288 580.966 23.288C577.894 23.288 575.134 24.512 572.686 26.96C570.238 29.36 569.014 31.52 569.014 33.44V59H563.974V23H569.014V31.208C569.83 29.144 571.342 27.224 573.55 25.448C575.758 23.624 578.182 22.712 580.822 22.712C583.462 22.712 585.598 22.976 587.23 23.504C588.91 23.984 590.134 24.68 590.902 25.592C592.102 27.08 592.702 29 592.702 31.352V53.888C592.702 55.28 592.966 56.36 593.494 57.128C594.07 57.848 594.646 58.232 595.222 58.28L596.014 58.424H598.246V59H593.854Z" fill="#1F2937"/>
</svg>
